<?xml version="1.0" encoding="UTF-8" standalone="no"?>
<!-- Generator: Adobe Illustrator 23.0.2, SVG Export Plug-In . SVG Version: 6.00 Build 0)  -->

<svg
   version="1.1"
   id="Layer_1"
   x="0px"
   y="0px"
   viewBox="0 0 512 512.04999"
   xml:space="preserve"
   sodipodi:docname="icon-color@2x.svg"
   width="512"
   height="512.04999"
   inkscape:version="1.2.1 (9c6d41e410, 2022-07-14)"
   xmlns:inkscape="http://www.inkscape.org/namespaces/inkscape"
   xmlns:sodipodi="http://sodipodi.sourceforge.net/DTD/sodipodi-0.dtd"
   xmlns="http://www.w3.org/2000/svg"
   xmlns:svg="http://www.w3.org/2000/svg"><defs
   id="defs204" /><sodipodi:namedview
   id="namedview202"
   pagecolor="#ffffff"
   bordercolor="#000000"
   borderopacity="0.25"
   inkscape:showpageshadow="2"
   inkscape:pageopacity="0.0"
   inkscape:pagecheckerboard="0"
   inkscape:deskcolor="#d1d1d1"
   showgrid="false"
   inkscape:zoom="0.31689453"
   inkscape:cx="563.27889"
   inkscape:cy="788.90601"
   inkscape:window-width="1600"
   inkscape:window-height="829"
   inkscape:window-x="-8"
   inkscape:window-y="-8"
   inkscape:window-maximized="1"
   inkscape:current-layer="Layer_1" />
<style
   type="text/css"
   id="style191">
	.st0{fill:#63B78F;}
</style>
    <g
   id="g199"
   transform="scale(0.5)">
	<title
   id="title193">icon@1x</title>
        <path
   class="st0"
   d="M 883.2,0 C 790.3,108.3 654.7,170.7 512,170.7 369.3,170.7 233.7,108.4 140.8,0 H 0 C 110.2,176.8 303.7,284.3 512,284.4 720.3,284.3 913.8,176.8 1024,0 Z"
   id="path195" />
        <path
   class="st0"
   d="M 881.5,341.1 C 775.4,341 687.9,424.1 682.5,530 v 0 19.8 0 c -2.6,77.1 -33.6,150.6 -87,206.2 19,27.6 29.3,60.1 29.8,93.6 v 5.8 c -1.9,30.1 -26.4,53.8 -56.5,54.8 H 455.2 c -30.1,0 -55,-23.6 -56.8,-53.6 v -4.2 c 0,-0.5 0,-1.1 0,-1.6 0.5,-33.4 10.9,-66 29.8,-93.5 C 374.8,701.6 343.9,628 341.4,550.9 V 529.7 C 335.6,424 248.3,341.3 142.4,341.2 H 114 V 455 h 28.4 c 43.9,0.1 80.6,33.4 84.8,77.1 0.6,5.5 0.6,11 0,16.5 1.6,82.7 27.2,163.1 73.8,231.5 -9.2,19.3 -14.6,40.2 -16,61.5 -0.3,4 -0.4,7.8 -0.4,11.7 0,94.2 76.3,170.6 170.5,170.8 h 113.7 c 72.2,-0.2 136.5,-45.7 160.7,-113.8 6.5,-18.3 9.8,-37.5 9.8,-56.9 0,-4 0,-8 -0.4,-11.7 -1.4,-21.4 -6.8,-42.3 -16,-61.6 46.8,-68.6 72.4,-149.4 73.8,-232.4 -0.5,-4.9 -0.5,-9.8 0,-14.6 3.7,-44.2 40.6,-78.2 84.9,-78.2 H 910 v -114 z"
   id="path197" />
</g>
</svg>
