<svg width="41" height="41" viewBox="0 0 41 41" fill="none" xmlns="http://www.w3.org/2000/svg">
    <rect width="41" height="41" fill="#FAFAFA"/>
    <circle cx="21" cy="20" r="16" fill="#63B78F"/>
    <path d="M13.9998 35.9209H8.2334V37.4861H13.9998V35.9209Z" fill="#414143"/>
    <path d="M35.0057 35.9209H29.2393V37.4861H35.0057V35.9209Z" fill="#414143"/>
    <path d="M8.66096 16.3564H6.56104V32.9961H8.66096V16.3564Z" fill="#414143"/>
    <path d="M9.73355 15.9033H5.61426V17.6741H9.73355V15.9033Z" fill="#B8C0BF"/>
    <path d="M7.5692 17.1384C11.1973 17.1384 14.1384 14.1973 14.1384 10.5692C14.1384 6.94113 11.1973 4 7.5692 4C3.94113 4 1 6.94113 1 10.5692C1 14.1973 3.94113 17.1384 7.5692 17.1384Z" fill="#B8C0BF"/>
    <path d="M7.56941 15.5734C10.333 15.5734 12.5734 13.333 12.5734 10.5694C12.5734 7.80579 10.333 5.56543 7.56941 5.56543C4.80579 5.56543 2.56543 7.80579 2.56543 10.5694C2.56543 13.333 4.80579 15.5734 7.56941 15.5734Z" fill="white"/>
    <path d="M5.10662 8.02246L8.80787 11.5154L7.7343 12.3806L4.91357 8.20023L5.10662 8.02246Z" fill="#414143"/>
    <path d="M7.50301 12.05C8.04914 12.05 8.49186 11.6072 8.49186 11.0611C8.49186 10.515 8.04914 10.0723 7.50301 10.0723C6.95688 10.0723 6.51416 10.515 6.51416 11.0611C6.51416 11.6072 6.95688 12.05 7.50301 12.05Z" fill="#414143"/>
    <path d="M7.50227 11.5016C7.74542 11.5016 7.94253 11.3045 7.94253 11.0614C7.94253 10.8182 7.74542 10.6211 7.50227 10.6211C7.25912 10.6211 7.06201 10.8182 7.06201 11.0614C7.06201 11.3045 7.25912 11.5016 7.50227 11.5016Z" fill="white"/>
    <path d="M34.5486 12.0416C34.2889 12.0722 33.7472 11.8375 33.5986 11.4889C33.45 11.1403 33.2639 11.1292 33.2153 11.3097C33.1667 11.4889 33.357 12.0486 33.4639 12.2388C33.5709 12.4319 33.7431 12.5666 34.0236 12.6291L34.3028 12.6916L34.5486 12.0416Z" fill="#C9A99B"/>
    <path d="M36.29 11.7166C36.6081 11.7791 36.9358 11.7194 37.1956 11.461C37.4553 11.2013 37.6233 10.8805 37.8039 11.0777C37.983 11.2749 37.6247 11.9138 37.3969 12.1388C37.2608 12.2735 37.1095 12.3902 36.9442 12.4874L36.2914 11.7166H36.29Z" fill="#C9A99B"/>
    <path d="M12.4518 25.3408C12.4962 25.6589 12.8143 26.2213 12.8143 26.2213C12.8143 26.2213 12.9351 26.4699 13.1212 26.8574C13.7156 28.0907 14.9656 30.7156 14.9656 31.0476C14.9656 31.4795 14.9795 31.6378 15.2281 31.7239C15.4767 31.81 15.5739 32.26 15.4558 32.46C15.3419 32.66 15.3114 32.9641 15.5558 32.9641C15.8003 32.9641 17.1891 33.0961 17.2446 32.9641C17.3516 32.7225 16.9585 32.3322 16.8127 32.2003C16.7822 32.1725 16.7613 32.1558 16.7613 32.1558C16.3919 31.6267 14.9336 27.6518 14.7475 26.8574C14.7031 26.6713 14.692 26.4324 14.7128 26.1533C14.7683 25.2589 15.1142 23.9603 15.5183 22.6409L13.1587 21.8701L12.6684 23.6326C12.6684 23.6326 12.4059 25.0242 12.4504 25.3422L12.4518 25.3408Z" fill="#E5CEC1"/>
    <path d="M12.4518 25.3407C12.4962 25.6588 12.8143 26.2212 12.8143 26.2212C12.8143 26.2212 12.9351 26.4698 13.1212 26.8573C13.2962 26.5351 13.5017 26.231 13.7364 25.949C14.1198 25.4935 14.2781 25.5657 14.7142 26.1601C14.7697 25.2657 15.1156 23.9672 15.5183 22.6478L13.1587 21.877L12.6684 23.638C12.6684 23.638 12.4059 25.0227 12.4504 25.3407H12.4518Z" fill="#C9A99B"/>
    <path d="M9.07831 16.7088C8.76027 18.6073 8.05335 21.4128 7.79225 22.1558C7.70337 22.4099 7.65892 22.8669 7.64365 23.3669C7.61587 24.3196 7.69226 25.4321 7.75753 25.6112C7.85475 25.8876 7.44504 26.2084 7.4256 26.5528C7.40616 26.8973 7.40754 27.5278 7.68392 27.2514C7.68392 27.2514 7.66448 27.6917 7.83947 27.5889C8.01447 27.4861 8.0228 27.0681 8.0228 27.0681C8.0228 27.0681 8.86027 27.7042 8.44501 26.5029C8.44501 26.5029 8.83805 26.6556 8.79221 26.4306C8.74638 26.2056 8.27834 25.5501 8.54084 25.5946C8.80333 25.639 8.9936 25.8682 8.74916 25.3348C8.50334 24.8057 8.41862 25.1418 8.2714 24.1002C8.2464 23.9113 8.28668 23.5488 8.37695 23.0752C8.77971 20.9128 10.1352 16.4949 10.1352 16.4949L11.0282 12.8506C10.1199 12.995 9.39358 14.8088 9.07554 16.7074L9.07831 16.7088Z" fill="#E5CEC1"/>
    <path d="M7.42169 26.5515C7.40225 26.8959 7.40364 27.5264 7.68002 27.2514C7.68002 27.2514 7.66057 27.6917 7.83557 27.5889C8.01056 27.4861 8.01889 27.0681 8.01889 27.0681C8.01889 27.0681 8.85636 27.7042 8.4411 26.5028C8.4411 26.5028 8.83414 26.6556 8.78831 26.4306C8.74248 26.2056 8.27444 25.5501 8.53693 25.5945C8.79942 25.639 8.98969 25.8681 8.74525 25.3348C8.49943 24.8057 8.41471 25.1418 8.26749 24.1002C8.2425 23.9113 8.28277 23.5488 8.37305 23.0752L7.63557 23.3682C7.6078 24.321 7.68418 25.4334 7.74946 25.6126C7.84807 25.882 7.44114 26.207 7.41892 26.5515H7.42169Z" fill="#C9A99B"/>
    <path d="M18.0891 22.0111C17.6683 22.9916 15.149 23.4694 15.0142 23.4416C15.0142 23.4416 15.017 24.4194 14.6004 24.1222C14.4212 23.9944 14.4587 23.4138 14.4587 23.4138L13.5851 23.4652C13.5851 23.4652 13.5573 23.9944 13.2949 23.9944C13.0324 23.9944 12.9949 23.3902 12.9949 23.3902L12.3657 23.3041L12.8143 20.4681L16.6045 20.0195L18.0905 22.0125L18.0891 22.0111Z" fill="#EDBCBD"/>
    <path d="M27.0324 33.511C27.0894 33.4874 27.4102 32.9735 27.5755 32.5708C27.6144 32.4805 27.6449 32.3874 27.6671 32.2916C27.7421 31.9069 27.631 30.1917 27.7213 29.8014C27.8116 29.4112 27.5171 28.3556 27.681 27.7668C27.8616 27.114 27.9713 26.4418 28.0088 25.7655C28.0255 25.4446 28.0185 25.1238 27.9907 24.803C27.8796 23.5836 27.9046 22.3809 27.9046 22.3809L26.2575 22.86C26.0255 23.685 25.9853 25.6932 26.2922 26.4488C26.395 26.7015 26.4866 27.0932 26.5602 27.5223C26.7061 28.3765 26.7797 29.3903 26.7088 29.7959C26.6033 30.4056 26.3005 30.5889 26.3408 30.8444C26.3811 31.1 26.6366 31.518 26.2214 31.7319C26.2214 31.7319 26.1978 31.7833 26.1728 31.8527C26.1366 31.9486 26.0964 32.0861 26.1103 32.1763C26.1339 32.3263 26.963 33.5416 27.0338 33.5124L27.0324 33.511Z" fill="#E5CEC1"/>
    <path d="M26.564 27.5147C26.9223 27.2313 26.6709 26.9161 26.8668 26.105C27.0306 25.4272 27.6181 25.487 28.0098 25.7606C28.0264 25.4397 28.0195 25.1189 27.9917 24.7981C27.8806 23.5787 27.9056 22.376 27.9056 22.376L26.2585 22.8551C26.0265 23.6801 25.9862 25.6884 26.2932 26.4439C26.3987 26.6953 26.4904 27.0841 26.5654 27.5161L26.564 27.5147Z" fill="#C9A99B"/>
    <path d="M9.83265 25.7674C10.0396 29.2603 10.1257 29.8159 10.1257 30.6408C10.1257 31.363 10.3785 31.3839 10.3715 31.7977C10.3687 32.0769 10.3132 32.613 10.5507 32.813C10.6715 32.913 11.0201 33.013 11.3423 33.0893C11.3923 33.1005 11.4451 33.0977 11.4937 33.0796C11.5423 33.0616 11.584 33.0296 11.6145 32.9866C11.6451 32.9449 11.6617 32.8949 11.6631 32.8421C11.6631 32.7907 11.6506 32.7394 11.6229 32.6963L11.3909 32.3338L12.0062 33.0116C12.0326 33.0407 12.0687 33.0602 12.1089 33.0671C12.1492 33.0741 12.1881 33.0671 12.2242 33.0477C12.2589 33.0282 12.2867 32.9977 12.302 32.9616C12.3173 32.9255 12.3214 32.8838 12.3103 32.8449C12.3103 32.8421 12.3103 32.838 12.3076 32.838C12.252 32.6546 11.9756 32.2894 11.752 31.9741C11.627 31.8019 11.5173 31.6422 11.4687 31.5394C11.334 31.2533 11.0298 29.0145 11.1645 27.9395C11.2756 27.0479 11.9423 25.1869 12.5881 24.0189C12.7048 23.8036 12.8367 23.5966 12.9825 23.4008C13.7214 22.4272 14.5991 21.2315 15.6074 21.3967C16.6157 21.5662 16.7018 22.405 17.3893 22.8439C17.4796 22.9022 17.5893 22.9647 17.7101 23.03C18.449 23.4189 19.2406 23.7008 20.0587 23.8661C20.4364 23.9411 20.8211 23.9758 21.2058 23.973C22.6711 23.9383 25.7307 23.2342 26.1529 23.1481C26.5737 23.0647 27.5486 23.3175 27.5486 23.3175C27.5486 23.3175 27.5903 23.6841 27.6598 24.2022C27.6903 24.4508 27.7292 24.7313 27.7709 25.0244C27.8084 25.3077 27.85 25.6007 27.8959 25.8841C28.0306 26.7646 28.1139 27.1201 28.2097 27.6729C28.2931 28.1354 28.2028 28.5742 28.2195 29.32C28.2361 29.9867 28.3056 30.6464 28.2403 30.8505C28.1056 31.2894 27.8709 31.6241 27.9875 31.7075C28.1056 31.7908 28.3778 32.5366 28.4403 32.6435C28.5167 32.7671 28.8653 33.1032 29.6763 33.0921C29.7013 33.0921 29.7263 33.0852 29.7486 33.0741C29.7708 33.0616 29.7902 33.0449 29.8041 33.0241C29.818 33.0032 29.8263 32.9782 29.8291 32.9532C29.8319 32.9282 29.8277 32.9032 29.818 32.8796C29.7208 32.638 29.5902 32.2922 29.7138 32.4755C29.8999 32.7449 29.7416 32.4963 29.8763 32.5963C30.0111 32.6963 30.2499 32.9421 30.2013 32.8074C30.1499 32.6727 29.9013 32.3241 29.7833 31.9019C29.6861 31.5602 29.3555 29.3284 29.2819 28.2854C29.2652 28.0506 29.2611 27.8743 29.2791 27.7951C29.3625 27.3743 29.6319 26.6521 29.7486 26.3827C29.8041 26.2549 29.8 25.8716 29.7791 25.5091C29.7555 25.1119 29.7138 24.7313 29.7138 24.7313C29.7138 24.7313 30.3708 25.0035 31.0846 24.4758C31.2818 24.3244 31.4541 24.1452 31.5999 23.9439C32.1415 23.1939 32.8123 22.0884 33.3165 21.212C33.5165 20.8634 33.6929 20.5482 33.8206 20.3107C33.8901 20.1787 33.9484 20.0718 33.9859 19.9926C34.2901 19.3885 35.1984 18.5274 35.1984 18.5274V15.7261L35.047 15.6053L34.6845 15.3192L32.8609 13.8748L32.3526 13.4734C32.304 13.4526 32.2526 13.4359 32.204 13.4151C30.6041 12.7929 28.9014 12.1651 27.35 12.5512C26.739 12.7026 25.2571 12.8207 23.5363 12.8901C22.4891 12.9318 21.353 12.9526 20.2725 12.9526C18.4698 12.9526 16.8213 12.8901 15.9852 12.7526C13.9367 12.411 11.277 11.4221 10.4965 12.7179C10.4535 12.7929 10.416 12.8721 10.3854 12.9526C9.78404 14.5928 11.0659 17.833 11.0243 18.9565C11.0173 19.1815 11.0132 19.4468 11.0076 19.7371V19.751C10.9798 20.919 10.8937 22.5147 10.2271 23.5994C9.38822 24.9674 9.76737 24.7258 9.82987 25.766L9.83265 25.7674Z" fill="#E5CEC1"/>
    <path d="M11.0452 18.9642C11.0382 19.1892 11.0354 19.4544 11.0285 19.7447C11.0313 19.6586 11.0563 19.1989 11.2077 19.1614C11.3771 19.1197 11.3354 18.8642 11.5979 18.4184C11.8604 17.9725 11.9535 18.3739 12.2298 18.4184C12.5062 18.46 12.5715 17.417 12.6132 16.9504C12.6548 16.4809 13.059 16.2046 12.5923 15.1199C12.1229 14.0352 12.1021 14.9268 11.7188 15.1852C11.3354 15.4407 11.2493 14.8227 11.591 14.1005C11.9326 13.3755 12.4854 13.6102 12.7409 13.0366C12.9965 12.463 12.4437 13.1436 12.2715 12.8922C12.1021 12.6394 11.5049 12.5672 11.2285 12.7602C10.9966 12.9186 10.7521 12.9602 10.5174 12.7366C10.4744 12.8116 10.4369 12.8908 10.4063 12.9713C9.80494 14.6046 11.0827 17.8448 11.0452 18.9642Z" fill="#E5CEC1"/>
    <path d="M16.8904 13.049C16.6043 12.8351 15.9099 12.9004 15.678 13.2393C15.4433 13.5809 14.8044 14.1128 14.2725 14.092C13.7406 14.0712 13.2295 14.517 13.3572 15.0489C13.485 15.5808 13.3295 16.1642 13.9822 16.1919C14.635 16.2197 15.678 16.3267 15.8474 15.7086C16.0169 15.0906 16.9974 14.5378 17.1251 13.899C17.2529 13.2629 16.8904 13.049 16.8904 13.049Z" fill="#E5CEC1"/>
    <path d="M15.3355 18.3522C14.8035 18.2452 14.0952 18.4591 13.9813 19.1605C13.8675 19.8618 13.3841 19.7785 13.3355 20.0966C13.2869 20.4174 13.3119 20.7771 13.8675 20.6285C14.4202 20.4799 14.0161 20.7493 14.6966 20.459C15.3799 20.1688 15.1868 19.7341 15.3355 19.6507C15.4841 19.5646 15.6979 19.4813 15.6979 18.9494C15.6979 18.4175 15.3355 18.3522 15.3355 18.3522Z" fill="#E5CEC1"/>
    <path d="M16.5312 18.0985C16.7451 19.2068 17.5187 19.9943 18.0895 20.0263C18.6589 20.0568 18.8936 20.5679 18.8075 20.9318C18.7214 21.2943 18.5936 21.8192 18.9145 21.8748C19.2325 21.9303 20.3408 21.847 20.5755 22.1998C20.8102 22.5484 22.0407 22.2928 22.4574 21.0804C22.8754 19.8679 23.5768 19.3777 23.4282 17.9916C23.2796 16.6055 22.8518 17.2902 23.449 15.6084C24.0462 13.9265 23.1518 14.3723 23.3004 13.5015C23.3421 13.2862 23.4282 13.0821 23.556 12.9043C22.5088 12.946 21.3727 12.9668 20.2922 12.9668C20.1339 13.5084 19.8089 13.7793 19.4047 13.8612C18.8936 13.9681 18.7659 14.1168 18.7867 14.714C18.8075 15.3112 17.5742 15.3112 17.2631 15.8847C16.9562 16.4583 16.3173 16.993 16.5312 18.0985Z" fill="#E5CEC1"/>
    <path d="M26.7462 20.2279C26.7531 20.0376 26.6351 19.9307 26.4462 19.9446C26.3323 19.9515 26.1601 20.0654 26.1698 20.1418C26.1907 20.3209 26.2934 20.3904 26.2184 20.5668C26.1046 20.8293 26.4462 21.1779 26.7781 20.9681C26.9031 20.889 26.9642 20.7709 26.8129 20.4598C26.7754 20.3876 26.7531 20.3098 26.7476 20.2279H26.7462Z" fill="#E5CEC1"/>
    <path d="M27.1253 20.3386C27.3016 20.8803 27.0489 21.3372 27.3989 21.8761C27.7475 22.415 28.3558 23.7135 27.6752 24.1968C27.7058 24.4454 27.7447 24.726 27.7863 25.019C27.7863 25.019 28.6433 24.6524 28.878 24.3663C29.1099 24.0802 29.0127 23.3608 29.3057 23.1885C29.596 23.0122 29.8307 22.6219 30.1585 22.1969C30.4862 21.7719 30.8182 21.1636 31.4195 20.4872C32.0209 19.8137 32.3112 18.397 32.2931 18.1457C32.2723 17.8929 33.1667 17.604 33.5333 17.8929C33.9028 18.1832 34.4833 17.2165 34.4833 17.2165L34.7111 15.3263L34.8319 14.325L32.407 13.1611C32.3445 13.2472 32.2862 13.3333 32.2306 13.4236C31.757 14.1903 31.564 15.0916 31.6543 15.8555C31.7515 16.7082 31.6334 17.8526 31.2848 17.6207C30.9362 17.3888 31.0126 17.2235 30.7432 16.218C30.471 15.2166 29.3099 14.8847 28.6877 15.9721C28.0655 17.0568 27.7752 18.4345 27.3683 18.9193C26.9544 19.4067 26.9544 19.7928 27.1266 20.3386H27.1253Z" fill="#E5CEC1"/>
    <path d="M30.2306 23.4029C30.2889 23.8307 30.2889 24.0418 30.7722 24.3695C30.8514 24.4251 30.9694 24.4598 31.1041 24.4834C31.3014 24.332 31.4736 24.1529 31.6194 23.9515C32.161 23.2015 32.8319 22.096 33.336 21.2197C33.043 21.1572 32.8874 21.3474 32.6555 21.7558C32.3444 22.2974 32.3833 22.8029 31.9583 22.6474C31.5305 22.4918 31.4916 21.8321 30.9222 21.8766C30.3556 21.9182 30.1722 22.9752 30.2319 23.4029H30.2306Z" fill="#E5CEC1"/>
    <path d="M28.7554 27.2992C28.7526 27.9561 29.0693 28.2006 29.3012 28.2936C29.2845 28.0589 29.2804 27.8825 29.2984 27.8034C29.3818 27.3825 29.6512 26.6603 29.7679 26.3909C29.8234 26.2631 29.8192 25.8798 29.7984 25.5173C29.5498 25.4173 29.4873 25.8215 29.3387 26.2534C29.1623 26.7576 28.7582 26.6853 28.7554 27.3006V27.2992Z" fill="#E5CEC1"/>
    <path d="M17.3364 21.791L17.7239 23.0271C18.4628 23.416 19.2544 23.6979 20.0724 23.8632C20.4502 23.9382 20.8349 23.9743 21.2196 23.9701C22.6848 23.9354 25.7444 23.2312 26.1667 23.1451C26.5875 23.0618 27.5624 23.3146 27.5624 23.3146C27.4458 22.841 27.1208 22.0021 27.1208 22.0021C27.1208 22.0021 26.2291 22.4618 25.1375 22.3646C25.0111 22.3535 24.8848 22.3507 24.757 22.3577C24.2806 22.3813 23.1612 22.4271 22.6362 22.3743C22.4779 22.3577 22.3182 22.3521 22.1599 22.3577C21.6307 22.3785 20.5391 22.4229 20.1349 22.434C19.5891 22.4479 18.8183 22.3091 18.5392 22.2646C18.2628 22.2229 17.3364 21.791 17.3364 21.791Z" fill="#C9A99B"/>
    <path d="M12.5996 24.0135C12.7163 23.7982 12.8468 23.5913 12.994 23.3954C13.7329 22.4219 14.6106 21.2261 15.6189 21.3913C16.6272 21.5608 16.7133 22.3996 17.4008 22.8385C17.9119 23.1635 18.966 23.6468 20.0716 23.8607C18.9035 23.2802 17.2494 21.208 16.1273 21.0316C15.0051 20.8553 14.1301 21.3219 13.4357 22.3413C12.7579 23.3427 12.6066 23.9926 12.5996 24.0135Z" fill="#C9A99B"/>
    <path d="M11.9087 33.1199L11.6462 32.595L12.1129 33.1102C12.1267 33.1255 12.1448 33.138 12.1642 33.1449C12.1837 33.1519 12.2059 33.1533 12.2267 33.1491C12.2476 33.1449 12.267 33.1366 12.2837 33.1227C12.3003 33.1088 12.3128 33.0922 12.3198 33.0713C12.3448 32.9922 12.3434 32.9075 12.3156 32.8297C12.2601 32.6464 11.9837 32.2811 11.7601 31.9658C11.1976 32.1589 10.7337 32.5422 10.5615 32.8047C10.8448 33.1186 11.5698 33.1324 11.8601 33.1852C11.8684 33.188 11.8781 33.188 11.8865 33.1852C11.8948 33.1824 11.9031 33.1769 11.9087 33.1699C11.9143 33.163 11.917 33.1533 11.917 33.1449C11.917 33.1352 11.9143 33.1269 11.9087 33.1199Z" fill="#997569"/>
    <path d="M15.5577 32.9664C15.8035 32.9664 17.1909 33.0983 17.2465 32.9664C17.3534 32.7247 16.9604 32.3345 16.8146 32.2025C16.341 32.1303 15.8299 32.1511 15.4535 32.4622C15.3396 32.6622 15.3118 32.9664 15.5577 32.9664Z" fill="#997569"/>
    <path d="M27.0324 33.5108C27.0894 33.4872 27.4102 32.9733 27.5755 32.5705C27.3296 32.2497 26.7519 31.8567 26.1727 31.8428C26.1366 31.9386 26.0963 32.0761 26.1102 32.1664C26.1338 32.3247 26.963 33.5385 27.0338 33.5108H27.0324Z" fill="#997569"/>
    <path d="M28.4521 32.6451C28.4521 32.6451 28.4521 32.6465 28.4521 32.6479C28.4521 32.6479 28.4535 32.6479 28.4548 32.6479C28.5382 32.7785 28.9521 33.1896 29.8951 33.1215C29.9159 33.1215 29.5701 32.2438 29.7326 32.4785C29.8617 32.6743 29.9715 32.8812 30.0603 33.0965C30.0603 33.0965 30.3159 33.0312 30.2465 32.7271C30.2159 32.5854 30.1187 32.3438 29.7979 31.9049C29.2868 31.7466 28.7132 31.9466 28.4923 32.516C28.4785 32.5646 28.4646 32.6021 28.4507 32.6438L28.4521 32.6451Z" fill="#997569"/>
    <path d="M32.2209 14.1926C32.439 14.5524 33.0154 14.6829 33.282 14.6454C33.5514 14.6037 32.7917 17.005 33.2056 17.862C33.6195 18.7189 34.1139 19.0841 33.8375 20.3174C33.907 20.1855 33.9653 20.0785 34.0028 19.9994C34.307 19.3952 35.2153 18.5342 35.2153 18.5342V16.1676L35.0639 15.6148L34.5458 13.7246C34.5458 13.7246 33.5681 13.7663 32.8779 13.8829C32.457 13.9524 32.139 14.0524 32.2209 14.1899V14.1926Z" fill="#C9A99B"/>
    <path d="M31.4429 12.9189C31.4429 12.9189 31.4429 13.3717 31.8845 13.8592C32.3262 14.3425 32.5817 14.5258 33.1136 14.5092C33.5595 14.4953 33.6692 14.2883 33.6942 14.2189C33.6664 14.3161 33.5595 14.7439 33.6595 15.3133C33.7733 15.9633 33.7289 16.4257 33.8108 16.8466C33.9428 17.5035 34.9191 18.1451 34.9886 18.2104C35.0261 18.2465 35.0608 18.2854 35.0927 18.3285C35.2997 18.5909 35.5552 19.0256 35.8566 19.0881C36.133 19.1465 36.3232 19.0881 36.4718 19.0881C36.7246 19.0881 36.8788 19.109 37.1079 18.977C37.3496 18.8395 37.4121 18.5076 37.5288 18.4034C37.719 18.2382 37.8426 18.0826 37.7079 17.1938C37.6843 17.0382 37.6662 16.8938 37.6565 16.7521C37.6051 16.0744 37.6912 15.5744 37.7815 15.2869C37.8926 14.9411 37.8926 14.5369 37.944 14.2814C37.9704 14.1522 38.0426 14.0383 38.1482 13.9606C38.1482 13.9606 38.6843 14.3342 39.3162 13.5286C39.8203 12.8828 40.0064 12.6967 39.9967 12.5787C39.9926 12.5481 39.9773 12.5203 39.9551 12.4995C39.8301 12.3648 39.5926 12.2398 39.2231 12.2717C38.8495 12.3023 38.4593 12.2301 38.1801 12.469C37.901 12.7078 37.8593 12.8634 37.8593 12.8634C37.8593 12.8634 37.4857 12.8537 37.3038 12.7287C37.2538 12.6926 37.2079 12.6523 37.1663 12.6078C37.119 12.5564 37.076 12.5009 37.0385 12.4426C36.9579 12.3203 36.8691 12.2051 36.7691 12.0967C36.7274 12.0523 36.6899 12.0106 36.6482 11.9717C36.3135 11.6329 35.9955 11.4607 35.6191 11.4607C35.4983 11.4607 35.3802 11.4579 35.2733 11.4634C34.9414 11.4773 34.6719 11.5565 34.465 11.9676C34.4025 12.0926 34.3511 12.2065 34.3067 12.3065C34.2789 12.3717 34.2511 12.4315 34.2233 12.4856C34.1886 12.5578 34.1455 12.6273 34.0956 12.6898C33.9956 12.8106 33.8678 12.8731 33.6539 12.862C33.24 12.8453 32.4414 12.1509 31.7984 12.5439C31.654 12.6398 31.5331 12.7676 31.4456 12.9175L31.4429 12.9189Z" fill="#E5CEC1"/>
    <path d="M32.9723 14.7233L32.7946 14.6511V14.1066C32.7946 14.0164 32.7334 13.9539 32.6612 13.9678L32.4071 14.0122C32.3654 14.0261 32.3307 14.0525 32.3071 14.0858C32.2835 14.1191 32.2724 14.1594 32.2751 14.1997V14.7441L32.0974 14.8788C32.0765 14.8955 32.0585 14.9163 32.0474 14.9399C32.0363 14.9635 32.0293 14.9885 32.0293 15.0135V15.6607C32.0279 15.676 32.0293 15.6927 32.0349 15.708C32.0404 15.7232 32.0501 15.7371 32.0626 15.7482C32.0751 15.7594 32.0904 15.7677 32.1057 15.7732C32.1224 15.7788 32.139 15.7802 32.1571 15.7788L32.9154 15.6441C32.9543 15.633 32.9876 15.6121 33.0112 15.583C33.0348 15.5538 33.0487 15.5177 33.0473 15.4816V14.8344C33.0473 14.8108 33.0418 14.7886 33.0279 14.7691C33.014 14.7497 32.9946 14.7344 32.9709 14.7247L32.9723 14.7233Z" fill="#FAB710"/>
    <path opacity="0.3" d="M37.168 12.612C37.1707 12.6217 37.2096 12.7981 37.4235 12.9328C37.686 13.098 37.8791 13.0647 37.8791 13.0647C38.2179 12.3634 39.4859 12.2842 39.9998 12.5883C39.9956 12.5578 39.9804 12.53 39.9581 12.5092C39.8331 12.3745 39.5957 12.2495 39.2262 12.2814C38.8526 12.312 38.4624 12.2397 38.1832 12.4786C37.9041 12.7175 37.8624 12.8731 37.8624 12.8731C37.8624 12.8731 37.4888 12.8633 37.3069 12.7383C37.2569 12.7008 37.211 12.6592 37.1694 12.6133L37.168 12.612Z" fill="#5E240D"/>
    <path d="M34.2206 12.4866C34.5942 13.1838 34.9289 13.2671 35.4956 14.1337C36.0581 15.0045 35.8692 15.7087 35.7886 16.2406C35.747 16.5309 35.5956 16.6031 35.4567 16.71C35.3428 16.7961 35.2386 16.9072 35.215 17.1767C35.1636 17.7739 35.1567 17.9544 35.0942 18.3266C35.3011 18.5891 35.5567 19.0238 35.8581 19.0863C36.1344 19.1447 36.3247 19.0863 36.4733 19.0863C36.7261 19.0863 36.8802 19.1072 37.1094 18.9752C37.3511 18.8377 37.4136 18.5058 37.5302 18.4016C37.7205 18.2364 37.8441 18.0808 37.7094 17.192C37.6858 17.0364 37.6677 16.892 37.658 16.7503C37.5816 16.6642 37.4788 16.5989 37.3538 16.5253C37.2844 16.4836 37.2052 16.442 37.1219 16.3934C36.7594 16.1795 36.715 16.2684 36.4789 15.467C36.24 14.6657 36.7178 13.5713 36.783 12.9588C36.8525 12.3477 36.4205 11.756 36.0025 11.6838L35.2734 11.4561C34.9414 11.4699 34.672 11.5491 34.4651 11.9602C34.3651 12.1644 34.2928 12.3407 34.2192 12.4824L34.2206 12.4866Z" fill="#FCE6DA"/>
    <path d="M35.4609 16.7103C35.8581 16.4381 36.9942 16.3478 37.4817 16.6034C37.5442 16.6381 37.5442 16.8867 37.5442 16.8867L35.8026 17.277L35.4609 16.7103Z" fill="#FCE6DA"/>
    <path d="M35.0981 18.3327C35.1259 18.3702 35.1565 18.409 35.1884 18.4535C35.2051 18.4743 35.2231 18.4979 35.2398 18.5229C35.419 18.7688 35.6273 19.0451 35.862 19.0965C36.1384 19.1549 36.3287 19.0965 36.4773 19.0965C36.73 19.0965 36.8842 19.1174 37.1133 18.9854C37.2967 18.8785 37.38 18.6604 37.4592 18.516C37.4661 18.5063 37.4731 18.4924 37.48 18.4813C37.4953 18.4549 37.5133 18.4327 37.5356 18.4118C37.6106 18.3535 37.6703 18.2799 37.7119 18.1938C37.7842 18.0313 37.8022 17.7618 37.7147 17.2063C37.6911 17.0508 37.673 16.9063 37.6633 16.7647C37.5869 16.6786 37.6119 16.6855 37.4842 16.6133C36.9425 17.0341 36.0676 17.0966 35.4634 16.7202C35.3495 16.8063 35.2454 16.9174 35.2218 17.1869C35.1662 17.7813 35.1593 17.9577 35.1009 18.334L35.0981 18.3327Z" fill="#FCE6DA"/>
    <path d="M35.7208 17.7028C35.7625 17.7236 35.8069 17.7347 35.8527 17.7361C35.8986 17.7375 35.9444 17.7306 35.9875 17.7125C36.1152 17.6611 36.2083 17.5334 36.1847 17.4153C36.143 17.225 35.9291 17.1764 35.7944 17.1111C35.6597 17.0486 35.6764 16.9528 35.6666 16.8792C35.6597 16.8278 35.6319 16.8487 35.6152 16.8653C35.6111 16.8695 35.6083 16.8737 35.6055 16.8792C35.5055 17.232 35.4875 17.5806 35.7236 17.7014L35.7208 17.7028Z" fill="#997569"/>
    <path d="M37.033 17.5191C37.0775 17.5622 37.1344 17.5927 37.1955 17.6052C37.2566 17.6177 37.3205 17.6136 37.3788 17.5914C37.6247 17.4941 37.6385 17.1428 37.5761 16.7858L37.5622 16.765C37.5455 16.7483 37.5247 16.7344 37.5136 16.7789C37.4997 16.8483 37.5066 16.9442 37.3649 16.9969C37.2233 17.0483 37.0052 17.0761 36.9511 17.2636C36.9205 17.3497 36.958 17.4497 37.0344 17.5191H37.033Z" fill="#997569"/>
    <path d="M35.2402 18.5177C35.4194 18.7635 35.6277 19.0399 35.8624 19.0913C36.1388 19.1496 36.3291 19.0913 36.4777 19.0913C36.7305 19.0913 36.8846 19.1121 37.1138 18.9802C37.2971 18.8732 37.3804 18.6552 37.4596 18.5107C37.3179 18.7316 36.9763 18.8802 36.5999 18.8802C36.1985 18.8802 35.5847 18.8968 35.243 18.5177H35.2402Z" fill="#EFDACD"/>
    <path d="M29.7337 24.7399C29.7503 24.4872 29.7712 24.2358 29.8059 23.9872C29.8226 23.8636 29.8406 23.7386 29.8615 23.6136C29.8823 23.4886 29.9059 23.3678 29.9378 23.2469C29.9656 23.1261 30.0003 23.0053 30.0378 22.8914C30.0587 22.8331 30.0795 22.7733 30.1031 22.7192C30.1142 22.6914 30.1267 22.6636 30.1406 22.6359L30.1614 22.5942L30.1823 22.5525C30.2934 22.3275 30.4031 22.1039 30.5239 21.8817C30.5823 21.7706 30.6448 21.6637 30.71 21.5567C30.7753 21.4498 30.8447 21.3456 30.917 21.2456C31.0586 21.0415 31.2142 20.8443 31.3697 20.6443C31.4072 20.5929 31.4461 20.5443 31.4836 20.4929L31.5419 20.4165C31.5586 20.3887 31.5767 20.3651 31.5975 20.3373C31.6683 20.2304 31.7322 20.1179 31.7878 20.0026C31.8447 19.8887 31.8933 19.7707 31.9364 19.6499C31.9794 19.5304 32.0142 19.4082 32.0433 19.2832C32.0225 19.3429 31.9975 19.4013 31.9711 19.4596C31.9475 19.5179 31.9197 19.5735 31.8919 19.6318C31.8378 19.7443 31.778 19.854 31.7128 19.9596C31.6503 20.0665 31.5781 20.1707 31.5058 20.2707L31.4503 20.3429L31.392 20.4151C31.3545 20.4637 31.3086 20.5123 31.2711 20.5595L31.1461 20.704C31.1045 20.7526 31.067 20.8012 31.0253 20.8484C30.9461 20.9456 30.867 21.0456 30.7906 21.1484C30.7142 21.2526 30.6461 21.3595 30.5767 21.4665C30.5114 21.5734 30.442 21.6845 30.3837 21.7984C30.2628 22.0234 30.1517 22.2511 30.0448 22.4789L30.0239 22.5206L30.0031 22.565C29.9892 22.5956 29.9795 22.6234 29.9656 22.6553C29.942 22.715 29.9212 22.7761 29.9031 22.8386C29.867 22.9608 29.8365 23.0858 29.8128 23.2122C29.7656 23.4636 29.7392 23.7178 29.7295 23.9719C29.7115 24.2261 29.7128 24.4816 29.7323 24.7358L29.7337 24.7399Z" fill="#C9A99B"/>
    <path d="M27.015 21.0956C26.9872 21.2511 26.9803 21.408 26.9914 21.565C26.9997 21.7247 27.0289 21.883 27.0775 22.0344L27.0983 22.09L27.1192 22.1455C27.133 22.1802 27.1428 22.2177 27.1566 22.2525C27.1803 22.3247 27.2011 22.3969 27.2219 22.4733C27.2636 22.6219 27.3053 22.7705 27.3386 22.9219C27.3761 23.0705 27.4108 23.2219 27.4455 23.3746C27.4802 23.526 27.515 23.6788 27.5455 23.8302L27.7427 24.7426C27.715 24.4315 27.6733 24.1246 27.6247 23.8163C27.6011 23.6649 27.5733 23.5093 27.5455 23.3566C27.515 23.2052 27.483 23.0524 27.4483 22.8969C27.4136 22.7455 27.3761 22.5927 27.3344 22.4413C27.3136 22.3649 27.29 22.29 27.265 22.2163C27.2511 22.1788 27.2414 22.14 27.2275 22.1052L27.1858 21.9983C27.1789 21.9816 27.1733 21.9636 27.1691 21.9469L27.1525 21.8914C27.1428 21.8539 27.1317 21.8191 27.1219 21.7802C27.1053 21.708 27.0872 21.6316 27.0733 21.5553C27.0455 21.4039 27.0289 21.2511 27.015 21.0928V21.0956Z" fill="#C9A99B"/>
    <path d="M27.485 14.0347C26.9295 14.1347 26.3726 14.2278 25.8129 14.2944C25.2531 14.3667 24.6934 14.4222 24.1337 14.4639C23.8546 14.4847 23.574 14.5014 23.2949 14.5153C23.0157 14.5292 22.7352 14.5389 22.456 14.5431C22.1769 14.55 21.8963 14.55 21.6172 14.5431C21.338 14.5403 21.0616 14.5222 20.7853 14.5014C20.5131 14.4819 20.2408 14.4431 19.9742 14.3875C19.9089 14.3736 19.8422 14.3569 19.7742 14.3389C19.7089 14.3222 19.6395 14.3042 19.5742 14.2833C19.4423 14.2458 19.3075 14.2042 19.1798 14.1583C18.9187 14.0681 18.6617 13.9639 18.4131 13.8445C18.2895 13.7861 18.1645 13.7236 18.0395 13.6584C17.9145 13.5931 17.7909 13.5264 17.6632 13.4611C17.5312 13.3903 17.3923 13.3334 17.2493 13.2889C17.1715 13.2667 17.0923 13.2528 17.0104 13.2473C16.9285 13.2431 16.8451 13.25 16.7646 13.2681C16.6868 13.2862 16.6118 13.3139 16.5396 13.3473C16.4715 13.3806 16.4049 13.4209 16.3424 13.4653C16.2174 13.5473 16.1049 13.6459 16.0035 13.7556C15.9035 13.8611 15.8132 13.9764 15.7341 14.0972C15.6924 14.1556 15.6549 14.2167 15.6202 14.2806C15.5855 14.3431 15.5507 14.4083 15.5202 14.4708C15.3952 14.7278 15.3035 14.9986 15.2466 15.2791C15.2938 15.1458 15.348 15.0153 15.4091 14.8889C15.4716 14.7611 15.5368 14.6403 15.6091 14.5194C15.7507 14.2819 15.9271 14.0667 16.1313 13.8806C16.2327 13.7917 16.341 13.7125 16.4563 13.6417C16.5632 13.5736 16.6826 13.5264 16.809 13.5042C16.9285 13.4861 17.0493 13.4986 17.1618 13.5417C17.2854 13.5875 17.4048 13.6459 17.5173 13.7139C17.759 13.8486 18.0048 14 18.2604 14.132C18.3881 14.1972 18.5201 14.2597 18.6506 14.3222C18.7826 14.3806 18.9173 14.4361 19.052 14.4847C19.1867 14.5361 19.3256 14.5819 19.4631 14.6264L19.67 14.6889C19.7395 14.7097 19.8075 14.7264 19.8811 14.7444C19.9533 14.7611 20.027 14.775 20.0992 14.793C20.1339 14.8 20.1714 14.8069 20.2061 14.8097C20.2408 14.8167 20.2783 14.8236 20.3131 14.8264C20.3853 14.8361 20.4589 14.8472 20.5269 14.8542L20.6339 14.8639L20.7408 14.8736C21.3116 14.9166 21.8852 14.9264 22.4574 14.9014C22.7407 14.8875 23.0268 14.8708 23.3102 14.8458C23.4518 14.8361 23.5935 14.818 23.7352 14.8042C23.8768 14.7875 24.0185 14.7736 24.1601 14.7555C24.7226 14.6833 25.2865 14.5903 25.8392 14.4694C26.3989 14.3653 26.9489 14.2195 27.4864 14.0347H27.485Z" fill="#C9A99B"/>
    <path d="M16.8359 21.3267C16.6234 21.2087 16.3971 21.117 16.1624 21.0545C15.9249 20.9906 15.679 20.9601 15.4332 20.9642C15.3096 20.9656 15.1846 20.9795 15.0638 21.0059C14.9416 21.0309 14.8207 21.067 14.7041 21.1128C14.4721 21.2087 14.261 21.3476 14.0791 21.5212C13.9874 21.6031 13.9027 21.692 13.8236 21.7878C13.7444 21.8809 13.668 21.9781 13.5958 22.0739C13.5236 22.1739 13.4541 22.2739 13.3888 22.3781C13.3541 22.4295 13.3236 22.4822 13.2916 22.5336C13.2611 22.585 13.2291 22.6378 13.2014 22.692C13.143 22.7989 13.0847 22.9058 13.0291 23.0128C12.9736 23.1197 12.9222 23.2308 12.8736 23.3405C12.7764 23.5614 12.6833 23.7864 12.6069 24.0169C12.718 23.803 12.8278 23.5891 12.9458 23.378C13.0639 23.1669 13.1847 22.96 13.3125 22.76C13.4402 22.56 13.575 22.3586 13.7208 22.1725C13.8624 21.9836 14.0208 21.8087 14.1944 21.6475C14.2791 21.567 14.3708 21.4948 14.468 21.4295C14.5638 21.3642 14.6652 21.3087 14.7721 21.2642C14.8791 21.2198 14.9888 21.1823 15.0999 21.1531C15.2138 21.1253 15.3291 21.1073 15.4457 21.0976C15.6818 21.0809 15.9179 21.0934 16.1499 21.1351C16.3846 21.1726 16.6151 21.2365 16.8373 21.3253L16.8359 21.3267Z" fill="#C9A99B"/>
    <path d="M33.661 15.3125C33.6638 15.4611 33.6638 15.6055 33.6638 15.7542C33.6638 15.8264 33.6638 15.8986 33.661 15.975L33.6582 16.0861V16.1972C33.6582 16.3472 33.6693 16.4972 33.6929 16.6458C33.7179 16.7972 33.761 16.9458 33.8207 17.0874C33.8526 17.1583 33.8888 17.2263 33.9318 17.2916C33.9721 17.3569 34.0179 17.4194 34.0665 17.4777C34.1151 17.536 34.1665 17.5916 34.2179 17.6471C34.2693 17.7027 34.3248 17.7513 34.3832 17.8027C34.4387 17.8513 34.4971 17.8999 34.5554 17.9443C34.6137 17.9888 34.6762 18.0305 34.7346 18.0763L35.0943 18.336C35.0457 18.2804 34.997 18.2249 34.9457 18.1707C34.8943 18.1152 34.8415 18.0638 34.7901 18.0124L34.6276 17.861C34.5762 17.8096 34.5234 17.761 34.4721 17.7096C34.3707 17.6069 34.2762 17.4985 34.1887 17.3846C34.1026 17.2735 34.0304 17.1527 33.9707 17.0249C33.8596 16.7694 33.8124 16.4833 33.7846 16.1958L33.7749 16.0889C33.7721 16.0514 33.7679 16.0166 33.7651 15.9778C33.7582 15.9055 33.7485 15.8291 33.7415 15.7569C33.7318 15.6847 33.7207 15.6125 33.704 15.5361C33.6971 15.4611 33.6832 15.3875 33.6624 15.3153L33.661 15.3125Z" fill="#C9A99B"/>
    <path opacity="0.3" d="M31.7998 12.5468C32.2387 12.4565 32.7595 12.6718 33.0609 12.8537C33.3997 13.0607 33.4164 13.3718 33.8789 13.3829C33.9761 13.3856 33.9553 13.0898 34.0969 12.6926C33.9969 12.8134 33.8692 12.8759 33.6553 12.8648C33.2373 12.8482 32.4387 12.1496 31.7998 12.5468Z" fill="#5E240D"/>
    <path d="M36.6734 31.9453H6.40088V36.2563H36.6734V31.9453Z" fill="#B8C0BF"/>
</svg>
