<svg width="45" height="45" viewBox="0 0 45 45" fill="none" xmlns="http://www.w3.org/2000/svg">
    <g clip-path="url(#clip0_3407_7705)">
        <rect width="45" height="45" fill="#F9FBFA"/>
        <path d="M30.1653 28.5781C30.955 28.8835 32.8465 27.0984 32.8465 27.0984L32.749 26.5828L32.6783 26.2634L33.2657 25.4563V24.3578L34.9719 17.1951C34.9719 16.87 33.1755 17.5062 32.4053 17.6182L31.5449 19.1063L31.2914 23.7413C31.2914 23.7413 31.1208 25.0724 30.8039 25.6356C30.5602 26.098 30.2409 26.5268 30.0093 26.9471C29.6851 27.5748 29.69 28.0008 30.1653 28.5781Z" fill="#1E1B1B"/>
        <path d="M29.9646 28.8094C31.1822 29.5183 32.8643 27.0314 32.8643 27.0314L32.7011 26.1807C32.6132 26.6599 32.1262 27.0966 32.0182 27.1845C30.655 28.3188 29.9244 27.5446 29.9596 26.8754C29.6182 27.5078 29.0282 28.2649 29.9646 28.8094Z" fill="#3C3939"/>
        <path d="M13.3951 9.4605L8.88082 14.3514L6.44067 15.5742C7.35573 16.5727 8.78273 22.013 11.2229 25.2899C14.2731 29.3861 15.1135 31.0448 22.4084 28.7753C25.6993 27.7514 29.2169 22.2909 34.1612 17.5087L40.5417 12.9453C41.2737 9.03254 37.9592 5.4051 36.2104 4.08047C33.7093 2.1241 30.2321 3.10229 27.6699 4.81411C25.1078 6.52594 20.0445 7.38185 17.5433 7.38185C15.5424 7.38185 13.9441 8.76762 13.3951 9.4605Z" fill="#242121"/>
        <path d="M44.3221 17.3411C44.1762 17.1718 43.9608 17.1708 43.7716 17.0823C43.6987 17.0485 43.6355 16.9964 43.5803 16.9369C43.5803 16.9369 43.5803 16.9369 43.5823 16.938C43.5031 16.8552 43.4687 16.7521 43.4197 16.6518C43.3692 16.5519 43.3588 16.4331 43.3399 16.3202C43.3209 16.1956 43.2946 16.0748 43.2246 15.9944C43.2253 16.0077 43.2239 16.02 43.2245 16.0334C43.2146 16.0228 43.2046 16.0123 43.1931 16.0022C43.127 15.946 43.0401 15.8824 42.9945 15.8099C42.9361 15.7174 42.9028 15.5903 42.8716 15.4812C42.8946 15.5183 42.927 15.5525 42.9539 15.58C42.9952 15.6217 43.0421 15.6702 43.0909 15.7029C43.2027 15.7758 43.2812 15.8452 43.3356 15.9693C43.393 16.0976 43.3944 16.2259 43.4225 16.358C43.4459 16.4694 43.4786 16.5832 43.528 16.6851C43.5751 16.7793 43.6479 16.9029 43.7448 16.977C43.5532 16.6284 43.6889 16.203 43.48 15.8699C43.2724 15.5414 42.9248 15.3602 42.8087 14.9702C42.6861 14.5584 42.5689 14.1366 42.5466 13.7149C42.5345 13.49 42.5948 13.2466 42.5123 13.0293C42.4346 12.8225 42.3466 12.6712 42.1915 12.5166C42.0493 12.3766 41.9159 12.2713 41.8716 12.0628C41.8237 11.8368 41.8171 11.6187 41.7877 11.3922C41.7563 11.1595 41.6886 10.9463 41.6383 10.7125C41.5899 10.485 41.5889 10.2516 41.5185 10.0239C41.2366 9.11841 40.9923 8.20833 40.6471 7.3287C40.3115 6.47499 39.7739 5.77706 38.983 5.27756C38.6319 5.05676 38.2075 4.86823 37.7861 4.86339C37.5841 4.86173 37.4077 4.89465 37.2013 4.86722C36.9945 4.83824 36.7973 4.79108 36.5928 4.75293L36.8347 5.17267C37.3152 5.26125 37.7981 5.48632 38.2213 5.73276C38.5542 5.92689 38.8611 6.06283 39.1624 6.32579C39.909 6.97584 40.328 8.01604 40.5294 8.95772C40.6249 9.40302 40.7806 9.85723 40.8761 10.3025C40.9259 10.5347 40.9443 10.7189 40.9532 10.9448C40.9623 11.1486 41.0441 11.3525 41.0543 11.5543C41.0643 11.7782 41.0568 11.9888 41.1039 12.2065C41.1532 12.4372 41.3151 12.6593 41.1589 12.8656C41.0364 13.0262 40.8824 13.1049 40.8096 13.3182C40.7373 13.5331 40.8296 13.7321 40.8116 13.9475C40.7953 14.1624 40.6367 14.3441 40.5977 14.5625C40.5577 14.7947 40.6068 14.9797 40.6752 15.2062C40.8059 15.6392 40.7674 16.0386 41.0416 16.4198C40.9284 16.0561 41.0851 15.7226 41.0047 15.3608C40.9492 15.1099 40.6873 14.4219 41.0868 14.2979C40.7948 14.7891 41.455 15.5398 41.4787 16.0389C41.4938 16.3527 41.472 16.5947 41.5656 16.9102C41.6518 17.1957 41.8132 17.3824 41.9291 17.6318C41.81 17.2428 41.6356 16.884 41.7291 16.4815C41.7388 16.9341 41.9954 17.4306 42.2976 17.7136C42.4839 17.8877 42.7322 18.0481 42.7157 18.3359C42.709 18.4649 42.6606 18.5963 42.6652 18.7237C42.6707 18.871 42.7263 19.0439 42.8116 19.1637C42.8526 19.2208 42.9019 19.2889 42.9585 19.3531C42.9647 19.4409 42.9792 19.528 43.0035 19.6087C43.0752 19.8462 43.2446 20.11 43.5073 20.1611C43.3274 20.1036 43.2165 19.8374 43.1591 19.6921C43.1357 19.6315 43.1101 19.5579 43.0948 19.4847C43.1635 19.5384 43.2398 19.578 43.3221 19.587C43.2535 19.5112 43.1704 19.4212 43.0932 19.3226C43.1131 19.22 43.1617 19.1173 43.2084 19.0253C43.2921 18.8595 43.3589 18.6937 43.3716 18.5171C43.3831 18.5272 43.3957 18.5353 43.4088 18.5449C43.4704 18.6312 43.5329 18.7428 43.5452 18.8508C43.5569 18.9624 43.5074 19.079 43.489 19.1862C43.4705 19.2933 43.465 19.4152 43.4975 19.5172C43.5304 19.6207 43.6338 19.6826 43.7213 19.7425C43.8113 19.8051 43.8748 19.8808 43.9009 19.9897C43.9303 20.1095 43.8699 20.2514 43.8828 20.3728C43.9047 20.5745 44.0072 20.6672 44.1749 20.7571C44.0813 20.677 43.9957 20.6402 43.9703 20.5056C43.9507 20.4014 43.9814 20.3126 44.0098 20.2159C44.0747 19.9932 44.0217 19.8178 43.8533 19.6468C43.773 19.5661 43.7169 19.5204 43.6822 19.4055C43.6475 19.2907 43.6571 19.1879 43.679 19.0695C43.6959 18.9797 43.704 18.8943 43.7027 18.8117C43.7454 18.897 43.8226 18.9059 43.9116 18.9485C44.0164 18.9981 44.0305 19.0616 43.9942 19.1657C43.9528 19.2866 43.9156 19.3486 43.959 19.4811C44.0547 19.7756 44.3191 19.8381 44.5801 19.9117C44.3333 19.7728 44.1294 19.6024 44.1209 19.2883C44.1179 19.1605 44.1763 19.0734 44.2017 18.9557C44.2305 18.8268 44.1509 18.7425 44.099 18.6379C43.9835 18.4069 44.1629 18.2325 44.1385 18.0062C44.1141 17.785 43.9593 17.5472 43.7883 17.4126C43.6042 17.2683 43.3761 17.1746 43.2033 17.0118C43.1468 16.9594 43.0975 16.9082 43.0515 16.851C43.0078 16.7626 42.9705 16.6672 42.9368 16.5554C42.852 16.2745 42.7739 15.9933 42.6828 15.7143C42.9251 15.9222 42.9342 16.3225 43.1254 16.5798C43.1851 16.6599 43.252 16.7244 43.3232 16.7808C43.3977 16.9378 43.5124 17.0708 43.6714 17.16C43.8692 17.2713 44.0855 17.3144 44.2145 17.5176C44.3358 17.7062 44.3446 17.9931 44.3224 18.2114C44.3044 18.393 44.307 18.6259 44.4382 18.7742C44.4285 18.7535 44.4215 18.7302 44.414 18.7053C44.384 18.606 44.3781 18.5248 44.3897 18.4231C44.4096 18.2478 44.4831 18.0986 44.4968 17.9251C44.5133 17.722 44.4555 17.5024 44.3175 17.3425L44.3221 17.3411ZM43.1112 18.3164C43.1264 18.4286 43.1022 18.4884 43.0679 18.5936C43.0358 18.6947 43.0276 18.8022 43.0021 18.903C42.9836 18.9763 42.9717 19.0545 42.9643 19.1312C42.9022 19.0263 42.8592 18.9174 42.8515 18.8079C42.8437 18.6867 42.894 18.5394 42.8996 18.4175C42.9055 18.2802 42.8383 18.1024 42.7887 17.9718C42.7792 17.9459 42.767 17.9224 42.7549 17.899C42.8217 17.9466 42.8822 17.9842 42.9349 18.0241C42.9849 18.0886 43.0353 18.1547 43.0852 18.2192C43.0941 18.2487 43.103 18.2782 43.1092 18.3153L43.1112 18.3164ZM43.7882 17.7936C43.8604 17.9767 43.8514 18.1657 43.792 18.3445C43.7866 18.2259 43.7786 18.1098 43.7538 17.9937C43.7032 17.7532 43.5528 17.5582 43.4098 17.3761C43.4275 17.3843 43.4468 17.3921 43.463 17.4007C43.6125 17.4809 43.7298 17.6453 43.7886 17.7952L43.7882 17.7936Z" fill="#242121"/>
        <g style="mix-blend-mode:screen" opacity="0.2">
            <path d="M13.3951 9.4605L8.88082 14.3514L6.44067 15.5742C7.8186 17.2656 17.9504 20.7509 26.5421 10.457C29.3719 9.02558 32.3938 7.20012 35.2464 6.47183C36.3635 6.18662 37.1295 4.77664 36.2104 4.08047C33.7093 2.1241 30.2321 3.10229 27.6699 4.81411C25.1078 6.52594 20.0445 7.38185 17.5433 7.38185C15.5424 7.38185 13.9441 8.76762 13.3951 9.4605Z" fill="#242121"/>
        </g>
        <g style="mix-blend-mode:multiply" opacity="0.2">
            <path d="M32.2159 19.292C30.7722 20.8611 25.6993 27.7515 22.4084 28.7753C15.1135 31.0448 14.2731 29.3861 11.2229 25.29C9.10213 22.442 7.74666 17.9599 6.82744 16.1798C6.69939 15.9815 6.57047 15.7797 6.44067 15.5742C6.56045 15.7049 6.68899 15.9117 6.82744 16.1798C18.6141 34.4314 23.0751 22.4479 32.2159 14.5098L34.1612 17.5088L32.2159 19.292Z" fill="#242121"/>
        </g>
        <path d="M10.2598 37.0935C10.6836 37.3689 11.1981 37.4645 11.6913 37.3592C12.1846 37.254 12.6166 36.9566 12.8934 36.5317L12.9433 35.728L13.2682 35.3677L13.0183 34.3953C12.9491 31.3817 14.9002 29.5375 16.1331 26.7867C16.2367 26.5554 16.33 26.2767 16.4106 25.9375C16.4106 25.9375 14.0438 24.5701 13.0874 23.1816C12.1038 21.7537 11.6913 18.9668 11.6913 18.9668L9.00555 21.043C9.35002 22.285 9.4691 24.6309 9.75929 26.7148C10.111 29.2403 10.8826 31.9187 10.7646 34.4658C10.5556 34.8681 10.3043 35.2465 10.015 35.5945C9.50277 36.247 9.66268 36.7584 10.2598 37.0935Z" fill="#1E1B1B"/>
        <path d="M9.39541 37.8319C10.8946 39.2175 13.1433 36.5193 13.1433 36.5193L12.9309 35.7282C12.5162 36.154 11.0345 37.3658 10.055 36.5798C9.74521 36.3278 9.80518 35.9499 9.98258 35.5947C9.52784 36.1792 8.6958 37.1794 9.39541 37.8319Z" fill="#3C3939"/>
        <path d="M31.8918 14.5088L35.393 19.1284C35.9969 19.8658 36.7578 20.4565 37.6193 20.8566L39.8006 21.8643L40.8275 26.0035C40.8838 26.2378 40.8932 26.481 40.855 26.719C40.8168 26.9569 40.7319 27.1848 40.6051 27.3891C40.4241 27.6713 40.2661 27.9679 40.1329 28.2759C39.8505 28.9511 39.6331 29.8304 40.2628 30.11C41.1573 30.5206 43.0113 28.4699 43.0113 28.4699L43.0312 27.9661L42.9938 27.7847L43.3835 27.112L43.0163 25.9758L42.8863 20.8566C42.8853 20.6821 42.8385 20.5109 42.7508 20.3605C42.663 20.2101 42.5374 20.0857 42.3866 20C41.0249 19.2443 41.1573 16.7728 40.835 14.581L40.4927 10.6182L31.8918 14.5088Z" fill="#242121"/>
        <path d="M39.8932 30.1748C41.045 31.0969 43.1414 28.6985 43.1414 28.6985L43.0164 27.9629C42.844 28.0687 42.6791 28.235 42.5492 28.3307C42.2327 28.5553 41.8984 28.7533 41.5497 28.9227C40.7077 29.3384 39.9257 28.6985 40.2655 27.9629C39.8057 28.6229 39.3635 29.7491 39.8932 30.1748Z" fill="#3C3939"/>
        <path d="M17.2678 41.138C17.6905 41.4095 18.2021 41.5028 18.6923 41.3977C19.1826 41.2927 19.6123 40.9976 19.8888 40.5762L19.9388 39.7726L20.2636 39.4098L20.0138 38.4398C19.9446 35.4262 20.5239 32.3958 20.7193 29.3877C20.8258 27.7492 20.8798 26.0613 21.2356 24.5635L20.1687 23.251L16.001 25.085C16.3454 26.3272 16.4644 28.6746 16.7548 30.7593C17.1065 33.2848 17.8781 35.9632 17.76 38.5104C17.5511 38.9127 17.2998 39.2911 17.0105 39.639C16.5107 40.2915 16.6706 40.8029 17.2678 41.138Z" fill="#242121"/>
        <path d="M16.4113 41.8768C17.9104 43.2624 20.1592 40.5617 20.1592 40.5617L19.9468 39.7732C19.532 40.1964 18.0504 41.4107 17.0709 40.6247C16.7586 40.3728 16.821 39.9949 16.9984 39.6396C16.5362 40.2216 15.7042 41.2243 16.4113 41.8768Z" fill="#3C3939"/>
        <path d="M4.70974 15.6617C4.23179 15.5292 3.73197 15.4999 3.24354 15.576C2.98721 15.6347 2.74783 15.7505 2.54314 15.9149C2.33846 16.0794 2.17372 16.2882 2.06116 16.5258C1.93636 16.7973 1.90139 17.1647 2.12653 17.3652C2.30018 17.4903 2.51237 17.5492 2.72453 17.5311C3.14683 17.5695 3.57193 17.5274 3.97728 17.407C4.32355 17.2561 4.64151 17.0476 4.91779 16.7904C5.08726 16.6542 5.83835 16.1769 5.77715 15.9611C5.71595 15.7452 4.89308 15.6824 4.70974 15.6617Z" fill="#1E1B1B"/>
        <path d="M2.74347 14.2546C2.98756 15.4331 4.14136 16.1321 4.68776 16.3344L4.31943 17.9741C3.15699 17.3685 0.973249 15.765 1.72272 13.0184C2.3223 10.8211 5.38933 10.0261 6.84789 9.90323C2.97508 11.1002 2.43837 12.7816 2.74347 14.2546Z" fill="#E6DDC0"/>
        <path d="M2.99676 29.0733C3.62709 29.2981 4.30744 29.3368 4.95747 29.1848L5.00597 29.1728C5.30612 29.1126 5.58502 28.974 5.8148 28.7709C6.04458 28.5678 6.21719 28.3074 6.31537 28.0155L6.54266 26.5318L9.31928 25.4266C9.8774 25.2053 10.373 24.85 10.7632 24.3917C11.1534 23.9333 11.4265 23.3855 11.5587 22.7959L12.1799 19.9611L11.8324 16.9664L7.59983 15.3826C7.33908 15.2808 7.05415 15.2609 6.78257 15.3254L4.50998 15.888C4.31959 15.9349 4.14146 16.0222 3.98744 16.144C3.83341 16.2659 3.70702 16.4194 3.61666 16.5945L3.01844 17.7444C2.89375 17.9854 2.84142 18.2581 2.86779 18.5291L2.99516 20.0833L1.78958 24.1866L1.41346 24.7988L1.02944 25.4415L0.972941 25.7539C0.6315 27.7019 0.387604 28.1724 2.99676 29.0733Z" fill="#242121"/>
        <path d="M12.4043 19.8744C11.7838 19.77 11.1202 19.5508 10.7985 18.9968C10.4769 18.4429 10.6021 17.7314 10.7367 17.0951C10.7497 16.9669 10.8109 16.8485 10.9077 16.764C11.0079 16.7145 11.1225 16.7036 11.2298 16.7335C12.2126 16.893 13.1267 17.3382 13.8598 18.0146C14.3583 18.4702 15.6013 19.7136 14.3387 19.9384C13.6944 20.0256 13.0406 20.0039 12.4043 19.8744Z" fill="#1E1B1B"/>
        <path d="M2.99696 29.0735C3.6273 29.2983 4.30764 29.337 4.95767 29.185L5.00618 29.173C5.30632 29.1128 5.58523 28.9743 5.81501 28.7712C6.04478 28.5681 6.21739 28.3076 6.31558 28.0158L6.54287 26.532C4.41408 24.9676 2.99696 24.6434 1.40699 24.8033L1.02297 25.446L0.966472 25.7584C0.937311 25.9214 0.907549 26.0715 0.883851 26.2149C0.849223 26.4077 0.816418 26.5871 0.79635 26.7556C0.645574 27.9038 0.902479 28.3592 2.99696 29.0735Z" fill="#2A2727"/>
        <path d="M4.7961 27.5778C4.82836 27.5289 4.87864 27.4949 4.9359 27.4834C4.99315 27.4719 5.05268 27.4838 5.10139 27.5165C5.1501 27.5492 5.184 27.6 5.19563 27.6577C5.20727 27.7154 5.19568 27.7753 5.16342 27.8243C5.12355 27.8721 5.07424 27.911 5.01862 27.9386C4.96299 27.9662 4.90225 27.9819 4.84021 27.9847L3.66575 28.1898C3.63626 28.2003 3.6046 28.2031 3.57368 28.1981C3.54276 28.193 3.51355 28.1803 3.48873 28.161C3.41661 28.0776 3.53185 27.9609 3.63311 27.9124C4.01782 27.7339 4.4237 27.6055 4.84098 27.5303L4.7961 27.5778Z" fill="#1A1A1A"/>
        <path d="M0.806471 26.7452C0.807293 26.7553 0.809747 26.7652 0.813736 26.7745C0.928425 26.9934 1.07442 27.1943 1.24702 27.3706C1.31247 27.4478 1.43189 27.5247 1.498 27.4486C1.56411 27.3725 1.51684 27.3272 1.49201 27.2684C1.38721 27.0115 1.1825 26.3925 0.941252 26.2394L0.890939 26.213C0.861161 26.4046 0.828357 26.584 0.806471 26.7452Z" fill="#1A1A1A"/>
        <path d="M13.3264 19.9929L13.0881 19.9581L12.9247 19.2977C12.8976 19.1884 12.8052 19.1309 12.7219 19.1694L12.427 19.3004C12.3812 19.3298 12.3463 19.3717 12.3274 19.4198C12.3086 19.4679 12.3067 19.5196 12.3221 19.5675L12.4856 20.2278L12.3098 20.4454C12.2891 20.4722 12.2746 20.5025 12.2673 20.5343C12.26 20.5662 12.2601 20.5988 12.2676 20.63L12.4623 21.4166C12.4649 21.4364 12.4723 21.4552 12.4839 21.4717C12.4955 21.4882 12.5111 21.5019 12.5295 21.5119C12.5479 21.5219 12.5686 21.5279 12.5902 21.5294C12.6118 21.531 12.6336 21.528 12.6542 21.5208L13.5343 21.1289C13.5778 21.1047 13.6121 21.0684 13.6324 21.0256C13.6526 20.9828 13.6575 20.9357 13.6465 20.8913L13.4518 20.1047C13.4457 20.0762 13.4305 20.0504 13.4082 20.0305C13.3859 20.0106 13.3574 19.9975 13.3264 19.9929Z" fill="#FFB800"/>
        <path d="M9.60395 17.59C9.10922 18.0936 9.72308 18.6325 10.0918 18.839C11.0724 19.2713 13.6237 19.5847 15.9844 17.3803C18.3452 15.1758 17.258 12.3399 16.4193 11.1976C16.8942 11.9932 17.5092 14.0606 16.17 15.9645C14.4959 18.3443 11.651 17.6788 11.0625 17.4671C10.4741 17.2554 10.2224 16.9604 9.60395 17.59Z" fill="#E6DDC0"/>
    </g>
    <defs>
        <clipPath id="clip0_3407_7705">
            <rect width="45" height="45" fill="white"/>
        </clipPath>
    </defs>
</svg>
