<svg width="45" height="45" viewBox="0 0 45 45" fill="none" xmlns="http://www.w3.org/2000/svg">
    <rect width="45" height="45" fill="#FAFAFA"/>
    <path d="M31.9283 14.339L10 1.38284L12.8391 0L34.7674 12.9561L31.9283 14.339Z" fill="#4D5D76"/>
    <path d="M31.9282 14.3389V44.9999L34.7674 43.6171V12.9561L31.9282 14.3389Z" fill="#4D5D76"/>
    <path d="M10 1.38281L31.9283 14.339V45L10 32.7957V1.38281Z" fill="#1B2943"/>
    <path d="M11.6914 4.74707L30.2366 15.7043V41.6356L11.6914 31.3142V4.74707Z" fill="white"/>
    <path d="M22.1619 34.7487L13.3003 29.5938C12.9924 29.4146 12.8032 29.0864 12.8032 28.7311C12.8032 27.9596 13.6445 27.4793 14.3136 27.8684L23.1752 33.0233C23.4831 33.2025 23.6723 33.5308 23.6723 33.886C23.6723 34.6575 22.831 35.1379 22.1619 34.7487Z" fill="#E8E7F3"/>
    <path d="M16.431 6.40058C16.2125 8.04217 17.0026 9.65406 18.4363 10.4939L22.1902 12.6928C24.0267 13.7347 26.3096 12.415 26.3096 10.3105L28.9676 9.28714V8.65723L19.5445 3.33691L16.6148 5.02039L16.431 6.40058Z" fill="#E3DFF1"/>
    <path d="M18.1614 10.2947L21.6468 12.2719C23.4832 13.3138 25.7662 11.9941 25.7662 9.88959L28.9676 8.65733L19.0005 2.91602L16.0708 4.59949V6.71352C16.0708 8.19444 16.8689 9.56137 18.1614 10.2947Z" fill="#F4F1F8"/>
    <path d="M18.1614 10.2948L21.6468 12.272C23.4832 13.3139 25.7662 11.9942 25.7662 9.8897L16.0708 4.59961V6.71363C16.0708 8.19456 16.8689 9.56149 18.1614 10.2948Z" fill="#E8E7F3"/>
    <path fill-rule="evenodd" clip-rule="evenodd" d="M28.3832 33.6183C28.4288 33.6064 28.4771 33.6125 28.5181 33.6354C28.5591 33.6583 28.5896 33.6962 28.6032 33.741L28.6979 34.0543C28.7103 34.0952 28.7077 34.1391 28.6907 34.1784C28.6736 34.2176 28.6432 34.2497 28.6049 34.2688L28.6041 34.2694L28.601 34.2709L28.5883 34.2772L28.538 34.3031C28.2584 34.4496 27.9835 34.6047 27.7136 34.7682C27.2055 35.0763 26.5871 35.4932 26.1224 35.9372C25.9927 36.0611 25.7744 36.032 25.6887 35.8672L24.9051 34.364C24.8938 34.3424 24.8871 34.3188 24.8852 34.2946C24.8833 34.2704 24.8863 34.246 24.894 34.2229C24.9018 34.1999 24.9141 34.1786 24.9303 34.1604C24.9464 34.1421 24.9661 34.1273 24.9881 34.1168L25.4213 33.9093C25.4594 33.8911 25.5026 33.8866 25.5435 33.8966C25.5845 33.9066 25.6206 33.9305 25.6458 33.9642L26.0951 34.5647C27.26 33.942 27.8723 33.7514 28.3832 33.6183Z" fill="#8BDE4B"/>
    <path d="M23.8639 18.7605C23.8639 18.7605 25.9985 18.5842 26.1512 20.6788C26.3039 22.7734 25.1863 23.4681 24.7282 24.0287C24.27 24.5894 24.0921 24.8027 24.04 25.4551C23.9879 26.1075 23.9556 26.9873 24.3131 27.5109C24.4497 27.7119 23.6088 28.255 23.4058 27.3346C23.2027 26.4142 23.5082 25.679 23.4058 24.8944C23.3034 24.1098 22.8128 23.9899 23.3339 22.8545C23.3339 22.8545 21.8803 18.935 23.8639 18.7605Z" fill="#AB8055"/>
    <path d="M17.8749 15.0736C17.8749 15.0736 19.8154 14.9096 19.9537 16.8967C20.0921 18.8837 19.0769 19.5414 18.6601 20.0879C18.2432 20.6345 17.9216 20.7932 17.8749 21.4138C17.8682 22.1145 18.0604 22.8031 18.4301 23.4026C18.5541 23.5931 17.6431 24.1079 17.4599 23.2369C17.2766 22.3659 17.3197 21.6818 17.2263 20.936C17.1328 20.1902 16.9136 20.0544 17.3934 18.9684C17.3934 18.9754 16.0728 15.2411 17.8749 15.0736Z" fill="#AB8055"/>
    <path d="M25.2556 18.8468C23.9978 17.5861 22.2191 17.26 21.5884 16.6288C20.9578 15.9976 19.0999 15.5074 18.534 15.0419C17.9357 14.5289 16.3024 13.9664 15.4202 14.8692C15.4202 14.8692 13.7546 15.994 15.3484 18.0428C15.5176 18.2087 15.6976 18.3636 15.8874 18.5065C18.3651 20.3631 18.8035 20.4812 19.9624 21.3028C21.1931 22.1844 22.0196 22.6023 23.6547 22.8226C24.9285 22.999 26.0443 22.2179 26.2204 21.3222C26.3048 20.5817 26.109 19.7019 25.2556 18.8468Z" fill="#C08E5D"/>
    <path d="M21.4933 18.7022C21.4933 18.7022 23.6279 18.51 23.7806 20.8056C23.9333 23.1012 22.8121 23.8664 22.3576 24.4888C21.903 25.1112 21.5436 25.3016 21.4933 26.0192C21.443 26.7368 21.7467 27.74 22.1024 28.3113C22.2408 28.5317 21.2382 29.1241 21.0352 28.1191C20.8321 27.1141 21.1376 26.3013 21.0352 25.4409C20.9327 24.5805 20.4351 24.4377 20.9633 23.1947C20.9633 23.1982 19.5097 18.8944 21.4933 18.7022Z" fill="#C08E5D"/>
    <path d="M21.0352 28.1215C21.3381 28.1597 21.6444 28.0834 21.8922 27.9082L22.1815 28.4971C22.1815 28.4971 21.6137 28.7951 21.3244 28.7563C21.0352 28.7175 21.0352 28.1215 21.0352 28.1215Z" fill="#281405"/>
    <path d="M23.415 27.2984C23.6727 27.3318 23.9338 27.2689 24.1463 27.1221L24.3925 27.614C24.3925 27.614 23.9091 27.8679 23.6612 27.8344C23.4132 27.8009 23.415 27.2984 23.415 27.2984Z" fill="#281405"/>
    <path d="M17.436 23.1912C17.7102 23.2249 17.9872 23.1563 18.2122 22.999L18.4745 23.528C18.4745 23.528 17.9607 23.803 17.6984 23.7677C17.436 23.7325 17.436 23.1912 17.436 23.1912Z" fill="#281405"/>
    <path d="M15.7338 15.0782C15.7338 15.0782 17.8683 14.886 18.021 17.1816C18.1738 19.4772 17.0634 20.2424 16.598 20.8648C16.1327 21.4872 16.041 21.8204 15.9889 22.538C15.9368 23.2556 15.9889 24.116 16.3483 24.6908C16.4866 24.9112 15.4841 25.5036 15.281 24.4986C15.078 23.4936 15.3834 22.6826 15.281 21.8204C15.1786 20.9582 14.4869 20.7784 15.0169 19.5283C15.0115 19.5354 13.7502 15.2721 15.7338 15.0782Z" fill="#C08E5D"/>
    <g opacity="0.3">
        <path opacity="0.3" d="M21.5897 16.6278C20.9609 16.0001 19.1012 15.5064 18.5353 15.041C17.9352 14.5349 16.3145 13.9831 15.4287 14.8646C15.47 15.1238 15.6335 15.4888 16.2013 15.7092C17.15 16.0794 18.9719 16.3316 19.7229 17.0686C20.4739 17.8055 21.3759 18.8863 22.4791 19.2742C23.4709 19.6269 25.6396 21.2578 26.1391 20.2757C26.0061 19.812 25.8067 18.9727 25.2802 18.5461C23.7961 17.3418 22.2204 17.2572 21.5897 16.6278Z" fill="#C08E5D"/>
    </g>
    <path d="M15.3198 15.302C13.8536 15.4924 14.6568 20.6672 14.6568 20.6672L14.3351 20.7218C14.3351 20.7218 14.2489 19.1791 14.1878 17.0527C14.1267 14.9264 15.3198 15.302 15.3198 15.302Z" fill="#C08E5D"/>
    <path d="M14.2945 20.4299C14.3286 20.3065 14.7041 20.1231 14.6682 20.7243C14.6323 21.3256 14.4436 21.5724 14.4436 21.5724C14.4436 21.5724 14.0807 21.1933 14.2945 20.4299Z" fill="#7C4739"/>
    <path d="M15.25 24.4772C15.5671 24.5186 15.8884 24.4397 16.1484 24.2568L16.4502 24.8722C16.4502 24.8722 15.8591 25.1825 15.5519 25.1419C15.2446 25.1014 15.25 24.4772 15.25 24.4772Z" fill="#281405"/>
    <path d="M26.1372 18.7821C26.1372 18.7821 27.2152 17.9217 27.7183 18.3202C27.7183 18.3202 28.2035 18.9725 26.4606 19.2176C26.4606 19.2176 26.1372 19.2 26.1372 18.7821Z" fill="#8E5146"/>
    <path d="M26.9707 19.1994L27.0451 19.1692V18.9432C27.0451 18.9057 27.0704 18.8798 27.1005 18.8856L27.2065 18.9043C27.2237 18.9101 27.2384 18.9208 27.2484 18.9348C27.2583 18.9488 27.2631 18.9654 27.2619 18.982V19.2081L27.3364 19.2642C27.3452 19.2712 27.3524 19.2798 27.3573 19.2895C27.3622 19.2992 27.3648 19.3097 27.3649 19.3203V19.5896C27.3656 19.5962 27.3647 19.6028 27.3623 19.6091C27.3598 19.6153 27.3559 19.621 27.3507 19.6257C27.3456 19.6304 27.3393 19.6339 27.3325 19.6362C27.3256 19.6384 27.3183 19.6392 27.311 19.6385L26.9944 19.5824C26.9784 19.578 26.9643 19.5691 26.9543 19.5569C26.9444 19.5447 26.939 19.5299 26.939 19.5147V19.2455C26.9387 19.2358 26.9415 19.2263 26.9471 19.2181C26.9528 19.2099 26.961 19.2034 26.9707 19.1994Z" fill="#FFB800"/>
    <path d="M24.1702 18.1598C24.1702 18.1598 22.5926 18.7664 22.8658 20.1345C23.1389 21.5027 24.0696 21.7637 24.5637 21.9876C25.0578 22.2115 25.7711 23.1865 26.5706 23.0067C27.3702 22.8268 28.3099 22.4901 27.7151 21.4199C27.1204 20.3496 26.8168 19.8718 26.5706 19.0872C26.3245 18.3026 24.9913 17.6203 24.1702 18.1598Z" fill="#C08E5D"/>
    <path d="M26.0215 18.5389C26.0215 18.5389 27.06 18.0541 26.2928 17.0967C26.1784 17.4693 25.9997 17.82 25.7645 18.1334C25.7645 18.1334 25.6316 18.5195 26.0215 18.5389Z" fill="#4E4C62"/>
    <path d="M24.1699 18.1611C24.1699 18.1611 24.098 18.1893 23.9902 18.244C24.1537 18.482 24.0369 19.0021 24.0765 19.3019C24.1448 19.8061 25.2228 19.5187 26.4464 21.1831C26.7806 21.638 26.9495 20.3897 26.4464 19.6421C25.4779 18.2034 25.1887 18.5596 24.9317 17.9742C24.6639 17.9542 24.3967 18.0198 24.1699 18.1611Z" fill="#C08E5D"/>
    <path d="M22.8658 20.1357C23.1407 21.5039 24.0606 21.7648 24.5637 21.9887C25.0668 22.2127 25.7711 23.1877 26.5707 23.0078C26.6928 22.9814 26.8168 22.9496 26.93 22.9126C27.3127 21.8089 26.3389 21.5673 25.852 21.2764C25.3129 20.9538 24.0552 20.5377 23.7893 19.6226C23.6917 19.2888 23.5529 18.9678 23.3761 18.667C23.1664 18.8457 23.0087 19.0758 22.9191 19.3338C22.8294 19.5918 22.8111 19.8685 22.8658 20.1357Z" fill="#AB8055"/>
    <path d="M23.6758 19.429C23.6758 19.429 22.2815 19.362 22.1216 19.9667C22.1216 19.9667 22.1216 20.776 23.6758 19.9667C23.6758 19.9667 23.9291 19.7657 23.6758 19.429Z" fill="#8E5146"/>
    <path d="M23.6762 19.213C23.6762 19.213 22.5335 19.3382 22.67 18.127C22.968 18.3841 23.3082 18.5898 23.6762 18.7352C23.6762 18.7352 23.9978 18.9944 23.6762 19.213Z" fill="#4E4C62"/>
    <path d="M26.4833 22.6354C26.4833 22.6354 25.7125 23.561 24.8159 23.2683C24.8159 23.2683 25.876 23.1643 26.3378 22.5049L26.4833 22.6354Z" fill="#82A31A"/>
    <path d="M26.701 22.8994C26.701 22.8994 25.8026 22.9488 25.605 23.6047C25.605 23.6047 26.1224 23.0316 26.719 23.0475L26.701 22.8994Z" fill="#5E7710"/>
    <path d="M26.56 22.6924C26.56 22.6924 26.215 23.5017 25.5215 23.4717C25.5215 23.4717 26.2402 23.1861 26.4306 22.6289L26.56 22.6924Z" fill="#5E7710"/>
    <path d="M26.431 22.6289C26.431 22.6289 25.5326 22.6765 25.335 23.3342C25.335 23.3342 25.8524 22.7611 26.4471 22.777L26.431 22.6289Z" fill="#5E7710"/>
    <path d="M26.5732 22.8955C26.5732 22.8955 25.7251 23.19 25.7144 23.874C25.7144 23.874 26.0485 23.1688 26.6289 23.026L26.5732 22.8955Z" fill="#82A31A"/>
    <path d="M27.2158 22.4603C27.2158 22.4603 28.3154 22.9892 29 22.3404C29 22.3404 27.9938 22.693 27.2913 22.2822L27.2158 22.4603Z" fill="#82A31A"/>
    <path d="M27.1333 22.7952C27.1333 22.7952 27.9634 22.4673 28.4287 22.9716C28.4287 22.9716 27.7101 22.6683 27.171 22.9292L27.1333 22.7952Z" fill="#5E7710"/>
    <path d="M27.1709 22.5466C27.1709 22.5466 27.8339 23.1373 28.4484 22.8217C28.4484 22.8217 27.6686 22.864 27.2607 22.4355L27.1709 22.5466Z" fill="#5E7710"/>
    <path d="M27.2617 22.4361C27.2617 22.4361 28.0918 22.1099 28.5572 22.6124C28.5572 22.6124 27.8385 22.3092 27.2995 22.5701L27.2617 22.4361Z" fill="#5E7710"/>
    <path d="M27.2485 22.7358C27.2485 22.7358 28.1469 22.6476 28.447 23.2647C28.447 23.2647 27.8433 22.7728 27.2539 22.8768L27.2485 22.7358Z" fill="#82A31A"/>
    <path d="M26.6474 21.9453C26.3509 22.074 25.0699 22.268 26.3186 23.0032C26.3186 23.0032 27.2744 23.5127 27.853 22.3402C27.9913 22.0617 28.3561 21.2101 26.6474 21.9453Z" fill="#F2BCAF"/>
    <path d="M27.5758 22.1673C27.5855 22.2122 27.5807 22.259 27.5622 22.3012C27.5436 22.3433 27.5122 22.3788 27.4723 22.4028C27.4323 22.4267 27.3858 22.4379 27.3391 22.4348C27.2924 22.4317 27.2478 22.4145 27.2115 22.3855C27.1752 22.3565 27.1489 22.3172 27.1363 22.273C27.1237 22.2288 27.1254 22.1818 27.1411 22.1385C27.1568 22.0953 27.1858 22.0579 27.2241 22.0314C27.2623 22.005 27.308 21.9909 27.3548 21.991C27.4078 21.9865 27.4604 22.0024 27.5017 22.0353C27.5429 22.0682 27.5695 22.1155 27.5758 22.1673Z" fill="#D18F86"/>
    <path d="M27.3561 22.3481C27.3954 22.3477 27.4341 22.3387 27.4693 22.3217C27.4849 22.2973 27.4935 22.2693 27.4944 22.2405C27.4877 22.1886 27.4607 22.1413 27.4192 22.1084C27.3777 22.0755 27.3248 22.0597 27.2716 22.0642C27.2324 22.0644 27.1936 22.0735 27.1585 22.0907C27.1421 22.1147 27.1333 22.1429 27.1333 22.1718C27.1401 22.2237 27.167 22.2711 27.2086 22.3039C27.2501 22.3368 27.3029 22.3526 27.3561 22.3481Z" fill="#E0A499"/>
    <path d="M26.7648 22.5296C26.7744 22.5745 26.7697 22.6212 26.7512 22.6633C26.7327 22.7054 26.7014 22.7409 26.6616 22.7648C26.6218 22.7888 26.5754 22.8001 26.5287 22.7971C26.4821 22.7942 26.4375 22.7772 26.4012 22.7484C26.3648 22.7196 26.3384 22.6805 26.3256 22.6364C26.3128 22.5923 26.3142 22.5454 26.3296 22.5021C26.345 22.4588 26.3737 22.4213 26.4117 22.3946C26.4498 22.368 26.4953 22.3536 26.542 22.3533C26.5952 22.3488 26.648 22.3646 26.6895 22.3975C26.7311 22.4303 26.758 22.4777 26.7648 22.5296Z" fill="#D18F86"/>
    <path d="M26.5379 22.7075C26.5772 22.7075 26.616 22.6985 26.6511 22.681C26.6674 22.657 26.6762 22.6288 26.6762 22.5999C26.6699 22.5481 26.6433 22.5008 26.6021 22.4679C26.5608 22.435 26.5082 22.4191 26.4552 22.4236C26.4154 22.4238 26.3761 22.4328 26.3403 22.45C26.3252 22.4746 26.3172 22.5026 26.3169 22.5311C26.3232 22.5829 26.3498 22.6303 26.3911 22.6632C26.4323 22.6961 26.4849 22.7119 26.5379 22.7075Z" fill="#E0A499"/>
</svg>
