<?xml version="1.0" encoding="UTF-8" standalone="no"?>
<svg
   width="41"
   height="41"
   viewBox="0 0 41 41"
   fill="none"
   version="1.1"
   id="svg3"
   sodipodi:docname="icon16.svg"
   inkscape:version="1.4.3 (0d15f75, 2025-12-25)"
   xml:space="preserve"
   xmlns:inkscape="http://www.inkscape.org/namespaces/inkscape"
   xmlns:sodipodi="http://sodipodi.sourceforge.net/DTD/sodipodi-0.dtd"
   xmlns="http://www.w3.org/2000/svg"
   xmlns:svg="http://www.w3.org/2000/svg"><defs
     id="defs3" /><sodipodi:namedview
     id="namedview3"
     pagecolor="#ffffff"
     bordercolor="#000000"
     borderopacity="0.25"
     inkscape:showpageshadow="2"
     inkscape:pageopacity="0.0"
     inkscape:pagecheckerboard="0"
     inkscape:deskcolor="#d1d1d1"
     inkscape:zoom="5.4067799"
     inkscape:cx="30.887146"
     inkscape:cy="21.177115"
     inkscape:window-width="1600"
     inkscape:window-height="829"
     inkscape:window-x="3192"
     inkscape:window-y="-8"
     inkscape:window-maximized="1"
     inkscape:current-layer="svg3" /><rect
     width="41"
     height="41"
     fill="#fafafa"
     id="rect1"
     x="0"
     y="0" /><circle
     cx="21"
     cy="20"
     r="16"
     fill="#63B78F"
     id="circle1" /><g
     id="g6"
     transform="matrix(0.05538754,-0.03218097,0.03697102,0.07455596,0.48175163,10.528157)">
	<g
   id="g2">
		<path
   style="fill:#7e89a5"
   d="m 151.704,341.336 c 0,20.945 -16.981,37.926 -37.926,37.926 -20.945,0 -37.926,-16.981 -37.926,-37.926 0,-20.945 16.981,-37.926 37.926,-37.926 20.945,0 37.926,16.981 37.926,37.926"
   id="path1" />
		<path
   style="fill:#7e89a5"
   d="m 265.481,265.484 h 94.815 l -31.336,94.018 c -3.935,11.804 -14.981,19.759 -27.411,19.759 v 0 c -15.028,0 -27.544,-11.52 -28.795,-26.491 z"
   id="path2" />
		<polygon
   style="fill:#7e89a5"
   points="113.778,265.484 0,132.743 426.667,151.706 369.778,265.484 "
   id="polygon2" />
	</g>
	<g
   id="g5">
		<path
   style="fill:#434c6d"
   d="m 507.06,152.864 c -4.599,-2.503 -10.354,-0.806 -12.866,3.783 l -54.196,99.356 h -326.22 c -5.234,0 -9.481,4.248 -9.481,9.481 v 75.852 c 0,5.234 4.248,9.481 9.481,9.481 5.233,0 9.481,-4.248 9.481,-9.481 v -66.37 h 322.37 0.019 c 1.119,-0.009 2.2,-0.275 3.243,-0.654 0.266,-0.104 0.531,-0.209 0.787,-0.332 0.92,-0.436 1.792,-0.986 2.541,-1.716 0.038,-0.038 0.095,-0.057 0.133,-0.104 0.616,-0.616 1.157,-1.327 1.602,-2.133 l 56.889,-104.296 c 2.513,-4.599 0.816,-10.354 -3.783,-12.867"
   id="path3" />
		<path
   style="fill:#434c6d"
   d="m 104.296,180.151 h -0.009 l -55.495,0.047 c -2.351,0.009 -4.428,0.958 -6.087,2.37 l 14.222,16.593 47.379,-0.047 c 5.234,0 9.472,-4.257 9.472,-9.491 0,-5.234 -4.248,-9.472 -9.482,-9.472"
   id="path4" />
		<path
   style="fill:#434c6d"
   d="m 132.741,218.077 h -0.009 l -51.418,0.057 c -2.351,0 -4.437,0.948 -6.087,2.37 l 14.213,16.583 43.311,-0.047 c 5.234,0 9.472,-4.257 9.472,-9.491 0,-5.234 -4.248,-9.472 -9.482,-9.472"
   id="path5" />
	</g>
</g></svg>
