<svg width="41" height="41" viewBox="0 0 41 41" fill="none" xmlns="http://www.w3.org/2000/svg">
    <rect width="41" height="41" fill="#FAFAFA"/>
    <circle cx="21" cy="20" r="16" fill="#63B78F"/>
    <path d="M30.3697 6.92578H10.382C9.61874 6.92578 9 7.54452 9 8.30778V36.6183C9 37.3815 9.61874 38.0003 10.382 38.0003H30.3697C31.133 38.0003 31.7517 37.3815 31.7517 36.6183V8.30778C31.7517 7.54452 31.133 6.92578 30.3697 6.92578Z" fill="#2E3A59"/>
    <path d="M29.898 9.37793H10.8538C10.6528 9.37793 10.4897 9.54094 10.4897 9.74202V36.018C10.4897 36.219 10.6528 36.3821 10.8538 36.3821H29.898C30.0991 36.3821 30.2621 36.219 30.2621 36.018V9.74202C30.2621 9.54094 30.0991 9.37793 29.898 9.37793Z" fill="white"/>
    <path d="M26.3143 17.6171C26.3143 17.6688 25.9697 17.5181 25.9599 17.5139C25.9669 17.5195 26.1511 17.6702 26.1078 17.7274C26.1078 17.7274 25.886 17.7051 25.6906 17.4623C25.692 17.4678 25.7367 17.6088 25.6906 17.5809C25.6432 17.5516 25.4953 17.2627 25.5106 17.0939C25.526 16.9237 25.4506 17.0785 25.4506 17.0785C25.4506 17.0785 25.3404 16.8581 25.385 16.5176C25.4213 16.2343 25.459 16.2678 25.4367 16.1729C25.4353 16.1663 25.4334 16.1598 25.4311 16.1534C25.4269 16.1381 25.4213 16.1185 25.4143 16.0962C25.3557 15.8967 25.3627 15.4529 25.385 15.1808C25.4074 14.9074 25.2957 14.4497 25.2957 14.4497L25.2106 13.5804L25.0669 12.1152C25.3334 12.1822 25.4074 12.2352 25.4953 12.4599C25.5846 12.6845 25.7171 12.8771 25.7311 13.1645C25.7464 13.452 25.6502 14.8781 25.6055 15.3134C25.5985 15.3839 25.5971 15.4548 25.6013 15.5255C25.6209 15.8785 25.7604 16.1813 25.7604 16.1813L25.6571 16.1185C25.6571 16.1185 25.812 16.4799 25.8929 16.5762C25.9739 16.6725 26.0855 16.7116 26.0562 16.7548C26.0269 16.7981 25.9083 16.7827 26.0046 16.886C26.1009 16.9892 26.2334 17.0702 26.2111 17.1734C26.2111 17.1734 26.1664 17.1218 26.0185 17.1288C25.8706 17.1371 26.3143 17.5655 26.3143 17.6171Z" fill="#444041"/>
    <path d="M25.4495 16.1802L25.4355 16.1732C25.4341 16.1666 25.4323 16.1601 25.4299 16.1537C25.4258 16.1383 25.4202 16.1188 25.4132 16.0965C25.3546 15.8969 25.3616 15.4532 25.3839 15.1811C25.4062 14.9076 25.2946 14.45 25.2946 14.45L25.2095 13.5806L25.4565 13.5625C25.6016 14.1444 25.3099 15.8104 25.4495 16.1802Z" fill="#353132"/>
    <path d="M20.0113 19.4325C19.9722 19.466 19.9792 19.533 19.9876 19.6376C19.9904 19.6864 19.9918 19.7339 19.9834 19.7632C19.9541 19.8553 19.2955 19.8511 19.2453 19.8078C19.2034 19.773 19.3122 19.639 19.4015 19.5134C19.4211 19.4855 19.4392 19.4576 19.456 19.4311C19.5425 19.286 19.4922 19.099 19.4922 19.099C19.4685 18.9302 19.4434 18.792 19.4183 18.679C19.3471 18.3581 19.2732 18.2297 19.202 18.1404C19.1811 18.1139 19.1587 18.0441 19.1392 17.959C19.135 17.9395 19.1308 17.9199 19.1253 17.899C19.0848 17.705 19.0527 17.4608 19.0429 17.3911C19.029 17.2808 18.9132 17.2404 18.5225 17.306V17.0967L19.5746 16.5176C19.5746 16.5176 19.6457 16.9264 19.6667 17.045C19.6694 17.0604 19.6722 17.0715 19.6722 17.0743C19.6792 17.1036 19.7811 17.6897 19.795 17.906C19.7978 17.9422 19.7992 17.9743 19.802 18.0036C19.8104 18.125 19.8104 18.2478 19.8411 18.365C19.9136 18.6455 19.9974 19.0585 20.0113 19.1604C20.0281 19.2832 20.0727 19.3795 20.0113 19.4325Z" fill="#494448"/>
    <path d="M19.6653 17.0436C19.6025 17.3408 19.4281 17.6897 19.1378 17.959C19.0918 17.7595 19.0527 17.4678 19.0429 17.3911C19.029 17.2808 18.9132 17.2404 18.5225 17.306V17.0967L19.5746 16.5176C19.5732 16.5176 19.6443 16.9264 19.6653 17.0436Z" fill="#353132"/>
    <path d="M24.4724 17.6729C24.4152 18.0483 24.3412 18.6036 24.3887 18.6957C24.4612 18.8366 24.3329 19.0083 24.3259 19.0487C24.3077 19.1548 24.2938 19.1841 24.2408 19.2427C24.1877 19.3027 24.1222 19.3627 24.0803 19.385C23.9966 19.4297 23.6589 19.452 23.5933 19.385C23.5417 19.3334 23.6491 19.2064 23.744 19.099C23.7719 19.0683 23.7984 19.039 23.8194 19.0138C23.9128 18.9036 23.8808 18.8087 23.8975 18.5129C23.9142 18.2171 23.8473 17.8236 23.7928 17.4301C23.7748 17.3062 23.7487 17.1836 23.7147 17.0631C23.6254 16.7436 23.4859 16.4199 23.3394 16.311L23.7719 15.9678H24.5254L24.531 17.3227C24.5296 17.3213 24.5031 17.472 24.4724 17.6729Z" fill="#444041"/>
    <path d="M24.5296 17.3217C24.5296 17.3217 24.5031 17.4724 24.4724 17.6733L24.4598 17.697C24.4598 17.697 23.9756 17.0301 23.7147 17.0622C23.6254 16.7426 23.4859 16.4189 23.3394 16.3101L23.7719 15.9668H24.5254L24.5296 17.3217Z" fill="#353132"/>
    <path d="M23.4541 16.2723C23.6648 16.3533 23.715 16.6128 23.7415 16.6854C23.7681 16.7579 23.8336 16.7789 23.8741 16.7244C23.9146 16.67 23.8909 16.5584 23.8909 16.5584L23.8978 16.3058L23.7834 16.1816L23.4541 16.2723Z" fill="#DBA9A9"/>
    <path d="M22.6519 16.285C23.3328 16.4413 23.7067 16.2557 23.7821 16.3297C23.8574 16.405 23.8826 16.7441 24.0012 16.7343C24.1184 16.7232 24.0444 16.3841 24.0444 16.3353C24.0444 16.2864 24.4295 16.1762 24.4295 16.1762L24.5258 15.0111L23.263 14.8506L22.6519 16.285Z" fill="#EDBCBC"/>
    <path d="M23.2754 15.6852C23.5768 15.3908 23.7959 15.3057 23.934 15.4675C24.0722 15.6294 24.2396 15.8554 24.3094 16.3033L24.5298 16.0564L24.4001 14.9233L23.6996 14.6289L23.1289 15.3894L23.2754 15.6852Z" fill="#B28686"/>
    <path d="M25.1955 15.6402C25.0573 16.1258 25.088 16.5695 25.2122 16.9462C25.259 17.0909 25.2561 17.2471 25.2039 17.39C25.1916 17.4168 25.1809 17.4443 25.1718 17.4723C25.1369 17.5993 25.0239 18.8328 25.0643 19.0797C25.0908 19.243 25.035 19.2639 25.0015 19.2974C24.9764 19.3225 24.8857 19.3825 24.8983 19.4495C24.8989 19.4529 24.8989 19.4564 24.8982 19.4597C24.8975 19.4631 24.8961 19.4662 24.8941 19.4691C24.8578 19.5277 24.6178 19.5779 24.4908 19.5779C24.3513 19.5779 24.3025 19.536 24.3025 19.5165C24.3184 19.4368 24.3477 19.3604 24.389 19.2904C24.4478 19.1864 24.4955 19.0765 24.5313 18.9625C24.5704 18.837 24.6708 18.2425 24.6122 17.983C24.5508 17.7095 24.4545 17.1988 24.3625 17.009C24.3512 16.9854 24.3415 16.9612 24.3331 16.9365C24.2773 16.7593 24.3025 16.55 24.3136 16.4439C24.3234 16.3393 24.2494 15.6806 24.0541 15.3876C24.0262 15.3422 23.9886 15.3036 23.9438 15.2746C23.7624 15.1685 23.6201 15.2383 23.4862 15.3876C23.4136 15.4685 23.3452 15.5732 23.2741 15.6862C23.2573 15.7127 23.2392 15.742 23.2197 15.7727C23.0899 15.9806 22.9113 16.2541 22.6001 16.4565C22.4244 16.5699 22.2289 16.6495 22.0238 16.6909C21.9889 16.6979 21.9541 16.7048 21.9178 16.7104C21.0722 16.8444 20.782 16.5248 20.2992 16.5039C20.1387 16.4969 19.8778 16.5179 19.6405 16.5709C19.6127 16.5764 19.5853 16.5834 19.5582 16.5918C19.4312 16.6253 19.3168 16.6686 19.2345 16.723C18.9847 16.8876 18.0303 17.9272 17.994 17.976C17.9787 17.9969 17.8824 18.1839 17.7777 18.4058C17.6326 18.7128 17.4722 19.2821 17.4819 19.3658C17.4896 19.4363 17.4896 19.5074 17.4819 19.5779C17.4795 19.6002 17.4711 19.6215 17.4576 19.6394C17.4441 19.6573 17.426 19.6713 17.4052 19.6797C17.3522 19.7035 17.3033 19.7523 17.3117 19.7914C17.3242 19.8458 17.2321 19.9379 16.9098 19.9491C16.5875 19.9616 16.4954 19.9979 16.5749 19.8388C16.6545 19.6811 16.7145 19.6867 16.8247 19.596C16.8396 19.584 16.8531 19.5704 16.8652 19.5556C16.9545 19.4565 16.9949 19.2946 17.0424 19.1509C17.0968 18.9863 17.2838 18.4016 17.3117 17.8979C17.3159 17.8337 17.3773 17.609 17.4205 17.5365C17.4638 17.4639 17.8461 17.0132 17.8461 17.0132C17.8461 17.0132 17.6326 16.7634 17.4624 16.8486C17.348 16.9058 17.1205 17.0844 16.9838 17.2169C16.945 17.2525 16.9104 17.2923 16.8805 17.3355C16.8759 17.3427 16.873 17.3508 16.8721 17.3593C16.8721 17.4193 16.6182 18.1755 16.3907 18.5844C16.3419 18.6723 16.2945 18.7435 16.2512 18.7895C16.0921 18.9556 16.0489 18.996 16.0307 19.0477C16.0267 19.0605 16.0234 19.0735 16.021 19.0867C16.0084 19.1663 15.9889 19.3002 15.9345 19.3421C15.9345 19.3421 15.8982 19.3672 15.7838 19.3658C15.6693 19.363 15.7377 19.296 15.7475 19.2584C15.7573 19.2207 15.7531 19.123 15.7531 19.123C15.7384 19.1636 15.7202 19.2028 15.6986 19.2402C15.6773 19.2779 15.6489 19.3111 15.6149 19.3379C15.5284 19.3993 15.3414 19.4481 15.1517 19.4202C14.9619 19.3923 14.8963 19.229 14.9424 19.1342C14.9884 19.0393 15.0065 18.8174 15.0107 18.7532C15.0135 18.7183 15.0024 18.5788 15.0079 18.4211C15.0079 18.3988 15.0093 18.3765 15.0107 18.3542V18.3444C15.0147 18.2611 15.0268 18.1783 15.047 18.0974C15.0638 18.0332 15.0819 17.863 15.0721 17.8114C15.0512 17.6914 15.0945 17.489 15.0945 17.489L15.2689 16.8779L15.6526 16.642C16.0545 16.5234 16.2917 15.5774 16.6001 15.0792C16.7968 14.7611 16.9168 14.249 17.1819 13.7662C17.3312 13.4941 17.5266 13.2332 17.807 13.0197C18.0415 12.8425 18.2522 12.7239 18.4405 12.6457C18.8787 12.4629 19.194 12.4922 19.3922 12.4755C19.6182 12.4574 22.0531 12.2285 23.3062 12.1127C23.6313 12.082 23.8769 12.0597 23.9829 12.0499C24.0764 12.0415 24.1783 12.0276 24.2815 12.0178C24.7504 11.969 25.268 11.9718 25.4034 12.689C25.4732 13.0546 25.4578 13.5904 25.4132 14.1067C25.3559 14.8281 25.2332 15.5104 25.1955 15.6402Z" fill="#444041"/>
    <path opacity="0.5" d="M23.4875 15.3867C23.415 15.4676 23.3466 15.5723 23.2754 15.6853C23.2587 15.7118 23.2405 15.7411 23.221 15.7718C23.0912 15.9797 22.9126 16.2532 22.6015 16.4556C22.4251 16.5679 22.2299 16.6474 22.0252 16.69C21.9903 16.697 21.9554 16.7039 21.9191 16.7095C21.0735 16.8435 20.7833 16.5239 20.3005 16.503C20.14 16.496 19.8791 16.517 19.6419 16.57C19.6141 16.5755 19.5866 16.5825 19.5596 16.5909L19.8261 16.4598L19.8959 16.2937L19.8707 16.1793L19.8135 16.0844L19.7452 15.9672C20.1219 16.2198 22.8415 16.0649 23.4875 15.3867Z" fill="#353132"/>
    <path d="M18.2033 16.3868C18.1001 16.7036 17.8489 17.0134 17.8489 17.0134C17.8489 17.0134 17.6354 16.7636 17.4652 16.8487C17.3507 16.9059 17.1233 17.0845 16.9866 17.2171C16.9478 17.2526 16.9132 17.2924 16.8833 17.3357C17.0661 16.5264 18.2605 15.7422 18.2605 15.7422C18.2605 15.7422 18.3066 16.0687 18.2033 16.3868Z" fill="#353132"/>
    <path d="M15.703 19.24C15.6817 19.2776 15.6533 19.3108 15.6193 19.3377C15.5328 19.399 15.3458 19.4479 15.1561 19.42C14.9663 19.3921 14.9007 19.2288 14.9468 19.1339C14.9928 19.039 15.0109 18.8172 15.0151 18.753C15.0179 18.7181 15.0068 18.5786 15.0123 18.4209C15.0081 18.7153 15.1226 18.8744 15.2314 18.9149C15.35 18.9595 15.4198 19.0502 15.4979 19.0363C15.5761 19.0223 15.6723 18.8409 15.6723 18.8409L15.703 19.24Z" fill="#353132"/>
    <path d="M17.3855 14.6006C17.1762 14.962 17.0451 15.2439 17.1399 15.555C17.2334 15.8662 17.2627 15.7936 17.0241 16.3588C16.7883 16.9169 16.9823 17.2113 16.9864 17.2183C16.9195 17.2825 16.8748 17.3369 16.8748 17.3606C16.8748 17.4206 16.6209 18.1769 16.3934 18.5858C16.219 18.4979 16.3934 18.276 16.4227 18.0583C16.452 17.8406 16.3362 17.9425 16.3432 17.856C16.3502 17.7695 16.3655 17.5672 16.1478 17.4653C15.9302 17.3634 16.0027 17.1681 15.9957 17.009C15.9888 16.8499 15.8004 16.6406 15.6553 16.6434C16.0571 16.5248 16.2943 15.5788 16.6027 15.0806C16.7995 14.7625 16.9195 14.2504 17.1846 13.7676C17.2195 13.8192 17.2571 13.8778 17.2906 13.9336C17.3953 14.1067 17.5962 14.2378 17.3855 14.6006Z" fill="#444041"/>
    <path d="M19.6417 16.5697C19.4826 16.606 19.3347 16.6563 19.2356 16.7218C18.9858 16.8865 18.0314 17.926 17.9951 17.9749C17.9798 17.9958 17.8835 18.1828 17.7789 18.4047C17.7049 18.3321 17.6002 18.2191 17.61 18.166C17.624 18.0865 17.6826 17.587 18.023 17.4279C18.3635 17.2688 18.2616 17.0511 18.2714 16.8056C18.2812 16.56 18.5072 16.3493 18.6161 16.4079C18.7249 16.4651 18.8547 16.4735 18.9496 16.4218C19.0431 16.373 19.3319 16.3074 19.6417 16.5697Z" fill="#444041"/>
    <path d="M16.9112 19.9492C16.5888 19.9617 16.4967 19.998 16.5763 19.8389C16.6558 19.6812 16.7158 19.6868 16.826 19.5961C16.8409 19.5841 16.8545 19.5705 16.8665 19.5557C17.186 19.578 17.3116 19.7901 17.3116 19.7901C17.3256 19.8459 17.2349 19.9366 16.9112 19.9492Z" fill="#353132"/>
    <path d="M19.9837 19.7632C19.9544 19.8553 19.2958 19.8511 19.2456 19.8078C19.2037 19.7729 19.3125 19.639 19.4018 19.5134C19.5539 19.4171 19.5986 19.4353 19.6419 19.466C19.6781 19.4925 19.8791 19.586 19.9879 19.6376C19.9921 19.6878 19.9921 19.7339 19.9837 19.7632Z" fill="#353132"/>
    <path d="M24.2409 19.2429C24.1879 19.3029 24.1223 19.363 24.0805 19.3853C23.9968 19.4299 23.6591 19.4523 23.5935 19.3853C23.5419 19.3336 23.6493 19.2067 23.7442 19.0992C23.9088 19.0183 24.0247 19.0406 24.1447 19.1132C24.1914 19.1433 24.2256 19.1895 24.2409 19.2429Z" fill="#353132"/>
    <path d="M24.8953 19.468C24.8591 19.5266 24.6191 19.5768 24.4921 19.5768C24.3525 19.5768 24.3037 19.535 24.3037 19.5154C24.3147 19.4394 24.3408 19.3663 24.3805 19.3005C24.5172 19.2294 24.6037 19.2726 24.7167 19.334C24.7823 19.37 24.8424 19.4151 24.8953 19.468Z" fill="#353132"/>
    <path d="M19.3964 12.4771C19.6224 12.4589 22.0573 12.2301 23.3104 12.1143C23.1597 12.2329 23.0299 12.3696 22.9964 12.4254C22.9253 12.5426 22.8262 12.5426 22.8346 12.6947C22.8429 12.8468 22.7006 13.0352 22.5025 13.2515C22.3057 13.4664 21.7043 13.4482 21.5871 13.3589C21.4699 13.2696 21.5159 13.4301 21.3359 13.5654C21.1559 13.6994 20.9229 14.6859 20.8601 14.8115C20.7973 14.9371 20.5545 14.9817 20.3131 15.2692C20.0704 15.5566 19.8471 15.4575 19.6113 15.4213C19.3755 15.385 19.3629 14.7487 19.0308 14.5506C18.6987 14.3538 18.7364 14.1292 18.7364 14.1292C18.6303 14.1208 18.6359 13.8068 18.7196 13.6896C18.8034 13.5724 18.5368 13.7161 18.6722 13.3212C18.7838 12.9933 18.6973 12.7575 18.4434 12.6473C18.8843 12.4645 19.1983 12.4938 19.3964 12.4771Z" fill="#444041"/>
    <path d="M22.5219 13.5639C22.2791 13.5192 22.0558 13.8332 21.7781 13.9406C21.5005 14.0481 21.3023 14.4248 21.5088 14.5058C21.7154 14.5867 22.0656 14.362 22.1995 14.4346C22.3335 14.5058 22.4689 14.4165 22.4772 14.3453C22.4856 14.2741 22.5219 14.0858 22.5219 13.9685C22.5219 13.8513 22.6558 13.7537 22.6516 13.6909C22.6475 13.6267 22.5219 13.5639 22.5219 13.5639Z" fill="#444041"/>
    <path d="M25.4187 14.1077C25.3322 13.9821 25.1411 13.7435 25.0964 13.5593C25.0336 13.3039 25.2136 13.1867 25.1773 12.9983C25.1411 12.81 25.0601 12.7737 24.9973 12.4695C24.9415 12.2016 24.6987 12.0718 24.2871 12.0188C24.756 11.97 25.2736 11.9727 25.409 12.69C25.4787 13.0555 25.4634 13.5914 25.4187 14.1077Z" fill="#353132"/>
    <path d="M23.5796 12.458C23.6475 12.5255 23.7218 12.5862 23.8015 12.6394C23.8783 12.6897 23.9607 12.7309 24.047 12.7622C24.0903 12.7789 24.1349 12.7943 24.1796 12.8096C24.2256 12.825 24.2717 12.8417 24.3191 12.8613C24.3689 12.8807 24.4165 12.905 24.4615 12.9338C24.5092 12.9638 24.5525 13.0004 24.5898 13.0427C24.6268 13.085 24.6582 13.1319 24.6833 13.1822C24.6889 13.1948 24.6959 13.2073 24.7001 13.2199C24.7056 13.2324 24.7112 13.245 24.7154 13.2576C24.7248 13.2827 24.7327 13.3083 24.7391 13.3343C24.7674 13.4389 24.7722 13.5485 24.7531 13.6552C24.7345 13.7584 24.6951 13.8566 24.6373 13.9441C24.6095 13.9866 24.5778 14.0263 24.5424 14.0627C24.5082 14.0992 24.4698 14.1316 24.428 14.159C24.4795 14.0785 24.5217 13.9923 24.5536 13.9022C24.5841 13.8174 24.6015 13.7285 24.6052 13.6385V13.5896L24.6038 13.5729C24.6024 13.552 24.5996 13.5296 24.5968 13.5087C24.59 13.4665 24.5798 13.425 24.5661 13.3845C24.5591 13.3636 24.5508 13.3441 24.5424 13.3245C24.5326 13.305 24.5256 13.2855 24.5145 13.2673C24.4954 13.2311 24.472 13.1973 24.4447 13.1669C24.4175 13.1371 24.3871 13.1104 24.354 13.0873C24.3182 13.0629 24.2804 13.0414 24.241 13.0231C24.1601 12.9827 24.068 12.945 23.9787 12.8962C23.8886 12.8473 23.8066 12.7847 23.7359 12.7106C23.7013 12.6737 23.6704 12.6335 23.6438 12.5906C23.6215 12.5473 23.5991 12.5027 23.5796 12.458Z" fill="#353132"/>
    <path d="M26.3145 17.6175C26.3145 17.6691 25.9698 17.5184 25.96 17.5142C25.967 17.5198 26.1512 17.6705 26.108 17.7277C26.108 17.7277 25.8861 17.7054 25.6907 17.4626C25.6921 17.4682 25.7368 17.6091 25.6907 17.5812C25.6433 17.5519 25.4954 17.263 25.5107 17.0942C25.5261 16.924 25.4507 17.0788 25.4507 17.0788C25.4507 17.0788 25.3405 16.8584 25.3852 16.5179C25.4242 16.2165 25.4633 16.2737 25.4312 16.1537L25.4507 16.1802C25.4507 16.1802 25.5847 16.2723 25.5693 16.0658C25.5568 15.8858 25.5275 15.6667 25.6028 15.5244C25.6224 15.8774 25.7619 16.1802 25.7619 16.1802L25.6586 16.1174C25.6586 16.1174 25.8135 16.4788 25.8945 16.5751C25.9754 16.6714 26.087 16.7105 26.0577 16.7537C26.0284 16.797 25.9098 16.7816 26.0061 16.8849C26.1024 16.9881 26.2349 17.0691 26.2126 17.1723C26.2126 17.1723 26.168 17.1207 26.02 17.1277C25.8707 17.1375 26.3145 17.5658 26.3145 17.6175Z" fill="#30211A"/>
    <path d="M16.0351 19.0492C16.0311 19.062 16.0278 19.075 16.0254 19.0883C16.0128 19.1678 15.9933 19.3017 15.9389 19.3436C15.9389 19.3436 15.9026 19.3687 15.7882 19.3673C15.6737 19.3645 15.7421 19.2976 15.7519 19.2599C15.7616 19.2222 15.7575 19.1245 15.7575 19.1245C15.7575 19.1245 15.7058 19.278 15.6193 19.3394C15.5328 19.4008 15.3458 19.4497 15.1561 19.4217C14.9663 19.3938 14.9007 19.2306 14.9468 19.1357C15.0235 19.0185 15.1198 18.9278 15.2942 19.038C15.4686 19.1483 15.5133 19.151 15.5593 19.0617C15.604 18.9724 15.7268 18.6376 15.8816 18.7799C16.0365 18.9208 16.0351 19.0478 16.0351 19.0492Z" fill="#353132"/>
    <path d="M15.2625 16.9617C15.0231 16.9578 14.7148 16.9552 14.7946 17.0176C14.8744 17.08 15.2535 17.1697 15.2535 17.1697L15.3061 16.9617H15.2625Z" fill="#444041"/>
    <path d="M15.7126 16.7088L15.6581 16.7799L15.6093 16.8427C15.4558 16.9474 14.867 16.8874 14.7442 16.8427C14.7051 16.8288 14.6939 16.8134 14.7023 16.7981C14.7205 16.7674 14.8251 16.7409 14.9312 16.7325C15.086 16.7199 15.4028 16.5148 15.5312 16.5176C15.6609 16.519 15.7126 16.7088 15.7126 16.7088Z" fill="#444041"/>
    <path d="M15.2828 17.0743L15.2278 17.0533V16.8961C15.2278 16.87 15.2091 16.852 15.1869 16.856L15.1086 16.869C15.0959 16.8731 15.0851 16.8805 15.0777 16.8903C15.0704 16.9 15.0669 16.9115 15.0677 16.9231V17.0803L15.0128 17.1193C15.0062 17.1242 15.001 17.1302 14.9973 17.1369C14.9937 17.1436 14.9918 17.151 14.9917 17.1584V17.3456C14.9912 17.3502 14.9918 17.3548 14.9937 17.3592C14.9955 17.3635 14.9984 17.3674 15.0022 17.3707C15.006 17.374 15.0106 17.3765 15.0157 17.378C15.0207 17.3795 15.0261 17.3801 15.0315 17.3796L15.2652 17.3406C15.2771 17.3376 15.2874 17.3314 15.2948 17.3229C15.3022 17.3144 15.3061 17.3041 15.3061 17.2935V17.1063C15.3064 17.0996 15.3043 17.093 15.3001 17.0873C15.296 17.0816 15.2899 17.077 15.2828 17.0743Z" fill="#FFB800"/>
    <path d="M15.3343 19.2848C15.3343 19.2848 15.3175 19.2834 15.2924 19.2792C15.2227 19.2681 15.0957 19.2374 15.1348 19.1634C15.1348 19.1632 15.1348 19.163 15.1349 19.1629C15.1349 19.1627 15.135 19.1626 15.1352 19.1624C15.1353 19.1623 15.1354 19.1622 15.1356 19.1621C15.1358 19.1621 15.136 19.162 15.1361 19.162C15.1627 19.1146 15.2296 19.1271 15.3343 19.2848Z" fill="#997568"/>
    <path d="M15.2924 19.2793C15.2227 19.2682 15.0957 19.2375 15.1348 19.1635C15.1668 19.1496 15.2199 19.1775 15.2924 19.2793Z" fill="#EDBCBC"/>
    <path d="M15.7569 18.8428C15.7527 18.8658 15.7513 18.8892 15.7527 18.9125C15.7547 18.9355 15.7579 18.9583 15.7625 18.9809C15.7674 19.0043 15.7702 19.0282 15.7708 19.0521C15.7712 19.077 15.7664 19.1017 15.7569 19.1246C15.7541 19.1009 15.7513 19.0772 15.7471 19.0549C15.7415 19.0325 15.7359 19.0088 15.7318 18.9851C15.7266 18.9608 15.7257 18.9358 15.729 18.9111C15.7315 18.8861 15.7412 18.8624 15.7569 18.8428Z" fill="black"/>
    <path d="M16.9313 19.7266C16.909 19.7433 16.8881 19.7601 16.8671 19.7768C16.8469 19.7931 16.8282 19.8114 16.8113 19.8312C16.7944 19.8513 16.7786 19.8722 16.7639 19.894C16.7485 19.9163 16.7346 19.9387 16.7192 19.9624C16.7231 19.9344 16.7311 19.9071 16.743 19.8814C16.7543 19.8557 16.7694 19.8317 16.7876 19.8103C16.8061 19.7884 16.8283 19.77 16.8532 19.7559C16.8778 19.7426 16.9041 19.7328 16.9313 19.7266Z" fill="#30211A"/>
    <path d="M19.5588 19.5977C19.5477 19.6186 19.5351 19.6381 19.5226 19.6577L19.4849 19.7135L19.4472 19.7707C19.4346 19.7902 19.4207 19.8084 19.4067 19.8279C19.4098 19.8043 19.4164 19.7812 19.4263 19.7595C19.4358 19.7377 19.447 19.7167 19.4598 19.6967C19.4731 19.6774 19.488 19.6592 19.5044 19.6423C19.5203 19.6249 19.5386 19.6098 19.5588 19.5977Z" fill="#30211A"/>
    <path d="M23.8801 19.1836C23.8634 19.2031 23.8452 19.2213 23.8285 19.2394C23.8121 19.2572 23.7972 19.2764 23.7838 19.2966C23.7699 19.3175 23.7559 19.3371 23.742 19.358C23.728 19.3789 23.7141 19.3999 23.6987 19.4208C23.7027 19.3954 23.7098 19.3706 23.7197 19.3469C23.7294 19.3226 23.7421 19.2997 23.7573 19.2785C23.7615 19.2729 23.7657 19.2673 23.7685 19.2631C23.7727 19.2575 23.7769 19.2534 23.7811 19.2478C23.7908 19.238 23.8006 19.2296 23.8104 19.2213C23.8317 19.2055 23.8552 19.1928 23.8801 19.1836Z" fill="#30211A"/>
    <path d="M24.5322 19.3623C24.5238 19.3818 24.5154 19.4 24.5057 19.4181L24.4778 19.4697C24.468 19.4879 24.4582 19.5046 24.4485 19.5214C24.4373 19.5381 24.4261 19.5549 24.4136 19.5716C24.4155 19.5512 24.4197 19.5311 24.4261 19.5116C24.4331 19.4924 24.4415 19.4737 24.4512 19.4558C24.4612 19.4375 24.4729 19.4203 24.4861 19.4042C24.4987 19.3874 24.5143 19.3732 24.5322 19.3623Z" fill="#30211A"/>
    <path d="M24.5302 16.7095C24.4981 16.7891 24.4088 16.8756 24.3362 16.9356C24.2804 16.7584 24.3055 16.5491 24.3167 16.443C24.3264 16.3384 24.2525 15.6797 24.0571 15.3867C24.4171 15.4063 24.745 16.1221 24.5316 16.2811C24.3153 16.443 24.5874 16.5658 24.5302 16.7095Z" fill="#444041"/>
    <path d="M15.6581 16.7799L15.6093 16.8427C15.4558 16.9473 14.867 16.8873 14.7442 16.8427C14.7051 16.8287 14.6939 16.8134 14.7023 16.798C14.747 16.8873 15.3107 16.8497 15.4126 16.798C15.5144 16.7464 15.647 16.7017 15.6554 16.7631C15.6576 16.7684 15.6586 16.7742 15.6581 16.7799Z" fill="#444041"/>
    <g style="mix-blend-mode:multiply" opacity="0.31">
        <path d="M18.2771 13.3945C18.236 13.4197 18.1997 13.4518 18.1696 13.4894C18.1403 13.5262 18.1141 13.5654 18.0915 13.6066C18.0688 13.6483 18.0483 13.6912 18.0301 13.735C18.0106 13.7783 17.9938 13.8229 17.9771 13.8676C17.9115 14.0476 17.8557 14.2331 17.7915 14.4173C17.7761 14.4634 17.758 14.5108 17.7399 14.5569C17.7217 14.6029 17.7022 14.649 17.6799 14.695C17.6687 14.7173 17.6561 14.7411 17.6436 14.7634C17.6296 14.7871 17.6171 14.8066 17.6031 14.8276C17.5752 14.8694 17.5473 14.9099 17.518 14.9504C17.4594 15.0299 17.3966 15.1066 17.331 15.1806C17.2661 15.2546 17.1972 15.3249 17.1245 15.3913C17.2292 15.2239 17.3338 15.0592 17.4301 14.8918C17.4538 14.8499 17.4775 14.808 17.4999 14.7662C17.511 14.7452 17.5236 14.7229 17.532 14.7034C17.5417 14.6825 17.5501 14.6615 17.5585 14.6406C17.5934 14.5541 17.6227 14.462 17.6534 14.3699L17.6771 14.3001L17.7008 14.2304C17.7161 14.1843 17.7329 14.1383 17.751 14.0922C17.7678 14.0462 17.7873 14.0001 17.8054 13.9541C17.825 13.908 17.8459 13.8634 17.8682 13.8187C17.912 13.7276 17.9663 13.6419 18.0301 13.5634C18.0462 13.5438 18.0635 13.5252 18.0817 13.5076C18.1 13.4893 18.1195 13.4725 18.1403 13.4573C18.1811 13.4272 18.2277 13.4058 18.2771 13.3945Z" fill="#444041"/>
    </g>
    <path d="M19.417 18.6814C19.3459 18.3604 19.2719 18.2321 19.2008 18.1428C19.1798 18.1163 19.1575 18.0465 19.138 17.9614C19.1338 17.9418 19.1296 17.9223 19.124 17.9014C19.2984 18.1093 19.385 17.9907 19.4031 18.1372C19.4212 18.2837 19.3668 18.366 19.4129 18.4525C19.4505 18.5209 19.4268 18.6395 19.417 18.6814Z" fill="#444041"/>
    <path d="M16.3139 26.6396H11.6743V22H16.3139V26.6396ZM11.8397 26.4729H16.1472V22.1654H11.841V26.4729H11.8397Z" fill="#153E49"/>
    <path d="M16.3139 32.5761H11.6743V27.9365H16.3139V32.5761ZM11.8397 32.4094H16.1472V28.1019H11.841V32.4094H11.8397Z" fill="#153E49"/>
    <path d="M28.0136 22.9883H19.1101C18.9296 22.9883 18.7832 23.1346 18.7832 23.3152C18.7832 23.4957 18.9296 23.6421 19.1101 23.6421H28.0136C28.1942 23.6421 28.3405 23.4957 28.3405 23.3152C28.3405 23.1346 28.1942 22.9883 28.0136 22.9883Z" fill="#E7E6E6"/>
    <path d="M28.0136 24.9961H19.1101C18.9296 24.9961 18.7832 25.1425 18.7832 25.323C18.7832 25.5036 18.9296 25.6499 19.1101 25.6499H28.0136C28.1942 25.6499 28.3405 25.5036 28.3405 25.323C28.3405 25.1425 28.1942 24.9961 28.0136 24.9961Z" fill="#E7E6E6"/>
    <path d="M28.0131 28.9258H19.1096C18.9291 28.9258 18.7827 29.0721 18.7827 29.2527C18.7827 29.4332 18.9291 29.5796 19.1096 29.5796H28.0131C28.1937 29.5796 28.3401 29.4332 28.3401 29.2527C28.3401 29.0721 28.1937 28.9258 28.0131 28.9258Z" fill="#E7E6E6"/>
    <path d="M28.0131 30.9336H19.1096C18.9291 30.9336 18.7827 31.08 18.7827 31.2605C18.7827 31.4411 18.9291 31.5874 19.1096 31.5874H28.0131C28.1937 31.5874 28.3401 31.4411 28.3401 31.2605C28.3401 31.08 28.1937 30.9336 28.0131 30.9336Z" fill="#E7E6E6"/>
    <path d="M26.6554 6.15373H23.2734V5.67041C23.2734 4.19611 22.0786 3 20.603 3H20.5492C19.0749 3 17.8788 4.19483 17.8788 5.67041V6.15373H14.4968C14.3225 6.15373 14.1802 6.29603 14.1802 6.47038V9.8818C14.1802 10.0561 14.3225 10.1985 14.4968 10.1985H26.6541C26.8284 10.1985 26.9707 10.0561 26.9707 9.8818V6.47038C26.9707 6.29603 26.8284 6.15373 26.6541 6.15373H26.6554ZM20.5774 5.83707C20.0851 5.83707 19.6851 5.43709 19.6851 4.9448C19.6851 4.45251 20.0851 4.05253 20.5774 4.05253C21.0697 4.05253 21.4696 4.45251 21.4696 4.9448C21.4696 5.43709 21.0697 5.83707 20.5774 5.83707Z" fill="#F8D87F"/>
    <path d="M26.9727 9.10938H14.1821V9.64525H26.9727V9.10938Z" fill="#E6C573"/>
    <path d="M26.9134 10.0198H14.2536C14.2152 10.0198 14.1831 9.98771 14.1831 9.94925V9.78516H26.9737V9.96207C26.9737 9.99412 26.948 10.021 26.9147 10.021L26.9134 10.0198Z" fill="#E6C573"/>
</svg>
