<svg width="45" height="45" viewBox="0 0 45 45" fill="none" xmlns="http://www.w3.org/2000/svg">
    <rect width="45" height="45" fill="#FAFAFA"/>
    <path d="M14.834 41.8438V43.4143C14.834 43.7381 15.5968 44.0008 16.5385 44.0008C17.4802 44.0008 18.243 43.7381 18.243 43.4143V41.8438H14.834Z" fill="#414143"/>
    <path d="M16.5385 42.3391C17.4799 42.3391 18.243 42.0765 18.243 41.7526C18.243 41.4286 17.4799 41.166 16.5385 41.166C15.5971 41.166 14.834 41.4286 14.834 41.7526C14.834 42.0765 15.5971 42.3391 16.5385 42.3391Z" fill="#8E9292"/>
    <path d="M15.4424 40.5645V41.5752C15.4424 41.7834 15.9334 41.9525 16.5392 41.9525C17.145 41.9525 17.636 41.7834 17.636 41.5752V40.5645H15.4433H15.4424Z" fill="#414143"/>
    <path d="M1 36.2793V37.8498C1 38.1736 1.76277 38.4364 2.70452 38.4364C3.64626 38.4364 4.40904 38.1736 4.40904 37.8498V36.2793H1Z" fill="#414143"/>
    <path d="M2.70452 36.7747C3.6459 36.7747 4.40904 36.5121 4.40904 36.1881C4.40904 35.8642 3.6459 35.6016 2.70452 35.6016C1.76314 35.6016 1 35.8642 1 36.1881C1 36.5121 1.76314 36.7747 2.70452 36.7747Z" fill="#8E9292"/>
    <path d="M1.60693 35V36.0107C1.60693 36.219 2.0979 36.388 2.70372 36.388C3.30954 36.388 3.80051 36.219 3.80051 36.0107V35H1.60693Z" fill="#414143"/>
    <path d="M35.5747 31.6543V33.2248C35.5747 33.5487 36.3375 33.8114 37.2792 33.8114C38.221 33.8114 38.9837 33.5487 38.9837 33.2248V31.6543H35.5747Z" fill="#414143"/>
    <path d="M37.2792 32.1506C38.2206 32.1506 38.9837 31.888 38.9837 31.5641C38.9837 31.2401 38.2206 30.9775 37.2792 30.9775C36.3378 30.9775 35.5747 31.2401 35.5747 31.5641C35.5747 31.888 36.3378 32.1506 37.2792 32.1506Z" fill="#8E9292"/>
    <path d="M36.1836 30.375V31.3857C36.1836 31.594 36.6746 31.763 37.2804 31.763C37.8862 31.763 38.3772 31.594 38.3772 31.3857V30.375H36.1846H36.1836Z" fill="#414143"/>
    <path d="M1.91211 31.7616L23.8594 21.0088L38.9837 28.3751L17.0231 39.1843L1.91211 31.7616Z" fill="#D8DDDC"/>
    <path d="M17.0231 41.6424L1.91211 34.2522V31.7627L17.0231 39.1529V41.6424Z" fill="#99A1A0"/>
    <path d="M38.9726 30.8606L17.0225 41.6421V39.1526L38.9726 28.3721V30.8606Z" fill="#CBCFCE"/>
    <path d="M33.3996 4.82129C33.8299 5.61433 34.909 7.11641 34.9258 8.45382C34.9426 9.79124 34.6266 10.5171 35.2149 11.8243C35.8032 13.1314 35.8906 13.7497 36.7042 14.862C37.5177 15.9743 37.1311 19.096 37.1311 19.096C37.1311 19.096 35.578 17.6276 35.5309 16.1692C35.4872 14.7108 34.9426 13.4003 34.9594 12.7248C34.9763 12.0494 32.5054 9.27039 32.5054 9.27039L33.3996 4.82129Z" fill="#946C45"/>
    <path d="M26.2197 14.2563C26.7139 15.9398 27.9544 18.6449 29.094 18.9272C30.2336 19.2095 30.3816 21.7868 29.8874 23.0268C29.3932 24.2668 28.0048 26.5451 28.4486 27.1399C28.8957 27.7347 29.4403 26.8912 29.4403 26.8912C29.4403 26.8912 29.2419 28.1379 29.8874 27.7615C30.5328 27.3852 30.6303 26.9887 30.8287 26.3972C31.027 25.8025 30.7009 24.465 31.185 23.5241C31.6691 22.5833 32.96 18.2114 32.9096 17.6234C32.8592 17.0353 30.5295 11.9242 30.3816 11.8268C30.2336 11.7327 26.2197 14.2597 26.2197 14.2597V14.2563Z" fill="#784F36"/>
    <path d="M10.6645 18.2817C10.7452 19.7905 11.1419 21.9142 11.5789 22.9996C12.0159 24.085 11.0645 24.458 11.2898 25.5064C11.515 26.5549 12.0159 27.5327 11.9689 28.7223C11.9251 29.9118 10.6208 32.2809 11.3167 33.0202C12.0126 33.7594 12.2849 32.6236 12.2849 32.6236C12.2849 32.6236 12.1033 33.2755 12.6916 33.2722C13.2799 33.2655 13.3438 32.0087 13.5926 30.9569C13.8413 29.9018 13.3707 28.3795 13.3707 27.8351C13.3707 27.2908 13.959 25.0696 13.6665 24.206C13.3741 23.3424 14.1708 19.6393 14.1708 19.6393L10.6611 18.2783L10.6645 18.2817Z" fill="#784F36"/>
    <path d="M32.3136 26.1533C32.3136 26.1533 31.4967 28.6837 31.8933 29.0298C32.29 29.3759 32.7808 29.0298 32.7808 29.0298C32.7808 29.0298 33.0263 29.6817 33.8667 29.1844C34.7071 28.6837 34.6298 26.9531 34.6298 26.9531L32.3136 26.1567V26.1533Z" fill="#946C45"/>
    <path d="M13.5889 32.9204C13.5889 32.9204 12.8056 34.7417 13.1653 34.9231C13.525 35.1046 13.8477 34.7417 13.8477 34.7417C13.8477 34.7417 13.7065 35.6456 14.6108 35.2222C15.5151 34.8021 15.9118 33.2799 15.9118 33.2799L13.5922 32.917L13.5889 32.9204Z" fill="#946C45"/>
    <path d="M5.80683 8.06105C5.80683 8.06105 4.69073 7.46626 4.08898 7.4629C3.49059 7.45954 2.34424 8.06105 2.34424 8.06105C2.34424 8.06105 2.94263 9.30773 3.67885 9.27077C4.41507 9.23717 4.98657 8.81712 5.45049 9.09603C5.91441 9.37494 5.80347 8.06105 5.80347 8.06105H5.80683Z" fill="#946C45"/>
    <path d="M32.9159 15.2855C32.5696 15.6115 32.1057 15.9005 31.5712 16.1592C28.8179 17.5403 24.1182 18.2527 23.224 19.4692C22.1482 20.9343 17.8452 22.5842 14.0666 22.7354C12.4261 22.7993 10.7418 21.1392 9.36353 19.2407C8.77859 18.4308 8.24407 17.5706 7.7936 16.7842C6.8624 15.1746 6.28418 13.8675 6.28418 13.8675L6.46571 13.4205L8.66093 8.05406L8.7248 7.89612C9.22906 8.36657 10.0695 8.99495 11.0007 9.18985C11.9252 9.38475 12.7992 8.44722 14.507 7.89612C16.2114 7.3383 17.2804 7.43911 19.2269 6.7536C21.1767 6.07481 24.2594 2.36835 27.8598 2.02896C31.467 1.68284 33.6454 4.51561 34.1362 6.46461C34.2606 6.96867 34.3816 7.65754 34.4556 8.45058C34.6741 10.7323 34.506 13.7969 32.9159 15.2788V15.2855Z" fill="#C4996D"/>
    <path d="M16.064 19.4056C14.8067 19.5736 13.499 19.4694 12.4199 18.8645C11.6971 18.4613 10.9811 17.8598 10.3154 17.181C10.7693 16.3006 11.3206 15.6218 12.1442 15.7865C14.2756 16.2132 15.0555 18.2126 16.0674 19.4056H16.064Z" fill="#D9DDFD"/>
    <path d="M8.54609 14.9521C8.25025 15.4091 8.23344 16.0005 8.09225 16.4172C8.04855 16.555 7.94097 16.6826 7.7897 16.7868C6.85849 15.1772 6.28027 13.87 6.28027 13.87L6.46181 13.4231L8.65702 8.05664C9.70589 8.57749 10.4186 9.85443 10.6169 11.2725C10.9934 13.8734 8.83856 14.4883 8.54272 14.9487L8.54609 14.9521Z" fill="#946C45"/>
    <path d="M32.916 15.2872C32.5697 15.6132 32.1058 15.9022 31.5713 16.1609C31.2822 16.3054 30.9729 16.4432 30.6468 16.5742C30.156 16.7691 29.6349 16.9573 29.1071 17.1287C28.9391 17.1858 28.7676 17.2429 28.5995 17.2933C27.0161 17.7974 25.4059 18.2309 24.3335 18.7181C24.2528 18.7551 24.1688 18.792 24.0948 18.8324C24.0948 18.8324 24.0926 18.8346 24.0881 18.8391C24.0074 18.8761 23.9301 18.913 23.8628 18.9601C23.7922 19.0038 23.725 19.0407 23.6611 19.0844C23.5973 19.1214 23.5401 19.165 23.493 19.2087C23.3855 19.2894 23.2981 19.3767 23.2275 19.4742C22.1517 20.9393 17.8487 22.5892 14.0701 22.7405H13.9827C13.8885 22.7405 13.7944 22.7337 13.7003 22.7203C13.6768 22.7203 13.6499 22.7203 13.6297 22.7136C13.5557 22.7001 13.4784 22.6901 13.3977 22.6699C13.1221 22.606 12.8498 22.5052 12.5741 22.3574C12.5102 22.3339 12.4531 22.2935 12.3993 22.2633C12.0228 22.0482 11.653 21.7727 11.2866 21.44C11.216 21.3829 11.1555 21.319 11.0916 21.2585C10.4831 20.6873 9.90489 19.9816 9.37037 19.2491C7.57184 16.7658 6.29102 13.8759 6.29102 13.8759L6.47255 13.4289C6.81209 12.9686 7.02051 12.6863 7.02051 12.6863C7.05749 12.9249 8.48959 15.3242 10.3217 17.1858C10.9874 17.8646 11.7034 18.4661 12.4262 18.8693C13.5087 19.4708 14.813 19.5784 16.0703 19.4104C17.9495 19.1583 19.7044 18.2779 20.4137 17.4681C21.5903 16.1172 23.493 15.9156 26.4984 15.4653C28.9693 15.0957 32.5126 11.9101 34.4624 8.45898C34.6809 10.7407 34.5128 13.8053 32.9227 15.2872H32.916Z" fill="#946C45"/>
    <path d="M31.5711 16.1592C31.2819 16.3037 30.9727 16.4414 30.6466 16.5725C30.1558 16.7674 29.6347 16.9556 29.1069 17.127C28.9388 17.1841 28.7674 17.2412 28.5993 17.2916C27.0159 17.7957 25.4056 18.2291 24.3332 18.7164C24.2525 18.7534 24.1685 18.7903 24.0945 18.8306C24.0945 18.8306 24.0923 18.8329 24.0878 18.8374C24.0071 18.8743 23.9298 18.9113 23.8626 18.9583C23.792 19.002 23.7248 19.039 23.6609 19.0827C23.597 19.1196 23.5399 19.1633 23.4928 19.207C23.3852 19.2877 23.2978 19.375 23.2272 19.4725C22.1515 20.9376 17.8484 22.5875 14.0698 22.7387H13.9824C13.8883 22.7387 13.7942 22.732 13.7 22.7186C13.6765 22.7186 13.6496 22.7186 13.6294 22.7118C13.5555 22.6984 13.4782 22.6883 13.3975 22.6682C13.1218 22.6043 12.8495 22.5035 12.5739 22.3556C12.51 22.3321 12.4528 22.2918 12.399 22.2616C12.0225 22.0465 11.6527 21.7709 11.2863 21.4383C11.2157 21.3811 11.1552 21.3173 11.0913 21.2568C10.4829 20.6856 9.90463 19.9799 9.37012 19.2473C9.6794 18.6391 9.96851 17.8595 10.3181 17.1874C10.9838 17.8662 11.6998 18.4677 12.4226 18.871C13.5051 19.4725 14.8094 19.58 16.0667 19.412C16.6382 20.0975 17.287 20.5243 18.3056 20.2487C21.116 19.496 20.7933 17.4899 23.3852 17.1135C25.9805 16.7371 28.1992 15.6551 29.6011 15.1712C30.1726 14.9696 30.9088 15.4669 31.5744 16.1625L31.5711 16.1592Z" fill="#B0B5F1"/>
    <path d="M9.834 11.928C9.29276 14.4919 7.05048 14.3273 6.61681 14.6532C6.17642 14.9792 5.96463 15.5269 5.68561 15.8663C5.45365 16.1687 4.88215 16.2259 4.23334 16.1687C4.13921 16.1553 4.03836 16.1452 3.9375 16.1318C3.17103 16.0175 2.62306 15.7991 2.68021 15.3656V15.3421C2.68021 15.3219 2.68694 15.3051 2.68694 15.285C2.69366 14.8649 2.36757 14.3911 2.68021 14.008C2.70375 13.9845 2.73064 13.9442 2.76089 13.9072C3.17103 13.3292 4.21317 11.481 4.26359 10.557C4.32074 9.57573 4.92922 7.95604 5.90412 7.66705C9.17846 6.67911 10.3786 9.35731 9.834 11.928Z" fill="#C4996D"/>
    <path d="M4.86213 15.9306C4.74783 16.0045 4.50242 16.0885 4.23348 16.1692C4.13935 16.1557 4.0385 16.1456 3.93765 16.1322C3.17117 16.0179 2.62321 15.7995 2.68036 15.366V15.3425C2.68036 15.3224 2.68708 15.3056 2.68708 15.2854C2.90223 15.2215 3.13419 15.2115 3.29556 15.3358C3.51071 15.4937 3.60484 15.9205 4.08893 15.9339C4.5663 15.9474 5.46052 14.6973 5.67231 14.8855C5.89082 15.0737 5.23864 15.6819 4.86213 15.9339V15.9306Z" fill="#946C45"/>
    <path d="M8.32103 9.30414C8.41852 8.61191 9.43713 8.75641 10.1734 8.45397C10.9062 8.15154 13.1418 9.54945 13.1418 9.54945C13.1418 9.54945 12.5871 10.6651 11.5349 10.6315C10.4826 10.5979 9.99854 9.79475 9.47411 9.86196C8.94968 9.93253 8.21682 10.0367 8.32103 9.30414Z" fill="#946C45"/>
    <path d="M12.2357 11.1662L11.9476 11.0471V10.1568C11.9476 10.0093 11.8495 9.90723 11.733 9.92991L11.3223 10.0036C11.2558 10.0266 11.199 10.0688 11.1604 10.124C11.1217 10.1791 11.1033 10.2443 11.1078 10.3099V11.2003L10.8197 11.4214C10.7853 11.4489 10.7577 11.4829 10.7387 11.521C10.7196 11.5591 10.7096 11.6006 10.7093 11.6426V12.7031C10.7064 12.7291 10.7099 12.7554 10.7193 12.78C10.7288 12.8046 10.744 12.8269 10.764 12.8454C10.784 12.8638 10.8081 12.878 10.8347 12.8867C10.8613 12.8955 10.8897 12.8986 10.9178 12.896L12.1438 12.6748C12.2058 12.6577 12.2602 12.6225 12.2988 12.5744C12.3375 12.5264 12.3584 12.4681 12.3583 12.4082V11.3477C12.3595 11.3096 12.3485 11.2721 12.3267 11.2398C12.3049 11.2075 12.2732 11.1819 12.2357 11.1662Z" fill="#FFB800"/>
    <path d="M3.87691 14.997C4.00129 15.4304 3.96431 15.827 3.32222 15.5985C3.11379 15.5245 2.88855 15.4304 2.68013 15.3397C2.72383 14.9062 2.35404 14.4089 2.68013 14.009C2.70366 13.9855 2.73055 13.9452 2.76081 13.9082C3.38945 14.0225 4.51564 14.2711 4.58287 14.5366C4.67028 14.9062 3.75252 14.5668 3.87354 14.997H3.87691Z" fill="#E4AF9A"/>
    <path d="M6.64042 12.443C6.37484 12.4598 6.19667 12.1741 6.32777 11.9423C6.71101 11.2668 7.11778 10.1714 7.74979 10.4805C8.60703 10.8972 8.56333 11.8179 7.74979 12.1909C7.38336 12.359 6.97659 12.4228 6.64042 12.443Z" fill="#946C45"/>
    <path d="M16.9916 17.1266C17.3379 18.165 16.8941 22.8526 16.2016 23.5449C15.5091 24.2371 15.5595 25.1746 15.7578 25.5678C15.9562 25.961 16.252 26.5053 15.9058 27.1976C15.5595 27.8898 15.7478 29.3213 15.6301 30.111C15.5124 30.9007 16.2016 32.8262 15.8587 33.4176C15.5124 34.009 14.2787 34.0594 13.7341 33.6629C13.1895 33.2664 14.2283 30.6991 14.2787 29.7615C14.4031 27.3824 13.603 27.4664 13.8013 25.9879C13.9997 24.5059 13.9425 24.2371 13.8282 23.35C13.7139 22.4628 10.2782 19.2067 12.302 16.7805C14.3257 14.3577 16.995 17.1199 16.995 17.1199L16.9916 17.1266Z" fill="#C4996D"/>
    <path d="M32.2501 7.29493C33.4906 7.03954 34.5866 8.14173 34.3613 9.38506C33.9546 11.6499 33.3562 14.8557 33.7394 15.5076C33.9108 15.8 34.1361 16.0654 34.3647 16.2973C34.9295 16.8652 35.0975 17.7221 34.7177 18.4244C34.3546 19.0998 33.9882 19.9197 33.9646 20.528C33.9142 21.7612 33.7562 24.1807 34.3042 25.2425C34.8521 26.3044 34.6941 27.2419 34.3042 27.7863C33.9142 28.3307 33.1746 27.541 32.5325 27.7863C31.8904 28.0316 32.3846 25.713 32.5325 24.9233C32.6805 24.1336 31.7425 20.3331 31.6921 18.999C31.6417 17.665 26.1116 15.5345 27.7421 11.0216C28.6329 8.5517 30.6264 7.6276 32.2501 7.29493Z" fill="#C4996D"/>
    <path d="M17.3125 31.0779L3.93803 24.6191L1.45068 25.9683L14.8251 32.4271L17.3125 31.0779Z" fill="#D8DDDC"/>
    <path d="M17.313 31.0791V40.8138L14.8257 42.163V32.4282L17.313 31.0791Z" fill="#CBCFCE"/>
    <path d="M1.45068 25.9678L14.8251 32.4266V42.1613L1.45068 35.691V25.9678Z" fill="#99A1A0"/>
    <path d="M2.31445 27.9971L11.2904 32.3314V38.8654L2.31445 34.5234V27.9971Z" fill="#535C5B"/>
    <path d="M12.2808 32.8994L13.8355 33.6492V34.7803L12.2808 34.0279V32.8994Z" fill="#D22E2E"/>
    <path d="M12.2808 34.6836L13.8355 35.4347V36.5645L12.2808 35.8134V34.6836Z" fill="#3A9E66"/>
    <path d="M12.2808 36.4678L13.8355 37.2176V38.3487L12.2808 37.5976V36.4678Z" fill="#3A9E66"/>
    <path d="M12.2808 38.251L13.8355 39.0008V40.1319L12.2808 39.3808V38.251Z" fill="#3A9E66"/>
</svg>
