<svg width="150" height="149" viewBox="0 0 150 149" fill="none" xmlns="http://www.w3.org/2000/svg">
    <path d="M145.728 101.814V108.328C145.728 110.377 144.713 112.416 142.696 113.586L85.2153 146.624C79.7265 149.791 72.9622 149.791 67.4735 146.624L7.03438 111.443C5.04797 110.293 4.04431 108.296 4.0025 106.289V99.6816L145.728 101.814Z" fill="url(#paint0_linear_3579_20065)"/>
    <path d="M142.696 107.074L85.2156 140.111C79.7268 143.279 72.9626 143.279 67.4738 140.111L7.0347 104.93C2.98869 102.589 2.98869 96.7548 7.0347 94.413L64.5151 61.3758C70.0039 58.2081 76.7681 58.2081 82.2569 61.3758L142.696 96.5562C146.742 98.8981 146.742 104.732 142.696 107.074Z" fill="url(#paint1_linear_3579_20065)"/>
    <path d="M40.5212 9.55202L47.2982 0L54.0752 17.3806L40.5212 9.55202Z" fill="#63B78F"/>
    <path d="M40.5212 23.1936L47.2982 13.6416L54.0752 31.0222L40.5212 23.1936Z" fill="#63B78F"/>
    <path d="M125.583 42.1968L74.3268 12.4891C73.7231 12.1386 73.0512 12.1873 72.5254 12.4891H72.506L67.8906 15.1473L71.6004 20.8727V62.3427C71.6004 64.777 72.8955 67.0262 75.0084 68.2433L118.708 93.5693L123.314 100.677L128.027 97.9705C128.582 97.6686 128.99 97.0942 128.99 96.3639V48.0877C128.99 45.6534 127.695 43.4042 125.583 42.1871V42.1968Z" fill="#DFDAEF"/>
    <path d="M69.6727 15.1569L120.928 44.8646C123.032 46.0817 124.336 48.331 124.336 50.7652V99.0414C124.336 100.444 122.817 101.32 121.61 100.619L70.3542 70.9111C68.251 69.694 66.9463 67.4447 66.9463 65.0105V16.7343C66.9463 15.3322 68.4653 14.4558 69.6727 15.1569Z" fill="url(#paint2_linear_3579_20065)"/>
    <path d="M101.434 57.6444L114.452 65.1614C115.007 65.4828 115.455 66.3396 115.455 67.0796C115.455 67.8196 115.007 68.1604 114.452 67.8391L101.434 60.3221C100.879 60.0008 100.431 59.1439 100.431 58.4039C100.431 57.6639 100.879 57.3231 101.434 57.6444Z" fill="#2E3A59"/>
    <path d="M101.434 63.3212L114.452 70.8382C115.007 71.1595 115.455 72.0164 115.455 72.7564C115.455 73.4964 115.007 73.8372 114.452 73.5159L101.434 65.9989C100.879 65.6776 100.431 64.8207 100.431 64.0807C100.431 63.3407 100.879 62.9999 101.434 63.3212Z" fill="#2E3A59"/>
    <path d="M101.434 68.998L114.452 76.5149C115.007 76.8363 115.455 77.6931 115.455 78.4331C115.455 79.1732 115.007 79.514 114.452 79.1926L101.434 71.6756C100.879 71.3543 100.431 70.4975 100.431 69.7574C100.431 69.0174 100.879 68.6766 101.434 68.998Z" fill="#2E3A59"/>
    <path d="M101.434 74.6845L114.452 82.2015C115.007 82.5228 115.455 83.3796 115.455 84.1197C115.455 84.8597 115.007 85.2005 114.452 84.8792L101.434 77.3622C100.879 77.0408 100.431 76.184 100.431 75.444C100.431 74.704 100.879 74.3632 101.434 74.6845Z" fill="#2E3A59"/>
    <path d="M74.0746 58.3288C70.8489 50.748 71.7119 43.1228 76.002 41.2973C80.2922 39.4718 86.385 44.1374 89.6106 51.7181C92.8363 59.2989 91.9733 66.9242 87.6832 68.7497C83.393 70.5752 77.3002 65.9096 74.0746 58.3288Z" fill="#70B9EF"/>
    <path d="M74.9723 41.9C76.7347 40.5661 79.1593 40.5271 81.8467 42.0753V55.0353L74.9723 41.9098V41.9Z" fill="#EF5F50"/>
    <path d="M76.2381 62.3666C73.7552 58.5887 72.1194 53.7883 72.1194 49.4164C72.1194 45.8429 73.2099 43.2236 74.9626 41.8994L81.8369 55.0249L76.2381 62.3666Z" fill="#F0AE4D"/>
    <path d="M91.2432 63.6913C90.1624 68.6475 86.3747 70.5949 81.8469 67.9854C79.7535 66.778 77.8255 64.7819 76.2481 62.3671L81.8469 55.0254L91.2432 63.6913Z" fill="#B7D6C7"/>
    <path d="M128.99 48.0877C128.99 45.6534 127.695 43.4042 125.583 42.187L74.3268 12.4794C73.7231 12.1288 73.0512 12.1775 72.5254 12.4794H72.506L67.8906 15.1376L124.326 57.5326L128.981 54.8452V48.0877H128.99Z" fill="url(#paint3_linear_3579_20065)"/>
    <path d="M69.6727 15.1569L120.928 44.8646C123.032 46.0817 124.336 48.331 124.336 50.7652V57.5325L66.9463 24.2903V16.7441C66.9463 15.3419 68.4653 14.4656 69.6727 15.1667V15.1569Z" fill="url(#paint4_linear_3579_20065)"/>
    <path d="M120.724 50.6292C120.724 52.1482 119.799 52.8493 118.66 52.1969C117.521 51.5348 116.596 49.7724 116.596 48.2437C116.596 46.715 117.521 46.0236 118.66 46.676C119.799 47.3284 120.724 49.1005 120.724 50.6292Z" fill="#FF7A85"/>
    <path d="M78.673 73.1453C78.673 73.1453 90.4437 72.1684 91.2858 83.7743C92.128 95.3802 85.9652 99.2293 83.4387 102.336C80.9122 105.443 79.9313 106.625 79.644 110.239C79.3566 113.854 79.1783 118.729 81.15 121.63C81.903 122.744 77.266 125.753 76.1464 120.653C75.0268 115.554 76.7112 111.48 76.1464 107.133C75.5817 102.785 72.8768 102.121 75.7501 95.8295C75.7501 95.8295 67.7345 74.1124 78.673 73.1453Z" fill="#AB8055"/>
    <path d="M45.6494 52.7175C45.6494 52.7175 56.35 51.8089 57.1129 62.8189C57.8758 73.8289 52.2778 77.4728 49.9791 80.5013C47.6805 83.5298 45.907 84.409 45.6494 87.8478C45.6123 91.7301 46.6724 95.5458 48.7109 98.8675C49.3946 99.9226 44.3712 102.775 43.3606 97.9492C42.35 93.1232 42.5878 89.3327 42.0726 85.2003C41.5574 81.0679 40.3486 80.3157 42.994 74.2978C42.994 74.3369 35.7116 53.6455 45.6494 52.7175Z" fill="#AB8055"/>
    <path d="M86.3515 73.624C79.4159 66.639 69.607 64.8317 66.1293 61.3343C62.6516 57.8369 52.4067 55.121 49.2857 52.5419C45.9864 49.6991 36.98 46.5827 32.1152 51.5845C32.1152 51.5845 22.9305 57.8173 31.7189 69.1693C32.652 70.0885 33.6449 70.9468 34.6913 71.7386C48.3544 82.0256 50.7719 82.6802 57.1626 87.2327C63.9495 92.1173 68.5072 94.4326 77.5235 95.6538C84.5482 96.6307 90.7011 92.3029 91.6721 87.3401C92.1377 83.237 91.0578 78.3621 86.3515 73.624Z" fill="#C08E5D"/>
    <path d="M65.6036 72.8129C65.6036 72.8129 77.3743 71.7481 78.2165 84.4677C79.0587 97.1873 72.8761 101.427 70.3694 104.876C67.8626 108.324 65.881 109.379 65.6036 113.355C65.3262 117.332 67.0006 122.89 68.9624 126.056C69.7253 127.277 64.1967 130.559 63.0771 124.991C61.9575 119.422 63.6418 114.919 63.0771 110.151C62.5123 105.384 59.7678 104.592 62.6808 97.705C62.6808 97.7246 54.6652 73.8778 65.6036 72.8129Z" fill="#C08E5D"/>
    <path d="M63.0771 125.01C64.7476 125.222 66.437 124.799 67.8033 123.828L69.3984 127.091C69.3984 127.091 66.2675 128.742 64.6723 128.527C63.0771 128.312 63.0771 125.01 63.0771 125.01Z" fill="#1C212D"/>
    <path d="M76.2061 120.457C77.627 120.643 79.0665 120.294 80.2386 119.48L81.596 122.206C81.596 122.206 78.9308 123.613 77.5635 123.427C76.1961 123.242 76.2061 120.457 76.2061 120.457Z" fill="#1C212D"/>
    <path d="M43.2314 97.6947C44.7431 97.8817 46.2709 97.5016 47.5117 96.6299L48.9583 99.5607C48.9583 99.5607 46.1246 101.085 44.678 100.889C43.2314 100.694 43.2314 97.6947 43.2314 97.6947Z" fill="#1C212D"/>
    <path d="M33.8389 52.7465C33.8389 52.7465 45.6096 51.6817 46.4518 64.4013C47.294 77.1209 41.1708 81.3607 38.6047 84.8093C36.0385 88.2579 35.5332 90.1042 35.2458 94.0803C34.9585 98.0564 35.2458 102.824 37.2274 106.009C37.9904 107.23 32.4617 110.512 31.3421 104.944C30.2225 99.3753 31.9069 94.8814 31.3421 90.1042C30.7773 85.3271 26.9628 84.3306 29.8856 77.4042C29.8559 77.4433 22.9005 53.8211 33.8389 52.7465Z" fill="#C08E5D"/>
    <g opacity="0.3">
        <path opacity="0.3" d="M66.1297 61.3343C62.6619 57.8565 52.4072 55.1211 49.2862 52.542C45.9769 49.7382 37.0399 46.6804 32.1553 51.565C32.3832 53.0011 33.2848 55.0234 36.4157 56.2445C41.6471 58.2961 51.6938 59.6931 55.8353 63.7767C59.9769 67.8602 64.9507 73.8488 71.0342 75.998C76.5034 77.9519 88.4623 86.9885 91.2168 81.547C90.4836 78.9777 89.3838 74.3275 86.4807 71.9633C78.2967 65.2909 69.6074 64.822 66.1297 61.3343Z" fill="#C08E5D"/>
    </g>
    <path d="M31.5602 53.9885C23.4753 55.0435 27.9042 83.7164 27.9042 83.7164L26.1306 84.0192C26.1306 84.0192 25.655 75.4711 25.3182 63.6894C24.9813 51.9076 31.5602 53.9885 31.5602 53.9885Z" fill="#C08E5D"/>
    <path d="M25.9031 82.3973C26.0914 81.7135 28.1622 80.6975 27.964 84.0288C27.7658 87.3601 26.7255 88.7278 26.7255 88.7278C26.7255 88.7278 24.7241 86.6274 25.9031 82.3973Z" fill="#7C4739"/>
    <path d="M31.1739 104.828C32.9226 105.057 34.6941 104.62 36.1279 103.606L37.7924 107.016C37.7924 107.016 34.5327 108.735 32.8384 108.511C31.1441 108.286 31.1739 104.828 31.1739 104.828Z" fill="#1C212D"/>
    <path d="M91.2158 73.2721C91.2158 73.2721 97.1606 68.5047 99.9348 70.7126C99.9348 70.7126 102.61 74.3272 92.9993 75.6851C92.9993 75.6851 91.2158 75.5874 91.2158 73.2721Z" fill="#8E5146"/>
    <path d="M95.8056 75.5784L96.2159 75.4109V74.1585C96.2159 73.9511 96.3556 73.8075 96.5215 73.8394L97.1064 73.9431C97.2012 73.9754 97.282 74.0348 97.3371 74.1124C97.3921 74.1899 97.4183 74.2816 97.4119 74.3739V75.6262L97.8223 75.9374C97.8712 75.976 97.9105 76.0237 97.9376 76.0774C97.9647 76.131 97.979 76.1894 97.9794 76.2485V77.7401C97.9835 77.7767 97.9786 77.8136 97.9652 77.8482C97.9517 77.8828 97.93 77.9143 97.9015 77.9402C97.8731 77.9662 97.8387 77.9861 97.8008 77.9984C97.763 78.0107 97.7226 78.0151 97.6826 78.0114L95.9365 77.7003C95.8482 77.6762 95.7707 77.6267 95.7157 77.5591C95.6606 77.4916 95.6309 77.4096 95.631 77.3254V75.8336C95.6292 75.7801 95.6449 75.7273 95.676 75.6819C95.707 75.6364 95.7522 75.6004 95.8056 75.5784Z" fill="#FFB800"/>
    <path d="M80.3674 69.8235C80.3674 69.8235 71.6682 73.1841 73.1742 80.7651C74.6802 88.3461 79.8126 89.7919 82.5373 91.0326C85.2619 92.2733 89.1954 97.6757 93.6045 96.6793C98.0135 95.6828 103.195 93.8169 99.9159 87.8869C96.6363 81.9569 94.9619 79.3095 93.6045 74.9621C92.2471 70.6148 84.8954 66.8341 80.3674 69.8235Z" fill="#C08E5D"/>
    <path d="M90.5716 71.9141C90.5716 71.9141 96.2984 69.2276 92.0677 63.9229C91.4368 65.9877 90.4516 67.9307 89.1547 69.6672C89.1547 69.6672 88.4215 71.8067 90.5716 71.9141Z" fill="#4E4C62"/>
    <path d="M80.3668 69.8236C80.3668 69.8236 79.9705 69.9799 79.376 70.2827C80.2776 71.6016 79.6336 74.4835 79.8516 76.1443C80.2281 78.9383 86.1729 77.3459 92.9202 86.5681C94.7631 89.0886 95.6944 82.1719 92.9202 78.0298C87.5798 70.058 85.9846 72.0314 84.5678 68.788C83.0908 68.6774 81.6172 69.0406 80.3668 69.8236Z" fill="#C08E5D"/>
    <path d="M73.1739 80.7648C74.6899 88.3457 79.7627 89.7916 82.537 91.0323C85.3112 92.273 89.1951 97.6754 93.6042 96.6789C94.2779 96.5324 94.9616 96.3565 95.5858 96.1514C97.6962 90.0358 92.3261 88.6974 89.641 87.0855C86.6686 85.2977 79.733 82.9922 78.2666 77.9219C77.7284 76.072 76.9632 74.2939 75.9878 72.627C74.8315 73.6174 73.962 74.8922 73.4677 76.3217C72.9734 77.7511 72.8721 79.2841 73.1739 80.7648Z" fill="#AB8055"/>
    <path d="M77.6427 76.8482C77.6427 76.8482 69.9541 76.4769 69.0723 79.8278C69.0723 79.8278 69.0723 84.3119 77.6427 79.8278C77.6427 79.8278 79.0397 78.7141 77.6427 76.8482Z" fill="#8E5146"/>
    <path d="M77.6422 75.6556C77.6422 75.6556 71.3407 76.3492 72.0937 69.6377C73.7367 71.0624 75.6128 72.202 77.6422 73.0081C77.6422 73.0081 79.4157 74.4442 77.6422 75.6556Z" fill="#4E4C62"/>
    <path d="M93.1184 94.6087C93.1184 94.6087 88.8679 99.7376 83.9238 98.1158C83.9238 98.1158 89.7695 97.5395 92.3159 93.8857L93.1184 94.6087Z" fill="#82A31A"/>
    <path d="M94.3173 96.083C94.3173 96.083 89.3633 96.3565 88.2734 99.9907C88.2734 99.9907 91.1269 96.8157 94.4164 96.9036L94.3173 96.083Z" fill="#5E7710"/>
    <path d="M93.5442 94.9406C93.5442 94.9406 91.6419 99.4247 87.8174 99.2586C87.8174 99.2586 91.7806 97.676 92.8308 94.5889L93.5442 94.9406Z" fill="#5E7710"/>
    <path d="M92.831 94.5889C92.831 94.5889 87.877 94.8526 86.7871 98.4966C86.7871 98.4966 89.6406 95.3216 92.9202 95.4095L92.831 94.5889Z" fill="#5E7710"/>
    <path d="M93.6139 96.0537C93.6139 96.0537 88.9374 97.6852 88.8779 101.476C88.8779 101.476 90.7208 97.5679 93.9211 96.7766L93.6139 96.0537Z" fill="#82A31A"/>
    <path d="M97.1611 93.6508C97.1611 93.6508 103.225 96.5815 107 92.9865C107 92.9865 101.451 94.9403 97.5773 92.6641L97.1611 93.6508Z" fill="#82A31A"/>
    <path d="M96.7051 95.4978C96.7051 95.4978 101.283 93.6807 103.849 96.4747C103.849 96.4747 99.8855 94.7944 96.9131 96.2402L96.7051 95.4978Z" fill="#5E7710"/>
    <path d="M96.9131 94.1301C96.9131 94.1301 100.569 97.4028 103.958 95.6541C103.958 95.6541 99.6576 95.8886 97.4085 93.5146L96.9131 94.1301Z" fill="#5E7710"/>
    <path d="M97.4082 93.5142C97.4082 93.5142 101.986 91.7069 104.552 94.4911C104.552 94.4911 100.589 92.8108 97.6163 94.2567L97.4082 93.5142Z" fill="#5E7710"/>
    <path d="M97.3389 95.1755C97.3389 95.1755 102.293 94.687 103.947 98.1063C103.947 98.1063 100.618 95.3806 97.3686 95.957L97.3389 95.1755Z" fill="#82A31A"/>
    <path d="M94.0196 90.7887C92.3848 91.5019 85.3204 92.5765 92.2065 96.6503C92.2065 96.6503 97.4775 99.4736 100.668 92.977C101.431 91.4335 103.442 86.7149 94.0196 90.7887Z" fill="#F2BCAF"/>
    <path d="M99.1525 92.0299C99.2058 92.2789 99.1795 92.5381 99.0772 92.7717C98.9749 93.0053 98.8017 93.202 98.5814 93.3346C98.3611 93.4672 98.1046 93.5292 97.847 93.512C97.5895 93.4949 97.3437 93.3995 97.1435 93.239C96.9432 93.0785 96.7984 92.8607 96.7288 92.6156C96.6593 92.3705 96.6684 92.1102 96.7551 91.8705C96.8418 91.6308 97.0017 91.4235 97.2128 91.2771C97.4238 91.1307 97.6758 91.0524 97.9339 91.053C98.2259 91.0281 98.5162 91.1161 98.7436 91.2984C98.971 91.4807 99.1176 91.743 99.1525 92.0299Z" fill="#D18F86"/>
    <path d="M97.9337 93.0263C98.1502 93.0241 98.3635 92.974 98.5579 92.8797C98.6437 92.7447 98.6916 92.5896 98.6966 92.4303C98.6593 92.1426 98.5106 91.8803 98.2816 91.6982C98.0526 91.5161 97.7611 91.4284 97.468 91.4534C97.2513 91.4546 97.0378 91.5047 96.8438 91.6C96.7536 91.733 96.7053 91.8893 96.7051 92.0493C96.7424 92.3371 96.891 92.5994 97.12 92.7815C97.349 92.9636 97.6406 93.0513 97.9337 93.0263Z" fill="#E0A499"/>
    <path d="M94.674 94.0231C94.7272 94.2717 94.701 94.5304 94.5992 94.7638C94.4973 94.9972 94.3247 95.1937 94.105 95.3265C93.8853 95.4593 93.6294 95.5218 93.3722 95.5055C93.1151 95.4891 92.8694 95.3948 92.6688 95.2353C92.4682 95.0758 92.3226 94.859 92.252 94.6147C92.1813 94.3704 92.189 94.1105 92.2741 93.8707C92.3592 93.6308 92.5175 93.4229 92.7272 93.2752C92.9369 93.1276 93.1878 93.0476 93.4455 93.0462C93.7385 93.0211 94.0301 93.1089 94.2591 93.2909C94.4881 93.473 94.6368 93.7354 94.674 94.0231Z" fill="#D18F86"/>
    <path d="M93.4257 95.0194C93.6426 95.0197 93.8565 94.9695 94.0499 94.8728C94.1401 94.7398 94.1884 94.5835 94.1886 94.4234C94.1537 94.1365 94.0071 93.8742 93.7797 93.6919C93.5523 93.5096 93.2619 93.4216 92.97 93.4465C92.7501 93.4475 92.5333 93.4976 92.3358 93.5931C92.2531 93.7289 92.2086 93.884 92.207 94.0424C92.2419 94.3294 92.3886 94.5917 92.616 94.7739C92.8434 94.9562 93.1337 95.0442 93.4257 95.0194Z" fill="#E0A499"/>
    <defs>
        <linearGradient id="paint0_linear_3579_20065" x1="85.4871" y1="124.344" x2="69.5331" y2="124.344" gradientUnits="userSpaceOnUse">
            <stop stop-color="#A996EB"/>
            <stop offset="0.44" stop-color="#B6A7EB"/>
            <stop offset="1" stop-color="#C5BAEB"/>
        </linearGradient>
        <linearGradient id="paint1_linear_3579_20065" x1="113.809" y1="74.528" x2="24.9333" y2="134.34" gradientUnits="userSpaceOnUse">
            <stop stop-color="#DFDAEF"/>
            <stop offset="1" stop-color="#F2EFFA"/>
        </linearGradient>
        <linearGradient id="paint2_linear_3579_20065" x1="95.6413" y1="88.0678" x2="95.6413" y2="21.0868" gradientUnits="userSpaceOnUse">
            <stop stop-color="#F2EFFA"/>
            <stop offset="1" stop-color="white"/>
        </linearGradient>
        <linearGradient id="paint3_linear_3579_20065" x1="114.404" y1="58.3505" x2="110.13" y2="50.9601" gradientUnits="userSpaceOnUse">
            <stop stop-color="#0072BC"/>
            <stop offset="1" stop-color="#C9EDFF"/>
        </linearGradient>
        <linearGradient id="paint4_linear_3579_20065" x1="95.6413" y1="50.0642" x2="95.6413" y2="26.5492" gradientUnits="userSpaceOnUse">
            <stop stop-color="#2F97F7"/>
            <stop offset="1" stop-color="#79D3FE"/>
        </linearGradient>
    </defs>
</svg>
