<?xml version="1.0" encoding="UTF-8" standalone="no"?>
<svg
   width="41"
   height="41"
   viewBox="0 0 41 41"
   fill="none"
   version="1.1"
   id="svg3"
   sodipodi:docname="icon17.svg"
   inkscape:version="1.4.3 (0d15f75, 2025-12-25)"
   xml:space="preserve"
   xmlns:inkscape="http://www.inkscape.org/namespaces/inkscape"
   xmlns:sodipodi="http://sodipodi.sourceforge.net/DTD/sodipodi-0.dtd"
   xmlns="http://www.w3.org/2000/svg"
   xmlns:svg="http://www.w3.org/2000/svg"><defs
     id="defs3" /><sodipodi:namedview
     id="namedview3"
     pagecolor="#ffffff"
     bordercolor="#000000"
     borderopacity="0.25"
     inkscape:showpageshadow="2"
     inkscape:pageopacity="0.0"
     inkscape:pagecheckerboard="0"
     inkscape:deskcolor="#d1d1d1"
     inkscape:zoom="7.6463415"
     inkscape:cx="25.698564"
     inkscape:cy="18.897927"
     inkscape:window-width="1600"
     inkscape:window-height="829"
     inkscape:window-x="3192"
     inkscape:window-y="-8"
     inkscape:window-maximized="1"
     inkscape:current-layer="svg3" /><rect
     width="41"
     height="41"
     fill="#fafafa"
     id="rect1"
     x="0"
     y="0" /><circle
     cx="21"
     cy="20"
     r="16"
     fill="#63b78f"
     id="circle1"
     style="display:inline" /><g
     id="g4"
     transform="matrix(0.025,0,0,0.025,1.2536843,23.277174)"><g
       id="g9"
       transform="matrix(1.6319577,0,0,1.6527978,155.37168,-334.99324)">
	<path
   style="fill:#af4c4c;fill-opacity:1;stroke-width:1.47082"
   d="m 571.28659,-7.349601 c -100.39056,0 -181.77229,81.381729 -181.77229,181.772291 h 363.54458 c 0,-100.390562 -81.38173,-181.772291 -181.77229,-181.772291"
   id="path1" />
	<polygon
   style="fill:#c78181;fill-opacity:1"
   points="512.001,282.483 264.829,282.483 264.829,512 512.001,512 "
   id="polygon1"
   transform="matrix(1.4708162,0,0,1.4708162,-4.7081617e-4,-241.05788)" />
	<path
   style="fill:#af4c4c;fill-opacity:1;stroke-width:1.47082"
   d="M 168.79039,96.519437 C 75.567122,96.519437 0.001,172.08556 0.001,265.30883 H 337.57831 C 337.57979,172.08556 262.01366,96.519437 168.79039,96.519437"
   id="path2" />
	<polygon
   style="fill:#c78181;fill-opacity:1"
   points="229.519,344.276 0.001,344.276 0.001,512 229.519,512 "
   id="polygon2"
   transform="matrix(1.4708162,0,0,1.4708162,-4.7081617e-4,-241.05788)" />
	<path
   style="fill:#ece8d8;stroke-width:1.47082"
   d="M 480.40045,-85.25285 H 220.72491 v -25.96726 c 0,-71.70964 58.12813,-129.83777 129.83777,-129.83777 71.70964,0 129.83777,58.12813 129.83777,129.83777 z"
   id="path3" />
	<polygon
   style="fill:#c9c3a7"
   points="326.622,105.931 150.07,105.931 150.07,141.241 326.622,141.241 "
   id="polygon3"
   transform="matrix(1.4708162,0,0,1.4708162,-4.7081617e-4,-241.05788)" />
	<g
   id="g5"
   transform="matrix(1.4708162,0,0,1.4708162,-4.7081617e-4,-241.05788)">
		<polygon
   style="fill:#ffffff"
   points="150.07,406.069 79.45,406.069 79.45,512 150.07,512 "
   id="polygon4" />
		<polygon
   style="fill:#ffffff"
   points="450.208,406.069 326.622,406.069 326.622,512 450.208,512 "
   id="polygon5" />
	</g>
	<polygon
   style="fill:#c78181;fill-opacity:1"
   points="141.243,273.655 88.277,273.655 88.277,308.966 141.243,308.966 "
   id="polygon6"
   transform="matrix(1.4708162,0,0,1.4708162,-4.7081617e-4,-241.05788)" />
	
	<path
   style="fill:#ece8d8;stroke-width:1.47082"
   d="M 220.72491,-33.318331 V 104.75159 c 67.78845,21.91664 116.8534,85.47207 116.8534,160.55724 V 512 h 51.93452 V 174.42269 c 0,-67.24278 36.60126,-125.812148 90.88615,-157.259669 v -50.481352 z"
   id="path7" />
	<g
   id="g8">
		
		
	</g>
</g></g></svg>
