<svg width="45" height="45" viewBox="0 0 45 45" fill="none" xmlns="http://www.w3.org/2000/svg">
    <rect width="45" height="45" fill="#FAFAFA"/>
    <path d="M7.33257 17.9945L9.22469 16.8975L9.20888 22.2421L7.31738 23.3392L7.33257 17.9945Z" fill="#69C3FA"/>
    <path d="M7.33219 17.9941L7.31637 23.3388L12.3383 26.2316L4.77197 27.5123L7.33219 17.9941Z" fill="#419AE8"/>
    <path d="M7.31738 23.3386L9.20951 22.2412L14.2314 25.1338L12.3387 26.2313L7.31738 23.3386Z" fill="#69C3FA"/>
    <path d="M36.2897 22.7576L36.2408 40.0001L12.3383 26.2322L7.31641 23.3394L7.33222 17.9948L7.36607 6.09668L36.2897 22.7576Z" fill="#419AE8"/>
    <path d="M36.2893 22.7572L38.1814 21.6602L38.1324 38.9026L36.2402 39.9996L36.2893 22.7572Z" fill="#69C3FA"/>
    <path d="M7.36572 6.09702L9.25769 5L38.1813 21.6606L36.2892 22.7577L7.36572 6.09702Z" fill="#69C3FA"/>
    <path d="M16.7831 20.1573C16.7831 21.2925 15.9835 21.7536 14.9978 21.1855C14.0121 20.6174 13.2124 19.2359 13.2124 18.1007C13.2124 16.9655 14.0121 16.5042 14.9978 17.0723C15.9835 17.6404 16.7831 19.0213 16.7831 20.1573Z" fill="white"/>
    <path d="M23.588 24.0768C23.588 25.2129 22.7891 25.6731 21.8026 25.105C20.8162 24.5369 20.0181 23.1568 20.0181 22.0206C20.0181 20.8845 20.817 20.4243 21.8026 20.9924C22.7883 21.5605 23.588 22.9408 23.588 24.0768Z" fill="white"/>
    <path d="M30.3945 27.9971C30.3945 29.1333 29.5948 29.5934 28.6091 29.0253C27.6234 28.4573 26.8237 27.0764 26.8237 25.9405C26.8237 24.8047 27.6226 24.3442 28.6091 24.9123C29.5956 25.4804 30.3945 26.8611 30.3945 27.9971Z" fill="white"/>
</svg>
