<svg width="41" height="41" viewBox="0 0 41 41" fill="none" xmlns="http://www.w3.org/2000/svg">
<rect width="41" height="41" fill="#FAFAFA"/>
<circle cx="21" cy="20" r="16" fill="#63B78F"/>
<path fill-rule="evenodd" clip-rule="evenodd" d="M28.2532 10.0333C31.5384 11.333 35.2082 10.3064 39.0332 8.16504C42.8908 9.20283 40.0916 12.6328 38.8679 13.9002C35.9246 16.9379 32.2436 14.6537 29.7186 13.8344C29.7186 13.8344 28.2745 9.97745 28.2532 10.0321V10.0333Z" fill="#E5CC95"/>
<path fill-rule="evenodd" clip-rule="evenodd" d="M30.6677 14.1624C30.6013 14.1401 30.4798 14.0532 30.3032 14.042C30.1041 13.965 29.9062 13.9005 29.7195 13.8347C29.7195 13.8347 28.2754 9.97772 28.2542 10.0323C31.5281 11.3209 35.2317 10.2732 39.0342 8.16406C39.0342 8.17523 39.0229 8.18641 39.0016 8.19634C38.1312 8.93868 35.9268 10.1304 33.998 11.3097C34.8797 11.2328 35.541 10.9385 36.2249 10.5885C35.9268 10.8616 34.6706 11.4413 33.9429 11.5717C34.6931 11.779 35.5961 12.2048 35.9043 12.4679C34.99 12.031 34.1295 11.7032 33.0937 11.8894C32.9609 11.9763 32.8294 12.0645 32.7079 12.1514C33.4907 12.2718 34.504 12.6206 34.8459 12.8726C34.0744 12.5883 33.3354 12.3587 32.5313 12.458C33.0937 12.5449 33.6886 12.7199 33.9203 12.8627C33.2703 12.6765 32.6416 12.5461 31.9803 12.6666C31.22 13.2351 30.7128 13.759 30.6689 14.1637L30.6677 14.1624Z" fill="#FBE5BC"/>
<path fill-rule="evenodd" clip-rule="evenodd" d="M13.9248 10.0333C10.6295 11.333 6.96979 10.3064 3.13346 8.16504C-0.724156 9.20283 2.08639 12.6328 3.31006 13.9002C6.25337 16.9379 9.92312 14.6537 12.4594 13.8344C12.4594 13.8344 13.8922 9.97745 13.926 10.0321L13.9248 10.0333Z" fill="#E5CC95"/>
<path fill-rule="evenodd" clip-rule="evenodd" d="M11.5101 14.1624C11.5765 14.1401 11.698 14.0532 11.8746 14.042C12.0724 13.965 12.2716 13.9005 12.4582 13.8347C12.4582 13.8347 13.891 9.97772 13.9249 10.0323C10.6509 11.3209 6.93731 10.2732 3.13354 8.16406C3.13354 8.17523 3.15609 8.18641 3.16611 8.19634C4.03658 8.93868 6.2522 10.1304 8.16974 11.3097C7.29927 11.2328 6.62669 10.9385 5.94284 10.5885C6.25095 10.8616 7.49716 11.4413 8.23487 11.5717C7.48589 11.779 6.57033 12.2048 6.27224 12.4679C7.17653 12.031 8.047 11.7032 9.08279 11.8894C9.2143 11.9763 9.34706 12.0645 9.46855 12.1514C8.68576 12.2718 7.67251 12.6206 7.33058 12.8726C8.10211 12.5883 8.84106 12.3587 9.64515 12.458C9.07277 12.5449 8.48787 12.7199 8.24489 12.8627C8.90619 12.6765 9.53493 12.5461 10.1962 12.6666C10.9452 13.2351 11.4525 13.759 11.5076 14.1637L11.5101 14.1624Z" fill="#FBE5BC"/>
<path fill-rule="evenodd" clip-rule="evenodd" d="M23.9331 7.09351C26.1261 6.30648 28.1326 5.44372 29.5542 4.3302C30.2593 3.34703 32.5413 3.31351 31.2625 5.65227C30.3808 7.27972 29.4114 8.30634 28.3856 9.43228C27.1394 9.34538 25.8944 9.25724 24.6495 9.17034C24.6495 9.17034 23.9118 6.98551 23.9331 7.09475V7.09351Z" fill="#D2B373"/>
<path fill-rule="evenodd" clip-rule="evenodd" d="M21.0887 7.53028C19.4241 7.36642 18.9169 7.01635 18.4986 6.37207C17.727 7.08214 16.6136 7.72642 15.0154 7.13676C14.542 7.73759 14.2777 8.58918 13.9245 9.12545C13.4398 9.85787 13.0202 10.4798 12.6458 11.2445C10.9487 14.3144 11.0689 17.2093 12.2274 19.81C12.6896 20.8478 12.7234 23.4373 13.0866 24.7048C13.7041 26.8238 14.939 26.9442 15.1044 29.5338C15.5891 36.7549 17.8598 35.5098 21.1338 34.472C24.6169 35.4216 26.6008 36.7549 27.0755 29.5338C27.2521 26.9442 28.4758 26.8238 29.0932 24.7048C29.4564 23.4373 29.4903 20.8478 29.9524 19.81C31.1097 17.2093 31.2312 14.3144 29.5341 11.2445C29.1596 10.4798 28.74 9.85663 28.2553 9.12545C27.9021 8.59042 27.6379 7.73759 27.1644 7.13676C25.5663 7.72642 24.4528 7.08214 23.6813 6.37207C23.2617 7.01635 22.7557 7.36642 21.0912 7.53028H21.0887Z" fill="#E5CC95"/>
<path fill-rule="evenodd" clip-rule="evenodd" d="M17.8149 7.09351C15.6218 6.30648 13.6153 5.44372 12.1938 4.3302C11.4774 3.34703 9.20662 3.31351 10.4854 5.65227C11.3671 7.27972 12.3378 8.30634 13.3623 9.43228C14.6073 9.34538 15.8535 9.25724 17.0997 9.17034C17.0997 9.17034 17.8387 6.98551 17.8161 7.09475L17.8149 7.09351Z" fill="#D2B373"/>
<path fill-rule="evenodd" clip-rule="evenodd" d="M16.5588 31.7394C16.4048 31.3136 16.3384 30.7674 16.3722 30.0685C17.011 29.0307 18.1469 26.2227 17.6948 19.8321C17.4418 16.2482 14.4208 14.468 11.6992 13.1571C11.7769 12.709 11.8871 12.2832 12.0512 11.8897C12.3605 11.1474 12.7237 10.513 13.132 9.81411L13.0444 9.85756L13.0331 9.71604L13.0106 9.6937C13.0218 9.65025 13.0218 9.6068 13.0218 9.55218V9.45411C12.9993 9.45411 12.9893 9.45411 12.9667 9.46528C12.9893 9.45411 12.9993 9.44294 13.0218 9.44294C13.0106 9.41066 13.0106 9.37714 13.0106 9.34487C12.9667 8.88556 12.7125 8.38404 12.1514 7.94707C12.482 8.12211 12.7801 8.34059 13.0556 8.55907L13.0882 8.5479C12.9554 8.37287 12.8014 8.14321 12.7024 7.83783C12.8452 8.08859 13.1759 8.28597 13.5616 8.32942C13.5391 7.87011 13.3525 7.31273 12.9442 6.72307C13.2197 7.00735 13.4514 7.33507 13.6719 7.64045C13.5278 7.35618 13.385 7.0508 13.2974 6.73424C13.4965 7.12776 13.7382 7.37852 13.9812 7.51011C13.9812 7.45549 13.8823 7.3028 13.871 7.25935C14.0038 7.39093 14.1127 7.41204 14.268 7.50018H14.3006C14.3006 7.45673 14.2893 7.41328 14.2781 7.35866C14.5761 7.45673 14.476 7.45673 14.8291 7.50018C14.8517 7.45673 14.873 7.41328 14.8843 7.35866H15.0283C15.2375 7.129 15.2926 6.75783 15.0721 6.35314C15.27 6.5828 15.3915 6.81245 15.4692 7.00859C15.4804 6.99742 15.4917 6.97631 15.4917 6.96514C15.4028 6.63742 15.2274 6.27617 14.9632 5.905C15.2162 6.15576 15.4366 6.44004 15.6357 6.72431C15.647 6.71314 15.647 6.70197 15.6583 6.68086C15.4491 6.28735 15.1849 5.8839 14.8317 5.50155C15.1623 5.78583 15.5042 6.03659 15.8349 6.2439C15.8462 6.21162 15.8574 6.18928 15.8574 6.157C15.7146 5.84045 15.5706 5.51273 15.4829 5.17383C15.781 5.78583 16.123 6.11355 16.4524 6.28859C16.7504 6.34321 17.0698 6.34321 17.4781 6.25631C18.3048 6.8348 19.5723 5.44817 21.0928 5.38238C22.6133 5.44817 23.892 6.8348 24.7087 6.25631C25.117 6.34321 25.4363 6.34321 25.7332 6.28859C26.0751 6.11355 26.4058 5.78583 26.7038 5.17383C26.6162 5.51273 26.4721 5.84045 26.3294 6.157C26.3294 6.18928 26.3406 6.21162 26.3519 6.2439C26.6826 6.03659 27.0245 5.78459 27.3551 5.50155C27.0019 5.8839 26.7377 6.28735 26.5285 6.68086C26.5398 6.70321 26.551 6.71314 26.551 6.72431C26.7502 6.44004 26.9706 6.15576 27.2236 5.905C26.9593 6.27617 26.794 6.63742 26.6951 6.96514C26.6951 6.97631 26.7064 6.99742 26.7176 7.00859C26.7953 6.81245 26.9168 6.5828 27.1147 6.35314C26.8942 6.75783 26.9606 7.129 27.1585 7.35866H27.3025C27.3251 7.41328 27.3351 7.45673 27.3576 7.50018C27.7096 7.45673 27.6106 7.45673 27.9087 7.35866C27.8975 7.41328 27.8975 7.45673 27.8862 7.50018H27.9187C28.0728 7.41328 28.183 7.39093 28.3158 7.25935C28.3045 7.3028 28.2056 7.45549 28.2056 7.51011C28.4473 7.37976 28.6903 7.12776 28.8882 6.73424C28.8005 7.0508 28.6565 7.35742 28.5137 7.64045C28.7341 7.33383 28.9658 7.00735 29.2526 6.72307C28.8343 7.31273 28.6464 7.87011 28.6239 8.32942C29.0096 8.28597 29.3403 8.08859 29.4831 7.83783C29.3841 8.14321 29.2301 8.37287 29.0973 8.5479L29.1299 8.55907C29.4054 8.34059 29.7023 8.12211 30.0342 7.94707C29.4718 8.38404 29.2301 8.8868 29.175 9.34487V9.44294C29.1862 9.44294 29.1975 9.45411 29.2188 9.46528C29.1975 9.45411 29.1862 9.45411 29.1637 9.45411V9.55218C29.1637 9.6068 29.1637 9.65025 29.175 9.6937L29.1524 9.71604L29.1412 9.85756L29.0535 9.81411C29.4618 10.513 29.825 11.1474 30.1331 11.8897C30.2984 12.2832 30.4087 12.709 30.4863 13.1571C27.7747 14.468 24.7437 16.2494 24.4895 19.8321C24.0373 26.2227 25.1733 29.0307 25.8121 30.0685C25.8459 30.7674 25.7795 31.3136 25.6355 31.7394H16.5638H16.5588Z" fill="#FBE5BC"/>
<path fill-rule="evenodd" clip-rule="evenodd" d="M27.2836 34.4929C27.2386 33.6848 27.2611 32.8431 27.0519 32.1653C26.8866 31.6303 26.4244 30.8768 26.1264 30.4175C25.7844 29.8712 25.1344 29.4119 24.4506 29.2046C23.9546 29.0408 22.4992 28.9973 21.0889 29.0085C19.6786 28.9973 18.2233 29.0408 17.7273 29.2046C16.1942 29.685 15.7421 30.811 15.3238 32.1653C15.1146 32.8431 14.938 33.6835 14.8942 34.4929C14.8378 35.5009 16.2556 36.9744 21.0889 37.3022C25.8345 37.1197 27.35 35.6846 27.2836 34.4929Z" fill="#ECD7AC"/>
<path fill-rule="evenodd" clip-rule="evenodd" d="M21.045 31.4031C23.4372 31.4031 25.3886 31.1846 25.3886 32.1678C25.3886 33.1509 23.4372 34.4084 21.045 34.4084C18.6528 34.4084 16.6914 33.1633 16.6914 32.1678C16.6914 31.1722 18.6415 31.4031 21.045 31.4031Z" fill="#676767"/>
<path fill-rule="evenodd" clip-rule="evenodd" d="M25.1669 31.7193C25.311 31.8286 25.3874 31.9713 25.3874 32.1675C25.3874 33.1618 23.436 34.4082 21.0438 34.4082C18.6516 34.4082 16.6902 33.1631 16.6902 32.1675C16.6902 31.589 17.3728 31.4251 18.4211 31.3916C19.1488 32.4517 20.4489 33.1506 21.9155 33.1506C23.2381 33.1506 24.4179 32.5933 25.1669 31.7193Z" fill="#676767"/>
<path fill-rule="evenodd" clip-rule="evenodd" d="M21.0891 35.6624C21.6189 35.6077 22.2576 35.5531 22.7649 35.4215C24.1326 35.0715 25.2999 34.1106 25.4539 33.1275C25.6193 32.0462 24.6498 33.521 23.7343 33.8599C22.6096 34.2857 22.5106 33.0517 23.47 32.5378C24.0324 32.2212 24.8477 32.0785 25.4101 31.7619C25.9386 31.3026 25.9174 30.1345 25.0243 30.1556C23.8896 30.6248 22.5006 31.1822 21.0891 31.1177C19.6788 31.1835 18.2998 30.6261 17.1538 30.1556C16.2608 30.1332 16.2382 31.3026 16.768 31.7619C17.3304 32.0785 18.1458 32.2212 18.7081 32.5378C19.6675 33.0517 19.5686 34.2857 18.4438 33.8599C17.5396 33.521 16.5589 32.0462 16.7242 33.1275C16.8783 34.1106 18.0468 35.0727 19.4133 35.4215C19.9205 35.5531 20.5593 35.6077 21.0891 35.6624Z" fill="#AD8C50"/>
<path fill-rule="evenodd" clip-rule="evenodd" d="M21.0891 35.6631C21.6189 35.6084 22.2576 35.5538 22.7649 35.4222C24.1326 35.0722 25.2999 34.1113 25.4539 33.1282C25.6193 32.0469 24.6499 33.5217 23.7343 33.8606C22.8964 34.1771 22.6321 33.5763 22.9402 33.0413C22.6096 33.1071 22.2676 33.1505 21.9157 33.1505C20.0533 33.1505 18.4764 32.0258 17.9692 30.4741C17.6823 30.376 17.4181 30.2556 17.1538 30.1575C16.2608 30.1352 16.2382 31.3046 16.768 31.7639C17.3304 32.0804 18.1458 32.2232 18.7081 32.5398C19.6675 33.0537 19.5686 34.2876 18.4438 33.8618C17.5396 33.5229 16.5589 32.0482 16.7242 33.1294C16.8783 34.1126 18.0468 35.0747 19.4133 35.4235C19.9205 35.5551 20.5593 35.6097 21.0891 35.6643V35.6631ZM24.9029 31.9923C25.0895 31.9265 25.2548 31.8495 25.4101 31.7626C25.6744 31.5442 25.7959 31.1395 25.752 30.8018C25.5529 31.25 25.2673 31.6534 24.9029 31.9923Z" fill="#AD8C50"/>
</svg>
