<svg width="45" height="45" viewBox="0 0 45 45" fill="none" xmlns="http://www.w3.org/2000/svg">
    <path d="M6.98258 17.5399C6.23945 16.7435 5.28433 16.1923 4.23792 15.956C2.62898 15.7665 0.830764 15.9951 0.17678 15.8065C-0.477204 15.6179 0.691644 18.562 3.54513 18.9382C6.39862 19.3144 6.39673 18.3314 6.54343 18.3695C6.69012 18.4076 6.98258 17.5399 6.98258 17.5399Z" fill="#C1AE99"/>
    <path d="M5.86444 17.799C5.69976 17.7501 5.54359 16.7359 3.25606 17.1853C2.23202 17.3857 0.669472 16.4681 0.234113 16.1555C-0.12837 15.8975 1.18054 18.5308 3.89112 18.7878C6.48529 19.036 5.86444 17.799 5.86444 17.799Z" fill="#E2967F"/>
    <path d="M11.1718 12.8788C13.0562 10.9656 15.5254 13.5071 15.8992 14.6229C17.6028 19.7724 15.7166 22.4399 14.8042 25.7377C13.9468 28.8352 14.5648 28.5645 14.348 30.3536C14.1947 31.6239 13.4016 32.2102 13.0713 36.916C13.0458 37.2648 12.4893 37.6254 12.281 37.8882C12.281 37.8882 12.3984 38.1901 11.1122 37.8648C9.36792 37.4221 9.91685 36.3874 9.83546 36.5271C9.75406 36.6668 11.0942 32.0177 10.3645 30.9809C9.63482 29.9442 10.5008 27.732 10.4374 27.2815C10.3172 26.4481 9.0944 19.6854 9.57046 17.1195C9.836 15.613 10.3797 14.1733 11.1718 12.8788Z" fill="#AF9C89"/>
    <path d="M10.8514 31.1537C10.1217 30.1179 11.1978 27.8119 10.9233 27.4553C9.69956 25.8518 9.74404 22.0215 9.74404 22.0215C9.64451 23.8603 9.87424 25.7024 10.4217 27.4553C10.486 27.9047 9.62006 30.1179 10.3498 31.1537C11.0795 32.1894 9.71092 36.8435 9.79326 36.7027C9.8756 36.562 11.5782 32.1904 10.8514 31.1537Z" fill="#F9F2EA"/>
    <path d="M13.0715 36.9663C12.8236 37.2506 12.4365 37.3835 10.9799 37.2838C10.8436 37.2741 9.91138 36.5363 9.82147 36.6292C9.55006 37.0676 9.24965 37.4862 8.92237 37.8818C8.17847 38.8199 8.01947 39.8263 8.33085 40.0139C8.77094 40.2768 11.5932 40.226 11.8431 39.6524C12.4658 38.2238 12.9835 38.3333 13.0289 37.9414C13.1349 37.023 13.0715 36.9663 13.0715 36.9663Z" fill="#514A3F"/>
    <path d="M13.0714 36.9658C13.0247 37.0209 12.9709 37.0693 12.9115 37.1095C12.902 37.2072 12.8916 37.3117 12.8765 37.4378C12.831 37.8286 12.3086 37.7202 11.6906 39.1497C11.4417 39.7203 8.6412 39.7741 8.18408 39.5132C8.16515 39.7624 8.21531 39.9431 8.33077 40.0135C8.77086 40.2763 11.5931 40.2255 11.843 39.6519C12.4657 38.2234 12.9834 38.3328 13.0289 37.941C13.1349 37.0225 13.0714 36.9658 13.0714 36.9658Z" fill="#514A3F"/>
    <path d="M8.42456 40.0499C8.43052 39.658 8.56384 39.2794 8.80313 38.9751C9.02954 38.6524 9.30694 38.3713 9.62369 38.1436C9.62369 38.1436 8.55139 39.3562 8.74162 40.1046C8.74825 40.1359 8.42456 40.0499 8.42456 40.0499Z" fill="#CCBCAB"/>
    <path d="M34.9807 10.5932C35.1486 9.15001 35.4049 7.71924 35.7482 6.30952C36.0691 5.10802 36.2064 3.86219 36.1552 2.61698C34.8803 2.0522 34.0333 0.680326 32.4641 0.736022C31.0581 0.883368 29.6952 1.3217 28.4569 2.02485C28.1389 2.24177 27.8228 2.46748 27.5057 2.6932C27.3549 2.81595 27.1646 2.87496 26.9732 2.85827C26.7819 2.84158 26.6038 2.75043 26.4751 2.6033C26.3255 2.84426 26.2138 3.10807 26.1438 3.385C25.5126 5.96558 25.4917 10.9186 26.1893 11.5811C29.5964 14.8173 31.6284 14.4362 32.0893 15.4837C32.9053 18.1401 32.8488 21.0004 31.9284 23.6202C32.6367 24.0881 33.3911 24.4769 34.179 24.7801C34.4554 24.7165 35.1311 23.9935 35.2201 23.9417C35.3215 23.6178 35.3732 23.2795 35.3734 22.9392C35.3734 22.8121 35.7577 22.3988 35.7577 22.3988C35.6484 21.6749 35.5918 20.9436 35.5883 20.211C35.6195 19.3541 36.4495 16.8155 36.5716 15.8648C36.6937 14.9141 36.8489 14.0884 36.2953 13.548C35.5869 12.7168 35.1299 11.6896 34.9807 10.5932Z" fill="#AF9C89"/>
    <path d="M32.827 14.9419C32.2288 13.9706 27.0793 13.3404 25.7429 10.7246C25.811 11.0525 25.9764 11.3504 26.2161 11.5767C29.6233 14.8129 31.6562 14.4318 32.1162 15.4793C32.9322 18.1357 32.8756 20.996 31.9553 23.6158C31.9553 23.6158 34.2731 17.2889 32.827 14.9419Z" fill="#F4AB42"/>
    <path d="M35.2251 23.7925C34.9771 24.0768 34.5891 24.2097 33.1344 24.109C32.9972 24.1002 32.065 23.3625 31.976 23.4553C31.704 23.8936 31.4033 24.3121 31.0759 24.708C30.332 25.646 30.173 26.6535 30.4844 26.8391C30.9245 27.1039 33.7468 27.0512 33.9966 26.4786C34.6203 25.049 35.1371 25.1604 35.1825 24.7666C35.2885 23.8501 35.2251 23.7925 35.2251 23.7925Z" fill="#514A3F"/>
    <path d="M30.55 26.8732C30.5567 26.4814 30.69 26.1031 30.9286 25.7983C31.1556 25.4758 31.4329 25.1944 31.7492 24.9658C31.7492 24.9658 30.6778 26.1784 30.8671 26.9289C30.8747 26.965 30.55 26.8732 30.55 26.8732Z" fill="#CCBCAB"/>
    <path d="M35.2099 23.8457C35.1631 23.9005 35.1093 23.9485 35.0499 23.9884C35.0414 24.0861 35.0301 24.1906 35.0159 24.3167C34.9704 24.7075 34.448 24.5991 33.829 26.0286C33.5801 26.5992 30.7806 26.653 30.3272 26.3921C30.3074 26.6412 30.3575 26.824 30.473 26.8924C30.9131 27.1572 33.7353 27.1044 33.9852 26.5318C34.608 25.1023 35.1256 25.2127 35.1711 24.8199C35.2742 23.8985 35.2099 23.8457 35.2099 23.8457Z" fill="#514A3F"/>
    <path d="M39.3638 19.9953C39.7329 19.3206 39.8634 18.5344 39.7329 17.7713C39.4589 16.8162 38.8528 15.9993 38.031 15.4775C37.2091 14.9557 36.2295 14.7658 35.2803 14.9443C34.3311 15.1228 33.4792 15.6571 32.8884 16.4446C32.2975 17.232 32.0093 18.2171 32.0791 19.2106C32.1659 19.6748 32.3454 20.1152 32.6061 20.5038C32.8668 20.8924 33.2031 21.2207 33.5934 21.4678C33.4912 21.684 33.4063 21.9085 33.3398 22.1391C33.3104 22.4684 33.5631 23.4279 33.9758 23.467C34.3884 23.5061 34.8048 22.6091 34.8351 22.2807C34.8344 22.1817 34.821 22.0831 34.7954 21.9876C35.14 22.0721 35.4936 22.1111 35.8478 22.1039C35.8573 22.4869 36.1024 23.3126 36.4847 23.3487C36.8974 23.3878 37.3148 22.4908 37.3441 22.1625C37.3419 22.046 37.3248 21.9304 37.293 21.8186C37.5656 21.711 37.8267 21.5745 38.0719 21.4111C38.1505 21.8215 38.3691 22.3706 38.6805 22.4C39.0931 22.4381 39.5095 21.542 39.5389 21.2128C39.555 21.0339 39.3856 20.5219 39.396 20.3988C39.4058 20.2634 39.3949 20.1272 39.3638 19.9953Z" fill="#F4B7A8"/>
    <g opacity="0.5">
        <path opacity="0.5" d="M39.3646 19.9653C39.7336 19.291 39.864 18.5051 39.7337 17.7424C39.4596 16.7876 38.8537 15.971 38.0321 15.4493C37.2105 14.9276 36.2312 14.7376 35.2822 14.9158C34.3332 15.094 33.4814 15.6279 32.8904 16.4148C32.2994 17.2018 32.0107 18.1865 32.0799 19.1797C32.0846 19.209 32.0932 19.2354 32.0998 19.2628C33.3856 18.7722 34.8063 18.8211 36.0576 19.399C37.3089 19.9769 38.2911 21.0378 38.7939 22.3544C39.1649 22.2401 39.5094 21.4818 39.5349 21.1818C39.551 21.003 39.3816 20.491 39.392 20.3679C39.4032 20.2331 39.394 20.0972 39.3646 19.9653Z" fill="#CE8980"/>
    </g>
    <path d="M35.8449 22.1047C35.42 21.9185 34.9753 21.7847 34.5199 21.7061C34.5452 21.8016 34.5579 21.9002 34.5578 21.9992C34.5294 22.3275 34.112 23.2245 33.6994 23.1854C33.6667 23.1817 33.6348 23.1728 33.6047 23.159C33.6388 23.236 33.6896 23.3039 33.7531 23.3574C33.8166 23.4109 33.8911 23.4487 33.971 23.4678C34.3846 23.5069 34.8001 22.6099 34.8304 22.2816C34.8296 22.1825 34.8163 22.0839 34.7906 21.9884C35.1302 22.1036 35.4895 22.1432 35.8449 22.1047Z" fill="#E5A193"/>
    <path d="M33.3162 21.1867C33.1487 21.0748 32.9904 20.9486 32.843 20.8096C32.9807 20.9691 33.1315 21.1163 33.2935 21.2493C33.2992 21.2278 33.3096 21.2063 33.3162 21.1867Z" fill="#E5A193"/>
    <path d="M38.0681 21.4141C38.0217 21.2851 37.2949 21.4297 37.0166 21.5391C37.0476 21.6511 37.0645 21.7667 37.0668 21.8831C37.0375 22.2114 36.6201 23.1074 36.2074 23.0693C36.1745 23.0624 36.1427 23.0509 36.1128 23.0351C36.147 23.1137 36.1983 23.1831 36.2626 23.238C36.3269 23.2928 36.4026 23.3318 36.4838 23.3517C36.8964 23.3908 37.3138 22.4938 37.3432 22.1655C37.341 22.049 37.3238 21.9333 37.292 21.8215C37.5591 21.7035 37.8184 21.5674 38.0681 21.4141Z" fill="#E5A193"/>
    <path d="M39.364 19.9965C39.729 19.3377 39.8624 18.5689 39.7417 17.8203C39.621 17.0716 39.2535 16.3889 38.7015 15.8877C39.0914 16.3401 39.3533 16.8945 39.4587 17.4902C39.5892 18.2532 39.4587 19.0394 39.0896 19.7141C39.1243 19.8455 39.1336 19.9826 39.117 20.1177C39.1056 20.2408 39.276 20.7528 39.259 20.9316C39.2306 21.2599 38.8132 22.1579 38.4006 22.1188C38.3677 22.1147 38.3358 22.1051 38.3059 22.0905C38.3393 22.1679 38.3897 22.2363 38.4531 22.2903C38.5165 22.3442 38.5912 22.3822 38.6712 22.4012C39.0839 22.4393 39.5003 21.5433 39.5296 21.214C39.5457 21.0352 39.3763 20.5232 39.3867 20.4C39.3996 20.2651 39.392 20.129 39.364 19.9965Z" fill="#E5A193"/>
    <path d="M40.4935 5.47217C40.4641 5.33244 40.4395 5.19368 40.413 5.05396C40.2294 4.07097 40.0856 3.44952 39.4534 3.04597C38.6858 2.55741 37.8927 2.83296 36.8554 3.28341L36.4314 2.23985C37.3986 1.82262 38.7237 1.24904 40.0278 2.0835C40.4545 2.40223 40.8068 2.81528 41.0591 3.29249C41.3114 3.76971 41.4574 4.29906 41.4863 4.84192C41.51 4.97286 41.5346 5.10672 41.562 5.23961L40.4935 5.47217Z" fill="#AF9C89"/>
    <path d="M8.23413 22.3268C8.23784 22.3214 8.24228 22.3086 8.23413 22.3268V22.3268Z" fill="#EFD0A8"/>
    <path d="M41.3234 4.8245C41.3092 4.75903 41.2534 4.71897 41.1748 4.69161C41.1977 4.69796 41.2201 4.7058 41.242 4.71506C38.4434 3.03637 35.1016 -1.646 28.7823 0.596498C28.173 0.742481 27.602 1.02392 27.109 1.42118C25.9023 2.41883 25.1309 3.84152 23.8845 4.7776C22.5282 5.79967 21.0688 6.68299 19.6255 7.56924C15.942 10.3648 12.657 11.212 11.2884 12.3415C10.2289 13.2478 9.32222 14.3291 8.60529 15.5416C8.55842 15.64 8.50465 15.7347 8.44439 15.8249C10.7158 16.3946 9.39083 18.2033 11.2023 19.7588C12.6617 20.8894 4.4514 25.7261 7.00582 26.2909C9.56023 26.8557 12.2973 29.744 12.2973 29.744C13.9848 34.485 17.815 32.5455 18.6838 31.6592C21.3338 28.9585 25.4641 28.4494 26.6821 27.9549C28.9418 26.7602 30.8761 25.0007 32.3087 22.8368C33.0624 21.5202 34.1123 20.4105 35.3695 19.6016C36.6266 18.7926 38.054 18.3083 39.5309 18.1896C39.7344 18.1661 37.0957 15.9901 37.8917 15.7536C38.5847 15.5451 39.2663 15.2975 39.9331 15.012L40.0571 14.9328C41.3471 13.7833 42.2483 12.2388 42.6295 10.5241C43.239 6.12798 41.3234 4.8245 41.3234 4.8245ZM40.5104 4.70725L40.5426 4.70041C40.733 4.64906 40.9319 4.64073 41.1256 4.67598C40.9203 4.65148 40.7125 4.66205 40.5104 4.70725Z" fill="#CCBCAB"/>
    <path d="M42.0252 11.547C42.1838 10.7078 42.1805 9.84446 42.0157 9.00649C41.9797 8.63714 41.9618 8.26681 41.9211 7.90234C41.1515 10.2977 40.1726 12.6158 38.9966 14.8282C37.5198 14.9472 36.0925 15.4316 34.8354 16.2405C33.5783 17.0494 32.5283 18.159 31.7744 19.4754C30.342 21.6393 28.4077 23.3985 26.1478 24.5926C24.9298 25.088 21.5501 26.7422 18.1486 28.2978C13.3445 30.4954 13.2272 24.3063 10.7437 23.4786C7.753 22.483 6.0854 25.9146 7.01763 26.3211C8.83729 27.3789 10.6037 28.5314 12.3101 29.7742C13.9976 34.5143 17.8278 32.5747 18.6966 31.6894C21.3466 28.9877 25.4768 28.4786 26.6949 27.9851C28.9544 26.7901 30.8886 25.0307 32.3214 22.867C33.0755 21.5504 34.1256 20.4407 35.3829 19.6316C36.6401 18.8226 38.0676 18.338 39.5446 18.2188C40.563 16.3245 41.4297 14.3474 42.1359 12.3072C42.0611 12.1983 42.012 12.0728 41.9928 11.9407C41.9736 11.8087 41.9846 11.6738 42.0252 11.547Z" fill="#C1AE99"/>
    <path d="M16.9513 21.7759C17.5958 19.4465 15.6622 17.4512 14.3732 16.4536C12.7775 15.0797 10.5231 16.1995 8.51574 15.6963C8.40399 15.8577 8.25411 15.9868 8.08037 16.0715C7.32323 16.4946 6.40047 16.2542 5.5837 16.4995C5.39876 16.571 5.21855 16.6548 5.04423 16.7506C4.91835 16.8415 4.52843 17.9876 4.21894 18.4811C4.08171 18.7049 3.94826 18.9286 3.83279 19.1651C3.71733 19.4015 3.90472 21.4691 3.75329 21.8766C3.17296 23.6184 2.42932 25.2976 1.53296 26.8902C1.88692 27.0338 1.58407 27.5625 1.92478 27.7276C2.13205 27.8351 2.18978 28.7155 2.67719 29.0027C4.17918 29.8822 3.89241 27.8536 4.76597 28.7037C4.76597 28.694 4.77543 28.6822 4.77827 28.6715C4.77827 28.6832 4.76881 28.6949 4.76597 28.7037C5.31206 29.2373 5.40577 31.1778 5.54679 31.1075C6.33389 30.6711 7.03113 30.0807 7.59959 29.3692C7.68855 29.3203 12.2986 28.6901 12.1917 24.9213C12.1869 24.7581 13.9625 24.4054 14.0315 24.295C14.0315 24.2959 15.984 25.1011 16.9513 21.7759Z" fill="#CCBCAB"/>
    <path d="M41.3716 13.7402C42.1931 13.7402 42.8594 14.1223 42.8594 14.5933C42.8259 14.7561 42.759 14.9097 42.6631 15.0436C42.5672 15.1774 42.4446 15.2885 42.3036 15.3693C42.1625 15.45 42.0064 15.4986 41.8456 15.5117C41.6848 15.5249 41.5232 15.5022 41.3716 15.4453C40.4037 15.1691 39.4019 15.0404 38.3979 15.0633C39.3169 14.466 40.32 14.0196 41.3716 13.7402Z" fill="#A36D1F"/>
    <path d="M39.7549 14.2499C40.2463 14.297 40.7311 14.4009 41.2001 14.5596C41.4535 14.6475 41.7283 14.6443 41.9797 14.5504C42.2311 14.4565 42.4444 14.2776 42.5847 14.0427C42.2286 13.7904 41.8031 13.6632 41.3714 13.6802C40.804 13.769 40.2565 13.962 39.7549 14.2499Z" fill="#BC8235"/>
    <path d="M41.3716 15.2104C40.535 14.9565 39.6675 14.8279 38.7955 14.8283C38.5541 14.9661 38.3979 15.0628 38.3979 15.0628C39.4019 15.0405 40.4037 15.1696 41.3716 15.4459C41.5232 15.5028 41.6848 15.5254 41.8456 15.5123C42.0064 15.4992 42.1625 15.4506 42.3036 15.3698C42.4446 15.2891 42.5672 15.178 42.6631 15.0441C42.759 14.9102 42.8259 14.7567 42.8594 14.5938C42.8569 14.558 42.8505 14.5226 42.8405 14.4883C42.7363 14.7835 42.5239 15.0246 42.2492 15.1596C41.9744 15.2947 41.6593 15.3129 41.3716 15.2104Z" fill="#725024"/>
    <path d="M19.9914 17.7118C21.8757 15.7986 24.345 18.34 24.7188 19.4569C26.4224 24.6054 24.5362 27.2739 23.6229 30.5717C22.7711 33.6672 23.3844 33.3975 23.1676 35.1866C23.0134 36.4569 22.2212 37.0431 21.8899 41.749C21.8653 42.0988 21.3079 42.4593 21.0997 42.7261C21.0997 42.7261 21.217 43.029 19.9318 42.7026C18.1875 42.261 18.7364 41.2233 18.6541 41.365C18.5718 41.5066 19.9138 36.8546 19.1841 35.8188C18.4544 34.7831 19.3204 32.5689 19.257 32.1194C19.1377 31.284 17.914 24.5223 18.3891 21.9515C18.6553 20.4454 19.1993 19.006 19.9914 17.7118Z" fill="#CCBCAB"/>
    <path d="M19.6852 35.9427C18.9545 34.906 19.9871 32.6313 19.7571 32.2433C18.6839 30.421 18.5779 26.8096 18.5779 26.8096C18.4781 28.6485 18.7081 30.4907 19.2564 32.2433C19.3198 32.6918 18.4529 34.906 19.1836 35.9427C19.9142 36.9795 18.5447 41.6325 18.6271 41.4918C18.7094 41.3511 20.4149 36.9785 19.6852 35.9427Z" fill="#CCBCAB"/>
    <path d="M21.8941 41.7995C21.6471 42.0828 21.2591 42.2157 19.8034 42.116C19.6662 42.1063 18.7349 41.3685 18.645 41.4623C18.3734 41.9003 18.0729 42.3185 17.7459 42.714C17.002 43.6521 16.843 44.6585 17.1534 44.8461C17.5935 45.109 20.4158 45.0582 20.6666 44.4846C21.2893 43.056 21.807 43.1655 21.8515 42.7736C21.9547 41.8561 21.8941 41.7995 21.8941 41.7995Z" fill="#514A3F"/>
    <path d="M21.8937 41.7988C21.8469 41.8536 21.7931 41.9016 21.7338 41.9415C21.7253 42.0392 21.7139 42.1437 21.6997 42.2698C21.6534 42.6606 21.1319 42.5532 20.5139 43.9817C20.264 44.5523 17.4645 44.6061 17.0121 44.3452C16.9922 44.5934 17.0423 44.7761 17.1569 44.8455C17.597 45.1083 20.4192 45.0575 20.67 44.484C21.2928 43.0554 21.8105 43.1648 21.8549 42.773C21.9543 41.8555 21.8937 41.7988 21.8937 41.7988Z" fill="#514A3F"/>
    <path d="M17.2446 44.8859C17.2513 44.494 17.3845 44.1158 17.6232 43.811C17.8504 43.4887 18.1281 43.2077 18.4447 42.9795C18.4447 42.9795 17.3724 44.1921 17.5626 44.9425C17.5683 44.9718 17.2446 44.8859 17.2446 44.8859Z" fill="#C1AE99"/>
    <path d="M8.82591 20.6324C8.31574 20.8486 7.86273 21.1871 7.5043 21.6199C7.14588 22.0526 6.89231 22.5672 6.76457 23.1211C6.70281 23.2651 6.65465 23.415 6.62072 23.5686C6.59044 23.6732 6.5592 23.7767 6.52607 23.8803C6.49011 23.9526 6.45604 24.0249 6.41629 24.0972C6.10146 24.5947 5.87014 25.1434 5.73203 25.7202C5.4481 27.2944 7.05703 27.7409 8.1246 26.9612C9.48463 25.9635 11.0954 25.2258 11.5847 23.4064C11.6662 23.0179 11.6506 22.6143 11.5395 22.2337C11.4283 21.8531 11.2253 21.5079 10.9495 21.2305C10.6736 20.9532 10.334 20.7528 9.96256 20.6481C9.59109 20.5435 9.19996 20.5381 8.82591 20.6324Z" fill="#C1AE99"/>
    <path d="M12.1041 24.8147C12.2101 28.5825 7.56974 29.1287 7.50822 29.2117C6.93928 29.921 6.28652 30.5539 5.56519 31.0956C6.39269 30.7236 7.10375 30.1215 7.61894 29.3564C7.70696 29.3095 12.317 28.6773 12.2101 24.9105C12.709 24.6699 13.2352 24.4952 13.7764 24.3906C13.2027 24.4514 12.6399 24.5942 12.1041 24.8147Z" fill="#C1AE99"/>
    <path d="M1.78911 27.6387H1.78345C1.79855 27.6572 1.81566 27.6739 1.83443 27.6884C1.82227 27.6692 1.80693 27.6524 1.78911 27.6387Z" fill="#7F5217"/>
    <path d="M1.5092 26.8828L1.50269 26.8922C1.51106 26.8922 1.51479 26.9016 1.5213 26.9054C1.5182 26.8974 1.51413 26.8898 1.5092 26.8828Z" fill="#7F5217"/>
    <path d="M5.24691 28.4032C4.3743 27.5541 3.99288 28.6182 2.90449 28.0358C1.81609 27.4534 2.31391 27.218 1.5331 26.8936C1.51323 26.9512 1.49337 27.0108 1.46971 27.0685C1.14836 27.6878 0.922291 28.355 0.799625 29.0462C0.747636 29.4077 0.819972 29.7766 1.00406 30.0887C1.59195 30.7147 2.34913 31.1428 3.17656 31.3171C4.00399 31.4915 4.86313 31.4039 5.64156 31.0659C5.76838 30.9837 5.86783 30.8635 5.92654 30.7213C5.98524 30.5792 6.0004 30.4218 5.96998 30.2705C5.76856 29.6325 5.52703 29.0087 5.24691 28.4032Z" fill="#514A3F"/>
    <path d="M40.0809 28.5742C40.7887 29.0424 41.5433 29.4306 42.3315 29.7321C42.6079 29.6686 43.2836 28.9504 43.3726 28.8957C43.4746 28.5716 43.5267 28.233 43.5269 27.8922C43.5269 27.7652 43.9111 27.3528 43.9111 27.3528C43.8018 26.6283 43.7452 25.8964 43.7417 25.1631C43.772 24.3072 44.602 21.7686 44.725 20.8169C44.8481 19.8652 45.0014 19.0405 44.4487 18.5011C43.7376 17.672 43.277 16.6462 43.1237 15.5502C43.0622 14.5995 42.7962 12.8025 42.6126 7.21436C42.5788 6.52979 42.2952 5.88383 41.8189 5.40635C41.3425 4.92887 40.7087 4.65529 40.045 4.64062C38.8269 4.82823 33.1247 5.25132 32.1669 9.02008C31.5119 11.5928 33.6386 15.8736 34.3361 16.5342C37.7432 19.7704 39.7752 19.3893 40.2361 20.4358C41.0535 23.0923 40.9989 25.953 40.0809 28.5742Z" fill="#CCBCAB"/>
    <path d="M40.9597 19.9155C40.3616 18.9452 35.0729 18.2925 33.7366 15.6768C33.9364 16.0312 34.1667 16.3664 34.4246 16.6783C37.8318 19.9214 39.7862 19.4064 40.2471 20.4529C41.0641 23.1095 41.0075 25.9704 40.0862 28.5904C40.0862 28.5904 42.4059 22.2626 40.9597 19.9155Z" fill="#CCBCAB"/>
    <path d="M43.3769 28.7544C43.129 29.0377 42.7409 29.1706 41.2863 29.07C41.149 29.0612 40.2168 28.3235 40.1269 28.4163C39.8557 28.8549 39.5553 29.2734 39.2278 29.6689C38.4839 30.608 38.3249 31.6134 38.6363 31.8001C39.0754 32.0639 41.8986 32.0131 42.1485 31.4385C42.7703 30.01 43.2842 30.1214 43.3343 29.7276C43.4394 28.811 43.3769 28.7544 43.3769 28.7544Z" fill="#514A3F"/>
    <path d="M38.7012 31.838C38.7071 31.446 38.8404 31.0675 39.0797 30.7632C39.3067 30.4406 39.584 30.1593 39.9003 29.9307C39.9003 29.9307 38.828 31.1443 39.0182 31.8937C39.0239 31.924 38.7012 31.838 38.7012 31.838Z" fill="#CCBCAB"/>
    <path d="M40.0442 17.7518C40.0442 17.7518 42.4917 17.9199 43.1674 17.5329C44.7054 16.6535 44.8189 14.5605 42.8579 13.0772L42.7633 11.2207C44.2236 12.0454 46.619 16.9672 43.4021 17.9795C42.2858 18.25 41.1167 18.1707 40.0442 17.7518Z" fill="#AF9C89"/>
    <path d="M3.27111 30.5806C3.29382 30.7545 3.96484 30.7672 4.21754 30.7301C4.47024 30.693 4.65668 30.521 4.63302 30.3471C4.60936 30.1732 4.38506 30.0608 4.13047 30.0979C3.87588 30.135 3.24839 30.4067 3.27111 30.5806Z" fill="#050505"/>
    <path d="M1.68828 30.0603C1.79239 29.9215 1.3665 29.3675 1.16207 29.2072C1.06079 29.1242 0.934578 29.0803 0.805266 29.0831C0.789415 29.3125 0.806639 29.543 0.856374 29.7671C1.09961 29.9323 1.59553 30.1883 1.68828 30.0603Z" fill="#050505"/>
    <path d="M41.6672 17.1777C42.4887 17.1777 43.155 17.5598 43.155 18.0308C43.1215 18.1936 43.0546 18.3472 42.9587 18.4811C42.8628 18.615 42.7403 18.7261 42.5993 18.807C42.4583 18.8878 42.3021 18.9365 42.1413 18.9497C41.9805 18.963 41.8189 18.9405 41.6672 18.8838C40.6991 18.6068 39.697 18.4775 38.6926 18.4998C39.612 17.9029 40.6154 17.4569 41.6672 17.1777Z" fill="#514A3F"/>
    <path d="M40.0486 17.6864C40.5403 17.733 41.0254 17.8366 41.4947 17.9952C41.7481 18.0833 42.0229 18.08 42.2743 17.9859C42.5256 17.8919 42.7386 17.7125 42.8784 17.4773C42.5223 17.2256 42.0973 17.0989 41.666 17.1158C41.0981 17.2044 40.5503 17.3977 40.0486 17.6864Z" fill="#514A3F"/>
    <path d="M41.6672 18.6498C40.8305 18.3967 39.963 18.2684 39.0911 18.2687C38.8497 18.4055 38.6926 18.5013 38.6926 18.5013C39.697 18.4795 40.6991 18.6092 41.6672 18.8863C41.8189 18.943 41.9807 18.9655 42.1415 18.9521C42.3023 18.9388 42.4585 18.8901 42.5995 18.8091C42.7406 18.7282 42.8631 18.6169 42.9589 18.4829C43.0548 18.3489 43.1216 18.1952 43.155 18.0323C43.1526 17.9968 43.1462 17.9617 43.1361 17.9277C43.0319 18.2229 42.8195 18.464 42.5448 18.5991C42.27 18.7341 41.9549 18.7524 41.6672 18.6498Z" fill="#514A3F"/>
    <path d="M2.69775 24.6866C4.22529 23.4427 5.00611 21.0605 3.79846 19.4873C3.83329 20.3167 3.81811 21.1476 3.75303 21.9751C3.49844 22.6581 3.11608 23.6938 2.69775 24.6866Z" fill="#C1AE99"/>
    <path d="M6.6364 16.862C6.63238 16.8191 6.62151 16.7771 6.60422 16.7379C6.46226 16.4946 6.39505 16.2024 6.26634 15.9503C5.92762 15.3289 5.44097 14.8069 4.85238 14.4338C4.10879 13.9481 3.39825 13.4104 2.72574 12.8245C2.13178 12.2061 1.68359 11.4548 1.41588 10.6289C1.25404 10.7266 1.48025 11.2914 1.52946 11.4761C1.65555 12.1849 1.92798 12.8574 2.32824 13.4479C2.99439 14.1023 3.72855 14.6787 4.51734 15.1667C4.88775 15.451 5.20169 15.8063 5.44201 16.2132C5.53665 16.3793 6.06571 17.3007 5.84803 17.4307C6.06003 17.3046 6.48876 17.1492 6.62505 16.9421C6.63311 16.9169 6.63694 16.8905 6.6364 16.8639V16.862Z" fill="#514A3F"/>
    <path d="M1.34552 10.6699C1.50694 11.5738 1.79384 12.4488 2.19732 13.2681C2.69425 13.8674 3.29028 14.371 3.95768 14.7553C4.09207 14.853 4.23687 14.9439 4.36842 15.0484C6.28305 16.6274 5.93287 17.4336 5.77766 17.4472C5.66863 17.4467 5.56222 17.4127 5.47196 17.3495C5.36499 17.2859 5.26903 17.2044 5.18803 17.1082C5.17787 17.0984 5.16868 17.0876 5.16059 17.0759C5.12325 17.0299 5.09147 16.9794 5.06594 16.9255C5.05458 16.8883 5.04513 16.8532 5.03472 16.8199C5.00814 16.5659 4.93032 16.3204 4.80627 16.0992C4.68222 15.8781 4.5147 15.6862 4.31448 15.536C4.18482 15.4383 4.05232 15.3455 3.91509 15.2429C3.19903 14.8274 2.56854 14.2714 2.05913 13.6062C1.55675 12.7169 1.30928 11.6987 1.34552 10.6699Z" fill="#6E685F"/>
    <path d="M10.323 18.9717C10.587 19.0108 11.9092 18.1724 13.4538 18.6786C14.9984 19.1847 16.5477 20.1442 17.2234 20.2419C17.8992 20.3397 15.6694 22.544 12.9134 21.692C10.1574 20.8399 10.5473 19.941 10.3968 19.9136C10.2463 19.8863 10.323 18.9717 10.323 18.9717Z" fill="#C1AE99"/>
    <path d="M11.0699 19.6566C11.2393 19.68 11.7806 18.8172 13.6962 20.1832C14.5546 20.7959 16.3462 20.6063 16.8639 20.5037C17.2955 20.4177 15.0657 22.2792 12.4867 21.3831C10.0165 20.5213 11.0699 19.6566 11.0699 19.6566Z" fill="#E2967F"/>
    <path d="M14.8173 21.5732L14.602 21.4812V20.793C14.602 20.679 14.5287 20.6001 14.4417 20.6177L14.1348 20.6747C14.0851 20.6924 14.0427 20.725 14.0138 20.7677C13.9849 20.8103 13.9712 20.8607 13.9745 20.9114V21.5995L13.7593 21.7705C13.7336 21.7917 13.713 21.818 13.6987 21.8474C13.6845 21.8769 13.677 21.909 13.6768 21.9414V22.7611C13.6747 22.7812 13.6772 22.8015 13.6843 22.8205C13.6913 22.8395 13.7028 22.8568 13.7177 22.8711C13.7326 22.8854 13.7506 22.8963 13.7705 22.903C13.7904 22.9098 13.8116 22.9122 13.8325 22.9102L14.7486 22.7392C14.7949 22.726 14.8356 22.6988 14.8644 22.6617C14.8933 22.6245 14.9089 22.5795 14.9089 22.5332V21.7135C14.9098 21.6841 14.9016 21.6551 14.8853 21.6301C14.869 21.6051 14.8453 21.5854 14.8173 21.5732Z" fill="#FFB800"/>
    <path d="M8.67407 18.8792L9.40472 18.4414C9.41209 18.4367 9.42005 18.4331 9.42838 18.4307L8.69773 18.8684L8.67407 18.8792Z" fill="#726F6B"/>
    <path d="M8.69775 18.8684L9.4284 18.4307H9.43598L8.70438 18.8694H8.69775V18.8684Z" fill="#77736F"/>
    <path d="M9.4521 19.6194L10.1827 19.1816C10.175 19.1882 10.1668 19.194 10.1581 19.1992L9.42749 19.637C9.43654 19.6325 9.44485 19.6266 9.4521 19.6194Z" fill="#726F6B"/>
    <path d="M10.3335 18.8243L10.342 18.8077C10.3572 18.7768 10.3746 18.747 10.3941 18.7188L10.4064 18.7032C10.4266 18.6745 10.4524 18.6506 10.4821 18.6328L9.75052 19.0706C9.723 19.089 9.69842 19.1118 9.67765 19.138C9.671 19.1459 9.66499 19.1544 9.65967 19.1634L9.64641 19.181C9.63695 19.1976 9.62749 19.2152 9.61897 19.2337C9.61046 19.2523 9.60572 19.2562 9.60004 19.2689C9.59531 19.2777 9.59152 19.2894 9.58678 19.2982C9.55555 19.3725 9.52337 19.4546 9.48457 19.5415C9.4751 19.566 9.4628 19.5884 9.45239 19.6119L10.183 19.1741L10.2067 19.1224L10.2143 19.1048C10.2474 19.0344 10.2729 18.968 10.2985 18.9093C10.3099 18.879 10.3212 18.8497 10.3335 18.8243Z" fill="#514A3F"/>
    <path d="M12.9393 18.9672C12.4752 18.9931 12.0161 18.8579 11.6351 18.5832C11.2485 18.3653 10.8456 18.1797 10.4303 18.0282C9.82833 17.8426 9.44787 18.1846 8.94531 18.4855C9.12263 18.4163 9.31305 18.3904 9.50168 18.4097C9.69031 18.429 9.87206 18.4931 10.0328 18.5969C10.5277 18.8168 10.9953 19.1031 11.4978 19.2985C11.7326 19.3903 12.2162 19.5867 12.4547 19.4441C12.6932 19.3014 12.7859 19.0728 13.0282 18.9281C12.9979 18.9399 12.9695 18.9536 12.9393 18.9672C12.9695 18.9575 12.8844 18.9819 12.9393 18.9672Z" fill="#514A3F"/>
    <path d="M13.1549 17.9013C13.1293 18.4875 13.1416 19.4959 12.5737 19.8369C12.8917 19.6474 13.2807 19.5096 13.4255 19.1461C13.612 18.6859 13.1634 17.6892 13.1549 17.9013Z" fill="#514A3F"/>
    <path d="M13.1855 17.8555C13.16 18.6147 13.0994 19.712 12.4672 19.885C11.922 20.0403 11.2368 19.6104 10.6084 19.3094C10.4712 19.244 10.3396 19.1804 10.209 19.1228C9.66858 18.8824 9.64871 19.1765 9.48403 19.5439C9.47457 19.5684 9.46227 19.5908 9.45185 19.6143C9.42585 19.6386 9.39226 19.6524 9.35721 19.6534H9.32881C9.2279 19.645 9.13046 19.6115 9.04488 19.5557C8.92727 19.4859 8.8233 19.3941 8.73825 19.285C8.58303 19.0896 8.67578 17.9092 10.1579 18.5717C10.2942 18.6333 10.4352 18.6997 10.5696 18.7671C11.1374 19.0397 11.8823 19.5097 12.3347 19.3827C12.8145 19.2449 13.1675 17.9278 13.1855 17.8555Z" fill="#6E685F"/>
</svg>
