<svg width="41" height="41" viewBox="0 0 41 41" fill="none" xmlns="http://www.w3.org/2000/svg">
    <rect width="41" height="41" fill="#FAFAFA"/>
    <circle cx="21" cy="20" r="16" fill="#63B78F"/>
    <path d="M30.0693 1.55883C30.0693 1.55883 32.5449 6.71879 32.2064 9.5724C31.868 12.426 30.7926 12.5461 27.329 14.9111C27.329 14.9111 23.1639 12.8845 25.8401 11.1978C25.8401 11.1978 28.8274 11.4052 29.1167 8.48063C29.4061 5.55606 28.7619 2.88259 29.2109 1.39233C29.6585 -0.0979307 29.8987 1.18763 30.0707 1.55883H30.0693Z" fill="#C7C5C7"/>
    <path d="M11.1026 0.839618C11.1026 0.839618 8.31587 5.83855 8.47827 8.70717C8.64067 11.5772 9.70651 11.7614 13.02 14.3352C13.02 14.3352 17.3011 12.5679 14.7341 10.7201C14.7341 10.7201 11.7399 10.7447 11.6294 7.80782C11.5188 4.87097 12.3267 2.24254 11.9706 0.726347C11.6144 -0.78848 11.2964 0.479335 11.1026 0.839618Z" fill="#C7C5C7"/>
    <path d="M20.934 10.548C20.934 10.548 19.1803 9.74147 14.8992 10.9806C14.8992 10.9806 15.3632 11.7408 15.0534 11.3286L12.249 14.0758C12.249 14.0758 8.58063 15.1908 5.38312 13.7987C2.1856 12.4067 2.75196 14.4688 3.93925 15.4487C5.12655 16.4285 6.87884 18.7499 12.2435 17.9761C12.2435 17.9761 10.4899 22.8768 11.1859 25.0808C11.8819 27.2848 14.2032 30.7293 14.2414 32.3915C14.2797 34.0538 13.6614 35.6409 15.0152 36.4529C16.369 37.2649 26.8527 36.7627 26.8527 36.7627C26.8527 36.7627 27.7807 35.9111 27.6265 32.004C27.4723 28.0968 30.2577 29.4888 30.6057 24.4994C30.9537 19.5101 29.8701 17.9229 29.8701 17.9229C29.8701 17.9229 33.4675 19.0829 36.9884 16.1815C40.5094 13.2802 38.9222 12.7384 36.3688 13.5504C33.8155 14.3624 33.2355 14.5944 30.2181 13.8984L26.9169 12.3767C26.9169 12.3767 25.6409 9.92707 20.934 10.5453V10.548Z" fill="#382313"/>
    <path fill-rule="evenodd" clip-rule="evenodd" d="M14.6876 33.6304C14.5511 33.2496 14.1827 33.9429 14.2113 33.3192C14.7763 32.3926 19.0943 29.5581 18.6944 23.8563C18.4706 20.6588 14.5539 19.4742 12.2693 18.0795C11.2554 17.4599 11.6716 15.4006 12.0319 14.7769L12.0442 14.7005L12.0346 14.5736L12.0155 14.5545C12.0251 14.5149 12.0251 14.4767 12.0251 14.4275V14.3402C12.006 14.3402 11.9964 14.3402 11.9759 14.3497C11.995 14.3402 12.0046 14.3306 12.0251 14.3306C12.0155 14.302 12.0155 14.272 12.0155 14.2433C11.9759 13.8339 11.7521 13.3863 11.2554 12.996C11.5474 13.1515 11.8108 13.3467 12.0551 13.5418L12.0837 13.5323C11.9664 13.3767 11.8299 13.172 11.7426 12.8991C11.8695 13.1229 12.1615 13.2989 12.5027 13.3371C12.4836 12.9277 12.3171 12.431 11.9568 11.9042C12.2011 12.158 12.4045 12.4501 12.5996 12.723C12.4727 12.4692 12.3458 12.1962 12.268 11.9137C12.444 12.2645 12.6583 12.4883 12.8726 12.6056C12.8726 12.5565 12.7852 12.42 12.7757 12.3818C12.893 12.4992 12.9899 12.5183 13.1264 12.5961H13.155C13.155 12.5579 13.1455 12.5183 13.1359 12.4692C13.3993 12.5565 13.3106 12.5565 13.6231 12.5961C13.6422 12.5579 13.6627 12.5183 13.6723 12.4692H13.7992C13.9848 12.2645 14.0326 11.9328 13.8388 11.5726C14.0134 11.7773 14.1213 11.982 14.1895 12.1567C14.199 12.1471 14.2086 12.128 14.2086 12.1171C14.1308 11.825 13.9739 11.503 13.7405 11.1713C13.9643 11.3952 14.1595 11.649 14.3355 11.9028C14.3451 11.8933 14.3451 11.8837 14.3546 11.8632C14.169 11.5125 13.9357 11.1522 13.6231 10.8111C13.9152 11.0649 14.2182 11.2887 14.5102 11.4743C14.5198 11.4456 14.5293 11.4252 14.5293 11.3965C14.4024 11.114 14.2755 10.822 14.1977 10.519C14.4611 11.0649 17.316 9.95538 21.2942 10.5245C26.9209 11.3296 26.6971 11.2573 26.9523 10.3389C26.8376 10.751 26.7476 10.9339 26.6206 11.2164C26.6206 11.245 26.6302 11.2655 26.6397 11.2942C26.9318 11.1086 27.2348 10.8848 27.5268 10.6309C27.2143 10.9721 26.9809 11.3324 26.7953 11.6831C26.8049 11.7022 26.8144 11.7118 26.8144 11.7227C26.9905 11.4688 27.1856 11.2164 27.4094 10.9912C27.1761 11.3228 27.03 11.6435 26.9413 11.9369C26.9413 11.9465 26.9509 11.9656 26.9604 11.9765C27.0287 11.8005 27.1365 11.5958 27.3112 11.3924C27.116 11.7527 27.1747 12.0843 27.3508 12.289H27.4777C27.4968 12.3382 27.5063 12.3764 27.5268 12.416C27.838 12.3777 27.7506 12.3777 28.014 12.289C28.0044 12.3382 28.0044 12.3764 27.9949 12.416H28.0236C28.16 12.3382 28.2583 12.3191 28.3743 12.2017C28.3647 12.2413 28.2774 12.3777 28.2774 12.4255C28.4917 12.3081 28.7059 12.0843 28.882 11.7336C28.8042 12.0161 28.6773 12.289 28.5503 12.5429C28.7455 12.2699 28.9502 11.9779 29.204 11.724C28.8342 12.2508 28.6677 12.7476 28.6486 13.157C28.9898 13.1174 29.2818 12.9427 29.4087 12.7189C29.3214 12.9919 29.1849 13.1966 29.0676 13.3521L29.0962 13.3617C30.3981 13.5009 29.8823 13.3753 29.2231 13.7083C29.5534 13.8857 31.419 16.9195 29.855 17.6878C27.4613 18.8656 23.3863 21.0477 23.1625 24.2439C22.7626 29.9456 27.0737 32.3148 27.6387 33.2414C27.6687 33.8651 26.1321 33.6645 26.0065 34.0452H21.2942L14.6862 33.6317L14.6876 33.6304Z" fill="#442A19"/>
    <path d="M13.9836 33.9448C14.0259 33.6964 14.1719 33.4781 14.3875 33.3457C14.8392 33.0687 15.7945 32.6661 17.5305 32.6497C20.1862 32.6238 19.4001 33.6173 20.934 33.6091C22.2264 33.6023 22.2237 32.4941 24.3895 32.4941C26.5553 32.4941 27.6389 32.7821 27.7931 33.605C27.9473 34.4279 28.1547 37.8329 25.6778 38.735C23.2008 39.637 20.7771 41.4944 15.8519 38.5289C15.8519 38.5289 13.3763 37.534 13.9808 33.9435L13.9836 33.9448Z" fill="#98754F"/>
    <path d="M24.339 34.0762C24.339 34.0762 26.0217 34.9851 24.4932 36.6104C22.9648 38.2358 21.7857 37.7513 21.727 37.2682C21.6683 36.7851 21.7079 36.3771 22.9648 35.9035C24.2217 35.43 24.3377 34.0762 24.3377 34.0762H24.339Z" fill="#2E2316"/>
    <path d="M17.7789 34.0762C17.7789 34.0762 16.0962 34.9851 17.6247 36.6104C19.1532 38.2358 20.3323 37.7513 20.3909 37.2682C20.4496 36.7851 20.41 36.3771 19.1532 35.9035C17.8963 35.43 17.7803 34.0762 17.7803 34.0762H17.7789Z" fill="#2E2316"/>
</svg>
