<svg width="41" height="41" viewBox="0 0 41 41" fill="none" xmlns="http://www.w3.org/2000/svg">
    <rect width="41" height="41" fill="#FAFAFA"/>
    <circle cx="21" cy="20" r="16" fill="#63B78F"/>
    <path d="M6.18896 11.5212H7.77782V22.5502C7.77782 23.3917 8.45927 24.0731 9.30077 24.0731H32.4145C33.256 24.0731 33.9375 23.3917 33.9375 22.5502L34.1635 11.3387L35.8947 11.7565L33.9857 8.0398C33.7292 7.55961 33.2243 7.23242 32.6417 7.23242H9.30077C8.71819 7.23242 8.21329 7.55961 7.95672 8.0398L6.18896 11.5212Z" fill="#CF254D"/>
    <path d="M34.2193 10.5557H7.7807C6.79678 10.5557 6 11.3536 6 12.3364V28.4733C6 29.4572 6.79796 30.254 7.7807 30.254H34.2193C35.2032 30.254 36 29.456 36 28.4733V12.3364C36 11.3524 35.202 10.5557 34.2193 10.5557Z" fill="#DE3353"/>
    <path d="M33.2953 12.9277H8.70445C8.52115 12.9277 8.37256 13.0763 8.37256 13.2596V27.5499C8.37256 27.7332 8.52115 27.8818 8.70445 27.8818H33.2953C33.4786 27.8818 33.6272 27.7332 33.6272 27.5499V13.2596C33.6272 13.0763 33.4786 12.9277 33.2953 12.9277Z" fill="#E4546B"/>
    <path d="M19.5554 15.4336V18.9597H16.0293V21.8479H19.5554V25.374H20.9995V15.4336H19.5554Z" fill="white"/>
    <path d="M22.4441 18.9597V15.4336H21V25.374H22.4441V21.8479H25.9702V18.9597H22.4441Z" fill="white"/>
</svg>
