<svg width="150" height="149" viewBox="0 0 150 149" fill="none" xmlns="http://www.w3.org/2000/svg">
    <g clip-path="url(#clip0_3579_20256)">
        <path d="M146.223 101.821V108.403C146.223 110.473 145.198 112.533 143.159 113.716L85.0767 147.1C79.5305 150.301 72.6954 150.301 67.1492 147.1L6.06657 111.551C4.05936 110.389 3.04519 108.371 3.00293 106.343V99.666L146.223 101.821Z" fill="url(#paint0_linear_3579_20256)"/>
        <path d="M143.148 107.135L85.0659 140.518C79.5196 143.719 72.6845 143.719 67.1383 140.518L6.06628 104.969C1.97791 102.603 1.97791 96.7078 6.06628 94.3414L64.1486 60.9583C69.6949 57.7574 76.5299 57.7574 82.0762 60.9583L143.148 96.5071C147.237 98.8735 147.237 104.768 143.148 107.135Z" fill="url(#paint1_linear_3579_20256)"/>
        <path d="M118.086 33.0081L62.4761 0.776538C61.8212 0.396224 61.0922 0.449046 60.5218 0.776538H60.5006L55.4932 3.66058L59.5182 9.87237V54.8656C59.5182 57.5067 60.9232 59.947 63.2156 61.2675L110.628 88.7452L115.625 96.4571L120.738 93.5202C121.34 93.1927 121.784 92.5695 121.784 91.7771V39.3995C121.784 36.7584 120.379 34.3181 118.086 32.9976V33.0081Z" fill="#DFDAEF"/>
        <path d="M57.4267 3.67102L113.037 35.9026C115.319 37.2231 116.735 39.6635 116.735 42.3045V94.6822C116.735 96.2034 115.087 97.1542 113.777 96.3936L58.1662 64.162C55.8844 62.8415 54.4688 60.4011 54.4688 57.7601V5.38244C54.4688 3.86118 56.1168 2.9104 57.4267 3.67102Z" fill="url(#paint2_linear_3579_20256)"/>
        <path d="M83.1516 36.8959V69.3705L60.0898 56.0595V23.585L83.1516 36.8959Z" fill="#D5C9F1"/>
        <path d="M109.604 52.1506V64.5742L86.542 51.2632V38.8291L109.604 52.1506Z" fill="#D5C9F1"/>
        <path d="M109.604 71.4612V83.8848L86.542 70.5738V58.1396L109.604 71.4612Z" fill="#D5C9F1"/>
        <path d="M121.784 39.3993C121.784 36.7583 120.379 34.3179 118.086 32.9974L62.4761 0.765796C61.8212 0.385482 61.0922 0.438303 60.5218 0.765796H60.5006L55.4932 3.64984L116.724 49.6467L121.773 46.7309V39.3993H121.784Z" fill="url(#paint3_linear_3579_20256)"/>
        <path d="M57.4267 3.6712L113.037 35.9028C115.319 37.2233 116.735 39.6637 116.735 42.3047V49.6469L54.4688 13.5805V5.39318C54.4688 3.87192 56.1168 2.92114 57.4267 3.68177V3.6712Z" fill="url(#paint4_linear_3579_20256)"/>
        <path d="M112.815 42.1568C112.815 43.8049 111.812 44.5655 110.576 43.8577C109.34 43.1393 108.336 41.2272 108.336 39.5686C108.336 37.91 109.34 37.1599 110.576 37.8677C111.812 38.5756 112.815 40.4982 112.815 42.1568Z" fill="#FF7A85"/>
        <path d="M93.6113 30.1635C93.6113 23.5127 95.6935 18.7153 99.0418 16.3967C99.4613 16.1068 99.9036 15.8552 100.361 15.6416L105.052 12.9569C108.126 11.1569 112.153 11.3094 116.554 13.8492C126.225 19.4322 134.065 34.4118 134.065 47.3015C134.065 54.2268 131.808 59.1387 128.215 61.3429C128.032 61.4573 122.815 64.3937 122.815 64.3937C119.719 66.3157 115.615 66.2089 111.123 63.6157C109.361 62.6013 107.66 61.2742 106.059 59.7031L98.5765 49.3227C95.5028 43.343 93.6113 36.5016 93.6113 30.1635Z" fill="url(#paint5_linear_3579_20256)"/>
        <path d="M121.648 64.9995C129.376 61.7108 130.93 47.972 125.118 34.313C119.306 20.6539 108.329 12.247 100.601 15.5356C92.8718 18.8243 91.318 32.5631 97.13 46.2221C102.942 59.8812 113.919 68.2881 121.648 64.9995Z" fill="url(#paint6_linear_3579_20256)"/>
        <path d="M100.399 34.9167C101.68 34.0091 103.755 35.1456 105.036 37.5938L107.652 42.4675L116.614 35.6489L119.848 33.7651C121.137 33.0024 123.097 34.1998 124.325 36.5489C125.606 38.9972 125.606 41.7658 124.325 42.7345L110.2 53.5191C110.078 53.6106 109.948 53.6717 109.818 53.7251L106.569 55.6242L97.3711 36.6633C97.3711 36.6633 100.384 34.9167 100.391 34.9091L100.399 34.9167Z" fill="url(#paint7_linear_3579_20256)"/>
        <path d="M104.45 55.4485C105.289 55.9367 106.128 55.9901 106.769 55.5096L120.894 44.7249C122.175 43.7563 122.175 40.9876 120.894 38.5394C119.613 36.0911 117.538 34.8936 116.257 35.8623L104.45 44.8927L101.605 39.5766C100.324 37.1284 98.2492 35.9309 96.9678 36.8995C95.6865 37.8682 95.6865 40.6368 96.9678 43.0851L102.131 52.8325C102.772 54.0528 103.611 54.968 104.45 55.4485Z" fill="url(#paint8_linear_3579_20256)"/>
        <path d="M38.8841 58.8037C33.4971 59.549 30.6336 66.381 29.7478 71.0702C28.5426 77.4571 29.9435 84.5583 26.1221 90.2413C25.7513 90.7899 26.6371 91.3075 27.0079 90.7589C30.2422 85.8522 30.2525 79.7655 30.716 74.155C30.9838 70.915 31.643 67.8509 33.2087 64.9835C34.5683 62.4785 36.1133 59.9941 39.1004 59.5697C39.6051 59.4972 39.3888 58.7312 38.8944 58.8037H38.8841Z" fill="#CCBCAB"/>
        <path d="M24.4115 92.0638C24.1025 92.6331 23.742 93.1714 23.3609 93.689C23.3918 93.72 23.4021 93.6165 23.3609 93.6372C23.2476 93.72 23.1446 93.7925 23.0312 93.8753C23.1446 93.7925 23.8553 93.9788 23.8965 94.1341C23.9377 94.2583 23.7729 94.5585 23.7523 94.6931C23.7111 94.8691 23.6802 95.0554 23.6699 95.2417C23.6699 95.4902 23.6905 95.7386 23.7214 95.9974C23.7523 96.2769 23.7935 96.546 23.8656 96.8152C24.0098 97.3224 24.2982 97.7778 24.5866 98.223C25.1737 97.2499 25.4003 96.1112 25.8329 95.0657C25.9771 94.7138 26.1625 94.3618 26.4818 94.1652C26.8011 93.9685 27.2955 94.0202 27.4707 94.3618C27.4913 93.5027 27.6046 92.6435 27.8003 91.805C27.8827 91.4531 27.9342 91.2253 28.2123 90.9976C28.2844 90.9355 28.9951 90.5318 29.0672 90.7181C28.9024 90.2626 28.7994 89.7761 28.7685 89.2896C28.7479 88.9583 28.8509 88.5753 28.6346 88.3062C28.1711 87.7368 27.1822 87.7783 26.6569 88.213C25.8741 88.8652 25.081 89.4552 24.1849 89.9417C24.5248 90.1281 24.9162 90.2005 25.2973 90.1591C25.0501 90.8113 24.7514 91.4531 24.4115 92.0638Z" fill="#AF9C89"/>
        <path d="M48.9254 99.5168C48.9254 99.5168 48.9048 99.5272 48.8945 99.5375C48.7194 99.6514 48.3074 99.61 48.1117 99.5996C47.3186 99.5582 46.5461 99.1752 46.0208 98.4817C45.6293 97.9848 45.3924 97.343 45.2379 96.6805C45.1143 96.1629 44.9083 95.3762 45.1864 94.8586C45.413 94.4446 45.8766 94.3203 46.2371 94.2065C46.886 93.9994 47.5452 93.8545 48.2147 93.8235C48.5134 93.8028 48.8739 93.8752 49.1623 93.7717C49.255 93.7406 49.2962 93.6164 49.4095 93.6061C49.5846 93.5854 49.6979 93.7717 49.7906 93.927C50.4293 95.076 51.0885 96.3389 51.0164 97.7467C51.0164 97.9227 50.9855 98.109 50.9134 98.2643C50.6971 98.8026 50.1821 98.8233 49.7391 98.492C49.4919 98.3057 49.3374 98.0055 49.2035 97.7156C49.2756 97.8606 49.1932 98.2332 49.1829 98.3988C49.1623 98.6369 49.1417 98.8854 49.0902 99.1235C49.0593 99.2787 49.049 99.4236 48.9357 99.5168H48.9254Z" fill="#7A593D"/>
        <path d="M45.166 72.3345C45.4956 73.6388 46.1239 75.3054 45.372 77.6862C45.0527 78.6903 44.6304 79.2907 44.7128 80.3569C44.7849 81.2886 44.7952 82.1788 45.0321 83.0794C45.4132 84.4872 45.0527 92.6235 44.9806 94.0831C44.9497 94.7042 44.96 95.3977 45.4441 95.8428C45.8973 96.2569 46.5462 96.4536 47.1437 96.5467C48.7608 96.7848 49.8114 95.6151 49.8835 94.0831C49.9659 92.4682 49.2758 91.4641 49.3994 87.0544C49.4715 84.5907 49.3273 83.5866 49.7393 82.9137C50.2646 82.0649 51.4698 80.9884 52.0672 80.1913C52.6749 79.3735 53.2723 78.5454 53.8491 77.7069C59.7511 69.198 59.2464 68.0386 59.8438 65.5542C60.3898 63.2665 58.5769 60.8236 57.4645 58.9396C56.9701 58.1114 56.8465 57.6767 55.9504 57.2316C52.6234 55.5753 47.6793 56.6312 46.3608 58.3288C45.9797 58.8257 45.7016 59.395 45.4338 59.9644C44.0536 62.956 44.2184 63.9083 44.5274 67.3036C44.6819 69.0737 44.7231 70.6472 45.1557 72.3655L45.166 72.3345Z" fill="#AF9C89"/>
        <path d="M49.6581 75.7294C48.2366 75.1601 46.5474 74.57 45.1054 75.3775C43.9826 76.0089 43.0659 76.7232 42.8187 78.0689C42.6745 78.8349 42.7466 79.6319 42.8599 80.4083C43.0041 81.371 42.9629 82.3026 43.2822 83.2343C43.6324 84.2591 44.1886 85.2114 44.7861 86.112C45.1981 86.7331 45.6307 87.3438 46.1972 87.8304C46.6813 88.2444 47.2478 88.5653 47.8246 88.8345C49.4006 89.5798 51.1619 90.0663 52.882 89.8282C53.8915 89.6936 54.8803 89.2692 55.6631 88.6171C56.5901 87.8407 56.93 86.9298 57.136 85.7704C57.445 83.9796 57.3111 82.0646 56.4356 80.4704C55.076 77.9964 52.2743 76.7646 49.6581 75.7294Z" fill="#EE8A8A"/>
        <g style="mix-blend-mode:multiply" opacity="0.3">
            <path d="M57.136 85.7597C57.445 83.9688 57.3111 82.0538 56.4356 80.4597C55.076 77.9857 52.2743 76.7538 49.6581 75.7187C48.2366 75.1493 46.5474 74.5593 45.1054 75.3667C43.9826 75.9982 43.0659 76.7124 42.8187 78.0581C42.6745 78.8241 42.7466 79.6212 42.8599 80.3976C43.0041 81.3499 42.9629 82.2712 43.2719 83.1925C43.7148 82.5093 44.168 81.971 44.817 82.1366C48.1748 83.8239 50.0598 87.7989 53.2734 89.745C54.149 89.5587 54.9833 89.1757 55.6631 88.596C56.5901 87.8196 56.93 86.9087 57.136 85.7493V85.7597Z" fill="#CE8C8C"/>
        </g>
        <path d="M42.9629 87.8299C42.9629 87.892 42.9629 87.9645 43.0144 88.0162C43.1071 88.1198 43.2719 88.0576 43.3955 87.9852C43.7251 87.7782 44.0238 87.509 44.3019 87.2399C44.6212 86.9293 44.9199 86.5774 45.0435 86.153C45.1465 85.7596 45.0641 85.3248 44.8375 84.9832C44.4667 84.4139 44.2504 84.652 43.9208 85.1075C43.3543 85.9045 42.932 86.8465 42.9732 87.8403L42.9629 87.8299Z" fill="#EE8A8A"/>
        <path d="M46.6393 88.8656C46.5775 89.3935 46.5775 89.9939 46.938 90.3872C47.041 90.5115 47.2264 90.6046 47.3603 90.5218C47.4015 90.4908 47.4324 90.4597 47.4633 90.4183C47.9371 89.7869 48.1843 88.9898 48.1637 88.2031C48.1637 87.996 48.1225 87.7683 48.0092 87.5923C47.8135 87.2921 47.1028 86.8367 46.8865 87.2197C46.8144 87.3439 46.8453 87.7787 46.8144 87.9339C46.7526 88.2445 46.6805 88.555 46.6393 88.8759V88.8656Z" fill="#EE8A8A"/>
        <path d="M50.6161 90.7706C50.6161 91.0397 50.6264 91.3606 50.853 91.5055C51.0178 91.6091 51.2341 91.578 51.3989 91.4745C51.5637 91.371 51.6667 91.195 51.7388 91.0087C51.883 90.6567 51.9242 90.2737 51.9345 89.8907C51.9345 89.487 51.8933 89.0729 51.7079 88.721C51.4607 88.2655 50.8118 88.0792 50.6676 88.6796C50.5234 89.2903 50.6367 90.1288 50.6264 90.7602L50.6161 90.7706Z" fill="#EE8A8A"/>
        <path d="M81.6707 117.446C81.4544 117.581 81.0938 117.581 80.8672 117.581C80.0844 117.602 79.2913 117.301 78.7145 116.691C78.2922 116.246 78.0038 115.656 77.7978 115.045C77.6433 114.558 77.3755 113.823 77.6021 113.316C77.7875 112.902 78.2407 112.747 78.5806 112.612C79.1986 112.364 79.8372 112.177 80.4861 112.084C80.7745 112.043 81.1454 112.084 81.4132 111.96C81.5059 111.919 81.5265 111.805 81.6398 111.784C81.8149 111.753 81.9385 111.919 82.0415 112.064C82.7625 113.109 83.5144 114.258 83.5556 115.604C83.5556 115.769 83.5556 115.945 83.5041 116.101C83.3496 116.566 82.9685 116.846 82.5359 116.525C82.402 116.422 82.2887 116.297 82.1754 116.163C82.0312 115.997 81.8973 115.832 81.7531 115.656C81.8561 115.78 81.8252 116.256 81.8355 116.422C81.8458 116.66 81.8664 116.918 81.8355 117.167C81.8252 117.301 81.7531 117.395 81.6501 117.457L81.6707 117.446Z" fill="#7A593D"/>
        <path d="M78.9417 79.082C79.6731 78.7922 80.5074 78.6783 81.3623 78.668C82.1348 78.668 82.8867 78.8543 83.5974 79.1131C84.2361 79.3408 84.8541 79.6307 85.3588 80.0551C86.945 81.3594 87.0068 83.2848 86.7184 85.0963C86.2343 88.1189 84.7305 90.6861 83.6798 93.5224C83.412 94.247 83.0721 94.9923 82.8558 95.717C82.6292 96.514 82.7219 97.4664 82.6704 98.2841C82.6086 99.3503 82.5571 100.427 82.4129 101.483C82.1966 103.18 81.7743 104.857 81.764 106.565C81.764 108.946 82.794 112.921 82.0524 113.76C81.6713 114.194 80.6516 114.816 79.4464 114.577C77.1804 114.143 77.51 113.004 77.5409 112.424C77.8911 106.1 78.0456 106.079 77.3246 101.793C76.9435 99.4953 77.4276 97.1869 77.0671 94.8888C76.6963 92.539 75.7178 90.3031 75.4397 87.9429C75.1512 85.5207 75.6457 83.026 76.8302 80.8521C77.304 79.9826 78.0353 79.4236 78.9108 79.082H78.9417Z" fill="#CCBCAB"/>
        <path d="M82.4322 101.485C82.5661 100.419 82.6279 99.3525 82.6897 98.2863C82.7309 97.4685 82.6485 96.5162 82.8751 95.7191C83.0811 94.9945 83.4313 94.2388 83.6991 93.5246C84.7497 90.6883 86.2536 88.1211 86.7377 85.0984C87.0261 83.2973 86.9643 81.3615 85.3781 80.0572C84.863 79.6328 84.245 79.3533 83.6167 79.1152C83.5137 79.0738 83.4004 79.0428 83.2974 79.0117C83.8021 81.2994 84.2759 83.3697 84.0184 85.6781C83.4828 89.7566 79.6923 92.1996 79.1567 96.2677C78.6211 99.5285 81.052 102.789 79.4245 105.501C78.9507 106.174 78.3945 106.888 77.8486 107.623C77.8074 108.545 77.7353 109.694 77.6426 111.298C78.1061 110.75 78.6623 110.387 79.4245 110.387C80.403 110.501 81.3095 110.491 82.185 110.387C82.0202 109.083 81.8039 107.644 81.8039 106.557C81.8039 104.849 82.2262 103.172 82.4528 101.475L82.4322 101.485Z" fill="#CCBCAB"/>
        <path d="M36.6799 106.141C36.6799 106.141 36.6181 106.152 36.5769 106.162C36.34 106.204 36.0928 106.224 35.8558 106.214C35.0627 106.172 34.2902 105.789 33.7649 105.096C33.3735 104.599 33.1366 103.957 32.9821 103.295C32.8585 102.777 32.6525 101.99 32.9306 101.473C33.1572 101.059 33.6207 100.935 33.9812 100.821C34.6301 100.614 35.2893 100.469 35.9588 100.438C36.2576 100.417 36.6181 100.489 36.9065 100.386C36.9992 100.345 37.0404 100.231 37.1537 100.22C37.3288 100.2 37.4421 100.386 37.5348 100.541C38.1734 101.69 38.8326 102.953 38.7605 104.361C38.7605 104.537 38.7296 104.723 38.6575 104.879C38.5236 105.22 38.2043 105.52 37.8335 105.334C37.6893 105.262 37.576 105.148 37.473 105.034C37.2464 104.796 37.0095 104.558 36.7829 104.309C36.8241 104.351 36.7829 104.578 36.7932 104.64C36.7932 104.765 36.7932 104.879 36.7932 105.003C36.7932 105.241 36.7932 105.479 36.7829 105.717C36.7829 105.81 36.8035 105.986 36.7623 106.069C36.7417 106.11 36.7211 106.131 36.6799 106.141Z" fill="#7A593D"/>
        <path d="M96.9563 63.7418C98.1408 62.9033 99.8713 62.3546 101.303 62.7894C101.797 62.9343 102.251 63.2035 102.704 63.4623C103.301 63.8142 103.899 64.1558 104.496 64.5078C104.074 64.7666 103.785 65.191 103.476 65.5947C102.93 66.3296 102.292 66.9921 101.602 67.5822C101.118 67.9859 100.592 68.3689 99.9949 68.5552C99.212 68.7933 98.3674 68.6898 97.564 68.5242C97.0387 68.4207 96.5237 68.2861 95.9984 68.2136C95.5246 68.1515 95.092 67.9238 94.5975 67.9962C94.4636 68.0169 94.34 68.0583 94.2061 68.0791C93.619 68.1722 93.0113 68.0376 92.898 67.3648C92.8568 67.1267 92.898 66.8886 92.9804 66.6609C93.2791 65.8845 94.2473 66.2158 94.752 65.6982C95.4319 65.0046 96.1632 64.3111 96.9666 63.7418H96.9563Z" fill="#AF9C89"/>
        <path opacity="0.3" d="M102.302 64.9231C102.302 64.9231 101.705 66.7139 99.902 67.4489C98.1406 68.1735 94.7725 67.9354 95.6377 66.3412C97.5638 62.7907 102.302 64.9231 102.302 64.9231Z" fill="#514A3F"/>
        <path d="M95.5554 59.684C96.4412 57.8414 96.9356 55.8436 97.3682 53.8457C98.6866 55.8436 98.5321 58.4521 98.151 60.8226C97.945 62.0855 97.6875 63.3381 97.3785 64.5803C97.1519 65.5015 96.8429 66.4953 96.0601 67.0232C94.5047 68.0894 92.043 66.516 92.1666 64.6631C92.2284 63.7004 93.1657 63.0896 93.7425 62.4375C94.4738 61.6197 95.0713 60.6777 95.5451 59.684H95.5554Z" fill="#674521"/>
        <path d="M98.1617 60.7709C98.5428 58.4211 98.6767 55.8332 97.3686 53.8457C96.9359 55.8436 96.4415 57.8517 95.5557 59.684C95.4836 59.8289 95.4012 59.9842 95.3291 60.1291C95.3394 60.1291 95.3497 60.1498 95.36 60.1498C96.3797 60.657 97.2861 60.9572 98.1617 60.7709Z" fill="#50371D"/>
        <path d="M89.5407 79.994C88.9948 81.733 88.1502 83.3686 87.5631 85.0973C87.0481 86.619 86.8627 88.6375 85.9872 89.9936C85.194 91.2254 83.5563 92.302 82.413 93.2129C81.1666 94.2067 79.8585 94.9727 78.5195 95.542C74.1316 97.4363 69.548 97.2914 66.6742 96.484C66.5918 96.4633 66.5197 96.4426 66.4373 96.4115C59.1345 94.2067 47.9999 84.8903 46.0017 80.2838C46.0017 80.2838 43.9828 75.1391 41.4181 74.2489C40.4807 73.928 39.4507 73.928 38.5134 73.576C36.3503 72.7686 32.6835 74.4766 32.1272 72.22C32.0036 71.7127 31.9418 71.2159 31.9212 70.719C31.8594 68.7936 32.4878 66.9407 32.7453 65.0256C33.0543 62.7897 34.1358 60.678 35.619 59.0011C35.9383 58.6387 36.2885 58.2868 36.6388 57.9555C36.7933 57.8106 36.9581 57.6657 37.1229 57.5208C40.6249 54.5085 45.1776 52.7591 49.7818 52.6659C53.0676 52.5934 56.6624 57.0757 61.0812 59.8706C63.1618 61.1852 65.2425 64.0837 70.5059 64.2907C71.2784 64.3217 72.0406 64.2907 72.8132 64.3321C73.2973 64.3632 73.7711 64.4356 74.2449 64.5288C76.4079 64.9739 78.4371 66.0297 80.4044 67.0649C81.3109 67.5411 82.2688 68.1829 83.2473 68.6694C83.6593 68.8764 84.0816 69.0628 84.5039 69.187C85.7297 69.5596 86.7906 69.8805 87.8309 70.719C90.8695 73.1723 90.5502 76.6815 89.5201 79.994H89.5407Z" fill="#CCBCAB"/>
        <path d="M50.6976 74.7667C50.0486 75.1601 49.3791 75.6156 49.0392 76.2988C48.6375 77.1269 48.8023 78.0999 48.8126 79.0109C48.8229 80.1288 48.6169 81.34 49.204 82.2819C49.9456 83.4931 51.6143 83.7312 52.5928 84.7456C53.8391 86.0292 53.7361 88.2651 55.0855 89.4349C56.3627 90.5321 58.6596 89.9317 59.2365 88.348C59.5043 87.6337 59.4425 86.8263 59.6588 86.1017C60.1944 84.3523 62.0999 83.4827 63.8201 82.8927C64.1703 82.7685 64.5205 82.6546 64.8089 82.4269C65.6535 81.7644 65.6329 80.4187 65.0973 79.4974C64.5617 78.5657 63.6553 77.9343 62.8415 77.2407C62.0278 76.5472 61.2347 75.6984 61.0905 74.6425C60.9154 73.3382 61.1832 72.3031 59.9472 71.4439C59.1335 70.8746 58.4639 70.9263 57.5678 71.2679C55.2297 72.1788 52.8297 73.4624 50.6873 74.7667H50.6976Z" fill="#CCBCAB"/>
        <path d="M89.5403 79.9941C88.9944 81.7332 88.1498 83.3687 87.5627 85.0974C87.0477 86.6191 86.8623 88.6377 85.9867 89.9937C85.2451 89.3001 84.6271 88.5238 84.3387 87.5507C84.0709 86.6709 84.1224 85.7289 84.1533 84.8076C84.1533 84.642 84.1533 84.466 84.0709 84.3314C83.9679 84.1761 83.7825 84.114 83.5971 84.0933C82.5774 83.9691 81.7842 84.8283 81.3104 85.6254C80.8057 86.4742 80.507 86.9814 79.7757 87.6129C78.3234 88.8654 77.8598 91.3187 78.1174 93.1406C78.2307 93.9376 78.4779 94.7451 78.5191 95.5318C74.1312 97.4261 69.5476 97.2812 66.6738 96.4738C66.5914 96.4531 66.5193 96.4324 66.4369 96.4013C66.509 96.039 66.5811 95.687 66.6223 95.3247C66.9107 93.0267 65.9631 90.739 66.0352 88.4203C66.097 86.6709 66.7562 84.9422 67.8789 83.6172C68.5587 82.8097 69.424 82.1058 69.8051 81.1121C70.3613 79.6215 69.6197 77.9445 68.5484 76.7748C67.9922 76.164 67.3433 75.6258 67.0137 74.8701C66.6944 74.1248 66.7356 73.2656 66.9004 72.4582C67.3948 69.9531 68.9501 67.7068 70.9999 66.2059C71.9887 65.4812 73.0908 64.9223 74.2548 64.5186C76.4178 64.9637 78.447 66.0195 80.4143 67.0547C81.3207 67.5309 82.2786 68.1726 83.2572 68.6592C83.6692 68.8662 84.0915 69.0525 84.5138 69.1767C85.7395 69.5494 86.8005 69.8703 87.8408 70.7088C90.8793 73.1621 90.56 76.6713 89.53 79.9838L89.5403 79.9941Z" fill="#CCBCAB"/>
        <path d="M87.851 70.7195C87.0372 70.0674 86.0484 69.8293 85.0287 69.6947C83.8854 69.5394 82.8862 69.674 82.0519 70.5746C81.3927 71.2992 81.0013 72.2619 80.9807 73.235L75.604 73.1935C74.646 73.1935 73.1937 72.148 72.3903 72.676C72.1225 74.2701 75.7791 77.5412 78.7971 76.5992C80.9601 75.9264 81.7017 76.8994 83.0716 78.949C86.3883 83.9177 84.4313 87.7478 79.9095 90.0148C77.4786 91.3709 75.9645 92.7994 73.2658 92.2611C71.6487 91.7228 70.5672 95.2527 68.4041 93.8863C65.8497 92.2507 63.0274 89.8181 62.9862 86.7541C62.1004 88.99 55.0447 85.9674 54.1383 85.3049C48.2981 81.0193 48.6792 77.3238 48.1333 68.3594C47.0517 69.9846 47.0517 71.8893 45.9702 73.5248C45.1565 74.4254 44.4664 75.3984 43.9102 76.4129C45.1874 78.1623 46.0217 80.2844 46.0217 80.2844C48.0405 84.9425 59.3914 94.4142 66.6943 96.4845C70.4436 97.5507 77.0975 97.4679 82.433 93.2134C83.5661 92.3128 85.2038 91.2363 86.0072 89.9941C86.8827 88.638 87.0681 86.6195 87.5831 85.0978C88.1703 83.3691 89.0149 81.7336 89.5505 79.9945C90.5908 76.682 90.8998 73.1728 87.8613 70.7195H87.851Z" fill="#C1AE99"/>
        <g style="mix-blend-mode:multiply" opacity="0.2">
            <path d="M48.2152 70.0363C48.1843 69.4773 48.1534 68.9184 48.1225 68.3594C47.041 69.9846 47.041 71.8893 45.9595 73.5248C45.1457 74.4254 44.4556 75.3984 43.8994 76.4129C45.1766 78.1623 46.011 80.2844 46.011 80.2844C46.4951 81.4023 47.5251 82.7998 48.895 84.3008C47.3397 79.7875 47.1852 74.9015 48.2255 70.0363H48.2152Z" fill="#D1C7C1"/>
        </g>
        <path d="M48.2358 68.1321C47.7826 70.0264 47.5972 73.4631 44.95 78.7217C44.1157 80.3883 43.0239 82.2412 41.6025 84.2908C41.0257 85.1293 40.4282 85.9574 39.8205 86.7752C39.6454 87.0029 39.4291 87.2617 39.1819 87.5205C38.5845 88.1727 37.8635 88.8869 37.4927 89.4977C37.0807 90.1809 37.2249 91.1746 37.1528 93.6383C37.0189 98.0584 37.709 99.0521 37.6369 100.677C37.5648 102.22 36.5141 103.379 34.897 103.151C34.2996 103.069 33.6507 102.861 33.1975 102.447C32.7134 102.002 32.7031 101.309 32.734 100.688C32.8061 99.2281 33.1666 91.1021 32.7855 89.684C32.5383 88.7834 32.5383 87.8932 32.4662 86.9615C32.3838 85.8953 32.8061 85.2949 33.1254 84.2908C33.867 81.91 33.249 80.2434 32.9194 78.9391C32.4868 77.2207 32.2396 75.316 32.0747 73.5459C31.776 70.161 32.0129 69.1776 32.0129 69.1776C32.0129 69.1776 40.3767 62.1592 43.714 63.8155C44.6101 64.2606 48.792 65.8444 48.2461 68.1321H48.2358Z" fill="#CCBCAB"/>
        <path d="M68.2913 124.494C68.0647 124.618 67.6836 124.618 67.4776 124.629C66.6948 124.649 65.9017 124.349 65.3248 123.739C64.9025 123.293 64.6141 122.703 64.4081 122.093C64.2536 121.606 63.9858 120.871 64.2124 120.364C64.3978 119.95 64.851 119.795 65.1909 119.66C65.809 119.412 66.4476 119.225 67.0965 119.132C67.3849 119.091 67.7557 119.132 68.0235 119.008C68.1162 118.966 68.1368 118.853 68.2501 118.832C68.4252 118.801 68.5488 118.966 68.6518 119.111C69.3728 120.157 70.1248 121.306 70.166 122.652C70.166 122.817 70.166 122.993 70.1145 123.149C69.9805 123.563 69.6406 123.863 69.208 123.645C69.0638 123.573 68.9505 123.469 68.8372 123.356C68.6518 123.18 68.487 122.993 68.3222 122.786C68.3943 123.242 68.5076 123.801 68.4458 124.266C68.4355 124.37 68.3634 124.453 68.2707 124.505L68.2913 124.494Z" fill="#7A593D"/>
        <path d="M65.5507 86.1318C66.2821 85.842 67.1164 85.7281 67.9713 85.7178C68.7438 85.7178 69.4957 85.9041 70.2064 86.1629C70.8451 86.3906 71.4631 86.6805 71.9678 87.0945C73.554 88.3988 73.6158 90.3242 73.3274 92.1357C72.8433 95.1584 71.3395 97.7256 70.2888 100.562C70.021 101.286 69.6811 102.032 69.4648 102.756C69.2382 103.553 69.3309 104.506 69.2794 105.324C69.2176 106.39 69.1661 107.466 69.0219 108.522C68.8056 110.22 68.3833 111.897 68.373 113.605C68.373 115.986 69.403 119.961 68.6614 120.799C68.2803 121.234 67.2606 121.855 66.0554 121.617C63.7894 121.182 64.119 120.043 64.1499 119.464C64.5001 113.139 64.6546 113.118 63.9336 108.833C63.5525 106.535 64.0366 104.226 63.6761 101.928C63.3053 99.5785 62.3268 97.3426 62.0487 94.9824C61.7602 92.5601 63.0581 86.4527 63.0581 86.4527C63.0581 86.4527 64.6546 86.4527 65.5301 86.1215L65.5507 86.1318Z" fill="#CCBCAB"/>
        <path d="M69.4849 102.767C69.6909 102.042 70.0411 101.287 70.3089 100.572C71.3595 97.7361 72.8634 95.1689 73.3475 92.1359C73.4402 91.5562 73.4608 90.9869 73.4814 90.3968C73.4917 89.9103 73.7286 89.5687 73.9964 89.1857C74.1715 88.9269 74.3157 88.6474 74.4599 88.3679C74.6453 88.0056 74.8204 87.633 74.9234 87.2396C75.0676 86.6496 75.0161 86.0388 74.9131 85.4488C74.8101 84.8277 74.6659 84.2377 74.6247 83.6269C74.6144 83.3888 74.532 83.1714 74.4187 82.9541C74.3466 82.8195 74.2848 82.5607 74.2024 82.4572C73.6874 81.8464 73.09 81.2875 72.3587 80.9769C71.6274 80.6664 70.7415 80.656 70.072 81.0804C69.2789 81.5773 68.6506 82.6435 68.0635 83.3681C67.3528 84.2584 66.6729 85.1796 66.024 86.1216C65.3648 87.074 64.7365 88.0677 64.376 89.165C64.0155 90.2623 63.9434 91.5044 64.376 92.5706C64.6232 93.171 65.0352 93.699 65.2927 94.3097C65.4781 94.7445 65.5811 95.1999 65.6532 95.6658C66.0034 97.7464 65.8489 99.9823 64.5511 101.721C64.2627 102.229 64.0361 102.746 63.8404 103.284C63.9228 105.137 63.6653 107.001 63.9743 108.854C64.5305 112.218 64.5614 112.953 64.376 116.172C64.6747 116.172 64.9322 116.079 65.0867 115.841C67.2498 113.936 64.5511 110.955 66.1682 108.512C66.9201 107.508 68.5888 106.97 69.2583 106.038C69.2686 105.81 69.2892 105.583 69.2995 105.344C69.3407 104.527 69.2583 103.574 69.4849 102.777V102.767Z" fill="#CCBCAB"/>
        <path d="M103.919 81.1233C103.919 81.7237 103.888 82.3759 103.713 82.9555C103.167 84.8085 100.273 86.9719 96.4305 86.237C94.834 85.9368 94.6486 85.0466 94.0306 84.353C93.9585 84.2702 93.8864 84.1977 93.804 84.1253C92.5061 82.997 90.6521 81.4856 89.1792 80.8438C87.6444 80.171 85.9861 79.4981 84.5544 78.6597C83.2668 77.904 82.3604 76.5376 81.9072 75.1298C81.3407 73.3804 81.2171 71.2687 81.8042 69.5296C82.3604 67.9044 83.4213 66.5069 84.7913 65.4821C86.9852 63.8259 90.3843 62.18 93.1241 63.153C97.3163 64.654 98.3464 66.8071 99.0262 70.1714C99.5 72.5212 99.3352 71.9726 100.303 73.7944C101.673 76.3616 102.539 77.7694 103.074 78.6804C103.754 79.819 103.908 80.1917 103.908 81.113L103.919 81.1233Z" fill="#CCBCAB"/>
        <path d="M99.0373 70.1805C98.7901 68.9487 98.4605 67.7065 97.8218 66.6092C97.5231 66.0916 97.1523 65.6258 96.7197 65.2118C96.2665 64.777 95.7721 64.218 95.1541 64.6735C94.464 65.1911 93.8665 65.8536 93.5266 66.661C93.4648 66.7955 93.4236 66.9405 93.3824 67.0854C93.2588 67.5202 93.1249 68.3069 93.3824 68.7106C93.5472 68.9797 93.8872 69.2075 94.1035 69.4248C94.3507 69.6733 94.5876 69.9321 94.8142 70.2116C95.1644 70.636 95.4734 71.0811 95.8545 71.4641C96.3386 71.9403 96.9257 72.3026 97.5437 72.5821C97.9763 72.7787 98.4296 72.934 98.9034 72.9547C98.9858 72.9547 99.0682 72.9547 99.1403 72.934C99.3566 72.8512 99.439 72.5924 99.4802 72.3647C99.5317 72.1162 99.3566 71.7643 99.2948 71.5055C99.1918 71.0604 99.1094 70.6153 99.027 70.1702L99.0373 70.1805Z" fill="#CCBCAB"/>
        <path d="M93.6503 72.8513C93.5885 72.7995 93.5164 72.7478 93.434 72.696C92.6614 72.1888 91.9404 72.0956 91.034 72.1991C90.2718 72.2819 89.4066 72.4786 88.7062 72.0439C88.3353 71.8161 88.222 71.4952 88.0469 71.1329C87.8924 70.812 87.6555 70.5222 87.5113 70.1702C87.2023 69.4456 87.2435 68.5657 87.6864 67.9032C88.0881 67.2925 88.7371 66.8991 89.18 66.3195C89.6435 65.7087 89.6435 65.1187 89.7671 64.4044C89.8289 64.0111 90.2409 63.3796 89.7671 63.0587C89.2521 62.7171 87.9954 63.3796 87.5216 63.6281C86.7285 64.0318 85.9457 64.4665 85.2144 64.9738C84.2668 65.6155 83.4015 66.3816 82.5672 67.1683C81.6402 68.0482 80.5278 69.2179 80.4557 70.5843C80.4248 71.2364 80.8574 71.8886 81.084 72.489C81.3621 73.255 81.5887 74.0417 81.7329 74.8491C81.7638 75.0147 82.5466 77.5612 84.4625 78.6792C85.5543 79.3106 86.5843 80.0145 87.7173 79.6108C89.0358 79.145 89.9216 78.2341 91.4357 78.2962C93.9387 78.3997 95.5764 74.4454 93.6503 72.8513Z" fill="#CCBCAB"/>
        <path d="M79.2404 69.4358C77.8395 69.0424 76.037 69.1046 74.8216 69.9948C74.3993 70.3053 74.0594 70.6987 73.7195 71.1024C73.2662 71.6303 72.8233 72.1583 72.3701 72.6862C72.8542 72.7897 73.2765 73.1002 73.6886 73.3694C74.4508 73.8766 75.2645 74.2907 76.1194 74.6116C76.7065 74.8393 77.3245 75.0153 77.9528 74.9842C78.7769 74.9532 79.5391 74.5702 80.2395 74.1458C80.6927 73.8766 81.1459 73.5764 81.6197 73.328C82.042 73.1106 82.3716 72.7483 82.8661 72.6551C83 72.6344 83.1339 72.6241 83.2678 72.6034C83.8549 72.4895 84.3802 72.1686 84.2669 71.4958C84.2257 71.2577 84.1021 71.0403 83.9476 70.8643C83.4017 70.2329 82.6086 70.8643 81.9596 70.5434C81.0841 70.119 80.1674 69.7049 79.2301 69.4358H79.2404Z" fill="#AF9C89"/>
        <path d="M80.5688 64.9119C79.1577 64.0838 77.8598 63.059 76.3457 62.4482C76.9122 64.3529 77.9937 66.0609 79.2195 67.6137C79.8375 68.4004 80.507 69.1664 81.331 69.7357C82.155 70.2947 83.1645 70.6467 84.1533 70.5224C85.1421 70.3982 86.0897 69.7357 86.3987 68.7834C86.7798 67.6033 86.0176 66.3922 84.8434 66.1955C83.2572 65.9264 82.0108 65.7607 80.5688 64.9119Z" fill="#674521"/>
        <path d="M80.5688 64.9119C79.1577 64.0838 77.8598 63.059 76.3457 62.4482C76.7783 63.8975 77.5096 65.2328 78.3749 66.4853C79.6315 67.0961 80.8675 65.0879 80.5688 64.9119Z" fill="#50371D"/>
        <path d="M42.529 64.6633C42.2715 65.4707 41.8904 66.2781 41.9316 67.1373C41.9522 67.6652 42.1479 68.1828 42.1376 68.7107C42.1376 70.3877 40.2526 71.4746 38.584 71.4953C36.9153 71.5263 35.2982 70.8742 33.6399 70.8017C33.0734 70.7707 32.4862 70.8017 31.93 70.7293C31.8682 68.8039 32.4965 66.951 32.7541 65.0359C33.0631 62.8 34.1446 60.6883 35.6278 59.0113C35.9471 58.649 36.2973 58.2971 36.6475 57.9658C36.5754 58.9389 36.8844 59.9637 37.6673 60.5227C39.0784 61.5268 41.468 60.74 42.4363 62.1892C42.9101 62.8932 42.7762 63.8455 42.5187 64.6633H42.529Z" fill="#CCBCAB"/>
        <path d="M44.4142 65.5126C44.3318 66.0509 44.2906 66.6305 44.579 67.086C45.0322 67.7899 46.052 67.8313 46.8554 67.6139C47.6588 67.3966 48.4725 67.0136 49.2862 67.1481C50.3471 67.3241 51.1094 68.3178 52.1497 68.5766C52.4175 68.6491 52.7162 68.6595 52.9737 68.5352C53.4269 68.3178 53.5917 67.7692 53.705 67.2723C53.9934 66.0198 54.1788 64.5499 53.3342 63.5872C52.778 62.9557 51.851 62.6659 51.4493 61.9309C51.2433 61.5583 51.2021 61.1235 51.0888 60.7095C50.9755 60.2954 50.7489 59.8813 50.3471 59.7364C49.3171 59.3741 47.2056 60.3472 46.4228 61.0821C45.2485 62.2001 44.6202 63.9391 44.3936 65.4919L44.4142 65.5126Z" fill="#CCBCAB"/>
        <path d="M44.9501 78.7197C44.1157 80.3966 43.0239 82.2496 41.6025 84.2992C41.0257 85.1377 40.4283 85.9658 39.8205 86.7835C39.6454 87.0113 39.4291 87.2701 39.1819 87.5289C38.6978 86.649 38.4609 85.6449 38.5021 84.6408C38.5536 83.4089 39.0068 82.1875 38.8111 80.9763C38.7905 80.8211 38.7493 80.6554 38.636 80.5416C38.5124 80.4173 38.3373 80.3656 38.1725 80.3552C37.6884 80.3035 37.2043 80.4381 36.7099 80.4381C36.2258 80.4381 35.6798 80.2828 35.4429 79.848C35.3193 79.6099 35.309 79.3201 35.3399 79.0509C35.5768 76.049 39.254 72.6847 42.3029 74.3306C43.8582 75.1691 44.7235 76.9599 44.9501 78.7197Z" fill="#CCBCAB"/>
        <path d="M103.918 81.1225C103.918 81.7229 103.887 82.375 103.712 82.9547C103.166 84.8076 100.272 86.9711 96.4301 86.2362C95.9872 86.1533 95.5546 86.0084 95.1941 85.7393C94.9572 85.5633 94.5967 85.2631 94.5452 84.9629C94.4834 84.5696 94.6379 84.052 94.8027 83.6897C94.9984 83.2653 95.2971 82.8926 95.6576 82.6028C96.3477 82.0541 97.2232 81.785 98.0884 81.6608C98.4798 81.5987 98.8919 81.5676 99.2627 81.4123C100.148 81.0397 100.643 80.0459 101.508 79.6319C101.807 79.487 102.136 79.4145 102.456 79.342C102.651 79.3006 102.847 79.2592 103.043 79.2799C103.836 79.3524 103.929 80.5118 103.918 81.1225Z" fill="#514A3F"/>
        <path opacity="0.3" d="M74.0376 72.3033C74.0376 72.3033 75.0265 73.9078 76.9423 74.2183C78.817 74.5185 82.0409 73.5144 80.8358 72.1584C78.1474 69.1357 74.0273 72.3033 74.0273 72.3033H74.0376Z" fill="#514A3F"/>
        <path d="M97.6155 83.12C97.3477 83.0786 97.1417 83.1511 97.0387 83.2856C96.9357 83.4202 96.9357 83.5962 96.9769 83.7825C96.9872 83.8343 97.0078 83.8964 97.0696 83.9585C97.1211 84.0103 97.1932 84.0413 97.2653 84.0827C97.6361 84.269 97.9966 84.4657 98.3674 84.6521C98.4189 84.6831 98.4704 84.7038 98.5219 84.7142C98.5837 84.7142 98.6146 84.6831 98.6352 84.6521C98.7692 84.4657 98.7177 84.1966 98.6765 83.9378C98.6662 83.8653 98.6559 83.7929 98.6043 83.7204C98.4704 83.4823 98.0893 83.3063 97.7597 83.1614L97.6155 83.1304V83.12Z" fill="#241D19"/>
        <path d="M102.394 81.3301C102.476 81.1231 102.59 81.0092 102.693 80.9885C102.796 80.9678 102.899 81.0507 102.981 81.1542C103.002 81.1852 103.033 81.2266 103.043 81.2887C103.043 81.3509 103.043 81.413 103.043 81.4751C103.002 81.8167 102.971 82.1583 102.93 82.4999C102.93 82.5516 102.919 82.6034 102.899 82.6344C102.878 82.6758 102.847 82.6862 102.827 82.6862C102.682 82.6862 102.548 82.5516 102.435 82.4067C102.404 82.3653 102.373 82.3239 102.342 82.2618C102.27 82.0651 102.312 81.7132 102.363 81.4233L102.404 81.2991L102.394 81.3301Z" fill="#241D19"/>
        <path d="M57.0725 66.1439C58.082 66.0818 59.0399 65.4607 59.5137 64.5705C59.6167 64.3841 59.6991 64.1771 59.8639 64.0425C60.039 63.8976 60.2862 63.8666 60.4613 63.7216C60.7085 63.5146 60.76 63.1523 60.6982 62.8418C60.2038 60.0261 56.9386 58.8564 54.6829 60.3781C54.2091 60.699 53.8177 61.258 53.9928 61.8066C54.1061 62.1793 54.4872 62.438 54.8683 62.4898C55.5069 62.583 56.2279 61.8377 56.6193 62.4691C56.9077 62.9246 56.4442 63.6181 56.3103 64.0736C56.0631 64.9224 55.7232 66.2474 57.0622 66.1646L57.0725 66.1439Z" fill="#CCBCAB"/>
        <path d="M44.8472 54.3949C44.6927 54.5709 44.5382 54.7676 44.5176 55.0057C44.4455 55.5957 45.1769 55.9994 45.7537 55.9166C46.3305 55.8338 46.8352 55.4508 47.3811 55.2231C48.0506 54.9436 48.8025 54.9022 49.4927 55.0988C49.6678 55.1506 49.8429 55.2127 50.018 55.1609C50.1519 55.1195 50.2549 55.0264 50.327 54.9125C51.1922 53.6186 49.1321 53.3908 48.4008 53.3391C47.0721 53.2459 45.8052 53.3287 44.8472 54.3949Z" fill="#CCBCAB"/>
        <path d="M61.8213 68.1104C62.1509 68.2243 62.5526 68.3278 62.8307 68.1104C63.2015 67.8309 63.0882 67.2098 63.356 66.8268C63.5311 66.5784 63.8401 66.4645 64.1182 66.361C64.6642 66.1747 65.2101 65.978 65.756 65.7917C65.8281 65.7709 65.9002 65.7399 65.962 65.771C66.0444 65.802 66.0753 65.8848 66.1165 65.9676C66.3534 66.5784 66.6006 67.1995 66.8375 67.8102C66.9096 67.9965 66.9817 68.1829 66.9817 68.3795C66.9817 68.9489 66.3225 69.3733 65.7663 69.2387C65.8487 68.6901 65.8384 67.9655 65.3234 67.7791C64.8496 67.6032 64.3654 68.0897 64.2521 68.5866C64.1388 69.0834 64.2521 69.601 64.1903 70.1082C64.1697 70.2428 64.1388 70.3877 64.0358 70.4913C63.7783 70.75 63.3354 70.543 63.0882 70.2842C62.7483 69.9323 62.4599 69.6735 61.9552 69.6528C61.9552 69.5079 61.8831 68.1415 61.8213 68.1207V68.1104Z" fill="#CCBCAB"/>
        <path d="M64.6437 73.7419C64.3759 73.7419 64.139 73.9489 64.0257 74.187C63.9123 74.4251 63.8917 74.715 63.8814 74.9841C63.8608 75.3568 63.9226 75.8329 64.2832 75.9157C64.5201 75.9675 64.7467 75.8019 64.9115 75.6155C65.4471 74.9841 65.5192 74.011 65.1072 73.2968C65.0042 73.2243 64.8394 73.2554 64.7776 73.3693L64.654 73.7316L64.6437 73.7419Z" fill="#CCBCAB"/>
        <g style="mix-blend-mode:multiply" opacity="0.4">
            <path d="M34.5468 88.9384C33.4653 83.773 37.7914 79.4357 36.1639 74.2703C34.588 69.5086 33.8052 63.7221 35.5253 59.126C34.0936 60.7926 33.0533 62.8525 32.7546 65.0367C32.5692 66.4342 32.1778 67.7902 32.0129 69.1773C32.0129 69.1773 31.776 70.1607 32.0747 73.5457C32.2293 75.3158 32.4765 77.2205 32.9194 78.9388C33.249 80.2431 33.8773 81.9097 33.1254 84.2906C32.8061 85.2947 32.3838 85.8951 32.4662 86.9613C32.5383 87.8929 32.5486 88.7831 32.7855 89.6837C33.1666 91.0915 32.8061 99.2278 32.734 100.687C32.7031 101.309 32.7134 102.002 33.1975 102.447C33.6507 102.861 34.2996 103.068 34.897 103.151C36.5141 103.389 37.5648 102.219 37.6369 100.677C37.709 99.0622 37.0189 98.0581 37.1528 93.638C37.2249 91.1744 37.0807 90.1703 37.4927 89.4974C37.8635 88.8867 38.5845 88.1724 39.1819 87.5203C39.4291 87.2615 39.6454 87.0027 39.8205 86.7749C40.4282 85.9572 41.0257 85.129 41.6025 84.2906C43.0239 82.241 44.1054 80.388 44.95 78.7214C45.0118 78.6076 45.053 78.4937 45.1148 78.3798C45.1148 78.3798 45.1148 78.4005 45.1251 78.4109C45.1148 78.297 45.0942 78.1832 45.0839 78.0693C41.3038 81.5992 34.5468 89.4767 34.5468 88.9384Z" fill="#D1C7C1"/>
        </g>
    </g>
    <defs>
        <linearGradient id="paint0_linear_3579_20256" x1="66.7688" y1="124.587" x2="83.8618" y2="124.587" gradientUnits="userSpaceOnUse">
            <stop stop-color="#A996EB"/>
            <stop offset="0.44" stop-color="#B6A7EB"/>
            <stop offset="1" stop-color="#C5BAEB"/>
        </linearGradient>
        <linearGradient id="paint1_linear_3579_20256" x1="113.97" y1="74.2588" x2="24.1523" y2="134.686" gradientUnits="userSpaceOnUse">
            <stop stop-color="#DFDAEF"/>
            <stop offset="1" stop-color="#F2EFFA"/>
        </linearGradient>
        <linearGradient id="paint2_linear_3579_20256" x1="85.6016" y1="82.7763" x2="85.6016" y2="10.1047" gradientUnits="userSpaceOnUse">
            <stop stop-color="#F2EFFA"/>
            <stop offset="1" stop-color="white"/>
        </linearGradient>
        <linearGradient id="paint3_linear_3579_20256" x1="105.959" y1="50.5341" x2="101.321" y2="42.5158" gradientUnits="userSpaceOnUse">
            <stop stop-color="#0072BC"/>
            <stop offset="1" stop-color="#C9EDFF"/>
        </linearGradient>
        <linearGradient id="paint4_linear_3579_20256" x1="85.6016" y1="41.5441" x2="85.6016" y2="16.0314" gradientUnits="userSpaceOnUse">
            <stop stop-color="#2F97F7"/>
            <stop offset="1" stop-color="#79D3FE"/>
        </linearGradient>
        <linearGradient id="paint5_linear_3579_20256" x1="116.698" y1="43.6176" x2="101.864" y2="17.9297" gradientUnits="userSpaceOnUse">
            <stop offset="0.03" stop-color="#2F878A"/>
            <stop offset="0.07" stop-color="#348C8E"/>
            <stop offset="0.36" stop-color="#60B7B0"/>
            <stop offset="0.63" stop-color="#80D6CA"/>
            <stop offset="0.85" stop-color="#93E9D9"/>
            <stop offset="1" stop-color="#9BF0DF"/>
        </linearGradient>
        <linearGradient id="paint6_linear_3579_20256" x1="111.132" y1="86.2909" x2="111.132" y2="18.639" gradientUnits="userSpaceOnUse">
            <stop stop-color="#2F878A"/>
            <stop offset="0.13" stop-color="#259A92"/>
            <stop offset="0.34" stop-color="#17B69E"/>
            <stop offset="0.56" stop-color="#0DCAA7"/>
            <stop offset="0.78" stop-color="#07D6AC"/>
            <stop offset="1" stop-color="#06DAAE"/>
        </linearGradient>
        <linearGradient id="paint7_linear_3579_20256" x1="116.835" y1="48.4548" x2="114.578" y2="44.5726" gradientUnits="userSpaceOnUse">
            <stop offset="0.03" stop-color="#A996EB"/>
            <stop offset="0.68" stop-color="#D6CEF2"/>
            <stop offset="1" stop-color="#E9E5F6"/>
        </linearGradient>
        <linearGradient id="paint8_linear_3579_20256" x1="108.935" y1="55.3418" x2="108.935" y2="40.0343" gradientUnits="userSpaceOnUse">
            <stop stop-color="#DFDAEF"/>
            <stop offset="1" stop-color="white"/>
        </linearGradient>
        <clipPath id="clip0_3579_20256">
            <rect width="149" height="149" fill="white" transform="matrix(-1 0 0 1 149.5 0)"/>
        </clipPath>
    </defs>
</svg>
