<svg width="45" height="45" viewBox="0 0 45 45" fill="none" xmlns="http://www.w3.org/2000/svg">
    <rect width="45" height="45" fill="#FAFAFA"/>
    <g clip-path="url(#clip0_3418_7935)">
        <path d="M34.9888 15.3986C29.9345 6.4176 21.9153 1.33947 16.5471 3.4923V3.49085L16.5387 3.49591C16.2347 3.61791 15.9391 3.7623 15.6534 3.93124C15.3648 4.10234 15.0925 4.29509 14.8356 4.50662L10.2261 7.24062H12.7729C10.6159 11.8791 11.5815 19.5844 15.666 26.8428C19.2671 33.2413 24.3735 37.6589 28.9534 38.892L27.5277 39.1172L29.8015 41.2867L34.1837 38.7187C34.4638 38.6025 34.7368 38.4668 35.0007 38.3101C35.2491 38.1628 35.4863 38.0004 35.7115 37.8228C40.3239 34.195 40.0811 24.4495 34.9874 15.3986H34.9888Z" fill="#EB5759"/>
        <path d="M30.3464 41.0676C35.6821 37.9074 35.6762 27.6494 30.3332 18.1557C24.9902 8.66207 16.3333 3.52782 10.9976 6.68805C5.66188 9.84828 5.6678 20.1063 11.0108 29.5999C16.3538 39.0936 25.0107 44.2279 30.3464 41.0676Z" fill="#E52329"/>
        <path d="M17.313 15L21.7485 17.4916V22.5919L26 25.0901V30.3842L21.6568 27.8926V33L17.313 30.3216V25.2455L13 22.5919V17.3982L17.354 20.0376L17.313 15Z" fill="white"/>
    </g>
    <defs>
        <clipPath id="clip0_3418_7935">
            <rect width="32" height="39" fill="white" transform="translate(7 3)"/>
        </clipPath>
    </defs>
</svg>
