<svg width="41" height="41" viewBox="0 0 41 41" fill="none" xmlns="http://www.w3.org/2000/svg">
    <rect width="41" height="41" fill="#FAFAFA"/>
    <circle cx="21" cy="20" r="16" fill="#63B78F"/>
    <path d="M28.1359 17.4561C29.7012 17.4561 30.9999 18.7537 30.9999 20.32C30.9999 21.8863 29.7022 23.184 28.1359 23.184C26.5697 23.184 25.272 21.8853 25.272 20.32C25.272 18.7547 26.5706 17.4561 28.1359 17.4561Z" fill="white"/>
    <path d="M20.4997 17.4561C22.065 17.4561 23.3636 18.7537 23.3636 20.32C23.3636 21.8863 22.066 23.184 20.4997 23.184C18.9334 23.184 17.6357 21.8853 17.6357 20.32C17.6357 18.7547 18.9344 17.4561 20.4997 17.4561Z" fill="white"/>
    <path d="M12.8639 17.4561C14.4292 17.4561 15.7279 18.7537 15.7279 20.32C15.7279 21.8863 14.4292 23.184 12.8639 23.184C11.2987 23.184 10 21.8853 10 20.32C10 18.7547 11.2987 17.4561 12.8639 17.4561Z" fill="white"/>
</svg>
