<?xml version="1.0" encoding="UTF-8" standalone="no"?>
<svg
   width="1500"
   height="1114"
   viewBox="0 0 1500 1114"
   fill="none"
   version="1.1"
   id="svg12"
   sodipodi:docname="bg-waves.svg"
   inkscape:version="1.3.2 (091e20e, 2023-11-25, custom)"
   inkscape:export-filename="bg-waves.webp"
   inkscape:export-xdpi="96"
   inkscape:export-ydpi="96"
   xmlns:inkscape="http://www.inkscape.org/namespaces/inkscape"
   xmlns:sodipodi="http://sodipodi.sourceforge.net/DTD/sodipodi-0.dtd"
   xmlns="http://www.w3.org/2000/svg"
   xmlns:svg="http://www.w3.org/2000/svg">
  <sodipodi:namedview
     id="namedview12"
     pagecolor="#ffffff"
     bordercolor="#000000"
     borderopacity="0.25"
     inkscape:showpageshadow="2"
     inkscape:pageopacity="0.0"
     inkscape:pagecheckerboard="0"
     inkscape:deskcolor="#d1d1d1"
     inkscape:zoom="0.10330487"
     inkscape:cx="251.68222"
     inkscape:cy="-14.520128"
     inkscape:window-width="1600"
     inkscape:window-height="847"
     inkscape:window-x="-8"
     inkscape:window-y="22"
     inkscape:window-maximized="1"
     inkscape:current-layer="g12" />
  <g
     clip-path="url(#clip0_2_4639)"
     id="g12">
    <g
       style="mix-blend-mode:multiply"
       opacity="0.9"
       id="g7">
      <g
         style="mix-blend-mode:multiply"
         opacity="0.9"
         id="g2">
        <g
           style="mix-blend-mode:multiply"
           opacity="0.9"
           id="g1">
          <path
             d="M-289.29 517.704C-227.421 550.848 -152.476 571.976 -72.6015 564.485C-20.6229 559.62 32.1133 541.607 71.5183 510.81C147.164 451.69 163.12 357.008 240.239 299.155C286.628 264.355 349.684 247.989 409.576 245.675C489.343 242.591 558.363 265.575 634.302 274.443C674.509 279.143 717.937 278.039 757.086 263.291C849.79 228.363 911.746 122.542 906.178 20.1797"
             stroke="#E6E6E6"
             stroke-width="0.932"
             stroke-miterlimit="10"
             id="path1" />
        </g>
      </g>
      <g
         style="mix-blend-mode:multiply"
         opacity="0.9"
         id="g4">
        <g
           style="mix-blend-mode:multiply"
           opacity="0.9"
           id="g3">
          <path
             d="M-330.639 499.105C-268.77 532.25 -193.827 553.379 -113.95 545.889C-61.9738 541.024 -9.23531 523.008 30.1673 492.214C105.816 433.094 121.771 338.412 198.89 280.559C245.28 245.756 308.333 229.392 368.228 227.076C447.997 223.994 517.015 246.977 592.956 255.844C633.163 260.544 676.591 259.44 715.738 244.692C808.439 209.75 870.395 103.944 864.827 1.58105"
             stroke="#E6E6E6"
             stroke-width="0.932"
             stroke-miterlimit="10"
             id="path2" />
        </g>
      </g>
      <g
         style="mix-blend-mode:multiply"
         opacity="0.9"
         id="g6">
        <g
           style="mix-blend-mode:multiply"
           opacity="0.9"
           id="g5">
          <path
             d="M-361.157 484.649C-299.288 517.794 -224.346 538.921 -144.469 531.433C-92.4924 526.557 -39.7538 508.552 -0.351215 477.758C75.2948 418.636 91.2434 323.954 168.372 266.101C214.761 231.3 277.815 214.934 337.709 212.62C417.478 209.538 486.499 232.521 562.438 241.388C602.645 246.086 646.072 244.984 685.219 230.236C777.921 195.298 839.877 89.4876 834.311 -12.875"
             stroke="#E6E6E6"
             stroke-width="0.932"
             stroke-miterlimit="10"
             id="path4" />
        </g>
      </g>
    </g>
    <path
       d="M1533.8 614.971V1183.58H626.329C629.337 1159.53 635.039 1135.82 643.346 1112.81C672.522 1034.01 731.935 967.186 810.889 924.374C851.982 901.947 897.932 887.729 945.638 882.679C1007.98 876.393 1078.25 883.976 1126.3 847.627C1155.2 825.751 1169.24 792.355 1187.25 762.448C1238.55 677.357 1335.17 612.22 1442.31 605.375C1473.2 603.522 1504.21 606.775 1533.8 614.971Z"
       fill="#F2F7FB"
       style="mix-blend-mode:multiply"
       id="path7" />
    <g
       style="mix-blend-mode:multiply"
       id="g11">
      <g
         style="mix-blend-mode:multiply"
         id="g8">
        <path
           d="M1702.36 723.085C1648.51 692.537 1581.31 671.907 1506.59 675.763C1457.96 678.272 1407.28 692.062 1367.61 717.298C1291.47 765.746 1266.91 846.753 1189.53 894.061C1142.98 922.52 1082.92 934.563 1027.23 934.61C953.068 934.674 891.54 912.643 822.161 902.532C785.423 897.18 745.106 896.708 707.337 908.146C617.901 935.223 549.605 1024.32 544.177 1112.64"
           stroke="#E6E6E6"
           stroke-miterlimit="10"
           id="path8" />
      </g>
      <g
         style="mix-blend-mode:multiply"
         id="g9">
        <path
           d="M1678.88 758.381C1625.03 727.833 1557.83 707.202 1483.1 711.059C1434.48 713.568 1383.8 727.358 1344.13 752.594C1267.99 801.042 1243.43 882.049 1166.05 929.357C1119.5 957.816 1059.44 969.859 1003.75 969.906C929.587 969.97 868.058 947.938 798.68 937.828C761.942 932.475 721.625 932.004 683.855 943.442C594.42 970.519 526.123 1059.61 520.695 1147.93"
           stroke="#E6E6E6"
           stroke-miterlimit="10"
           id="path9" />
      </g>
      <g
         style="mix-blend-mode:multiply"
         id="g10">
        <path
           d="M1659.31 791.911C1605.46 761.363 1538.26 740.733 1463.54 744.589C1414.91 747.098 1364.23 760.888 1324.57 786.124C1248.42 834.573 1223.86 915.579 1146.48 962.887C1099.94 991.346 1039.87 1003.39 984.18 1003.44C910.019 1003.5 848.491 981.469 779.112 971.358C742.374 966.006 702.057 965.535 664.288 976.972C574.853 1004.05 506.556 1093.15 501.128 1181.46"
           stroke="#E6E6E6"
           stroke-miterlimit="10"
           id="path10" />
      </g>
    </g>
    <path
       d="M 732.25586,0.0603223 C 725.83495,37.591928 709.87842,73.018944 685.80203,103.19471 c -47.70102,59.03558 -126.78807,93.28044 -204.36606,88.46366 -8.24261,-0.50372 -16.5474,-1.40726 -24.88329,-2.48868 -43.57154,-5.61644 -87.97618,-15.85606 -127.06633,1.64495 -33.18645,14.86121 -54.40345,46.74961 -84.35571,66.97698 -39.18181,26.46559 -91.92152,30.79125 -137.49708,16.66988 C 62.058008,260.34011 23.462017,229.34109 -4.7492807,192.13217 -14.50226,179.26379 -23.130475,165.63038 -31.6816,151.94661 V 0.0603223 Z"
       fill="#f2f7fb"
       style="mix-blend-mode:multiply;stroke-width:1.60512"
       id="path11" />
  </g>
  <defs
     id="defs12">
    <clipPath
       id="clip0_2_4639">
      <rect
         width="1500"
         height="1114"
         fill="white"
         id="rect12" />
    </clipPath>
  </defs>
</svg>
