<?xml version="1.0" encoding="UTF-8"?>
<svg width="24px" height="24px" viewBox="0 0 24 24" version="1.1" xmlns="http://www.w3.org/2000/svg" xmlns:xlink="http://www.w3.org/1999/xlink">
    <g stroke="none" stroke-width="1" fill="none" fill-rule="evenodd">
        <path d="M22.6666667,0 L1.33333333,0 C0.596953667,-4.50902501e-17 9.01805001e-17,0.596953667 0,1.33333333 L0,22.6666667 C9.01805001e-17,23.4030463 0.596953667,24 1.33333333,24 L12.82,24 L12.82,14.72 L9.70333333,14.72 L9.70333333,11.0866667 L12.82,11.0866667 L12.82,8.42 C12.82,5.32 14.7133333,3.63 17.4866667,3.63 C18.4196836,3.62727331 19.3521625,3.67512128 20.28,3.77333333 L20.28,7 L18.3666667,7 C16.8633333,7 16.57,7.71666667 16.57,8.76666667 L16.57,11.08 L20.1666667,11.08 L19.7,14.7133333 L16.57,14.7133333 L16.57,24 L22.6666667,24 C23.4030463,24 24,23.4030463 24,22.6666667 L24,1.33333333 C24,0.596953667 23.4030463,4.50902501e-17 22.6666667,0 Z" id="Path" fill="#FFFFFF"></path>
    </g>
</svg>