<?xml version="1.0" encoding="utf-8"?>
<!-- Generator: Adobe Illustrator 23.0.2, SVG Export Plug-In . SVG Version: 6.00 Build 0)  -->
<svg version="1.1"
     id="Layer_1"
     xmlns="http://www.w3.org/2000/svg"
     xmlns:xlink="http://www.w3.org/1999/xlink"
     x="0px"
     y="0px"
     viewBox="0 0 1024 1024"
     style="enable-background:new 0 0 1024 1024;"
     xml:space="preserve">
<style type="text/css">
  .st0{fill:#63B78F;}
</style>
    <g>
  <title>icon@1x</title>
        <path class="st0"
              d="M883.2,0C790.3,108.3,654.7,170.7,512,170.7c-142.7,0-278.3-62.3-371.2-170.7H0
    c110.2,176.8,303.7,284.3,512,284.4C720.3,284.3,913.8,176.8,1024,0H883.2z"/>
        <path class="st0"
              d="M881.5,341.1c-106.1-0.1-193.6,83-199,188.9l0,0v19.8l0,0c-2.6,77.1-33.6,150.6-87,206.2
    c19,27.6,29.3,60.1,29.8,93.6v5.8c-1.9,30.1-26.4,53.8-56.5,54.8H455.2c-30.1,0-55-23.6-56.8-53.6v-4.2c0-0.5,0-1.1,0-1.6
    c0.5-33.4,10.9-66,29.8-93.5c-53.4-55.7-84.3-129.3-86.8-206.4v-21.2c-5.8-105.7-93.1-188.4-199-188.5h-28.4v113.8h28.4
    c43.9,0.1,80.6,33.4,84.8,77.1c0.6,5.5,0.6,11,0,16.5c1.6,82.7,27.2,163.1,73.8,231.5c-9.2,19.3-14.6,40.2-16,61.5
    c-0.3,4-0.4,7.8-0.4,11.7c0,94.2,76.3,170.6,170.5,170.8h113.7c72.2-0.2,136.5-45.7,160.7-113.8c6.5-18.3,9.8-37.5,9.8-56.9
    c0-4,0-8-0.4-11.7c-1.4-21.4-6.8-42.3-16-61.6c46.8-68.6,72.4-149.4,73.8-232.4c-0.5-4.9-0.5-9.8,0-14.6
    c3.7-44.2,40.6-78.2,84.9-78.2H910V340.9L881.5,341.1z"/>
</g>
</svg>
