<?xml version="1.0" encoding="UTF-8" standalone="no"?>
<svg
   width="200"
   height="54.0075"
   viewBox="0 0 200 54.0075"
   fill="none"
   version="1.1"
   id="svg18"
   sodipodi:docname="logo-h-colorx.svg"
   inkscape:version="1.3.2 (091e20e, 2023-11-25, custom)"
   xmlns:inkscape="http://www.inkscape.org/namespaces/inkscape"
   xmlns:sodipodi="http://sodipodi.sourceforge.net/DTD/sodipodi-0.dtd"
   xmlns="http://www.w3.org/2000/svg"
   xmlns:svg="http://www.w3.org/2000/svg">
  <defs
     id="defs22" />
  <sodipodi:namedview
     id="namedview20"
     pagecolor="#ffffff"
     bordercolor="#000000"
     borderopacity="0.25"
     inkscape:showpageshadow="2"
     inkscape:pageopacity="0.0"
     inkscape:pagecheckerboard="0"
     inkscape:deskcolor="#d1d1d1"
     showgrid="false"
     inkscape:zoom="1.2763713"
     inkscape:cx="413.67273"
     inkscape:cy="58.368595"
     inkscape:window-width="1600"
     inkscape:window-height="847"
     inkscape:window-x="-8"
     inkscape:window-y="22"
     inkscape:window-maximized="1"
     inkscape:current-layer="svg18" />
  <g
     id="g163"
     transform="matrix(0.84386074,0,0,0.84386074,0.00247225,0)">
    <path
       d="M 56.3558,0 C 53.425,3.34594 49.791,6.03139 45.7029,7.87246 41.6147,9.71353 37.169,10.6667 32.6701,10.6667 28.1712,10.6667 23.7254,9.71353 19.6372,7.87246 15.5491,6.03139 11.9152,3.34594 8.98431,0 H -0.00292969 C 3.45501,5.43904 8.26899,9.92523 13.9852,13.0356 c 5.7162,3.1104 12.1463,4.7425 18.6841,4.7425 6.5378,0 12.968,-1.6321 18.6842,-4.7425 C 57.0697,9.92523 61.8837,5.43904 65.3416,0 Z"
       fill="#63b78f"
       id="path2" />
    <path
       d="m 56.2501,21.3193 c -3.2523,0.0051 -6.3791,1.2318 -8.737,3.4277 -2.3579,2.1959 -3.7676,5.1942 -3.9393,8.3779 v 0.0227 c 0.0042,0.2065 0.0091,0.4088 0.0091,0.6194 0,0.2106 -0.0049,0.4129 -0.0091,0.6193 v 0.0221 c -0.1642,4.8241 -2.1426,9.4182 -5.5544,12.8984 1.2098,1.7228 1.8725,3.7581 1.9046,5.8494 0,0.0358 0.0042,0.0689 0.0042,0.1026 v 0.0798 c 0,0.0619 0,0.1197 -0.0042,0.1824 -0.048,0.9044 -0.4471,1.7565 -1.1155,2.3817 -0.6747,0.6344 -1.5728,0.9895 -2.5076,0.9917 h -7.254 c -0.4467,0.001 -0.8897,-0.0805 -1.3058,-0.2402 -0.6526,-0.2485 -1.2183,-0.6763 -1.6292,-1.232 -0.4109,-0.5557 -0.6496,-1.2159 -0.6874,-1.9012 -0.0049,-0.0578 -0.0049,-0.1205 -0.0049,-0.1824 v -0.0798 c -10e-4,-0.0343 7e-4,-0.0685 0.0049,-0.1026 0.0319,-2.0897 0.6944,-4.1235 1.9039,-5.8446 -3.4093,-3.4743 -5.3874,-8.0618 -5.5537,-12.8798 -0.0091,-0.2182 -0.014,-0.4405 -0.014,-0.6627 0,-0.2223 0.0049,-0.4439 0.014,-0.6621 -0.1799,-3.1789 -1.5931,-6.17 -3.95,-8.3606 -2.3569,-2.1906 -5.4792,-3.4147 -8.72706,-3.4215 H 7.28223 v 7.1205 l 1.81541,-0.0145 c 1.35126,0.0014 2.65366,0.4952 3.65406,1.3855 1.0005,0.8903 1.6275,2.1135 1.7592,3.4317 0.0366,0.3432 0.0366,0.6891 0,1.0323 0.0987,5.1709 1.7332,10.2014 4.7035,14.4757 -0.5853,1.2067 -0.933,2.5109 -1.0249,3.8441 -0.0173,0.2399 -0.0262,0.4845 -0.0267,0.7336 0.0019,2.5598 0.9433,5.0336 2.6523,6.9691 1.0187,1.1613 2.2815,2.0929 3.7019,2.7311 1.4203,0.6383 2.9647,0.9679 4.5271,0.9664 h 7.2568 c 2.2482,-0.0062 4.4397,-0.6925 6.2753,-1.9652 1.8355,-1.2726 3.2256,-3.0696 3.9804,-5.1456 0.417,-1.1409 0.6289,-2.344 0.6263,-3.5558 0,-0.2491 -0.0092,-0.4937 -0.0274,-0.7336 -0.0914,-1.3353 -0.4407,-2.6414 -1.0292,-3.849 2.9833,-4.2878 4.6186,-9.3391 4.7036,-14.5286 -0.0309,-0.3046 -0.0309,-0.6114 0,-0.916 0.1173,-1.3296 0.7386,-2.5679 1.7415,-3.4705 1.0029,-0.9026 2.3145,-1.404 3.6759,-1.4052 l 1.8127,0.0145 v -7.1116 z"
       fill="#63b78f"
       id="path4" />
    <path
       d="m 90.0153,38.3125 h 7.8205 v 4.2977 c -1.7989,1.2362 -3.9597,1.8643 -6.1553,1.7892 -5.4701,0 -8.8679,-3.4959 -8.8679,-9.1238 0,-5.4565 3.6758,-9.1231 9.1466,-9.1231 2.5255,0.0096 4.9516,0.9659 6.7809,2.6729 l 0.6409,0.6283 4.265,-4.1806 -0.622,-0.629 c -1.427,-1.4477 -3.1405,-2.5933 -5.0362,-3.366 -1.8957,-0.7728 -3.9329,-1.1564 -5.9857,-1.1271 -9.226,0 -15.6691,6.2197 -15.6691,15.1246 0,9.0474 6.1687,15.1254 15.3504,15.1254 2.2286,0.0609 4.446,-0.3302 6.5131,-1.149 2.0675,-0.8188 3.9395,-2.0475 5.4995,-3.6091 l 0.265,-0.2608 V 32.5092 H 90.0153 Z"
       fill="#1c212d"
       id="path6" />
    <path
       d="m 122.683,30.179 c -1.85,-1.2565 -4.057,-1.9069 -6.306,-1.8581 -6.289,0 -10.682,4.5144 -10.682,10.9791 0,6.4647 4.393,10.9791 10.682,10.9791 2.249,0.0485 4.456,-0.6019 6.306,-1.858 l 0.022,1.4307 h 5.789 V 28.7483 h -5.789 z m -5.588,14.3305 c -3.061,0 -5.118,-2.0948 -5.118,-5.2122 0,-3.1174 2.057,-5.2122 5.118,-5.2122 3.06,0 5.117,2.0948 5.117,5.2122 0,3.1174 -2.057,5.2122 -5.117,5.2122 z"
       fill="#1c212d"
       id="path8" />
    <path
       d="m 143.867,28.3561 c -2.129,-0.048 -4.216,0.5841 -5.947,1.8009 l -0.021,-1.4094 h -5.791 V 49.847 h 6.283 V 38.7881 c 0,-2.7693 1.908,-4.7037 4.639,-4.7037 3.376,0 3.881,2.8002 3.881,4.469 V 49.847 h 6.282 V 38.2795 c 0,-5.9355 -3.748,-9.9234 -9.326,-9.9234 z"
       fill="#1c212d"
       id="path10" />
    <path
       d="m 168.213,32.1215 c -5.251,-0.7419 -5.925,-2.1141 -5.925,-3.2269 0,-1.7059 2.253,-2.944 5.358,-2.944 2.666,0.0178 5.257,0.8728 7.391,2.4396 l 0.745,0.5547 3.4,-4.6892 -0.687,-0.5224 c -3.136,-2.3241 -6.958,-3.5839 -10.889,-3.5888 -6.901,0 -11.719,3.5785 -11.719,8.7109 0,5.2673 3.576,8.0957 11.6,9.1727 5.457,0.7074 6.194,2.0273 6.194,3.2254 0,1.931 -2.275,3.1787 -5.796,3.1787 -3.165,0.0177 -6.246,-0.9975 -8.757,-2.8855 l -0.762,-0.6194 -3.488,4.9349 0.684,0.5154 c 3.558,2.6077 7.881,4.0169 12.323,4.0169 7.368,0 12.318,-3.7209 12.318,-9.2587 0.003,-5.1117 -3.586,-7.808 -11.99,-9.0143 z"
       fill="#1c212d"
       id="path12" />
    <path
       d="m 192.663,28.3184 c -6.736,0 -11.443,4.5144 -11.443,10.9791 0,6.4646 4.703,10.979 11.443,10.979 6.712,0 11.399,-4.5144 11.399,-10.979 0,-6.4647 -4.69,-10.9791 -11.399,-10.9791 z m 0,16.1913 c -3.037,0 -5.159,-2.143 -5.159,-5.2122 0,-3.0693 2.122,-5.2123 5.159,-5.2123 3.013,0 5.117,2.143 5.117,5.2123 0,3.0692 -2.104,5.2122 -5.117,5.2122 z"
       fill="#1c212d"
       id="path14" />
    <path
       d="m 235.165,43.545 -0.912,0.4253 c -0.652,0.3084 -1.363,0.4791 -2.086,0.501 -0.913,0 -1.846,-0.2567 -1.846,-2.1616 V 34.243 h 5.665 v -5.4937 h -5.665 v -5.6155 l -6.243,0.6606 v 4.9549 h -9.517 v -0.2842 c 0,-2.7486 1.66,-2.7486 2.206,-2.7486 0.893,0.019 1.757,0.3133 2.469,0.8409 l 0.817,0.5038 2.563,-4.6149 -0.658,-0.4562 c -1.602,-1.1757 -3.55,-1.8097 -5.551,-1.8065 -4.938,0 -8.128,3.2509 -8.128,8.2815 v 0.2842 h -3.711 v 5.5322 h 3.711 v 15.5671 h 6.282 V 34.2815 h 5.865 V 34.243 h 3.65 v 8.0667 c 0,4.9645 2.687,7.8114 7.371,7.8114 1.658,0.0226 3.299,-0.325 4.799,-1.0164 l 0.757,-0.3317 z"
       fill="#1c212d"
       id="path16" />
  </g>
</svg>
