<?xml version="1.0" encoding="UTF-8" standalone="no"?>
<svg
   width="199.99815"
   height="54.007"
   viewBox="0 0 199.99815 54.007"
   fill="none"
   version="1.1"
   id="svg18"
   sodipodi:docname="logo-h-white.svg"
   inkscape:version="1.3.2 (091e20e, 2023-11-25, custom)"
   xmlns:inkscape="http://www.inkscape.org/namespaces/inkscape"
   xmlns:sodipodi="http://sodipodi.sourceforge.net/DTD/sodipodi-0.dtd"
   xmlns="http://www.w3.org/2000/svg"
   xmlns:svg="http://www.w3.org/2000/svg">
  <defs
     id="defs22" />
  <sodipodi:namedview
     id="namedview20"
     pagecolor="#ffffff"
     bordercolor="#000000"
     borderopacity="0.25"
     inkscape:showpageshadow="2"
     inkscape:pageopacity="0.0"
     inkscape:pagecheckerboard="0"
     inkscape:deskcolor="#d1d1d1"
     showgrid="false"
     inkscape:zoom="1.2763713"
     inkscape:cx="163.74546"
     inkscape:cy="21.545455"
     inkscape:window-width="1600"
     inkscape:window-height="847"
     inkscape:window-x="-8"
     inkscape:window-y="22"
     inkscape:window-maximized="1"
     inkscape:current-layer="g163" />
  <g
     id="g163"
     transform="matrix(1.6877215,0,0,1.6877215,0.0049445,0)">
    <path
       d="m 28.176435,0 c -1.4654,1.67297 -3.2824,3.015695 -5.32645,3.93623 -2.0441,0.920535 -4.26695,1.39712 -6.5164,1.39712 -2.24945,0 -4.47235,-0.476585 -6.5164499,-1.39712 C 7.7730851,3.015695 5.9561351,1.67297 4.4906901,0 H -0.00292969 C 1.7260401,2.71952 4.1330301,4.962615 6.9911351,6.5177999 c 2.8581,1.5552 6.0731499,2.37125 9.3420499,2.37125 3.2689,0 6.484,-0.81605 9.3421,-2.37125 C 28.533385,4.962615 30.940385,2.71952 32.669335,0 Z"
       fill="#63b78f"
       id="path2"
       style="fill:#ffffff;stroke-width:0.5" />
    <path
       d="m 28.123585,10.65965 c -1.62615,0.0026 -3.18955,0.6159 -4.3685,1.71385 -1.17895,1.09795 -1.8838,2.5971 -1.96965,4.18895 v 0.01135 c 0.0021,0.10325 0.0046,0.2044 0.0046,0.3097 0,0.1053 -0.0025,0.20645 -0.0046,0.30965 v 0.01105 c -0.0821,2.41205 -1.0713,4.7091 -2.7772,6.4492 0.6049,0.8614 0.93625,1.87905 0.9523,2.9247 0,0.0179 0.0021,0.03445 0.0021,0.0513 v 0.0399 c 0,0.03095 0,0.05985 -0.0021,0.0912 -0.024,0.4522 -0.22355,0.87825 -0.55775,1.19085 -0.33735,0.3172 -0.7864,0.49475 -1.2538,0.49585 h -3.627 c -0.22335,5e-4 -0.44485,-0.04025 -0.6529,-0.1201 -0.3263,-0.12425 -0.60915,-0.33815 -0.8146,-0.616 -0.20545,-0.27785 -0.3248,-0.60795 -0.3437,-0.9506 -0.0024,-0.0289 -0.0024,-0.06025 -0.0024,-0.0912 v -0.0399 c -5e-4,-0.01715 3.5e-4,-0.03425 0.0024,-0.0513 0.01595,-1.04485 0.3472,-2.06175 0.95195,-2.9223 -1.70465,-1.73715 -2.6937,-4.0309 -2.77685,-6.4399 -0.0046,-0.1091 -0.007,-0.22025 -0.007,-0.33135 0,-0.11115 0.0024,-0.22195 0.007,-0.33105 -0.08995,-1.58945 -0.79655,-3.085 -1.9749999,-4.1803 -1.17845,-1.0953 -2.7396,-1.70735 -4.36353,-1.71075 h -0.907705 v 3.56025 l 0.907705,-0.0072 c 0.67563,7e-4 1.32683,0.2476 1.82703,0.69275 0.50025,0.44515 0.81375,1.05675 0.8796,1.71585 0.0183,0.1716 0.0183,0.34455 0,0.51615 0.04935,2.58545 0.8666,5.1007 2.35175,7.23785 -0.29265,0.60335 -0.4665,1.25545 -0.51245,1.92205 -0.00865,0.11995 -0.0131,0.24225 -0.01335,0.3668 9.5e-4,1.2799 0.47165,2.5168 1.3261499,3.48455 0.50935,0.58065 1.14075,1.04645 1.85095,1.36555 0.71015,0.31915 1.48235,0.48395 2.26355,0.4832 h 3.6284 c 1.1241,-0.0031 2.21985,-0.34625 3.13765,-0.9826 0.91775,-0.6363 1.6128,-1.5348 1.9902,-2.5728 0.2085,-0.57045 0.31445,-1.172 0.31315,-1.7779 0,-0.12455 -0.0046,-0.24685 -0.0137,-0.3668 -0.0457,-0.66765 -0.22035,-1.3207 -0.5146,-1.9245 1.49165,-2.1439 2.3093,-4.66955 2.3518,-7.2643 -0.01545,-0.1523 -0.01545,-0.3057 0,-0.458 0.05865,-0.6648 0.3693,-1.28395 0.87075,-1.73525 0.50145,-0.4513 1.15725,-0.702 1.83795,-0.7026 l 0.90635,0.0072 v -3.5558 z"
       fill="#63b78f"
       id="path4"
       style="fill:#ffffff;stroke-width:0.5" />
    <path
       d="m 45.006185,19.15625 h 3.91025 v 2.14885 c -0.89945,0.6181 -1.97985,0.93215 -3.07765,0.8946 -2.73505,0 -4.43395,-1.74795 -4.43395,-4.5619 0,-2.72825 1.8379,-4.56155 4.5733,-4.56155 1.26275,0.0048 2.4758,0.48295 3.39045,1.33645 l 0.32045,0.31415 2.1325,-2.0903 -0.311,-0.3145 c -0.7135,-0.72385 -1.57025,-1.29665 -2.5181,-1.683 -0.94785,-0.3864 -1.96645,-0.5782 -2.99285,-0.56355 -4.613,0 -7.83455,3.10985 -7.83455,7.5623 0,4.5237 3.08435,7.5627 7.6752,7.5627 1.1143,0.03045 2.223,-0.1651 3.25655,-0.5745 1.03375,-0.4094 1.96975,-1.02375 2.74975,-1.80455 l 0.1325,-0.1304 V 16.2546 h -6.97285 z"
       fill="#1c212d"
       id="path6"
       style="fill:#ffffff;stroke-width:0.5" />
    <path
       d="m 61.340035,15.0895 c -0.925,-0.62825 -2.0285,-0.95345 -3.153,-0.92905 -3.1445,0 -5.341,2.2572 -5.341,5.48955 0,3.23235 2.1965,5.48955 5.341,5.48955 1.1245,0.02425 2.228,-0.30095 3.153,-0.929 l 0.011,0.71535 h 2.8945 V 14.37415 h -2.8945 z m -2.794,7.16525 c -1.5305,0 -2.559,-1.0474 -2.559,-2.6061 0,-1.5587 1.0285,-2.6061 2.559,-2.6061 1.53,0 2.5585,1.0474 2.5585,2.6061 0,1.5587 -1.0285,2.6061 -2.5585,2.6061 z"
       fill="#1c212d"
       id="path8"
       style="fill:#ffffff;stroke-width:0.5" />
    <path
       d="m 71.932035,14.17805 c -1.0645,-0.024 -2.108,0.29205 -2.9735,0.90045 l -0.0105,-0.7047 h -2.8955 v 10.5497 h 3.1415 v -5.52945 c 0,-1.38465 0.954,-2.35185 2.3195,-2.35185 1.688,0 1.9405,1.4001 1.9405,2.2345 v 5.6468 h 3.141 v -5.78375 c 0,-2.96775 -1.874,-4.9617 -4.663,-4.9617 z"
       fill="#1c212d"
       id="path10"
       style="fill:#ffffff;stroke-width:0.5" />
    <path
       d="M 84.105034,16.06075 C 81.479535,15.6898 81.142535,15.0037 81.142535,14.4473 c 0,-0.85295 1.1265,-1.472 2.678999,-1.472 1.333,0.0089 2.6285,0.4364 3.6955,1.2198 l 0.3725,0.27735 1.7,-2.3446 -0.3435,-0.2612 c -1.568,-1.16205 -3.479,-1.79195 -5.4445,-1.7944 -3.450499,0 -5.859499,1.78925 -5.859499,4.35545 0,2.63365 1.788,4.04785 5.799999,4.58635 2.7285,0.3537 3.097,1.01365 3.097,1.6127 0,0.9655 -1.1375,1.58935 -2.898,1.58935 -1.582499,0.0088 -3.122999,-0.49875 -4.378499,-1.44275 l -0.381,-0.3097 -1.744,2.46745 0.342,0.2577 c 1.779,1.30385 3.9405,2.00845 6.161499,2.00845 3.684,0 6.159,-1.86045 6.159,-4.62935 0.0015,-2.55585 -1.793,-3.904 -5.995,-4.50715 z"
       fill="#1c212d"
       id="path12"
       style="fill:#ffffff;stroke-width:0.5" />
    <path
       d="m 96.330034,14.1592 c -3.368,0 -5.7215,2.2572 -5.7215,5.48955 0,3.2323 2.3515,5.4895 5.7215,5.4895 3.356,0 5.699496,-2.2572 5.699496,-5.4895 0,-3.23235 -2.344996,-5.48955 -5.699496,-5.48955 z m 0,8.09565 c -1.5185,0 -2.5795,-1.0715 -2.5795,-2.6061 0,-1.53465 1.061,-2.60615 2.5795,-2.60615 1.5065,0 2.5585,1.0715 2.5585,2.60615 0,1.5346 -1.052,2.6061 -2.5585,2.6061 z"
       fill="#1c212d"
       id="path14"
       style="fill:#ffffff;stroke-width:0.5" />
    <path
       d="m 117.58103,21.7725 -0.456,0.21265 c -0.326,0.1542 -0.6815,0.23955 -1.043,0.2505 -0.4565,0 -0.923,-0.12835 -0.923,-1.0808 V 17.1215 h 2.8325 v -2.74685 h -2.8325 V 11.5669 l -3.1215,0.3303 v 2.47745 h -4.7585 v -0.1421 c 0,-1.3743 0.83,-1.3743 1.103,-1.3743 0.4465,0.0095 0.8785,0.15665 1.2345,0.42045 l 0.4085,0.2519 1.2815,-2.30745 -0.329,-0.2281 c -0.801,-0.58785 -1.775,-0.90485 -2.7755,-0.90325 -2.469,0 -4.064,1.62545 -4.064,4.14075 v 0.1421 h -1.8555 v 2.7661 h 1.8555 v 7.78355 h 3.141 v -7.78355 h 2.9325 V 17.1215 h 1.825 v 4.03335 c 0,2.48225 1.3435,3.9057 3.6855,3.9057 0.829,0.0113 1.6495,-0.1625 2.3995,-0.5082 l 0.3785,-0.16585 z"
       fill="#1c212d"
       id="path16"
       style="fill:#ffffff;stroke-width:0.5" />
  </g>
</svg>
