<?xml version="1.0" encoding="UTF-8" standalone="no"?>
<!-- Generator: Adobe Illustrator 23.0.2, SVG Export Plug-In . SVG Version: 6.00 Build 0)  -->

<svg
   version="1.1"
   id="Layer_1"
   x="0px"
   y="0px"
   viewBox="0 0 512 512"
   xml:space="preserve"
   sodipodi:docname="logo-v-color@2x.svg"
   width="512"
   height="512"
   inkscape:version="1.2.1 (9c6d41e410, 2022-07-14)"
   xmlns:inkscape="http://www.inkscape.org/namespaces/inkscape"
   xmlns:sodipodi="http://sodipodi.sourceforge.net/DTD/sodipodi-0.dtd"
   xmlns="http://www.w3.org/2000/svg"
   xmlns:svg="http://www.w3.org/2000/svg"
   xmlns:rdf="http://www.w3.org/1999/02/22-rdf-syntax-ns#"
   xmlns:cc="http://creativecommons.org/ns#"
   xmlns:dc="http://purl.org/dc/elements/1.1/"><defs
   id="defs198" /><sodipodi:namedview
   id="namedview196"
   pagecolor="#ffffff"
   bordercolor="#000000"
   borderopacity="0.25"
   inkscape:showpageshadow="2"
   inkscape:pageopacity="0.0"
   inkscape:pagecheckerboard="0"
   inkscape:deskcolor="#d1d1d1"
   showgrid="false"
   inkscape:zoom="0.81125"
   inkscape:cx="144.83821"
   inkscape:cy="283.5131"
   inkscape:window-width="1600"
   inkscape:window-height="829"
   inkscape:window-x="-8"
   inkscape:window-y="-8"
   inkscape:window-maximized="1"
   inkscape:current-layer="Layer_1" />
<style
   type="text/css"
   id="style175">
	.st0{fill:#63B78F;}
	.st1{fill:#0E1914;}
</style>
    <title
   id="title177">GanSoft_Secundario</title>
    
    
    
    
    
    
    
    <g
   id="g220"
   transform="matrix(1.28,0,0,1.28,-0.128,0)"><path
     class="st0"
     d="m 252.2,79.2 c -13.1,15.2 -32.2,24 -52.2,24 -20.1,0 -39.2,-8.8 -52.2,-24 H 128 c 15.5,24.9 42.8,40 72.1,40 29.3,0 56.5,-15.1 72.1,-40 z"
     id="path179" /><path
     class="st0"
     d="m 252,127.1 c -14.9,0 -27.2,11.7 -28,26.6 v 0 c 0,0.5 0,0.9 0,1.4 0,0.5 0,0.9 0,1.4 v 0 c -0.4,10.8 -4.7,21.2 -12.3,29 2.7,3.9 4.1,8.5 4.2,13.2 0,0.1 0,0.1 0,0.2 v 0.2 c 0,0.1 0,0.3 0,0.4 -0.1,2 -1,4 -2.5,5.4 -1.5,1.4 -3.5,2.2 -5.5,2.2 h -16 c -1,0 -2,-0.2 -2.9,-0.5 -2.9,-1.1 -4.9,-3.9 -5.1,-7.1 0,-0.1 0,-0.3 0,-0.4 v 0 c 0,-0.1 0,-0.2 0,-0.2 0.1,-4.7 1.5,-9.3 4.2,-13.1 -7.5,-7.8 -11.9,-18.2 -12.3,-29 0,-0.5 0,-1 0,-1.5 0,-0.5 0,-1 0,-1.5 -0.8,-14.9 -13.1,-26.5 -28,-26.5 h -4 v 16 h 4 c 6.2,0 11.4,4.7 12,10.9 0.1,0.8 0.1,1.5 0,2.3 0.2,11.6 3.8,23 10.4,32.6 -1.3,2.7 -2.1,5.7 -2.3,8.6 0,0.5 -0.1,1.1 -0.1,1.6 0,5.8 2.1,11.3 5.9,15.7 4.6,5.3 11.2,8.3 18.1,8.3 h 16 c 10.2,0 19.2,-6.4 22.6,-16 0.9,-2.6 1.4,-5.3 1.4,-8 0,-0.6 0,-1.1 -0.1,-1.6 -0.2,-3 -1,-5.9 -2.3,-8.7 6.6,-9.6 10.2,-21 10.4,-32.7 -0.1,-0.7 -0.1,-1.4 0,-2.1 0.5,-6.2 5.7,-11 11.9,-11 h 4 v -16 z"
     id="path181" /><path
     class="st1"
     d="m 53,293.6 h 17.3 v 9.7 c -4,2.8 -8.7,4.2 -13.6,4 -12.1,0 -19.6,-7.9 -19.6,-20.5 0,-12.3 8.1,-20.5 20.2,-20.5 5.6,0 10.9,2.2 14.9,6 l 1.4,1.4 9.4,-9.4 -1.4,-1.4 c -6.4,-6.6 -15.2,-10.2 -24.3,-10.1 -20.3,0 -34.6,14 -34.6,34 0,20.4 13.6,34 33.9,34 10.6,0 19.3,-3.5 26.5,-10.7 l 0.6,-0.6 v -29 H 53 Z"
     id="path183" /><path
     class="st1"
     d="m 125.1,275.4 c -4.1,-2.8 -8.9,-4.3 -13.9,-4.2 -13.9,0 -23.6,10.2 -23.6,24.7 0,14.5 9.7,24.7 23.6,24.7 5,0.1 9.8,-1.4 13.9,-4.2 v 3.2 h 12.8 v -47.5 h -12.7 z m -12.4,32.2 c -6.8,0 -11.3,-4.7 -11.3,-11.7 0,-7 4.5,-11.7 11.3,-11.7 6.8,0 11.3,4.7 11.3,11.7 0,7 -4.5,11.7 -11.3,11.7 z"
     id="path185" /><path
     class="st1"
     d="m 171.8,271.3 c -4.7,-0.1 -9.3,1.3 -13.1,4 v -3.2 h -12.8 v 47.5 h 13.9 v -24.9 c 0,-6.2 4.2,-10.6 10.2,-10.6 7.4,0 8.6,6.3 8.6,10.1 v 25.4 h 13.9 v -26 c -0.2,-13.4 -8.4,-22.3 -20.7,-22.3 z"
     id="path187" /><path
     class="st1"
     d="m 225.5,279.7 c -11.6,-1.7 -13.1,-4.8 -13.1,-7.3 0,-3.8 5,-6.6 11.8,-6.6 5.9,0 11.6,2 16.3,5.5 l 1.6,1.3 7.5,-10.6 -1.5,-1.2 c -6.9,-5.2 -15.3,-8.1 -24,-8.1 -15.2,0 -25.8,8.1 -25.8,19.6 0,11.9 7.9,18.2 25.6,20.6 12,1.6 13.7,4.6 13.7,7.3 0,4.3 -5,7.1 -12.8,7.1 -7.1,0 -14.5,-2.5 -19.3,-6.5 l -1.7,-1.4 -7.7,11.1 1.5,1.2 c 7.9,5.9 17.4,9 27.2,9 16.3,0 27.2,-8.4 27.2,-20.8 -0.1,-11.4 -8,-17.5 -26.5,-20.2 z"
     id="path189" /><path
     class="st1"
     d="m 279.4,271.2 c -14.9,0 -25.2,10.2 -25.2,24.7 0,14.5 10.4,24.7 25.2,24.7 14.8,0 25.1,-10.2 25.1,-24.7 0,-14.5 -10.3,-24.7 -25.1,-24.7 z m 0,36.4 c -6.7,0 -11.4,-4.8 -11.4,-11.7 0,-6.9 4.7,-11.7 11.4,-11.7 6.7,0 11.3,4.8 11.3,11.7 0,6.9 -4.7,11.7 -11.3,11.7 z"
     id="path191" /><path
     class="st1"
     d="m 373.1,305.4 -2,1 c -1.4,0.7 -3,1.1 -4.6,1.1 -2,0 -4.1,-0.6 -4.1,-4.9 V 284.4 H 375 V 272 h -12.5 v -12.6 l -13.8,1.5 V 272 h -21 v -0.6 c 0,-6.2 3.7,-6.2 4.9,-6.2 1.8,0 3.2,0.5 5.5,1.9 l 1.8,1.1 5.7,-10.3 -1.5,-1 c -3.5,-2.6 -7.8,-4.1 -12.2,-4.1 -10.9,0 -17.9,7.3 -17.9,18.6 v 0.6 h -8.2 v 12.4 h 8.2 v 35 h 13.9 v -35 h 12.9 v -0.1 h 8.1 v 18.1 c 0,11.2 5.9,17.6 16.3,17.6 3.7,0.1 7.3,-0.7 10.6,-2.3 l 1.7,-0.8 z"
     id="path193" /></g>
<metadata
   id="metadata222"><rdf:RDF><cc:Work
       rdf:about=""><dc:title>GanSoft_Secundario</dc:title></cc:Work></rdf:RDF></metadata></svg>
