<svg width="50" height="51" viewBox="0 0 50 51" fill="none" xmlns="http://www.w3.org/2000/svg">
    <path d="M28.4868 5.5C17.4668 5.5 10.5288 8.98117 10.9958 11.9507C11.1305 12.8013 11.501 16.2037 11.9703 19.1076C6.57028 21.15 4.78076 24.4628 5.02101 27.1633C5.30617 30.358 8.25651 33.778 14.7387 34.3684C18.439 34.7051 22.8915 32.7284 25.7767 29.35C25.4274 28.7704 25.2837 28.0951 25.3676 27.4281C25.4515 26.7611 25.7584 26.1395 26.241 25.6593C26.7236 25.179 27.355 24.8667 28.0379 24.7705C28.7208 24.6744 29.4172 24.7997 30.0197 25.1272C30.6222 25.4547 31.0973 25.9662 31.3718 26.5827C31.6462 27.1993 31.7047 27.8866 31.5383 28.5388C31.3719 29.1909 30.9897 29.7716 30.4508 30.1913C29.912 30.6109 29.2462 30.8463 28.5564 30.861C25.1233 35.1753 19.894 37.7796 14.9408 37.4756C15.0553 38.1841 15.098 39.5464 15.1564 39.9094C15.3584 41.1755 20.4261 44.8513 28.4868 44.86C36.5475 44.8513 41.6152 41.1755 41.8195 39.9116C42.0171 38.6499 45.5041 14.9639 45.9778 11.9507C46.4448 8.98117 39.5046 5.5 28.4868 5.5ZM8.15098 26.8965C8.02749 25.4905 9.1726 23.6209 12.471 22.2193L13.9147 31.1277C10.3132 30.4433 8.30591 28.6153 8.15098 26.8965ZM28.4868 16.4858C20.4261 16.4814 14.7073 13.5688 14.7073 12.4798C14.7028 11.3996 20.4261 8.56571 28.4868 8.57008C36.5475 8.56571 42.2708 11.3996 42.2663 12.4798C42.2663 13.5688 36.5475 16.4814 28.4868 16.4858Z" fill="#B7D6C7"/>
</svg>
