<svg width="46" height="45" viewBox="0 0 46 45" fill="none" xmlns="http://www.w3.org/2000/svg">
    <path fill-rule="evenodd" clip-rule="evenodd" d="M24.957 12.2182C24.957 13.1795 25.7364 13.9589 26.6978 13.9589H34.3571C35.2828 13.9589 36.0875 14.5941 36.3025 15.4945L41.5641 37.5356C41.8642 38.7927 40.9112 40 39.6188 40H5.88149C4.58912 40 3.63607 38.7927 3.93615 37.5356L9.19782 15.4945C9.41276 14.5941 10.2175 13.9589 11.1432 13.9589H18.8025C19.7639 13.9589 20.5433 13.1795 20.5433 12.2182C20.5433 11.2568 19.7639 10.4775 18.8025 10.4775H8.17543C5.86212 10.4775 3.88698 9.01571 3.10673 6.95717C2.71524 5.9243 3.64558 5 4.75015 5H40.7501C41.8547 5 42.7851 5.9243 42.3936 6.95717C41.6133 9.01571 39.6382 10.4775 37.3249 10.4775H26.6978C25.7364 10.4775 24.957 11.2568 24.957 12.2182ZM15.9134 21.2879C15.8279 19.7774 17.2953 17.1452 17.2953 17.1452C17.3131 17.1121 17.3329 17.0644 17.3545 17.0124C17.4564 16.767 17.5975 16.4273 17.7523 17.0856C17.8497 17.5003 17.7818 18.0729 17.7021 18.7443C17.6284 19.3655 17.5447 20.0712 17.5726 20.8144C17.6159 21.9636 18.4977 22.2516 18.9478 22.3238C18.9395 22.2971 18.9319 22.2703 18.9249 22.2433C18.9842 22.3661 19.2924 22.3298 19.7895 22.2713C20.0401 22.2418 20.3386 22.2067 20.6774 22.1834C21.5211 22.0674 22.0408 22.1407 22.2914 22.2014C22.397 22.2119 22.5045 22.2245 22.6135 22.2394C23.6369 22.1271 24.3382 22.2962 24.8045 22.524C25.334 22.5672 25.4898 22.5204 25.5639 22.385C25.5391 22.4493 25.5139 22.5051 25.4855 22.568C25.5396 22.5583 25.5967 22.5459 25.6558 22.53C25.752 22.4607 25.8488 22.3845 25.9435 22.3022C25.8874 22.3634 25.8362 22.4258 25.7891 22.4887C26.2218 22.3369 26.7002 21.9838 26.7808 21.1689C26.8539 20.4295 26.8138 19.7206 26.7784 19.0965C26.7401 18.4208 26.7075 17.8444 26.8304 17.4365C27.0248 16.7893 27.1449 17.1364 27.2318 17.3876C27.2343 17.3947 27.2367 17.4017 27.2391 17.4087C27.2546 17.4538 27.2686 17.4945 27.2824 17.5242C27.2824 17.5242 28.5859 20.2412 28.4077 21.7438C28.2766 22.8493 27.9354 23.1757 27.0378 23.767C27.1483 23.7776 27.1938 23.7821 27.1942 23.7892C27.1945 23.7942 27.1722 23.8005 27.1346 23.8112C27.0999 23.8211 27.0522 23.8347 26.997 23.8544L27.3608 24.0221C28.9056 24.3784 29.2371 24.2728 30.49 23.8737L30.5995 23.8388C31.944 23.4113 32.7797 23.6965 30.9258 25.2243C29.0718 26.752 27.1776 26.1412 27.1776 26.1412C27.1776 26.1412 27.7481 26.9769 27.5649 29.6041C27.4704 30.9594 27.0343 31.4205 26.6454 31.8317C26.2804 32.2176 25.9569 32.5596 25.9962 33.5557C26.0056 33.793 26.0073 34.0089 26.0032 34.2051C26.0437 34.2619 26.0705 34.3258 26.0839 34.3974C26.1651 34.8307 26.2743 36.6236 24.97 37.0986C24.784 37.1664 24.5985 37.2444 24.4096 37.3238C23.2748 37.801 22.0196 38.3288 19.7962 36.9901C19.7962 36.9901 18.4926 36.4663 18.811 34.5756L18.8124 34.5764C18.8273 34.489 18.8665 34.4088 18.9247 34.3443C18.9396 34.1543 18.9528 33.9581 18.9482 33.7597C18.9365 33.2515 18.5195 32.4269 18.1001 31.5975C17.7972 30.9985 17.493 30.3969 17.3393 29.9102C16.9989 28.8323 17.7713 26.5294 17.8829 26.207C17.8691 26.1974 17.8558 26.1873 17.8431 26.1767C15.3827 26.5167 14.3822 25.6104 13.7541 25.0414C13.6716 24.9668 13.5956 24.8978 13.5235 24.8384C12.8983 24.3224 12.6001 23.2366 14.2838 23.9696C15.7073 24.5893 17.308 24.2654 17.7687 24.1505C17.7379 23.9693 17.6377 23.7772 17.4417 23.6027C16.3659 22.8097 15.9828 22.515 15.9134 21.2879ZM25.5639 22.385C25.5889 22.3202 25.6136 22.2467 25.6409 22.1484C25.6356 22.1678 25.6306 22.1864 25.6258 22.2043C25.6067 22.276 25.5906 22.3363 25.5639 22.385Z" fill="#B7D6C7"/>
</svg>
