<svg width="51" height="51" viewBox="0 0 51 51" fill="none" xmlns="http://www.w3.org/2000/svg">
    <path fill-rule="evenodd" clip-rule="evenodd" d="M16.1939 11.7817H18.745C18.651 11.3674 18.5902 10.9096 18.5902 10.3973C18.5902 6.59302 21.6941 3.5 25.5138 3.5C29.3336 3.5 32.4374 6.59302 32.4374 10.3973C32.4374 10.9096 32.3656 11.3647 32.2495 11.7817H34.7978C37.9072 11.7817 40.4279 14.1879 40.4279 17.1529L46 41.6109C46 44.5813 43.8165 46.9848 40.7016 46.9848H10.2984C7.18626 46.9848 5 44.5813 5 41.6109L10.561 17.1529C10.561 14.1879 13.0817 11.7817 16.1939 11.7817ZM30.1323 10.3973C30.1323 7.81115 28.0622 5.7019 25.5138 5.7019C22.9682 5.7019 20.8981 7.80842 20.8981 10.3973C20.8981 10.8824 20.992 11.3402 21.1275 11.7817H29.9057C30.0503 11.3338 30.1267 10.8673 30.1323 10.3973ZM23.9688 30.9693V39.0329H27.0312V31.0265L32.9267 30.9693L25.3812 22.6304L18.2945 30.9693H23.9688Z" fill="#B7D6C7"/>
</svg>
