<?xml version="1.0" encoding="UTF-8" standalone="no"?>
<svg
   width="150"
   height="150"
   viewBox="0 0 150 150"
   fill="none"
   version="1.1"
   id="svg39"
   sodipodi:docname="icon9.svg"
   inkscape:export-filename="icon9.png"
   inkscape:export-xdpi="96"
   inkscape:export-ydpi="96"
   inkscape:version="1.3.2 (091e20e, 2023-11-25, custom)"
   xmlns:inkscape="http://www.inkscape.org/namespaces/inkscape"
   xmlns:sodipodi="http://sodipodi.sourceforge.net/DTD/sodipodi-0.dtd"
   xmlns="http://www.w3.org/2000/svg"
   xmlns:svg="http://www.w3.org/2000/svg">
  <defs
     id="defs39" />
  <sodipodi:namedview
     id="namedview39"
     pagecolor="#ffffff"
     bordercolor="#000000"
     borderopacity="0.25"
     inkscape:showpageshadow="2"
     inkscape:pageopacity="0.0"
     inkscape:pagecheckerboard="0"
     inkscape:deskcolor="#d1d1d1"
     inkscape:zoom="1.8083334"
     inkscape:cx="124.42396"
     inkscape:cy="71.059905"
     inkscape:window-width="1600"
     inkscape:window-height="847"
     inkscape:window-x="-8"
     inkscape:window-y="22"
     inkscape:window-maximized="1"
     inkscape:current-layer="g1" />
  <g
     id="g1"
     transform="scale(3.3333333)">
    <path
       d="m 25.1497,41.8438 v 1.5705 c 0,0.3238 -0.7628,0.5865 -1.7045,0.5865 -0.9417,0 -1.7045,-0.2627 -1.7045,-0.5865 v -1.5705 z"
       fill="#414143"
       id="path1" />
    <path
       d="m 23.4452,42.3391 c -0.9414,0 -1.7045,-0.2626 -1.7045,-0.5865 0,-0.324 0.7631,-0.5866 1.7045,-0.5866 0.9414,0 1.7045,0.2626 1.7045,0.5866 0,0.3239 -0.7631,0.5865 -1.7045,0.5865 z"
       fill="#8e9292"
       id="path2" />
    <path
       d="m 24.5413,40.5645 v 1.0107 c 0,0.2082 -0.491,0.3773 -1.0968,0.3773 -0.6058,0 -1.0968,-0.1691 -1.0968,-0.3773 v -1.0107 h 2.1927 z"
       fill="#414143"
       id="path3" />
    <path
       d="m 38.9837,36.2793 v 1.5705 c 0,0.3238 -0.76277,0.5866 -1.70452,0.5866 -0.94174,0 -1.70452,-0.2628 -1.70452,-0.5866 v -1.5705 z"
       fill="#414143"
       id="path4" />
    <path
       d="m 37.27918,36.7747 c -0.94138,0 -1.70452,-0.2626 -1.70452,-0.5866 0,-0.3239 0.76314,-0.5865 1.70452,-0.5865 0.94138,0 1.70452,0.2626 1.70452,0.5865 0,0.324 -0.76314,0.5866 -1.70452,0.5866 z"
       fill="#8e9292"
       id="path5" />
    <path
       d="m 38.37677,35 v 1.0107 c 0,0.2083 -0.49097,0.3773 -1.09679,0.3773 -0.60582,0 -1.09679,-0.169 -1.09679,-0.3773 V 35 Z"
       fill="#414143"
       id="path6" />
    <path
       d="m 4.409,31.6543 v 1.5705 c 0,0.3239 -0.7628,0.5866 -1.7045,0.5866 C 1.7627,33.8114 1,33.5487 1,33.2248 v -1.5705 z"
       fill="#414143"
       id="path7" />
    <path
       d="M 2.7045,32.1506 C 1.7631,32.1506 1,31.888 1,31.5641 c 0,-0.324 0.7631,-0.5866 1.7045,-0.5866 0.9414,0 1.7045,0.2626 1.7045,0.5866 0,0.3239 -0.7631,0.5865 -1.7045,0.5865 z"
       fill="#8e9292"
       id="path8" />
    <path
       d="m 3.8001,30.375 v 1.0107 c 0,0.2083 -0.491,0.3773 -1.0968,0.3773 -0.6058,0 -1.0968,-0.169 -1.0968,-0.3773 V 30.375 h 2.1926 z"
       fill="#414143"
       id="path9" />
    <path
       d="M 38.07159,31.7616 16.1243,21.0088 1,28.3751 22.9606,39.1843 Z"
       fill="#d8dddc"
       id="path10" />
    <path
       d="M 22.9606,41.6424 38.07159,34.2522 V 31.7627 L 22.9606,39.1529 Z"
       fill="#99a1a0"
       id="path11" />
    <path
       d="M 1.0111,30.8606 22.9612,41.6421 V 39.1526 L 1.0111,28.3721 Z"
       fill="#cbcfce"
       id="path12" />
    <path
       d="M 6.5841,4.82129 C 6.1538,5.61433 5.0747,7.11641 5.0579,8.45382 5.0411,9.79124 5.3571,10.5171 4.7688,11.8243 4.1805,13.1314 4.0931,13.7497 3.2795,14.862 2.466,15.9743 2.8526,19.096 2.8526,19.096 c 0,0 1.5531,-1.4684 1.6002,-2.9268 0.0437,-1.4584 0.5883,-2.7689 0.5715,-3.4444 -0.0169,-0.6754 2.454,-3.45441 2.454,-3.45441 z"
       fill="#946c45"
       id="path13" />
    <path
       d="m 13.764,14.2563 c -0.4942,1.6835 -1.7347,4.3886 -2.8743,4.6709 -1.1396,0.2823 -1.2876,2.8596 -0.7934,4.0996 0.4942,1.24 1.8826,3.5183 1.4388,4.1131 -0.4471,0.5948 -0.9917,-0.2487 -0.9917,-0.2487 0,0 0.1984,1.2467 -0.4471,0.8703 C 9.4509,27.3852 9.3534,26.9887 9.155,26.3972 8.9567,25.8025 9.2828,24.465 8.7987,23.5241 8.3146,22.5833 7.0237,18.2114 7.0741,17.6234 c 0.0504,-0.5881 2.3801,-5.6992 2.528,-5.7966 0.148,-0.0941 4.1619,2.4329 4.1619,2.4329 z"
       fill="#784f36"
       id="path14" />
    <path
       d="m 29.3192,18.2817 c -0.0807,1.5088 -0.4774,3.6325 -0.9144,4.7179 -0.437,1.0854 0.5144,1.4584 0.2891,2.5068 -0.2252,1.0485 -0.7261,2.0263 -0.6791,3.2159 0.0438,1.1895 1.3481,3.5586 0.6522,4.2979 -0.6959,0.7392 -0.9682,-0.3966 -0.9682,-0.3966 0,0 0.1816,0.6519 -0.4067,0.6486 -0.5883,-0.0067 -0.6522,-1.2635 -0.901,-2.3153 -0.2487,-1.0551 0.2219,-2.5774 0.2219,-3.1218 0,-0.5443 -0.5883,-2.7655 -0.2958,-3.6291 0.2924,-0.8636 -0.5043,-4.5667 -0.5043,-4.5667 l 3.5097,-1.361 z"
       fill="#784f36"
       id="path15" />
    <path
       d="m 7.6701,26.1533 c 0,0 0.8169,2.5304 0.4203,2.8765 -0.3967,0.3461 -0.8875,0 -0.8875,0 0,0 -0.2455,0.6519 -1.0859,0.1546 C 5.2766,28.6837 5.3539,26.9531 5.3539,26.9531 l 2.3162,-0.7964 z"
       fill="#946c45"
       id="path16" />
    <path
       d="m 26.3948,32.9204 c 0,0 0.7833,1.8213 0.4236,2.0027 -0.3597,0.1815 -0.6824,-0.1814 -0.6824,-0.1814 0,0 0.1412,0.9039 -0.7631,0.4805 -0.9043,-0.4201 -1.301,-1.9423 -1.301,-1.9423 l 2.3196,-0.3629 z"
       fill="#946c45"
       id="path17" />
    <path
       d="m 34.17687,8.06105 c 0,0 1.1161,-0.59479 1.71785,-0.59815 0.59839,-0.00336 1.74474,0.59815 1.74474,0.59815 0,0 -0.59839,1.24668 -1.33461,1.20972 C 35.56863,9.23717 34.99713,8.81712 34.53321,9.09603 34.06929,9.37494 34.18023,8.06105 34.18023,8.06105 Z"
       fill="#946c45"
       id="path18" />
    <path
       d="m 7.0678,15.2855 c 0.3463,0.326 0.8102,0.615 1.3447,0.8737 2.7533,1.3811 7.453,2.0935 8.3472,3.31 1.0758,1.4651 5.3788,3.115 9.1574,3.2662 1.6405,0.0639 3.3248,-1.5962 4.70307,-3.4947 0.58494,-0.8099 1.11946,-1.6701 1.56993,-2.4565 0.9312,-1.6096 1.50942,-2.9167 1.50942,-2.9167 L 33.51799,13.4205 31.32277,8.05406 31.2589,7.89612 C 30.75464,8.36657 29.9142,8.99495 28.983,9.18985 28.0585,9.38475 27.1845,8.44722 25.4767,7.89612 23.7723,7.3383 22.7033,7.43911 20.7568,6.7536 18.807,6.07481 15.7243,2.36835 12.1239,2.02896 8.5167,1.68284 6.3383,4.51561 5.8475,6.46461 5.7231,6.96867 5.6021,7.65754 5.5281,8.45058 5.3096,10.7323 5.4777,13.7969 7.0678,15.2788 Z"
       fill="#c4996d"
       id="path19" />
    <path
       d="m 23.9197,19.4056 c 1.2573,0.168 2.565,0.0638 3.6441,-0.5411 0.7228,-0.4032 1.4388,-1.0047 2.1045,-1.6835 -0.4539,-0.8804 -1.0052,-1.5592 -1.8288,-1.3945 -2.1314,0.4267 -2.9113,2.4261 -3.9232,3.6191 z"
       fill="#d9ddfd"
       id="path20" />
    <path
       d="m 31.43761,14.9521 c 0.29584,0.457 0.31265,1.0484 0.45384,1.4651 0.0437,0.1378 0.15128,0.2654 0.30255,0.3696 0.93121,-1.6096 1.50943,-2.9168 1.50943,-2.9168 L 33.52189,13.4231 31.32668,8.05664 c -1.04887,0.52085 -1.76158,1.79779 -1.95988,3.21586 -0.3765,2.6009 1.77834,3.2158 2.07418,3.6762 z"
       fill="#946c45"
       id="path21" />
    <path
       d="m 7.0677,15.2872 c 0.3463,0.326 0.8102,0.615 1.3447,0.8737 0.2891,0.1445 0.5984,0.2823 0.9245,0.4133 0.4908,0.1949 1.0119,0.3831 1.5397,0.5545 0.168,0.0571 0.3395,0.1142 0.5076,0.1646 1.5834,0.5041 3.1936,0.9376 4.266,1.4248 0.0807,0.037 0.1647,0.0739 0.2387,0.1143 0,0 0.0022,0.0022 0.0067,0.0067 0.0807,0.037 0.158,0.0739 0.2253,0.121 0.0706,0.0437 0.1378,0.0806 0.2017,0.1243 0.0638,0.037 0.121,0.0806 0.1681,0.1243 0.1075,0.0807 0.1949,0.168 0.2655,0.2655 1.0758,1.4651 5.3788,3.115 9.1574,3.2663 h 0.0874 c 0.0942,0 0.1883,-0.0068 0.2824,-0.0202 0.0235,0 0.0504,0 0.0706,-0.0067 0.074,-0.0135 0.1513,-0.0235 0.232,-0.0437 0.2756,-0.0639 0.5479,-0.1647 0.8236,-0.3125 0.0639,-0.0235 0.121,-0.0639 0.1748,-0.0941 0.3765,-0.2151 0.7463,-0.4906 1.1127,-0.8233 0.0706,-0.0571 0.1311,-0.121 0.195,-0.1815 0.6085,-0.5712 1.18671,-1.2769 1.72123,-2.0094 1.79853,-2.4833 3.07935,-5.3732 3.07935,-5.3732 l -0.18153,-0.447 c -0.33954,-0.4603 -0.54796,-0.7426 -0.54796,-0.7426 -0.03698,0.2386 -1.46908,2.6379 -3.30119,4.4995 -0.6657,0.6788 -1.3817,1.2803 -2.1045,1.6835 -1.0825,0.6015 -2.3868,0.7091 -3.6441,0.5411 C 22.0342,19.1583 20.2793,18.2779 19.57,17.4681 18.3934,16.1172 16.4907,15.9156 13.4853,15.4653 11.0144,15.0957 7.4711,11.9101 5.5213,8.45898 5.3028,10.7407 5.4709,13.8053 7.061,15.2872 Z"
       fill="#946c45"
       id="path22" />
    <path
       d="m 8.4126,16.1592 c 0.2892,0.1445 0.5984,0.2822 0.9245,0.4133 0.4908,0.1949 1.0119,0.3831 1.5397,0.5545 0.1681,0.0571 0.3395,0.1142 0.5076,0.1646 1.5834,0.5041 3.1937,0.9375 4.2661,1.4248 0.0807,0.037 0.1647,0.0739 0.2387,0.1142 0,0 0.0022,0.0023 0.0067,0.0068 0.0807,0.0369 0.158,0.0739 0.2252,0.1209 0.0706,0.0437 0.1378,0.0807 0.2017,0.1244 0.0639,0.0369 0.121,0.0806 0.1681,0.1243 0.1076,0.0807 0.195,0.168 0.2656,0.2655 1.0757,1.4651 5.3788,3.115 9.1574,3.2662 h 0.0874 c 0.0941,0 0.1882,-0.0067 0.2824,-0.0201 0.0235,0 0.0504,0 0.0706,-0.0068 0.0739,-0.0134 0.1512,-0.0235 0.2319,-0.0436 0.2757,-0.0639 0.548,-0.1647 0.8236,-0.3126 0.0639,-0.0235 0.1211,-0.0638 0.1749,-0.094 0.3765,-0.2151 0.7463,-0.4907 1.1127,-0.8233 0.0706,-0.0572 0.1311,-0.121 0.195,-0.1815 0.6084,-0.5712 1.18667,-1.2769 1.72118,-2.0095 -0.30928,-0.6082 -0.59839,-1.3878 -0.94798,-2.0599 -0.6657,0.6788 -1.3817,1.2803 -2.1045,1.6836 -1.0825,0.6015 -2.3868,0.709 -3.6441,0.541 -0.5715,0.6855 -1.2203,1.1123 -2.2389,0.8367 -2.8104,-0.7527 -2.4877,-2.7588 -5.0796,-3.1352 -2.5953,-0.3764 -4.814,-1.4584 -6.2159,-1.9423 -0.5715,-0.2016 -1.3077,0.2957 -1.9733,0.9913 z"
       fill="#b0b5f1"
       id="path23" />
    <path
       d="m 30.1497,11.928 c 0.54124,2.5639 2.78352,2.3993 3.21719,2.7252 0.44039,0.326 0.65218,0.8737 0.9312,1.2131 0.23196,0.3024 0.80346,0.3596 1.45227,0.3024 0.09413,-0.0134 0.19498,-0.0235 0.29584,-0.0369 0.76647,-0.1143 1.31444,-0.3327 1.25729,-0.7662 v -0.0235 c 0,-0.0202 -0.0067,-0.037 -0.0067,-0.0571 -0.0067,-0.4201 0.31937,-0.8939 0.0067,-1.277 C 37.27995,13.9845 37.25306,13.9442 37.22281,13.9072 36.81267,13.3292 35.77053,11.481 35.72011,10.557 35.66296,9.57573 35.05448,7.95604 34.07958,7.66705 30.80524,6.67911 29.6051,9.35731 30.1497,11.928 Z"
       fill="#c4996d"
       id="path24" />
    <path
       d="m 35.12157,15.9306 c 0.1143,0.0739 0.35971,0.1579 0.62865,0.2386 0.09413,-0.0135 0.19498,-0.0236 0.29583,-0.037 0.76648,-0.1143 1.31444,-0.3327 1.25729,-0.7662 v -0.0235 c 0,-0.0201 -0.0067,-0.0369 -0.0067,-0.0571 -0.21515,-0.0639 -0.44711,-0.0739 -0.60848,0.0504 -0.21515,0.1579 -0.30928,0.5847 -0.79337,0.5981 -0.47737,0.0135 -1.37159,-1.2366 -1.58338,-1.0484 -0.21851,0.1882 0.43367,0.7964 0.81018,1.0484 z"
       fill="#946c45"
       id="path25" />
    <path
       d="M 31.66267,9.30414 C 31.56518,8.61191 30.54657,8.75641 29.8103,8.45397 29.0775,8.15154 26.8419,9.54945 26.8419,9.54945 c 0,0 0.5547,1.11565 1.6069,1.08205 1.0523,-0.0336 1.53636,-0.83675 2.06079,-0.76954 0.52443,0.07057 1.25729,0.17474 1.15308,-0.55782 z"
       fill="#946c45"
       id="path26" />
    <path
       d="m 27.748,11.1662 0.2881,-0.1191 v -0.8903 c 0,-0.1475 0.0981,-0.24957 0.2146,-0.22689 l 0.4107,0.07369 c 0.0665,0.023 0.1233,0.0652 0.1619,0.1204 0.0387,0.0551 0.0571,0.1203 0.0526,0.1859 v 0.8904 l 0.2881,0.2211 c 0.0344,0.0275 0.062,0.0615 0.081,0.0996 0.0191,0.0381 0.0291,0.0796 0.0294,0.1216 v 1.0605 c 0.0029,0.026 -6e-4,0.0523 -0.01,0.0769 -0.0095,0.0246 -0.0247,0.0469 -0.0447,0.0654 -0.02,0.0184 -0.0441,0.0326 -0.0707,0.0413 -0.0266,0.0088 -0.055,0.0119 -0.0831,0.0093 l -1.226,-0.2212 c -0.062,-0.0171 -0.1164,-0.0523 -0.155,-0.1004 -0.0387,-0.048 -0.0596,-0.1063 -0.0595,-0.1662 v -1.0605 c -0.0012,-0.0381 0.0098,-0.0756 0.0316,-0.1079 0.0218,-0.0323 0.0535,-0.0579 0.091,-0.0736 z"
       fill="#ffb800"
       id="path27" />
    <path
       d="m 36.10679,14.997 c -0.12438,0.4334 -0.0874,0.83 0.55469,0.6015 0.20843,-0.074 0.43367,-0.1681 0.64209,-0.2588 -0.0437,-0.4335 0.32609,-0.9308 0,-1.3307 -0.02353,-0.0235 -0.05042,-0.0638 -0.08068,-0.1008 -0.62864,0.1143 -1.75483,0.3629 -1.82206,0.6284 -0.08741,0.3696 0.83035,0.0302 0.70933,0.4604 z"
       fill="#e4af9a"
       id="path28" />
    <path
       d="m 33.34328,12.443 c 0.26558,0.0168 0.44375,-0.2689 0.31265,-0.5007 -0.38324,-0.6755 -0.79001,-1.7709 -1.42202,-1.4618 -0.85724,0.4167 -0.81354,1.3374 0,1.7104 0.36643,0.1681 0.7732,0.2319 1.10937,0.2521 z"
       fill="#946c45"
       id="path29" />
    <path
       d="m 22.9921,17.1266 c -0.3463,1.0384 0.0975,5.726 0.79,6.4183 0.6925,0.6922 0.6421,1.6297 0.4438,2.0229 -0.1984,0.3932 -0.4942,0.9375 -0.148,1.6298 0.3463,0.6922 0.158,2.1237 0.2757,2.9134 0.1177,0.7897 -0.5715,2.7152 -0.2286,3.3066 0.3463,0.5914 1.58,0.6418 2.1246,0.2453 0.5446,-0.3965 -0.4942,-2.9638 -0.5446,-3.9014 -0.1244,-2.3791 0.6757,-2.2951 0.4774,-3.7736 -0.1984,-1.482 -0.1412,-1.7508 -0.0269,-2.6379 0.1143,-0.8872 3.55,-4.1433 1.5262,-6.5695 -2.0237,-2.4228 -4.693,0.3394 -4.693,0.3394 z"
       fill="#c4996d"
       id="path30" />
    <path
       d="M 7.7336,7.29493 C 6.4931,7.03954 5.3971,8.14173 5.6224,9.38506 6.0291,11.6499 6.6275,14.8557 6.2443,15.5076 6.0729,15.8 5.8476,16.0654 5.619,16.2973 c -0.5648,0.5679 -0.7328,1.4248 -0.353,2.1271 0.3631,0.6754 0.7295,1.4953 0.7531,2.1036 0.0504,1.2332 0.2084,3.6527 -0.3396,4.7145 -0.5479,1.0619 -0.3899,1.9994 0,2.5438 0.39,0.5444 1.1296,-0.2453 1.7717,0 0.6421,0.2453 0.1479,-2.0733 0,-2.863 -0.148,-0.7897 0.79,-4.5902 0.8404,-5.9243 0.0504,-1.334 5.5805,-3.4645 3.95,-7.9774 C 11.3508,8.5517 9.3573,7.6276 7.7336,7.29493 Z"
       fill="#c4996d"
       id="path31" />
    <path
       d="m 22.6712,31.0779 13.37447,-6.4588 2.48735,1.3492 -13.37442,6.4588 z"
       fill="#d8dddc"
       id="path32" />
    <path
       d="m 22.6707,31.0791 v 9.7347 l 2.4873,1.3492 v -9.7348 z"
       fill="#cbcfce"
       id="path33" />
    <path
       d="M 38.53302,25.9678 25.1586,32.4266 v 9.7347 L 38.53302,35.691 Z"
       fill="#99a1a0"
       id="path34" />
    <path
       d="m 37.66925,27.9971 -8.97595,4.3343 v 6.534 l 8.97595,-4.342 z"
       fill="#535c5b"
       id="path35" />
    <path
       d="m 27.7029,32.8994 -1.5547,0.7498 v 1.1311 l 1.5547,-0.7524 z"
       fill="#d22e2e"
       id="path36" />
    <path
       d="m 27.7029,34.6836 -1.5547,0.7511 v 1.1298 l 1.5547,-0.7511 z"
       fill="#3a9e66"
       id="path37" />
    <path
       d="m 27.7029,36.4678 -1.5547,0.7498 v 1.1311 l 1.5547,-0.7511 z"
       fill="#3a9e66"
       id="path38" />
    <path
       d="m 27.7029,38.251 -1.5547,0.7498 v 1.1311 l 1.5547,-0.7511 z"
       fill="#3a9e66"
       id="path39" />
  </g>
</svg>
