<svg width="150" height="149" viewBox="0 0 150 149" fill="none" xmlns="http://www.w3.org/2000/svg">
    <path d="M145.727 101.815V108.329C145.727 110.378 144.712 112.416 142.695 113.587L85.2145 146.624C79.7257 149.792 72.9615 149.792 67.4728 146.624L7.03389 111.444C5.04749 110.294 4.04384 108.297 4.00201 106.29V99.6826L145.727 101.815Z" fill="url(#paint0_linear_3579_20126)"/>
    <path d="M142.695 107.074L85.2148 140.111C79.7261 143.278 72.9619 143.278 67.4731 140.111L7.03423 104.93C2.98824 102.588 2.98824 96.7547 7.03423 94.4128L64.5144 61.3758C70.0032 58.2081 76.7674 58.2081 82.2561 61.3758L142.695 96.5561C146.741 98.8979 146.741 104.732 142.695 107.074Z" fill="url(#paint1_linear_3579_20126)"/>
    <path d="M130.208 32.6316L74.3865 0.277548C73.729 -0.104211 72.9973 -0.0511888 72.4247 0.277548H72.4034L67.377 3.17255L71.4172 9.40795V54.5722C71.4172 57.2233 72.8276 59.6729 75.1288 60.9984L122.721 88.5805L127.737 96.3217L132.87 93.3737C133.474 93.045 133.92 92.4193 133.92 91.624V39.0473C133.92 36.3962 132.509 33.9466 130.208 32.621V32.6316Z" fill="#DFDAEF"/>
    <path d="M69.3179 3.18278L125.14 35.5369C127.43 36.8624 128.851 39.312 128.851 41.9631V94.5398C128.851 96.0669 127.197 97.0213 125.882 96.2577L70.0602 63.9037C67.7696 62.5781 66.3486 60.1285 66.3486 57.4774V4.9007C66.3486 3.37366 68.0029 2.41927 69.3179 3.18278Z" fill="url(#paint2_linear_3579_20126)"/>
    <path d="M103.324 54.1827C103.324 51.478 104.17 49.5262 105.531 48.5851C105.703 48.4665 105.878 48.3642 106.066 48.2782L107.971 47.1857C109.222 46.4533 110.853 46.5147 112.643 47.5499C116.572 49.8209 119.756 55.9094 119.756 61.151C119.756 63.9662 118.836 65.9629 117.381 66.859C117.303 66.9041 115.19 68.0989 115.19 68.0989C113.931 68.8804 112.267 68.8354 110.44 67.7797C109.725 67.3664 109.034 66.8263 108.384 66.188L105.347 61.9653C104.1 59.5348 103.328 56.7523 103.328 54.1745L103.324 54.1827Z" fill="url(#paint3_linear_3579_20126)"/>
    <path d="M104.752 60.7145C102.391 55.1604 103.022 49.5741 106.161 48.2372C109.299 46.9003 113.758 50.319 116.119 55.8731C118.48 61.4272 117.849 67.0135 114.71 68.3504C111.571 69.6874 107.113 66.2687 104.752 60.7145Z" fill="url(#paint4_linear_3579_20126)"/>
    <path d="M110.435 48.8014L104.394 49.7957C104.713 49.2924 105.097 48.8873 105.53 48.5845C105.702 48.4658 105.878 48.3635 106.066 48.2776L107.971 47.1851C109.213 46.4568 110.84 46.514 112.618 47.537L110.435 48.7973V48.8014Z" fill="url(#paint5_linear_3579_20126)"/>
    <path d="M104.394 49.7958C105.649 47.8277 107.885 47.3244 110.436 48.8015V58.2944L104.394 49.7958Z" fill="url(#paint6_linear_3579_20126)"/>
    <path d="M103.441 68.8574L117.619 77.044C118.223 77.3939 118.711 78.3271 118.711 79.1331C118.711 79.939 118.223 80.3101 117.619 79.9602L103.441 71.7736C102.836 71.4236 102.348 70.4905 102.348 69.6845C102.348 68.8786 102.836 68.5074 103.441 68.8574Z" fill="#2E3A59"/>
    <path d="M103.441 75.04L117.619 83.2266C118.223 83.5765 118.711 84.5097 118.711 85.3157C118.711 86.1216 118.223 86.4928 117.619 86.1428L103.441 77.9562C102.836 77.6063 102.348 76.6731 102.348 75.8671C102.348 75.0612 102.836 74.69 103.441 75.04Z" fill="#2E3A59"/>
    <path d="M133.92 39.0472C133.92 36.3961 132.509 33.9464 130.208 32.6209L74.3865 0.266806C73.729 -0.114953 72.9973 -0.061931 72.4247 0.266806H72.4034L67.377 3.16181L128.84 49.3334L133.909 46.4066V39.0472H133.92Z" fill="url(#paint7_linear_3579_20126)"/>
    <path d="M69.3179 3.18292L125.14 35.537C127.43 36.8625 128.851 39.3122 128.851 41.9633V49.3333L66.3486 13.1299V4.91144C66.3486 3.38441 68.0029 2.43001 69.3179 3.19353V3.18292Z" fill="url(#paint8_linear_3579_20126)"/>
    <path d="M124.917 41.8148C124.917 43.4691 123.91 44.2326 122.669 43.5221C121.428 42.801 120.421 40.8816 120.421 39.2167C120.421 37.5518 121.428 36.7989 122.669 37.5094C123.91 38.2199 124.917 40.1499 124.917 41.8148Z" fill="#FF7A85"/>
    <path d="M69.3421 68.0667C68.4135 69.0117 67.1152 69.5952 65.6935 69.5952C62.8585 69.5952 60.5576 67.2943 60.5576 64.4592C60.5576 63.0869 61.1 61.8378 61.9792 60.9175L66.3427 56.5704C66.392 56.5047 66.4496 56.4472 66.5071 56.3896L72.588 64.829L69.3503 68.0749L69.3421 68.0667Z" fill="url(#paint9_linear_3579_20126)"/>
    <path d="M62.4643 40.8088C62.4643 35.4017 64.1571 31.4984 66.8771 29.6165C67.2222 29.3782 67.5756 29.1728 67.9453 29.0002L71.7583 26.8226C74.2564 25.3599 77.5269 25.4831 81.1098 27.554C88.9739 32.09 95.3425 44.2683 95.3425 54.7538C95.3425 60.3828 93.5017 64.3765 90.5845 66.1679C90.4366 66.2583 86.1964 68.6496 86.1964 68.6496C83.6736 70.2109 80.3455 70.1288 76.6887 68.0169C75.2589 67.1869 73.8784 66.1104 72.5718 64.8367L66.4908 56.3973C63.9927 51.5326 62.4561 45.9776 62.4561 40.8252L62.4643 40.8088Z" fill="url(#paint10_linear_3579_20126)"/>
    <path d="M76.5738 60.8254L69.3177 53.5693L66.5977 56.2893C65.6774 57.2179 65.1104 58.4916 65.1104 59.905C65.1104 62.7401 67.4112 65.041 70.2463 65.041C71.5611 65.041 72.7608 64.5397 73.673 63.7261L76.5655 60.8336L76.5738 60.8254Z" fill="url(#paint11_linear_3579_20126)"/>
    <path d="M85.2549 69.1292C91.5399 66.455 92.8046 55.2853 88.0797 44.1812C83.3548 33.077 74.4296 26.2432 68.1446 28.9175C61.8596 31.5918 60.5949 42.7615 65.3198 53.8656C70.0447 64.9698 78.9699 71.8035 85.2549 69.1292Z" fill="url(#paint12_linear_3579_20126)"/>
    <path d="M86.5168 54.6952C86.5168 61.9266 82.1204 65.2465 76.6969 62.1156C71.2733 58.9848 66.877 50.5865 66.877 43.3551C66.877 36.1237 71.2733 32.8038 76.6969 35.9347C82.1204 39.0656 86.5168 47.4638 86.5168 54.6952Z" fill="url(#paint13_linear_3579_20126)"/>
    <path opacity="0.6" d="M76.6968 35.9359C82.1203 39.0667 86.5167 47.465 86.5167 54.6964C86.5167 57.9423 85.6292 60.3911 84.1583 61.8374L69.375 36.1084C71.1746 34.4567 73.7878 34.2595 76.6968 35.9441V35.9359Z" fill="url(#paint14_linear_3579_20126)"/>
    <path d="M82.946 99.9951L81.5906 110.975C81.2269 112.978 80.9412 114.401 78.9291 114.089L72.359 112.952H71.4588C71.1797 113.779 70.6763 114.513 70.0046 115.071C69.7713 115.236 69.5034 115.346 69.2213 115.391C65.0452 116.001 65.7245 110.742 65.7245 110.742L66.4457 108.671L68.4364 107.797L68.6097 107.723L70.557 108.307L76.9062 109.246C76.9062 109.246 76.4736 102.4 76.3979 102.11C76.3223 101.82 82.946 99.9951 82.946 99.9951Z" fill="#54371A"/>
    <path d="M70.0046 115.071C69.7713 115.236 69.5034 115.345 69.2214 115.391C65.0452 116 65.7245 110.742 65.7245 110.742L66.4468 108.67L68.4375 107.797C68.6075 107.895 68.7526 108.031 68.8616 108.195C69.3552 108.925 69.0175 109.894 68.8836 110.763C68.7171 111.884 68.9287 113.028 69.4851 114.016C69.7011 114.345 69.8756 114.699 70.0046 115.071Z" fill="#1A1A1A"/>
    <path d="M33.7193 60.8102C31.556 62.1523 29.4655 63.608 27.4564 65.1712C25.4728 66.7096 23.753 68.5602 22.3643 70.6506C21.0101 72.7625 20.1977 75.1754 19.9992 77.6757C19.7927 80.2001 20.1981 82.737 21.1811 85.0716L20.7565 85.264C19.6368 82.8794 19.1091 80.2601 19.2181 77.6283C19.3228 74.9703 20.0803 72.3788 21.424 70.0824C22.7942 67.8203 24.5238 65.7961 26.545 64.0894C28.5306 62.4088 30.6042 60.8348 32.757 59.374L33.7193 60.8102Z" fill="#754C24"/>
    <path d="M52.8866 104.164C51.1291 106.279 47.4855 101.223 47.4855 101.223L47.6713 100.362L47.7882 99.8349L46.6633 98.4856V96.6516L43.3652 84.7029C43.3782 84.1623 46.8101 85.222 48.2902 85.4122L49.9392 87.8901L50.4475 95.6313C50.4475 95.6313 50.7767 97.8496 51.3697 98.7914C51.8497 99.5612 52.4517 100.275 52.8945 100.98C53.5354 102.014 53.8302 103.027 52.8866 104.164Z" fill="#54371A"/>
    <path d="M48.9173 86.7613C48.9179 87.6122 48.7162 88.451 48.3288 89.2087C47.9859 89.8838 47.5209 90.4896 46.9571 90.9953C46.6607 91.2678 46.3405 91.5133 46.0005 91.729C46.034 92.1266 46.1259 92.5171 46.2732 92.888C46.3971 93.1309 46.4859 93.39 46.5369 93.6578C46.5572 93.7926 46.5356 93.9305 46.475 94.0527C46.4144 94.1749 46.3178 94.2756 46.1981 94.3411C46.0906 94.3781 45.9746 94.3831 45.8644 94.3554C45.7541 94.3278 45.6542 94.2687 45.5769 94.1854C45.4205 94.0194 45.314 93.8126 45.2697 93.5889C45.1841 93.1353 45.1376 92.6752 45.1308 92.2137C44.1991 92.6424 43.1947 92.8913 42.1704 92.9473C42.1328 93.4619 42.094 93.9766 42.0541 94.4913C42.0366 94.6859 41.9976 94.9196 41.8203 94.9991C41.7584 95.0209 41.6917 95.0252 41.6275 95.0115C41.5633 94.9977 41.5042 94.9665 41.4566 94.9213C41.3645 94.8295 41.2961 94.7168 41.2573 94.5928C41.0926 94.0612 41.0225 93.5048 41.05 92.949C39.8926 92.8716 38.7651 92.5473 37.7435 91.9981C37.5961 92.4496 37.4493 92.9101 37.3019 93.3643C37.224 93.6025 37.1116 93.879 36.8693 93.9354C36.7398 93.948 36.6103 93.9119 36.5059 93.8343C36.4015 93.7567 36.3298 93.6431 36.3046 93.5156C36.2642 93.2573 36.2804 92.9933 36.352 92.7419C36.4364 92.3031 36.4713 91.8562 36.4559 91.4096C36.4514 91.3018 36.4345 91.1889 36.4254 91.071C35.7959 90.5402 35.2878 89.8806 34.9354 89.1367C34.583 88.3928 34.3946 87.582 34.3828 86.7591C34.4031 85.8142 34.6504 84.888 35.1039 84.0586C35.5574 83.2293 36.2037 82.521 36.9885 81.9935C38.214 81.1321 39.6596 80.6371 41.1562 80.5663C41.316 80.5533 41.4849 80.5488 41.6492 80.5488C45.665 80.5511 48.9173 83.332 48.9173 86.7613Z" fill="#FFB294"/>
    <path d="M91.1897 91.7338L84.0419 96.163L82.9452 100.97L77.4007 104.923C75.5341 105.633 73.5379 105.939 71.5442 105.82C69.5504 105.702 67.6046 105.161 65.8356 104.235L56.0324 99.1183C54.7112 98.4246 53.5025 97.5352 52.4475 96.4802L46.9561 90.9928L40.9801 85.0297L36.9863 81.9988L36.3968 81.5474L29.2942 76.1661L27.7812 65.7653L29.4986 60.7091C29.6876 60.1508 30.024 59.6538 30.4722 59.2707C30.6911 59.0714 30.9385 58.9059 31.2063 58.7797L37.6205 55.7409C38.2054 55.4682 38.857 55.3712 39.496 55.4616L46.7652 56.4892C47.4405 56.5832 48.0865 56.8258 48.6565 57.1996L53.6414 60.4574L70.433 67.5846C70.989 67.8239 71.4946 68.1661 71.9234 68.5931L78.2088 74.8439L84.056 74.6775L84.6157 74.6622L86.756 74.6092C87.4036 74.5904 88.0348 74.8141 88.5259 75.2364C89.0169 75.6587 89.3323 76.2491 89.4102 76.8918L89.6299 78.7591L90.6961 87.6927L90.8322 88.7587L91.1897 91.7338Z" fill="#754C24"/>
    <path d="M20.5911 86.6417C20.9441 87.2896 21.3504 87.907 21.8059 88.4876C22.2632 89.0739 22.5205 89.7912 22.54 90.5343C22.9941 89.3083 23.0338 87.9674 22.653 86.7168C22.4079 85.9216 21.7206 84.3263 20.8752 83.9866C20.2472 83.7344 20.2687 84.2095 20.245 84.8833C20.2221 85.4884 20.3406 86.0904 20.5911 86.6417Z" fill="#54371A"/>
    <path d="M91.1873 91.7305L85.3141 95.3748C84.9114 95.6248 84.5623 95.952 84.2871 96.3376C84.0118 96.7232 83.8157 97.1596 83.7103 97.6214L83.5408 98.355C83.1553 100.041 82.164 101.527 80.755 102.531L77.3943 104.925C74.9399 105.859 72.2728 106.089 69.6948 105.587L69.3271 104.684L71.6713 103.83C73.1054 103.309 74.3752 102.416 75.3516 101.244C76.328 100.072 76.9759 98.6619 77.2294 97.1581C77.3645 96.357 77.6647 95.5928 78.111 94.9139C78.5574 94.2349 79.14 93.6561 79.8221 93.2141L82.9422 91.191L86.7468 86.2178L90.6999 87.6884L91.1873 91.7305Z" fill="#C7B299"/>
    <g style="mix-blend-mode:multiply" opacity="0.5">
        <path d="M91.1904 91.734L84.0426 96.1633L82.9459 100.97L77.4014 104.923C75.5349 105.633 73.5387 105.939 71.5449 105.821C69.5512 105.702 67.6054 105.162 65.8363 104.235L56.0331 99.1186C54.7119 98.4249 53.5033 97.5354 52.4482 96.4804L46.9568 90.9931L40.9808 85.03L36.987 81.9991L36.3975 81.5476L39.2488 77.6223C39.8994 78.6725 40.5347 79.6476 41.1548 80.5697C43.2108 83.7111 45.6169 86.6093 48.3268 89.2087C53.0469 93.6307 58.0967 96.0369 65.6861 99.9493L70.2169 99.3674C71.4396 99.2112 72.5916 98.7071 73.5356 97.9151C74.4797 97.1231 75.1761 96.0766 75.5418 94.9004L75.8518 93.9179C76.0097 93.4143 76.2718 92.9495 76.6211 92.5536C76.9703 92.1578 77.399 91.8397 77.8792 91.62C78.5659 91.3052 79.1414 90.7903 79.5301 90.1429C79.9188 89.4954 80.1026 88.7457 80.0573 87.9921C79.4299 87.0395 78.2649 86.5937 77.1456 86.3821C75.5056 86.0015 73.9051 85.4676 72.3652 84.7873C69.899 83.4116 69.0067 82.6181 71.3667 79.5799C73.6584 76.6246 74.6947 77.2662 78.9307 76.8814C80.0274 76.7832 82.4625 75.4982 84.6187 74.6591C86.2677 74.0169 87.7501 73.6315 88.3323 74.2359C88.8271 74.7759 89.2037 75.4131 89.4381 76.1067C89.6726 76.8004 89.7597 77.5353 89.6939 78.2645C89.6787 78.431 89.6634 78.5895 89.6335 78.756C89.4079 79.9124 88.9223 81.0024 88.2134 81.9438C87.5045 82.8852 86.5909 83.6534 85.5414 84.1903C84.9838 84.488 84.3987 84.731 83.7942 84.916L90.8358 88.7533L91.1904 91.734Z" fill="#54371A"/>
    </g>
    <path d="M44.2295 78.8642L39.4948 84.5942C38.3654 85.9642 36.9407 87.0613 35.3271 87.8034L31.2458 89.6758L29.3257 97.3505C29.2189 97.7846 29.2006 98.2358 29.272 98.6771C29.3434 99.1184 29.503 99.5408 29.7414 99.9192C30.0808 100.443 30.3761 100.994 30.624 101.567C31.1521 102.817 31.3729 104.184 30.3818 104.97C28.2268 106.683 24.9807 102.036 24.9807 102.036L25.21 100.985L25.2834 100.646L24.5391 99.4045L25.2405 97.2985L25.4827 87.8018C25.4826 87.4799 25.5668 87.1636 25.727 86.8844C25.8872 86.6052 26.1178 86.3729 26.3959 86.2104C28.9451 84.8047 28.6983 80.2248 29.2997 76.1595L29.9492 68.8076L44.2295 78.8642Z" fill="#754C24"/>
    <path d="M78.4188 130.437C75.3896 132.888 72.719 129.281 72.719 129.281V127.701L71.9283 126.979V125.03L70.054 116.814C69.295 115.65 68.6877 114.394 68.2469 113.077C67.8487 111.503 68.0306 108.597 68.0306 108.597L63.9922 99.299V94.6152L72.7173 98.2912L72.5744 108.454C73.1617 109.492 73.599 110.607 73.8733 111.767C73.9461 113.024 73.8502 114.285 73.5881 115.516L76.1802 125.173C76.9247 125.849 77.5911 126.606 78.1669 127.43C78.8875 128.499 79.3224 129.705 78.4188 130.437Z" fill="#754C24"/>
    <path d="M30.3806 104.973C28.2256 106.686 24.9795 102.039 24.9795 102.039L25.2088 100.987C25.5335 101.182 25.8407 101.489 26.0875 101.664C26.6748 102.085 27.2985 102.453 27.9511 102.763C28.3266 102.96 28.7364 103.083 29.1585 103.126C29.369 103.145 29.581 103.114 29.7772 103.035C29.9735 102.957 30.1484 102.833 30.288 102.675C30.4898 102.34 30.6062 101.962 30.6268 101.572C31.1509 102.82 31.3717 104.186 30.3806 104.973Z" fill="#1A1A1A"/>
    <path d="M52.8864 104.164C51.129 106.28 47.4854 101.224 47.4854 101.224L47.6712 100.363C48.0203 100.625 48.3502 100.911 48.6583 101.219C49.1368 101.594 49.7051 101.837 50.3067 101.925C50.7789 101.946 51.2506 101.874 51.6946 101.712C52.1386 101.55 52.5462 101.302 52.8938 100.982C53.5353 102.015 53.8301 103.027 52.8864 104.164Z" fill="#1A1A1A"/>
    <path d="M78.4186 130.437C75.3894 132.889 72.7188 129.282 72.7188 129.282V128.192C72.7492 128.201 72.7837 128.205 72.8227 128.214C73.4371 128.331 74.0476 128.811 74.6863 128.962C75.1424 129.096 75.6222 129.13 76.0928 129.062C76.5634 128.994 77.0136 128.825 77.4128 128.567C77.7875 128.285 78.0547 127.884 78.1701 127.43C78.8873 128.499 79.3221 129.706 78.4186 130.437Z" fill="#1A1A1A"/>
    <g style="mix-blend-mode:screen" opacity="0.1">
        <path d="M84.054 74.679C83.9274 75.2661 83.6239 75.8004 83.1843 76.21C82.515 76.7861 81.7525 77.2441 80.9293 77.5643C78.4841 78.6715 76.0369 79.7802 73.5878 80.8904C72.7582 81.3668 71.8075 81.5908 70.8523 81.5348C69.3812 81.2967 68.4895 79.8419 67.5204 78.7065C65.179 75.9555 61.5868 74.6435 58.099 73.6937C54.6112 72.744 50.971 72.0115 47.9457 70.0398C45.5134 68.4479 43.6131 66.1387 41.1808 64.5389C38.7485 62.9391 35.3426 62.1993 33.0233 63.9594C32.205 64.5801 31.2528 65.5287 30.3442 65.0536C29.7038 64.715 29.5824 63.8555 29.61 63.1287C29.6648 61.8023 29.9549 60.4961 30.4667 59.2711C30.689 59.0741 30.9381 58.9096 31.2065 58.7824L37.6207 55.7464C38.2038 55.4698 38.8555 55.3707 39.4945 55.4614L46.7615 56.4907C47.4378 56.5872 48.0847 56.8307 48.6567 57.204L53.6382 60.4607L70.4305 67.5873C70.987 67.8248 71.4936 68.1652 71.9236 68.5907L78.2074 74.8399L84.054 74.679Z" fill="#C7B299"/>
    </g>
    <path d="M91.2853 71.3064C92.028 70.4363 92.8361 69.5232 93.9362 69.2083C95.3627 68.8003 96.8457 69.5046 98.1621 70.1891C98.657 70.3716 99.0604 70.741 99.2853 71.2178C99.496 71.895 98.9555 72.5581 98.4574 73.0654C97.8627 73.8699 97.0537 74.4911 96.1227 74.8583C95.1916 75.2255 94.1761 75.3238 93.1918 75.1421C92.4515 75.1099 89.1134 75.4129 88.87 74.6342C88.6017 73.7725 90.829 71.8403 91.2853 71.3064Z" fill="#87582A"/>
    <g style="mix-blend-mode:multiply" opacity="0.5">
        <path d="M92.4544 72.4482C92.9971 71.7013 93.6924 71.0783 94.4942 70.6204C94.9386 70.4119 95.424 70.3054 95.9149 70.3087C96.4058 70.3119 96.8898 70.4247 97.3314 70.639C97.5951 70.7366 97.8222 70.913 97.9819 71.1443C98.1416 71.3755 98.226 71.6503 98.2237 71.9313C98.1134 72.31 97.8736 72.6382 97.546 72.8584C97.0374 73.4152 96.4016 73.8408 95.6928 74.0991C94.9841 74.3573 94.2233 74.4404 93.4755 74.3414C93.07 74.3341 91.413 74.5254 91.2521 74.1434C91.0912 73.7613 92.2093 72.6931 92.4544 72.4482Z" fill="#54371A"/>
    </g>
    <path d="M94.8631 75.023L95.4061 74.8013V73.144C95.4061 72.8695 95.5909 72.6795 95.8104 72.7217L96.5845 72.8589C96.7099 72.9017 96.817 72.9803 96.8898 73.0829C96.9626 73.1856 96.9973 73.3069 96.9889 73.429V75.0864L97.5319 75.4981C97.5966 75.5492 97.6487 75.6124 97.6846 75.6834C97.7204 75.7544 97.7393 75.8316 97.7399 75.9098V77.8839C97.7453 77.9322 97.7388 77.9811 97.721 78.0269C97.7032 78.0727 97.6744 78.1143 97.6368 78.1486C97.5992 78.183 97.5537 78.2093 97.5035 78.2256C97.4534 78.2419 97.3999 78.2478 97.347 78.2428L95.0364 77.8311C94.9195 77.7992 94.8169 77.7337 94.7441 77.6443C94.6712 77.5549 94.6319 77.4464 94.632 77.3349V75.3608C94.6297 75.29 94.6504 75.2201 94.6915 75.16C94.7327 75.0998 94.7923 75.0522 94.8631 75.023Z" fill="#FFB800"/>
    <path d="M100.432 95.9736C99.3897 96.6608 98.1716 97.0345 96.9226 97.0503H96.83C96.2579 97.0728 95.6899 96.9463 95.1815 96.6832C94.6731 96.4202 94.2419 96.0296 93.9301 95.5498L92.8481 92.9771L87.3087 92.2243C86.1931 92.0727 85.1315 91.651 84.2162 90.996C83.3009 90.341 82.5596 89.4725 82.0567 88.466L79.6504 83.657L78.9365 78.1087L85.9172 73.3684C86.3467 73.0743 86.8552 72.917 87.3759 72.917H91.7553C92.1228 72.9163 92.4861 72.9938 92.8212 73.1445C93.1563 73.2951 93.4554 73.5153 93.6986 73.7905L95.3041 75.5935C95.6321 75.9638 95.8476 76.42 95.9253 76.9084L96.3839 79.7626L100.422 86.6128L101.382 87.5721L102.368 88.558C102.451 88.7437 102.529 88.9214 102.611 89.0941C104.115 92.4495 104.769 93.1887 100.432 95.9736Z" fill="#87582A"/>
    <path d="M75.7202 78.0557C74.8368 78.0727 73.9664 78.2719 73.1637 78.6409C72.0907 79.2278 71.4576 80.3587 70.8777 81.4325C70.5123 82.1097 70.1384 82.9093 70.4457 83.6147C70.7529 84.3201 71.6084 84.5955 72.3618 84.7851C73.5199 85.1185 74.7096 85.3305 75.9117 85.4177C77.122 85.5021 78.3285 85.2061 79.3622 84.5712C80.2914 83.8735 81.0404 82.9642 81.5471 81.919C81.9947 81.2065 82.2727 80.4008 82.3598 79.5641C82.4162 78.2662 81.8069 77.5529 80.5854 77.6319C78.9623 77.7357 77.3404 77.9141 75.7202 78.0557Z" fill="#87582A"/>
    <g style="mix-blend-mode:multiply" opacity="0.5">
        <path d="M75.7175 84.5206C76.8927 84.6109 78.2023 84.5003 79.0325 83.6679C79.8863 82.8141 79.9767 81.4823 80.0157 80.2758C80.0535 80.038 79.9963 79.7948 79.8564 79.5987C79.6965 79.4657 79.4941 79.3944 79.2861 79.3978C77.4287 79.2424 75.5663 79.6296 73.9251 80.5123C72.812 81.1076 69.9878 82.7808 72.1784 83.7554C73.3073 84.2053 74.5034 84.4639 75.7175 84.5206Z" fill="#54371A"/>
    </g>
    <path d="M100.432 95.9734C99.3897 96.6606 98.1716 97.0343 96.9226 97.0501H96.83C96.2579 97.0725 95.6899 96.946 95.1815 96.683C94.6731 96.4199 94.2419 96.0294 93.9301 95.5496L92.8481 92.9769C93.5885 92.3364 94.5796 92.1936 95.0426 91.3161C95.9773 89.521 95.3628 87.428 94.5101 85.7413C93.6028 84.0667 92.5544 82.4724 91.3764 80.9757C91.2945 80.8673 91.212 80.755 91.1302 80.6427C90.6885 80.0502 88.8921 79.7861 88.7368 79.0627C88.5815 78.3392 90.9308 76.7146 91.5842 76.3686C92.3505 75.9578 92.5714 76.8489 93.0604 77.5622C93.4839 78.3203 93.7792 79.143 93.9346 79.9972C94.5699 82.2475 95.8867 84.2461 97.7042 85.7187C99.1725 86.9038 99.6904 87.3705 100.712 87.7299C100.828 87.7516 100.948 87.749 101.064 87.7222C101.179 87.6954 101.288 87.645 101.383 87.5742L102.369 88.56C102.452 88.7457 102.53 88.9234 102.612 89.0961C102.737 89.3783 102.858 89.6367 102.967 89.8862C103.118 90.2191 103.257 90.5261 103.369 90.8071C104.181 92.8211 103.916 93.7376 100.432 95.9734Z" fill="#C7B299"/>
    <path d="M96.4915 94.0805C96.4119 94.0132 96.3095 93.9791 96.2054 93.9852C96.1013 93.9914 96.0036 94.0373 95.9325 94.1134C95.8613 94.1896 95.8222 94.2902 95.8233 94.3943C95.8243 94.4985 95.8654 94.5983 95.938 94.673C96.0314 94.7421 96.1383 94.7907 96.2518 94.8157C96.3653 94.8407 96.4827 94.8415 96.5965 94.818L98.8233 94.6668C98.9396 94.6589 99.0768 94.6386 99.1305 94.5347C99.2259 94.3502 98.9611 94.1911 98.7595 94.1516C97.9785 94.0007 97.1814 93.9498 96.3876 94.0003L96.4915 94.0805Z" fill="#1A1A1A"/>
    <path d="M103.366 90.8057C103.366 90.8248 103.363 90.8438 103.357 90.8622C103.245 91.3068 103.07 91.7332 102.838 92.129C102.752 92.2938 102.57 92.4885 102.418 92.3801C102.323 92.3107 102.327 92.168 102.345 92.0512C102.423 91.5433 102.514 90.339 102.886 89.9542C102.91 89.9287 102.936 89.9055 102.964 89.8848C103.115 90.2177 103.254 90.5247 103.366 90.8057Z" fill="#1A1A1A"/>
    <path d="M36.6611 11.9088L45.1022 0L53.5434 21.6542L49.4925 19.3212V30.721L40.7014 25.6415V14.2417L36.6611 11.9088Z" fill="url(#paint15_linear_3579_20126)"/>
    <defs>
        <linearGradient id="paint0_linear_3579_20126" x1="85.4863" y1="124.345" x2="69.5324" y2="124.345" gradientUnits="userSpaceOnUse">
            <stop stop-color="#A996EB"/>
            <stop offset="0.44" stop-color="#B6A7EB"/>
            <stop offset="1" stop-color="#C5BAEB"/>
        </linearGradient>
        <linearGradient id="paint1_linear_3579_20126" x1="113.809" y1="74.5279" x2="24.9328" y2="134.34" gradientUnits="userSpaceOnUse">
            <stop stop-color="#DFDAEF"/>
            <stop offset="1" stop-color="#F2EFFA"/>
        </linearGradient>
        <linearGradient id="paint2_linear_3579_20126" x1="97.5998" y1="82.5887" x2="97.5998" y2="9.64088" gradientUnits="userSpaceOnUse">
            <stop stop-color="#F2EFFA"/>
            <stop offset="1" stop-color="white"/>
        </linearGradient>
        <linearGradient id="paint3_linear_3579_20126" x1="116.907" y1="66.9532" x2="108.49" y2="52.3856" gradientUnits="userSpaceOnUse">
            <stop stop-color="#236568"/>
            <stop offset="0.13" stop-color="#367B7B"/>
            <stop offset="0.53" stop-color="#6CBAB0"/>
            <stop offset="0.82" stop-color="#8EE1D2"/>
            <stop offset="0.97" stop-color="#9BF0DF"/>
        </linearGradient>
        <linearGradient id="paint4_linear_3579_20126" x1="110.437" y1="78.6198" x2="110.437" y2="54.5887" gradientUnits="userSpaceOnUse">
            <stop offset="0.03" stop-color="#2F878A"/>
            <stop offset="0.26" stop-color="#279590"/>
            <stop offset="0.7" stop-color="#14BCA1"/>
            <stop offset="1" stop-color="#06DAAE"/>
        </linearGradient>
        <linearGradient id="paint5_linear_3579_20126" x1="108.759" y1="49.1123" x2="106.647" y2="45.4479" gradientUnits="userSpaceOnUse">
            <stop offset="0.03" stop-color="#FF959D"/>
            <stop offset="0.22" stop-color="#F3868E"/>
            <stop offset="0.59" stop-color="#D35F68"/>
            <stop offset="1" stop-color="#AB2C37"/>
        </linearGradient>
        <linearGradient id="paint6_linear_3579_20126" x1="107.415" y1="56.6455" x2="107.415" y2="43.6704" gradientUnits="userSpaceOnUse">
            <stop stop-color="#FF4757"/>
            <stop offset="0.64" stop-color="#FF6B77"/>
            <stop offset="1" stop-color="#FF7A85"/>
        </linearGradient>
        <linearGradient id="paint7_linear_3579_20126" x1="118.034" y1="50.2242" x2="113.379" y2="42.1755" gradientUnits="userSpaceOnUse">
            <stop stop-color="#0072BC"/>
            <stop offset="1" stop-color="#C9EDFF"/>
        </linearGradient>
        <linearGradient id="paint8_linear_3579_20126" x1="97.5998" y1="41.1998" x2="97.5998" y2="15.5901" gradientUnits="userSpaceOnUse">
            <stop stop-color="#2F97F7"/>
            <stop offset="1" stop-color="#79D3FE"/>
        </linearGradient>
        <linearGradient id="paint9_linear_3579_20126" x1="69.5722" y1="67.245" x2="63.2776" y2="61.2955" gradientUnits="userSpaceOnUse">
            <stop stop-color="#43386B"/>
            <stop offset="0.17" stop-color="#4E4279"/>
            <stop offset="0.49" stop-color="#6D5FA0"/>
            <stop offset="0.92" stop-color="#9F8DDF"/>
            <stop offset="1" stop-color="#A996EB"/>
        </linearGradient>
        <linearGradient id="paint10_linear_3579_20126" x1="86.3114" y1="60.5636" x2="69.482" y2="31.4162" gradientUnits="userSpaceOnUse">
            <stop offset="0.03" stop-color="#43386B"/>
            <stop offset="0.08" stop-color="#4C3F7A"/>
            <stop offset="0.22" stop-color="#63529E"/>
            <stop offset="0.33" stop-color="#705DB4"/>
            <stop offset="0.4" stop-color="#7662BD"/>
            <stop offset="0.57" stop-color="#735FB8"/>
            <stop offset="0.75" stop-color="#6B59AC"/>
            <stop offset="0.94" stop-color="#5E4E97"/>
            <stop offset="1" stop-color="#594A8E"/>
        </linearGradient>
        <linearGradient id="paint11_linear_3579_20126" x1="72.1281" y1="62.888" x2="68.1344" y2="57.8096" gradientUnits="userSpaceOnUse">
            <stop stop-color="#C5BAEB"/>
            <stop offset="0.35" stop-color="#D7D1EB"/>
            <stop offset="1" stop-color="#F2EFFA"/>
        </linearGradient>
        <linearGradient id="paint12_linear_3579_20126" x1="76.707" y1="74.4875" x2="76.707" y2="22.594" gradientUnits="userSpaceOnUse">
            <stop offset="0.03" stop-color="#43386B"/>
            <stop offset="0.19" stop-color="#4E4279"/>
            <stop offset="0.5" stop-color="#6D5FA0"/>
            <stop offset="0.93" stop-color="#9F8DDF"/>
            <stop offset="1" stop-color="#A996EB"/>
        </linearGradient>
        <linearGradient id="paint13_linear_3579_20126" x1="76.6969" y1="61.9759" x2="76.6969" y2="20.7488" gradientUnits="userSpaceOnUse">
            <stop stop-color="#C5BAEB"/>
            <stop offset="1" stop-color="white"/>
        </linearGradient>
        <linearGradient id="paint14_linear_3579_20126" x1="69.8187" y1="51.582" x2="86.0154" y2="45.0655" gradientUnits="userSpaceOnUse">
            <stop stop-color="white"/>
            <stop offset="1" stop-color="white" stop-opacity="0"/>
        </linearGradient>
        <linearGradient id="paint15_linear_3579_20126" x1="45.0916" y1="38.1865" x2="45.0916" y2="7.66699" gradientUnits="userSpaceOnUse">
            <stop offset="0.03" stop-color="#2F878A"/>
            <stop offset="0.26" stop-color="#279590"/>
            <stop offset="0.7" stop-color="#14BCA1"/>
            <stop offset="1" stop-color="#06DAAE"/>
        </linearGradient>
    </defs>
</svg>
